<svg id="Layer_1" data-name="Layer 1" xmlns="http://www.w3.org/2000/svg" viewBox="0 0 125.6 26.8"><defs><style>.cls-1{isolation:isolate;}.cls-2{fill:#808181;}.cls-3{fill:#010101;}</style></defs><g class="cls-1"><path class="cls-2" d="M8.7,12.5c-.1-.1-.2-.2-.2-.3a2.77,2.77,0,0,1,.5-.9,23.25,23.25,0,0,0,4.8.3h3.5a62.82,62.82,0,0,0,1.4-7.9H16.1a7.33,7.33,0,0,0-2.2.4,6.29,6.29,0,0,1-2-1.3c-.1-.1-.2-.2-.2-.3a2.51,2.51,0,0,1,.5-.8A14.64,14.64,0,0,0,16,2h9.8c.7,0,2-.1,2.6-.1.4,0,.7.2.7.8a53.47,53.47,0,0,1-1.7,9.1h.5c2.1,0,4.3-.2,4.7-.2s.5.1.5.4a16.76,16.76,0,0,1-.3,1.8c-1.3-.1-2.8-.1-4.2-.1H14.2a8.43,8.43,0,0,0-3,.6C10.3,13.6,9.4,13.1,8.7,12.5ZM12,24.9c3.1-1.8,6.7-4.8,8.1-7,.4-.5-.4-1.1-1.4-1.5a9.22,9.22,0,0,0,.5-.8c.1-.1.1-.1.2-.1a8.33,8.33,0,0,1,3.3,1.2.91.91,0,0,1,.3.7.76.76,0,0,1-.2.5,6.07,6.07,0,0,1-.7,1c2.5,1.7,5.1,3.4,7.8,5.2a.35.35,0,0,1,.1.5,5.34,5.34,0,0,1-1.6,1.3c-2.4-1.8-4.8-3.7-7.3-5.6A26.57,26.57,0,0,1,13.4,26a.9.9,0,0,1-.5.1A9.38,9.38,0,0,1,12,24.9ZM25.6,11.6a60.74,60.74,0,0,0,1.2-7.9H21.1a50.59,50.59,0,0,1-1.9,7.9Z" transform="translate(-2.5 0)"/><path class="cls-2" d="M35.1,21.9a1.58,1.58,0,0,1,1.7-1.7,1.7,1.7,0,1,1,0,3.4A1.69,1.69,0,0,1,35.1,21.9Z" transform="translate(-2.5 0)"/></g><g class="cls-1"><path class="cls-3" d="M48,19c-.1-.1-.2-.2-.2-.3a1.77,1.77,0,0,1,.5-.8,23.25,23.25,0,0,0,4.8.3h11a97.75,97.75,0,0,0,1.5-13H56a7.33,7.33,0,0,0-2.2.4,6.29,6.29,0,0,1-2-1.3c-.1-.1-.2-.2-.2-.3a2.51,2.51,0,0,1,.5-.8,14.64,14.64,0,0,0,3.8.3h9c.7,0,2-.1,2.6-.1.4,0,.7.2.7.8a79.86,79.86,0,0,1-2,14.2h1.1c2.1,0,4.3-.2,4.7-.2s.5.1.5.4a16.76,16.76,0,0,1-.3,1.8,15.68,15.68,0,0,0-4.3-.4H53.5a8.43,8.43,0,0,0-3,.6A8.21,8.21,0,0,1,48,19Z" transform="translate(-2.5 0)"/><path class="cls-3" d="M91.9,16a77.78,77.78,0,0,1-14.7,2c-1.1,0-1.5-.6-1.5-1.7V11.7c0-.8-.7-1-1.3-1.2,0-.2.2-1.2.6-1.2.7,0,2,.2,2.7.2h6.6v-4H78.6a4.77,4.77,0,0,0-2,.4,8.06,8.06,0,0,1-1.8-1.2c-.1-.1-.1-.1-.1-.2a6.31,6.31,0,0,1,.4-.9,17.74,17.74,0,0,0,3.3.2h4.3c.7,0,2.4-.1,3.1-.1a.63.63,0,0,1,.7.7V11c0,.3-.1.5-.4.5H77.9v4.7a72.62,72.62,0,0,0,14-1.8V2.6c0-.4-.1-.5-.5-.8a5,5,0,0,0-1.9-.7,3,3,0,0,1,.4-1,.37.37,0,0,1,.3-.1,14.49,14.49,0,0,1,3.5.7c.3.1.4.2.4.4V21.6c0,1.1-.2,3.1-.3,4a.55.55,0,0,1-.3.5,4.27,4.27,0,0,1-1.6,0Z" transform="translate(-2.5 0)"/><path class="cls-3" d="M98.5,19.1c-.1-.1-.2-.2-.2-.3a1.77,1.77,0,0,1,.5-.8,23.25,23.25,0,0,0,4.8.3h5.1V12.5c0-.7-.7-1-1.8-1.3a6.21,6.21,0,0,1,.3-1c.1-.1.2-.2.3-.2a17.75,17.75,0,0,1,3,.4c.3.1.4.2.4.4v7.4h6.8c2.1,0,4.3-.2,4.7-.2s.5.1.5.4a16.76,16.76,0,0,1-.3,1.8c-1.3-.1-2.8-.1-4.2-.1H104a8.43,8.43,0,0,0-3,.6A6.35,6.35,0,0,1,98.5,19.1Zm17-2.9a72.79,72.79,0,0,0,1.3-11.1H106.4a7.33,7.33,0,0,0-2.2.4,6.29,6.29,0,0,1-2-1.3c-.1-.1-.2-.2-.2-.3a2.51,2.51,0,0,1,.5-.8,14.64,14.64,0,0,0,3.8.3H116c.7,0,2-.1,2.6-.1.4,0,.7.2.7.8a58.81,58.81,0,0,1-1.8,12.2c-.1.2-.2.3-.4.3C116.7,16.3,115.8,16.3,115.5,16.2Z" transform="translate(-2.5 0)"/><path class="cls-3" d="M124.9,26.1a4.48,4.48,0,0,0,1.7-2.8h-.3a1.64,1.64,0,0,1-1.6-1.6,1.56,1.56,0,0,1,1.6-1.5c1.1,0,1.8.7,1.8,2a6.24,6.24,0,0,1-2.5,4.6Z" transform="translate(-2.5 0)"/></g><rect class="cls-3" y="7.8" width="35.9" height="2"/></svg>