<svg id="Layer_1" data-name="Layer 1" xmlns="http://www.w3.org/2000/svg" viewBox="0 0 242 230"><defs><style>.cls-1{font-size:11px;fill:#8c8c8c;font-family:RIDIBatang-KSCpc-EUC-H, RIDIBatang;}</style></defs><text class="cls-1" transform="matrix(0.87, -0.5, 0.5, 0.87, 62.12, 44.34)">자</text><text class="cls-1" transform="translate(71.19 39.16) rotate(-24.12)">신</text><text class="cls-1" transform="translate(80.33 35.07) rotate(-18.64)">이</text><text class="cls-1" transform="translate(89.87 31.97) rotate(-15.02)"> </text><text class="cls-1" transform="matrix(0.98, -0.2, 0.2, 0.98, 92.96, 31.02)">원</text><text class="cls-1" transform="matrix(1, -0.1, 0.1, 1, 103.1, 29)">하</text><text class="cls-1" transform="translate(113.49 28) rotate(0.35)">는</text><text class="cls-1" transform="translate(123.87 28.19) rotate(4.14)"> </text><text class="cls-1" transform="translate(127.11 28.31) rotate(7.85)">기</text><text class="cls-1" transform="translate(137.02 29.67) rotate(13.49)">호</text><text class="cls-1" transform="matrix(0.94, 0.33, -0.33, 0.94, 147.08, 32.08)">에</text><text class="cls-1" transform="matrix(0.92, 0.39, -0.39, 0.92, 157.03, 35.69)"> </text><text class="cls-1" transform="translate(160.05 36.85) rotate(26.83)">클</text><text class="cls-1" transform="matrix(0.84, 0.54, -0.54, 0.84, 169.26, 41.51)">릭</text></svg>