<?xml version="1.0" encoding="utf-8"?>
<!-- Generator: Adobe Illustrator 25.4.1, SVG Export Plug-In . SVG Version: 6.00 Build 0)  -->
<svg version="1.1" id="Layer_1" xmlns="http://www.w3.org/2000/svg" xmlns:xlink="http://www.w3.org/1999/xlink" x="0px" y="0px"
	 viewBox="0 0 242 230" style="enable-background:new 0 0 242 230;" xml:space="preserve">
<style type="text/css">
	.st0{enable-background:new    ;}
	.st1{fill:#8C8C8C;}
	.st2{fill:#FFFFFF;stroke:#010101;stroke-width:3;stroke-miterlimit:10;}
	.st3{fill:#010101;}
</style>
<g class="st0">
	<path class="st1" d="M59,44.9c-0.1,0-0.3-0.1-0.5-0.2c0.8-1.6,1.4-4.2,1.1-6.1l-1.8,1.1c-0.3,0.2-0.4,0.3-0.6,0.6
		c-0.3,0-0.6,0-0.9,0c0,0-0.1,0-0.1-0.1c0,0-0.1-0.3-0.1-0.4c0.4-0.2,0.8-0.4,1.2-0.6l1.8-1.1c0.2-0.1,0.6-0.4,0.8-0.5
		c0.2-0.1,0.3,0,0.4,0.2c0.2,0.7,0.3,1.6,0.2,2.6c1.2,0.3,1.9,0.5,3,0.8c0.1,0,0.1,0.1,0.1,0.2c0,0.2-0.1,0.5-0.2,0.7
		c-1.2-0.4-1.9-0.7-3-1c-0.2,1.4-0.7,2.9-1.2,3.7C59.2,44.9,59.1,44.9,59,44.9z M61.4,36c-0.1-0.1-0.2-0.1-0.3-0.2
		c-0.2,0-0.5,0-0.8,0.2c0-0.1-0.1-0.3-0.1-0.4c0-0.1,0-0.1,0.1-0.1c0.3-0.2,1-0.5,1.3-0.5c0.1,0,0.2,0,0.2,0.1l2,3.2l0.4-0.3
		c0.4-0.2,0.9-0.7,1-0.8c0.1-0.1,0.2-0.1,0.3,0c0.1,0.1,0.2,0.4,0.2,0.6l-1.6,1l2,3.2c0.2,0.4,0.6,1.1,0.8,1.4c0,0.1,0.1,0.2,0,0.2
		c-0.1,0.1-0.4,0.3-0.5,0.4L61.4,36z"/>
</g>
<g class="st0">
	<path class="st1" d="M67,38.2c0.6-1.3,1.3-4.2,1-4.9c-0.1-0.2-0.5-0.2-0.9-0.2c0-0.1,0-0.3,0.1-0.4c0,0,0-0.1,0.1-0.1
		c0.2-0.1,1.1-0.2,1.5-0.2c0.1,0,0.2,0.1,0.2,0.2c0.1,0.3,0.1,0.8,0,1.5c1.1,0.3,2.2,0.7,3.2,1c0.1,0,0.1,0.1,0.1,0.2
		c-0.1,0.2-0.2,0.5-0.3,0.7l-3.1-1.2c-0.2,1.3-0.7,2.8-1.1,3.5c0,0.1-0.1,0.1-0.2,0.1S67.1,38.3,67,38.2z M71.1,40.3l-0.8-1.6
		c-0.1-0.1-0.1-0.2-0.2-0.2c-0.1,0-0.4,0-0.6,0.1c-0.1-0.1-0.1-0.3-0.1-0.4c0-0.1,0-0.1,0.1-0.1c0.3-0.2,0.9-0.4,1.2-0.4
		c0.1,0,0.2,0,0.2,0.1l1,2.1l2.9-1.4c0.4-0.2,1.1-0.7,1.2-0.7c0.1-0.1,0.2-0.1,0.3,0c0.1,0.1,0.2,0.5,0.2,0.7L72,40.6
		C71.6,40.8,71.3,40.7,71.1,40.3z M71.4,30.7c-0.1-0.1-0.1-0.2-0.3-0.2c-0.2,0-0.5,0-0.8,0.1c0-0.1,0-0.3,0-0.4c0-0.1,0-0.1,0.1-0.1
		c0.3-0.1,1-0.4,1.4-0.4c0.1,0,0.2,0,0.2,0.1l2.4,5c0.2,0.4,0.5,1.1,0.6,1.5c0,0.1,0,0.2,0,0.2c-0.1,0.1-0.4,0.2-0.6,0.3L71.4,30.7z
		"/>
</g>
<g class="st0">
	<path class="st1" d="M76,32c-0.6-1.5,0.1-2.9,1.6-3.4c1.5-0.5,2.9,0.1,3.4,1.6s-0.1,2.9-1.6,3.4C77.9,34.1,76.5,33.5,76,32z
		 M80.1,30.5c-0.4-1.1-1.4-1.5-2.3-1.2c-0.9,0.4-1.4,1.3-1,2.4c0.4,1.1,1.4,1.5,2.3,1.2C80.1,32.5,80.5,31.6,80.1,30.5z M81.4,26.7
		c-0.1-0.2-0.1-0.2-0.3-0.2c-0.2,0-0.5-0.1-0.8,0c0-0.1,0-0.3,0-0.4c0-0.1,0-0.1,0.1-0.1c0.3-0.1,1.1-0.2,1.4-0.2
		c0.1,0,0.2,0,0.2,0.1l2.9,7.8c0.2,0.4,0.4,1.2,0.5,1.6c0,0.1,0,0.2,0,0.2c-0.1,0.1-0.4,0.2-0.6,0.2L81.4,26.7z"/>
</g>
<g class="st0">
	<path class="st1" d="M92.1,28.8L91.3,29c-0.6,0.2-0.9,0.4-1.2,0.5c-0.4,0-0.8-0.2-1.1-0.3c0,0-0.1-0.1-0.1-0.1
		c0-0.1,0.1-0.3,0.1-0.4c0.7,0,1.1-0.1,1.9-0.4c1-0.3,3.2-1,4.8-1.6c0.1,0.1,0.2,0.4,0.2,0.5c0,0.1,0,0.1-0.1,0.2
		c-1,0.4-2,0.8-3,1.1l0.1,0.3c0.1,0.3,0.2,0.9,0.2,1.2c0,0.1,0,0.1-0.1,0.2c-0.1,0.1-0.4,0.1-0.6,0.2L92.1,28.8z M89.6,25.9
		c-0.2-1,0.4-2.2,1.8-2.5c1.4-0.3,2.5,0.4,2.7,1.5c0.2,1-0.4,2.2-1.8,2.5C90.9,27.7,89.8,26.9,89.6,25.9z M93.2,25
		c-0.2-0.7-0.8-1.2-1.7-0.9c-0.9,0.2-1.2,0.9-1.1,1.6c0.2,0.7,0.8,1.2,1.7,0.9C93,26.4,93.4,25.7,93.2,25z M92.6,32.2l-0.2-0.7
		c0-0.2-0.1-0.2-0.2-0.3c-0.1-0.1-0.4-0.1-0.6-0.1c0-0.1,0-0.3,0-0.4c0-0.1,0.1-0.1,0.1-0.1c0.3-0.1,0.9-0.2,1.3-0.1
		c0.1,0,0.2,0.1,0.2,0.1l0.3,1.3l3.5-0.8c0.4-0.1,1.2-0.4,1.3-0.4c0.1,0,0.2,0,0.2,0.1c0,0.1,0.1,0.5,0,0.7l-5.2,1.2
		C92.9,32.8,92.7,32.6,92.6,32.2z M96.7,29l-2.2,0.5c-0.1-0.2-0.2-0.5-0.3-0.6c0-0.1,0-0.2,0.2-0.2c0.1,0,0.8-0.1,1.2-0.2l0.9-0.2
		l-1.3-5.5c0-0.2-0.1-0.2-0.3-0.3c-0.2-0.1-0.5-0.1-0.8-0.1c0-0.1,0-0.3,0.1-0.4c0-0.1,0.1-0.1,0.1-0.1c0.3-0.1,1.1-0.1,1.4-0.1
		c0.1,0,0.2,0,0.2,0.1l1.4,6.1c0.1,0.5,0.2,1.2,0.2,1.5c0,0.1,0,0.2-0.1,0.2C97.5,30,97.2,30,97,30.1L96.7,29z"/>
</g>
<g class="st0">
	<path class="st1" d="M98.9,23.6c-0.1,0-0.1-0.1-0.1-0.1c0-0.1,0.1-0.3,0.1-0.4c0.4,0.1,1,0,1.4-0.1l1.4-0.2l-0.1-0.9
		c0-0.3-0.2-0.4-0.6-0.4c0-0.1,0-0.3,0.1-0.4c0-0.1,0.1-0.1,0.1-0.1c0.2,0,0.8,0,1,0c0.1,0,0.2,0,0.2,0.1l0.2,1.5l1.1-0.2
		c0.3,0,1.1-0.2,1.2-0.2c0.1,0,0.2,0,0.2,0.1c0,0.1,0,0.5,0,0.7c-0.4,0-0.8,0.1-1.2,0.1l-3.3,0.4c-0.2,0-0.6,0.1-0.9,0.3
		C99.5,24,99.1,23.8,98.9,23.6z M100.3,26.6c-0.2-1.2,0.6-2.2,2-2.4c1.4-0.2,2.4,0.6,2.6,1.8s-0.6,2.2-2,2.4
		C101.5,28.5,100.5,27.8,100.3,26.6z M104.1,26.1c-0.1-0.8-0.7-1.3-1.6-1.1c-0.9,0.1-1.4,0.7-1.3,1.5c0.1,0.8,0.7,1.3,1.6,1.1
		C103.7,27.5,104.2,26.9,104.1,26.1z M105.9,21.1c0-0.2-0.1-0.2-0.2-0.3c-0.1-0.1-0.5-0.2-0.8-0.2c0-0.1,0.1-0.3,0.1-0.4
		c0-0.1,0.1-0.1,0.1-0.1c0.3,0,1.1,0,1.4,0.1c0.1,0,0.2,0.1,0.2,0.2l0.5,3.9l0.4-0.1c0.4-0.1,1.1-0.3,1.2-0.3c0.2,0,0.2,0,0.2,0.1
		c0,0.1,0,0.4,0,0.7l-1.8,0.2l0.5,3.7c0.1,0.5,0.1,1.2,0.1,1.6c0,0.1,0,0.2-0.1,0.2c-0.1,0-0.4,0.1-0.6,0.1L105.9,21.1z"/>
</g>
<g class="st0">
	<path class="st1" d="M109.9,25.3c0,0-0.1-0.1-0.1-0.1c0-0.1,0.1-0.3,0.2-0.4c0.7,0.1,1.1,0.1,2,0.1l5.7-0.2c0.8,0,1.7-0.2,1.9-0.2
		c0.2,0,0.2,0,0.2,0.1s-0.1,0.5-0.1,0.7c-0.5,0-1.1,0-1.7,0l-5.8,0.2c-0.4,0-0.8,0.1-1.2,0.3C110.6,25.8,110.2,25.6,109.9,25.3z
		 M112,23l-0.1-1.8c0-0.2,0-0.2-0.1-0.3c-0.1-0.1-0.3-0.2-0.6-0.2c0-0.1,0-0.3,0.1-0.4c0-0.1,0.1-0.1,0.1-0.1c0.3,0,1,0,1.3,0.1
		c0.1,0,0.2,0.1,0.2,0.2l0.1,2.4l3.7-0.1c0.3,0,1.1-0.1,1.2-0.1c0.1,0,0.2,0,0.2,0.1c0,0.1,0,0.5-0.1,0.7l-5.1,0.2
		C112.2,23.7,112,23.5,112,23z M112.3,28.9l0-1.4c0-0.2,0-0.2-0.1-0.3c-0.1-0.1-0.3-0.2-0.6-0.2c0-0.1,0-0.3,0.1-0.4
		c0-0.1,0.1-0.1,0.1-0.1c0.3,0,1,0,1.3,0.1c0.1,0,0.2,0.1,0.2,0.2l0.1,2l3.8-0.1c0.3,0,1.1-0.1,1.2-0.1c0.1,0,0.2,0,0.2,0.1
		c0,0.1,0,0.5-0.1,0.7l-5.3,0.2C112.6,29.7,112.4,29.4,112.3,28.9z"/>
</g>
<g class="st0">
	<path class="st1" d="M124.5,27c0-0.1-0.2-0.4-0.3-0.5c1.6-0.8,3.8-2.5,4.6-4.2l-2.3-0.2c-0.3,0-0.5,0-0.8,0.1
		c-0.3-0.1-0.5-0.4-0.7-0.6c0,0,0-0.1,0-0.1c0-0.1,0.1-0.3,0.2-0.4c0.4,0.1,0.9,0.2,1.3,0.2l2.3,0.2c0.3,0,0.7,0,1,0.1
		c0.2,0,0.3,0.2,0.2,0.5c-0.7,1.9-3.6,4.3-5.2,5C124.7,27.1,124.6,27,124.5,27z M131.7,21.3c0-0.2,0-0.2-0.2-0.3
		c-0.1-0.1-0.4-0.3-0.7-0.4c0-0.1,0.1-0.3,0.2-0.4c0-0.1,0.1-0.1,0.1-0.1c0.3,0,1.1,0.3,1.4,0.4c0.1,0.1,0.2,0.1,0.1,0.2l-0.8,8.2
		c0,0.5-0.2,1.2-0.3,1.6c0,0.1,0,0.2-0.1,0.2c-0.1,0-0.5,0-0.6-0.1L131.7,21.3z"/>
</g>
<g class="st0">
	<path class="st1" d="M133.7,28.5c0,0,0-0.1,0-0.1c0-0.1,0.2-0.2,0.3-0.3c0.6,0.2,1,0.3,1.9,0.5l2.4,0.5l0.2-1
		c-1.2-0.4-1.8-1.3-1.7-2.3c0.2-1,1.3-1.7,2.8-1.4s2.3,1.4,2.1,2.4c-0.2,0.9-1.1,1.5-2.4,1.4l-0.2,1l2.3,0.5
		c0.8,0.2,1.7,0.2,1.9,0.3c0.2,0,0.2,0.1,0.2,0.2c0,0.1-0.2,0.5-0.3,0.7c-0.5-0.1-1.1-0.3-1.7-0.4l-5.7-1.2c-0.4-0.1-0.8-0.1-1.3,0
		C134.2,29,133.9,28.8,133.7,28.5z M136,22.8c0-0.1-0.1-0.1,0-0.1c0-0.1,0.2-0.2,0.3-0.3c0.4,0.2,0.8,0.3,1.2,0.4l2,0.4l0.1-0.5
		c0.1-0.2-0.1-0.4-0.4-0.6c0-0.1,0.1-0.3,0.2-0.3c0,0,0.1,0,0.1,0c0.2,0,0.7,0.2,1,0.4c0.1,0.1,0.1,0.1,0.1,0.2l-0.2,1l1.8,0.4
		c0.3,0.1,1.1,0.1,1.2,0.2c0.1,0,0.2,0.1,0.2,0.2c0,0.1-0.2,0.5-0.3,0.7c-0.4-0.1-0.8-0.2-1.2-0.3l-4.2-0.9
		c-0.4-0.1-0.8-0.1-1.1-0.1C136.5,23.3,136.2,23,136,22.8z M140.8,26.6c0.1-0.6-0.4-1.3-1.4-1.5c-1-0.2-1.7,0.2-1.8,0.9
		c-0.1,0.6,0.4,1.3,1.4,1.5C140,27.6,140.7,27.2,140.8,26.6z"/>
</g>
<g class="st0">
	<path class="st1" d="M150.7,29.1l-1-0.3c-0.5,1.3-1.7,1.9-2.9,1.5c-1.3-0.4-1.9-1.6-1.4-3.2c0.5-1.6,1.7-2.2,3-1.8
		c1.2,0.4,1.8,1.5,1.5,2.8l1,0.3l0.6-2.1c0.1-0.2,0.1-0.3,0-0.4c-0.1-0.1-0.3-0.3-0.5-0.4c0.1-0.1,0.2-0.3,0.2-0.3c0,0,0.1,0,0.1,0
		c0.3,0.1,0.8,0.3,1.1,0.5c0.1,0.1,0.1,0.1,0.1,0.2l-2.2,7c-0.1,0.4-0.4,1.2-0.6,1.5c0,0.1-0.1,0.1-0.2,0.1c-0.1,0-0.4-0.1-0.6-0.2
		L150.7,29.1z M149,28.2c0.4-1.1-0.1-2-0.8-2.2s-1.6,0.2-2,1.4c-0.4,1.1,0.1,2,0.8,2.2C147.8,29.8,148.7,29.3,149,28.2z M153.5,26.3
		c0-0.2,0-0.2-0.1-0.4c-0.1-0.1-0.3-0.3-0.6-0.5c0.1-0.1,0.2-0.3,0.3-0.3c0,0,0.1,0,0.1,0c0.3,0.1,0.9,0.4,1.2,0.6
		c0.1,0.1,0.1,0.1,0.1,0.2l-2.5,7.9c-0.1,0.4-0.4,1.2-0.6,1.5c0,0.1-0.1,0.1-0.2,0.1c-0.1,0-0.4-0.1-0.6-0.2L153.5,26.3z"/>
</g>
<g class="st0">
	<path class="st1" d="M157.2,34.6c0,0,0-0.1,0-0.1c0-0.1,0.2-0.2,0.3-0.2c0.6,0.4,0.9,0.6,1.7,0.9l5.2,2.4c0.8,0.4,1.6,0.6,1.8,0.7
		c0.1,0.1,0.2,0.1,0.1,0.2c-0.1,0.1-0.3,0.5-0.4,0.6c-0.5-0.2-1-0.5-1.5-0.8l-5.3-2.4c-0.4-0.2-0.8-0.2-1.2-0.3
		C157.6,35.3,157.3,35,157.2,34.6z M160.3,32.9l1.1-2.5c0.1-0.3-0.1-0.5-0.4-0.7c0.1-0.1,0.2-0.4,0.4-0.3c0.2,0.1,0.8,0.5,1.1,0.6
		l3.4,1.6c0.3,0.1,1,0.4,1.1,0.4c0.1,0.1,0.2,0.1,0.1,0.2c-0.1,0.1-0.3,0.4-0.4,0.6l-4.5-2.1l-1.2,2.5l3.3,1.5
		c0.4,0.2,1.2,0.4,1.3,0.5c0.1,0.1,0.2,0.1,0.1,0.2c-0.1,0.1-0.3,0.4-0.4,0.6l-4.9-2.3C160.1,33.6,160.1,33.3,160.3,32.9z"/>
</g>
<g class="st0">
	<path class="st1" d="M175,40.5l-1.2-0.7L172,43c-0.2,0.4-0.7,1-0.9,1.3c-0.1,0.1-0.1,0.1-0.2,0.1c-0.1,0-0.4-0.2-0.5-0.3l1.8-3.1
		c-1.6-0.4-3.2-1.1-4.1-1.6c-0.4-0.2-0.4-0.5-0.2-0.9l0.9-1.6c0.2-0.3,0-0.5-0.2-0.7c0.1-0.1,0.3-0.4,0.4-0.3
		c0.2,0.1,0.6,0.5,0.9,0.6l1.8,1.1l0.8-1.4l-1.5-0.9c-0.3-0.2-0.5-0.2-0.8-0.3c-0.2-0.2-0.3-0.5-0.4-0.8c0,0,0-0.1,0-0.1
		c0,0,0.2-0.2,0.3-0.2c0.3,0.3,0.7,0.5,1.1,0.7l1,0.6c0.2,0.1,0.9,0.5,1.1,0.6c0.2,0.1,0.2,0.2,0.1,0.4l-1.4,2.3
		c-0.1,0.1-0.1,0.1-0.2,0.1l-2.4-1.4l-1,1.6c0.9,0.5,2.4,1.2,3.8,1.6l2.2-3.7c0.1-0.2,0.1-0.2,0-0.4c-0.1-0.1-0.2-0.3-0.4-0.5
		c0.1-0.1,0.2-0.2,0.3-0.2c0.1,0,0.1,0,0.1,0c0.3,0.2,0.7,0.5,0.9,0.8c0.1,0.1,0.1,0.2,0,0.2l-1.5,2.6l1.2,0.7l1.5-2.5
		c0.1-0.1,0.1-0.2,0-0.4c-0.1-0.2-0.2-0.4-0.5-0.6c0.1-0.1,0.2-0.2,0.3-0.3c0.1,0,0.1,0,0.1,0c0.3,0.2,0.8,0.6,1,0.9
		c0.1,0.1,0.1,0.2,0.1,0.2l-4.2,7.1c-0.2,0.4-0.7,1-0.9,1.3c-0.1,0.1-0.1,0.1-0.2,0.1c-0.1,0-0.4-0.2-0.6-0.3L175,40.5z"/>
</g>
<g class="st0">
	<path class="st1" d="M175.8,44.5c0,0,0-0.1,0-0.1c0-0.1,0.2-0.1,0.4-0.2c0.5,0.5,0.8,0.7,1.5,1.3l3.6,2.6c1.2-1.1,2.6-2.6,3.6-3.9
		l-3.2-2.3c-0.2-0.1-0.4-0.3-0.8-0.4c-0.2-0.3-0.3-0.6-0.3-0.9c0,0,0-0.1,0-0.1c0,0,0.2-0.1,0.4-0.2c0.3,0.3,0.7,0.6,1.2,1l2.9,2.2
		c0.2,0.2,0.7,0.4,0.9,0.6c0.1,0.1,0.2,0.2,0,0.4c-0.7,0.9-2.6,2.9-4,4.1l0.3,0.3c0.7,0.5,1.5,1,1.6,1c0.1,0.1,0.2,0.1,0.1,0.2
		c-0.1,0.1-0.4,0.4-0.5,0.5c-0.4-0.3-0.9-0.7-1.3-1.1l-4.7-3.4c-0.3-0.2-0.7-0.4-1.1-0.5C176,45.2,175.9,44.8,175.8,44.5z"/>
</g>
<circle class="st2" cx="118.2" cy="126.3" r="89"/>
<g class="st0">
	<path class="st3" d="M107.8,134.3H95.3c-0.6,0-2.1,0.1-3.1,0.6c-1-0.4-2-1.2-2.5-1.8c-0.2-0.2-0.3-0.3-0.3-0.4
		c0-0.2,0.3-0.9,0.6-1.2c1.3,0.4,3.4,0.4,4.8,0.4h4.4v-4.1h-7.9c-1.3,0-2.6,0.3-4.2,0.8c-1.2-0.4-2.5-1.1-3.4-2
		c-0.1-0.1-0.2-0.3-0.2-0.4c0-0.2,0.4-0.8,0.7-1.2c2.2,0.4,3.7,0.4,6.6,0.4H110c2.9,0,5.9-0.3,6.4-0.3c0.5,0,0.7,0.1,0.7,0.5
		c0,0.4-0.2,1.8-0.4,2.5c-1.7-0.1-3.9-0.2-5.8-0.2h-8.7v4.1h3.4c0.9,0,3.4-0.1,4.3-0.1c0.6,0,0.9,0.3,0.9,1v4.3
		c0,1.6-0.3,4.2-0.4,5.5c0,0.3-0.1,0.6-0.4,0.6c-0.4,0.1-1.5,0.1-2.2,0V134.3z M88.4,123.4c-0.2-0.3-0.7-1-0.9-1.6
		c4-1.5,13.4-5.6,17.9-8.7h-9.6c-1,0-1.9,0.1-2.9,0.5c-0.7-0.4-1.9-1-2.5-1.5c-0.1-0.1-0.2-0.2-0.2-0.3c0-0.2,0.4-1,0.6-1.3
		c1.4,0.3,3.1,0.2,4.5,0.2h10.9c0.9,0,2.5-0.1,3.2-0.1c0.8,0,1,1.1,0.7,1.6c-0.9,1.5-3.7,3.3-7,5.1c3.5,1.2,6.3,2.3,9.7,3.5
		c0.3,0.1,0.3,0.4,0.2,0.6c-0.3,0.6-1,1.4-1.6,2c-3.6-1.7-6.9-3.2-10.8-4.8c-4.5,2.2-9.3,4.2-11.4,5
		C88.9,123.8,88.6,123.7,88.4,123.4z"/>
	<path class="st3" d="M118.8,127.4c-0.1-0.1-0.2-0.3-0.2-0.4c0-0.2,0.4-0.8,0.7-1.2c2.2,0.4,3.7,0.4,6.6,0.4h19.2
		c2.9,0,5.9-0.3,6.4-0.3c0.5,0,0.7,0.1,0.7,0.5c0,0.4-0.2,1.8-0.4,2.5c-1.7-0.1-3.9-0.2-5.8-0.2h-19.6c-1.3,0-2.6,0.3-4.2,0.8
		C121,129,119.7,128.4,118.8,127.4z M126.5,141.2v-6.4c0-1-0.8-1.5-1.8-1.7c0-0.3,0.2-1.6,0.7-1.6c0.9,0,2.8,0.3,3.8,0.3h11.7
		c0.9,0,3.4-0.1,4.3-0.1c0.6,0,0.9,0.3,0.9,1v9.5c0,0.9-0.6,1.2-1.1,1.2h-16.8C127.1,143.2,126.5,142.6,126.5,141.2z M127,116.6
		c0-3.6,3.2-7.1,8.8-7.1c5.6,0,8.8,3.5,8.8,7.1s-3.2,7.1-8.8,7.1C130.2,123.8,127,120.3,127,116.6z M143,140.8v-6.6h-13.6v6.6H143z
		 M141.5,116.6c0-2.4-2-4.7-5.8-4.7c-3.7,0-5.8,2.2-5.8,4.7s2,4.7,5.8,4.7C139.5,121.3,141.5,119.1,141.5,116.6z"/>
</g>
</svg>
