<svg id="Layer_1" data-name="Layer 1" xmlns="http://www.w3.org/2000/svg" viewBox="0 0 242 230"><defs><style>.cls-1{font-size:11px;fill:#8c8c8c;}.cls-1,.cls-3{font-family:RIDIBatang-KSCpc-EUC-H, RIDIBatang;}.cls-2{fill:#fff;stroke:#010101;stroke-miterlimit:10;stroke-width:3px;}.cls-3{font-size:37.23px;fill:#010101;}</style></defs><text class="cls-1" transform="matrix(0.85, -0.53, 0.53, 0.85, 59.06, 46.34)">자</text><text class="cls-1" transform="translate(67.92 40.84) rotate(-26.14)">신</text><text class="cls-1" transform="matrix(0.94, -0.35, 0.35, 0.94, 76.91, 36.43)">이</text><text class="cls-1" transform="translate(86.37 32.99) rotate(-16.95)"> </text><text class="cls-1" transform="translate(89.44 31.94) rotate(-13.23)">원</text><text class="cls-1" transform="translate(99.48 29.57) rotate(-7.51)">하</text><text class="cls-1" transform="translate(109.84 28.2) rotate(-1.72)">는</text><text class="cls-1" transform="matrix(1, 0.04, -0.04, 1, 120.23, 28.01)"> </text><text class="cls-1" transform="translate(123.45 28.02) rotate(5.8)">기</text><text class="cls-1" transform="translate(133.4 29.02) rotate(11.46)">호</text><text class="cls-1" transform="translate(143.52 31.07) rotate(17.25)">에</text><text class="cls-1" transform="matrix(0.93, 0.36, -0.36, 0.93, 153.62, 34.33)"> </text><text class="cls-1" transform="translate(156.66 35.38) rotate(24.83)">드</text><text class="cls-1" transform="matrix(0.86, 0.51, -0.51, 0.86, 166.04, 39.71)">래</text><text class="cls-1" transform="translate(175.13 45.09) rotate(36.35)">그</text><circle class="cls-2" cx="118.23" cy="126.29" r="89"/><text class="cls-3" transform="translate(83.16 137.42)">죽음</text></svg>