<svg id="Layer_1" data-name="Layer 1" xmlns="http://www.w3.org/2000/svg" viewBox="0 0 2833.13 1473.67"><defs><style>.cls-1,.cls-5{fill:none;stroke:#010101;stroke-miterlimit:10;}.cls-1{stroke-width:1.87px;}.cls-2{fill:#fff;}.cls-3{isolation:isolate;}.cls-4{fill:#cfcece;}.cls-5{stroke-width:2px;}.cls-6{fill:#010101;}</style></defs><line class="cls-1" x1="1.58" y1="233.21" x2="1.58" y2="413.85"/><line class="cls-1" x1="203.72" y1="233.21" x2="203.72" y2="413.85"/><line class="cls-1" x1="405.85" y1="233.21" x2="405.85" y2="413.85"/><line class="cls-1" x1="607.99" y1="233.21" x2="607.99" y2="413.85"/><line class="cls-1" x1="1820.8" y1="233.21" x2="1820.8" y2="413.85"/><line class="cls-1" x1="810.12" y1="233.21" x2="810.12" y2="413.85"/><line class="cls-1" x1="1012.26" y1="233.21" x2="1012.26" y2="413.85"/><line class="cls-1" x1="1214.39" y1="233.21" x2="1214.39" y2="413.85"/><line class="cls-1" x1="1416.53" y1="233.21" x2="1416.53" y2="413.85"/><line class="cls-1" x1="1618.67" y1="233.21" x2="1618.67" y2="413.85"/><line class="cls-1" x1="2831.48" y1="233.21" x2="2831.48" y2="413.85"/><line class="cls-1" x1="2022.94" y1="233.21" x2="2022.94" y2="413.85"/><line class="cls-1" x1="2225.07" y1="233.21" x2="2225.07" y2="413.85"/><line class="cls-1" x1="2427.21" y1="233.21" x2="2427.21" y2="413.85"/><line class="cls-1" x1="2629.34" y1="233.21" x2="2629.34" y2="413.85"/><line class="cls-1" y1="232.5" x2="2830.84" y2="232.5"/><line class="cls-1" y1="413.38" x2="2830.84" y2="413.38"/><rect class="cls-2" x="24.74" y="257.26" width="553.05" height="130.83"/><g class="cls-3"><g class="cls-3"><path class="cls-4" d="M330.6,392.15V368.71c0-1-.14-1.68-.77-2.1a9.74,9.74,0,0,0-3.91-1.39,9.72,9.72,0,0,1,.77-2.3.81.81,0,0,1,.77-.42,29.42,29.42,0,0,1,7.81,1.39c.77.28,1.05.63,1.05,1.19v26.44a161.76,161.76,0,0,0,28.39-3.21,12.64,12.64,0,0,1,.77,3.21.86.86,0,0,1-.7,1c-9.56,2.16-23.09,3.9-30.28,3.9C331.57,396.4,330.6,394.94,330.6,392.15Zm41.16-13.26H352.5a18.59,18.59,0,0,1-.84-4.11c0-.84.35-1,1.33-1,.7,0,5.16.49,7.88.49h10.89V358.66c0-1-.35-1.32-1.19-2a14.64,14.64,0,0,0-4.81-1.89,11,11,0,0,1,.9-2.51.8.8,0,0,1,.77-.41,35.3,35.3,0,0,1,8.93,1.67c.77.28,1.05.56,1.05,1.12v52.53c0,2.93-.49,7.88-.77,10.25-.07.63-.21,1-.77,1.19a13.14,13.14,0,0,1-4.11.07Z" transform="translate(-272.63 -57.95)"/><path class="cls-4" d="M412.42,389.85a19.62,19.62,0,0,1-2.09-2.66c10.46-6.27,20.79-14.79,26.37-23.58h-13a14.33,14.33,0,0,0-5.09,1,19.9,19.9,0,0,1-4.95-3.07.94.94,0,0,1-.35-.63,7.7,7.7,0,0,1,1.05-2.16,48.41,48.41,0,0,0,8.44.56h13.11c1.4,0,5.58-.35,6.63-.35,1.67,0,2.3,1.54,1.47,3.21a49.17,49.17,0,0,1-7.68,10.67c4.33,3.7,8.72,7.33,13.33,11a.78.78,0,0,1,0,1.11,16.09,16.09,0,0,1-3.91,2.72c-4-4-8.23-7.88-12.42-11.72a86.06,86.06,0,0,1-19.46,14.17A1.2,1.2,0,0,1,412.42,389.85Zm13.82,23.72v-5.93c0-2-1.68-2.65-3.42-3.07.07-.63.56-2.72,1.46-2.72,1.12,0,3.77.2,5.44.2h24.35v-6.27H433.56a18.21,18.21,0,0,0-5.72.76,15.64,15.64,0,0,1-5-3.14.92.92,0,0,1-.35-.62,6.45,6.45,0,0,1,1.18-2c2.52.77,6.42.63,8.93.63H450c1.74,0,6.27-.28,8-.28,1.11,0,1.74.49,1.74,1.89v12.2c0,.77-.35,1.19-.9,1.19H431.89v6.49H453c2.65,0,8-.56,8.65-.56,1,0,1.32.14,1.32,1a17.45,17.45,0,0,1-.77,4H429.31C427.42,417.33,426.24,416.22,426.24,413.57Zm28.53-55.05c0-1-.35-1.32-1.19-1.95a14.35,14.35,0,0,0-4.81-1.88,10,10,0,0,1,.91-2.38.79.79,0,0,1,.76-.41,35.22,35.22,0,0,1,8.93,1.67c.77.28,1.05.56,1.05,1.12v14.09h3.21c2.72,0,7.18-.7,7.88-.7,1,0,1.33.14,1.33,1a18.59,18.59,0,0,1-.84,4.11H460.42v3.77c0,2.93-.49,7.88-.77,10.25-.07.63-.21,1.05-.77,1.19a13.13,13.13,0,0,1-4.11.07Z" transform="translate(-272.63 -57.95)"/><path class="cls-4" d="M475.28,388a1.37,1.37,0,0,1-.42-.84,6.56,6.56,0,0,1,1.25-2.16,65.9,65.9,0,0,0,12.42.77h15.7v-6.91H492.37c-1.89,0-3.07-1.11-3.07-3.76V361.8c0-1.88-1.54-2.79-3.42-3.21.07-.63.35-2.93,1.26-2.93,1.67,0,5.3.49,7.11.49h21.14c1.74,0,6.28-.28,8-.28,1.12,0,1.75.49,1.75,1.89v19a1.89,1.89,0,0,1-2.1,2.16H509.88v6.91h14.65c5.37,0,11.09-.63,12-.63s1.32.14,1.32,1a22.09,22.09,0,0,1-.83,4.6c-3.28-.14-7.26-.35-10.82-.35H489.44a27.82,27.82,0,0,0-7.82,1.47A16.78,16.78,0,0,1,475.28,388Zm8.44,27.63c7.53-4.61,17.09-11.37,20.72-16.05,1-1.32-1.05-2.86-3.49-3.83a14.41,14.41,0,0,1,1.39-2.1.72.72,0,0,1,.56-.28,21.83,21.83,0,0,1,8.37,3,2,2,0,0,1,.77,1.82,3,3,0,0,1-.42,1.39,27.32,27.32,0,0,1-1.74,2.24c6.56,4,13.18,7.81,20,11.65a.76.76,0,0,1,.21,1,15.16,15.16,0,0,1-4.19,3.35c-6.2-4.25-12.55-8.58-19-12.84-5.37,5.1-12.91,9.91-19.47,13.26-.48.21-.83.35-1.25.14A7.84,7.84,0,0,1,483.72,415.66Zm35.86-41.37V360.75h-24.7v13.54Z" transform="translate(-272.63 -57.95)"/><path class="cls-4" d="M544,378.27c0-10,6.91-16.82,16.74-16.82s16.75,6.77,16.75,16.82-6.91,16.81-16.75,16.81S544,388.31,544,378.27Zm27.76,0c0-7.4-4.67-12.07-11-12.07s-11,4.67-11,12.07,4.67,12.06,11,12.06S571.75,385.73,571.75,378.27Zm16-19.61c0-1-.35-1.32-1.19-2a14.54,14.54,0,0,0-4.81-1.89,11.48,11.48,0,0,1,.91-2.51.8.8,0,0,1,.77-.41,35.22,35.22,0,0,1,8.92,1.67c.77.28,1,.56,1,1.12v52.53c0,2.93-.49,7.88-.77,10.25-.07.63-.21,1-.76,1.19a13.2,13.2,0,0,1-4.12.07Z" transform="translate(-272.63 -57.95)"/><path class="cls-4" d="M627.84,378.27c0-10,6.7-16.82,16.53-16.82s16.54,6.77,16.54,16.82-6.7,16.81-16.54,16.81S627.84,388.31,627.84,378.27Zm27.35,0c0-7.4-4.61-12.07-10.82-12.07s-10.81,4.67-10.81,12.07,4.6,12.06,10.81,12.06S655.19,385.66,655.19,378.27Zm15.55-19.61c0-1-.35-1.32-1.18-2a14.61,14.61,0,0,0-4.82-1.89,11.48,11.48,0,0,1,.91-2.51.8.8,0,0,1,.77-.41,35.38,35.38,0,0,1,8.93,1.67c.77.28,1,.56,1,1.12v24.06h3.21c2.72,0,7.19-.69,7.89-.69,1,0,1.32.14,1.32,1a19.16,19.16,0,0,1-.83,4.12H676.39v24.07c0,2.93-.48,7.88-.76,10.25-.07.63-.21,1-.77,1.19a13.2,13.2,0,0,1-4.12.07Z" transform="translate(-272.63 -57.95)"/><path class="cls-4" d="M738,389.85c-11.72,2.93-27.49,5.51-36.55,5.51-2.93,0-3.91-1.47-3.91-4.26V368.71c0-1-.14-1.68-.77-2.1a9.74,9.74,0,0,0-3.91-1.39,9.72,9.72,0,0,1,.77-2.3.81.81,0,0,1,.77-.42,29.42,29.42,0,0,1,7.81,1.39c.77.28,1,.63,1,1.19v25.18c8.86,0,24.77-2.09,34.74-4.67V358.66c0-1-.35-1.32-1.18-2a14.61,14.61,0,0,0-4.82-1.89,11.48,11.48,0,0,1,.91-2.51.8.8,0,0,1,.77-.41,35.38,35.38,0,0,1,8.93,1.67c.76.28,1,.56,1,1.12v52.53c0,2.93-.49,7.88-.76,10.25-.07.63-.21,1-.77,1.19a13.2,13.2,0,0,1-4.12.07Z" transform="translate(-272.63 -57.95)"/><path class="cls-4" d="M757.87,378.27c0-10,6.7-16.82,16.53-16.82s16.54,6.77,16.54,16.82-6.7,16.81-16.54,16.81S757.87,388.31,757.87,378.27Zm27.35,0c0-7.4-4.61-12.07-10.82-12.07s-10.81,4.67-10.81,12.07,4.61,12.06,10.81,12.06S785.22,385.66,785.22,378.27Zm15.55-19.61c0-1-.34-1.32-1.18-2a14.64,14.64,0,0,0-4.81-1.89,11,11,0,0,1,.9-2.51.8.8,0,0,1,.77-.41,35.3,35.3,0,0,1,8.93,1.67c.77.28,1,.56,1,1.12v15.9h3.07c2.72,0,7.18-.7,7.88-.7,1,0,1.32.14,1.32,1a18.57,18.57,0,0,1-.83,4.12H806.43v10.95h3.2c2.73,0,7.19-.7,7.89-.7,1,0,1.32.14,1.32,1a19,19,0,0,1-.83,4.11H806.43v16.89c0,2.93-.49,7.88-.77,10.25-.07.63-.21,1-.77,1.19a13.2,13.2,0,0,1-4.12.07Z" transform="translate(-272.63 -57.95)"/></g></g><line class="cls-5" x1="1969.93" y1="109.73" x2="2833.13" y2="109.73"/><line class="cls-1" x1="1.58" y1="445.08" x2="1.58" y2="625.72"/><line class="cls-1" x1="203.72" y1="445.08" x2="203.72" y2="625.72"/><line class="cls-1" x1="405.85" y1="445.08" x2="405.85" y2="625.72"/><line class="cls-1" x1="607.99" y1="445.08" x2="607.99" y2="625.72"/><line class="cls-1" x1="1820.8" y1="445.08" x2="1820.8" y2="625.72"/><line class="cls-1" x1="810.12" y1="445.08" x2="810.12" y2="625.72"/><line class="cls-1" x1="1012.26" y1="445.08" x2="1012.26" y2="625.72"/><line class="cls-1" x1="1214.39" y1="445.08" x2="1214.39" y2="625.72"/><line class="cls-1" x1="1416.53" y1="445.08" x2="1416.53" y2="625.72"/><line class="cls-1" x1="1618.67" y1="445.08" x2="1618.67" y2="625.72"/><line class="cls-1" x1="2831.48" y1="445.08" x2="2831.48" y2="625.72"/><line class="cls-1" x1="2022.94" y1="445.08" x2="2022.94" y2="625.72"/><line class="cls-1" x1="2225.07" y1="445.08" x2="2225.07" y2="625.72"/><line class="cls-1" x1="2427.21" y1="445.08" x2="2427.21" y2="625.72"/><line class="cls-1" x1="2629.34" y1="445.08" x2="2629.34" y2="625.72"/><line class="cls-1" y1="444.37" x2="2830.84" y2="444.37"/><line class="cls-1" y1="625.25" x2="2830.84" y2="625.25"/><line class="cls-1" x1="1.58" y1="656.95" x2="1.58" y2="837.59"/><line class="cls-1" x1="203.72" y1="656.95" x2="203.72" y2="837.59"/><line class="cls-1" x1="405.85" y1="656.95" x2="405.85" y2="837.59"/><line class="cls-1" x1="607.99" y1="656.95" x2="607.99" y2="837.59"/><line class="cls-1" x1="1820.8" y1="656.95" x2="1820.8" y2="837.59"/><line class="cls-1" x1="810.12" y1="656.95" x2="810.12" y2="837.59"/><line class="cls-1" x1="1012.26" y1="656.95" x2="1012.26" y2="837.59"/><line class="cls-1" x1="1214.39" y1="656.95" x2="1214.39" y2="837.59"/><line class="cls-1" x1="1416.53" y1="656.95" x2="1416.53" y2="837.59"/><line class="cls-1" x1="1618.67" y1="656.95" x2="1618.67" y2="837.59"/><line class="cls-1" x1="2831.48" y1="656.95" x2="2831.48" y2="837.59"/><line class="cls-1" x1="2022.94" y1="656.95" x2="2022.94" y2="837.59"/><line class="cls-1" x1="2225.07" y1="656.95" x2="2225.07" y2="837.59"/><line class="cls-1" x1="2427.21" y1="656.95" x2="2427.21" y2="837.59"/><line class="cls-1" x1="2629.34" y1="656.95" x2="2629.34" y2="837.59"/><line class="cls-1" y1="656.24" x2="2830.84" y2="656.24"/><line class="cls-1" y1="837.12" x2="2830.84" y2="837.12"/><line class="cls-1" x1="1.58" y1="868.82" x2="1.58" y2="1049.46"/><line class="cls-1" x1="203.72" y1="868.82" x2="203.72" y2="1049.46"/><line class="cls-1" x1="405.85" y1="868.82" x2="405.85" y2="1049.46"/><line class="cls-1" x1="607.99" y1="868.82" x2="607.99" y2="1049.46"/><line class="cls-1" x1="1820.8" y1="868.82" x2="1820.8" y2="1049.46"/><line class="cls-1" x1="810.12" y1="868.82" x2="810.12" y2="1049.46"/><line class="cls-1" x1="1012.26" y1="868.82" x2="1012.26" y2="1049.46"/><line class="cls-1" x1="1214.39" y1="868.82" x2="1214.39" y2="1049.46"/><line class="cls-1" x1="1416.53" y1="868.82" x2="1416.53" y2="1049.46"/><line class="cls-1" x1="1618.67" y1="868.82" x2="1618.67" y2="1049.46"/><line class="cls-1" x1="2831.48" y1="868.82" x2="2831.48" y2="1049.46"/><line class="cls-1" x1="2022.94" y1="868.82" x2="2022.94" y2="1049.46"/><line class="cls-1" x1="2225.07" y1="868.82" x2="2225.07" y2="1049.46"/><line class="cls-1" x1="2427.21" y1="868.82" x2="2427.21" y2="1049.46"/><line class="cls-1" x1="2629.34" y1="868.82" x2="2629.34" y2="1049.46"/><line class="cls-1" y1="868.11" x2="2830.84" y2="868.11"/><line class="cls-1" y1="1048.99" x2="2830.84" y2="1048.99"/><line class="cls-1" x1="1.58" y1="1080.69" x2="1.58" y2="1261.33"/><line class="cls-1" x1="203.72" y1="1080.69" x2="203.72" y2="1261.33"/><line class="cls-1" x1="405.85" y1="1080.69" x2="405.85" y2="1261.33"/><line class="cls-1" x1="607.99" y1="1080.69" x2="607.99" y2="1261.33"/><line class="cls-1" x1="1820.8" y1="1080.69" x2="1820.8" y2="1261.33"/><line class="cls-1" x1="810.12" y1="1080.69" x2="810.12" y2="1261.33"/><line class="cls-1" x1="1012.26" y1="1080.69" x2="1012.26" y2="1261.33"/><line class="cls-1" x1="1214.39" y1="1080.69" x2="1214.39" y2="1261.33"/><line class="cls-1" x1="1416.53" y1="1080.69" x2="1416.53" y2="1261.33"/><line class="cls-1" x1="1618.67" y1="1080.69" x2="1618.67" y2="1261.33"/><line class="cls-1" x1="2831.48" y1="1080.69" x2="2831.48" y2="1261.33"/><line class="cls-1" x1="2022.94" y1="1080.69" x2="2022.94" y2="1261.33"/><line class="cls-1" x1="2225.07" y1="1080.69" x2="2225.07" y2="1261.33"/><line class="cls-1" x1="2427.21" y1="1080.69" x2="2427.21" y2="1261.33"/><line class="cls-1" x1="2629.34" y1="1080.69" x2="2629.34" y2="1261.33"/><line class="cls-1" y1="1079.98" x2="2830.84" y2="1079.98"/><line class="cls-1" y1="1260.86" x2="2830.84" y2="1260.86"/><line class="cls-1" x1="1.58" y1="1292.55" x2="1.58" y2="1473.2"/><line class="cls-1" x1="203.72" y1="1292.55" x2="203.72" y2="1473.2"/><line class="cls-1" x1="405.85" y1="1292.55" x2="405.85" y2="1473.2"/><line class="cls-1" x1="607.99" y1="1292.55" x2="607.99" y2="1473.2"/><line class="cls-1" x1="1820.8" y1="1292.55" x2="1820.8" y2="1473.2"/><line class="cls-1" x1="810.12" y1="1292.55" x2="810.12" y2="1473.2"/><line class="cls-1" x1="1012.26" y1="1292.55" x2="1012.26" y2="1473.2"/><line class="cls-1" x1="1214.39" y1="1292.55" x2="1214.39" y2="1473.2"/><line class="cls-1" x1="1416.53" y1="1292.55" x2="1416.53" y2="1473.2"/><line class="cls-1" x1="1618.67" y1="1292.55" x2="1618.67" y2="1473.2"/><line class="cls-1" x1="2831.48" y1="1292.55" x2="2831.48" y2="1473.2"/><line class="cls-1" x1="2022.94" y1="1292.55" x2="2022.94" y2="1473.2"/><line class="cls-1" x1="2225.07" y1="1292.55" x2="2225.07" y2="1473.2"/><line class="cls-1" x1="2427.21" y1="1292.55" x2="2427.21" y2="1473.2"/><line class="cls-1" x1="2629.34" y1="1292.55" x2="2629.34" y2="1473.2"/><line class="cls-1" y1="1291.85" x2="2830.84" y2="1291.85"/><line class="cls-1" y1="1472.73" x2="2830.84" y2="1472.73"/><rect class="cls-2" x="50.04" y="680.84" width="553.05" height="130.83"/><g class="cls-3"><path class="cls-4" d="M326.71,807.14V787.88c0-1-.13-1.67-.76-2.09A9.8,9.8,0,0,0,322,784.4a9.57,9.57,0,0,1,.77-2.3.81.81,0,0,1,.77-.42,29,29,0,0,1,7.81,1.39c.77.28,1.05.63,1.05,1.19v22.25a160.81,160.81,0,0,0,28.39-3.21,12.64,12.64,0,0,1,.77,3.21.86.86,0,0,1-.7,1c-9.56,2.16-23.09,3.91-30.28,3.91C327.69,811.4,326.71,809.93,326.71,807.14Zm12.49,26.44V821.93c0-1-.14-1.54-.76-1.95a8,8,0,0,0-3.91-1.26,7.6,7.6,0,0,1,.49-2.3.8.8,0,0,1,.76-.42,30.42,30.42,0,0,1,8,1c.76.28,1,.62,1,1.18v15.07h21.42c2.65,0,8-.77,8.65-.77,1,0,1.33.14,1.33,1a20.09,20.09,0,0,1-.77,4.4H343.11C340.18,837.84,339.2,836.37,339.2,833.58Zm28.68-37.81h-20a18.57,18.57,0,0,1-.83-4.12c0-.83.34-1,1.32-1,.7,0,5.16.48,7.88.48h11.59V779.93c0-1-.35-1.32-1.19-1.95a14.44,14.44,0,0,0-4.81-1.88,9.59,9.59,0,0,1,.9-2.38.8.8,0,0,1,.77-.41,35.3,35.3,0,0,1,8.93,1.67c.77.28,1,.56,1,1.12v35.16c0,2.93-.49,7.88-.77,10.25-.07.63-.21,1-.77,1.19a13.14,13.14,0,0,1-4.11.07Z" transform="translate(-272.63 -57.95)"/><path class="cls-4" d="M405,815.09a1.36,1.36,0,0,1-.41-.83,6.49,6.49,0,0,1,1.25-2.17,65.9,65.9,0,0,0,12.42.77h15.7v-4.81c-8.45-.77-12.77-5-12.77-9.63,0-5.09,5.3-9.77,15.56-9.77s15.55,4.68,15.55,9.77c0,4.6-4.32,8.86-12.69,9.63v4.81h14.65c5.37,0,11.09-.63,12-.63s1.32.14,1.32,1a20.55,20.55,0,0,1-.84,4.39c-3.27-.13-7.25-.34-10.81-.34H419.15a27.72,27.72,0,0,0-7.82,1.46A18.61,18.61,0,0,1,405,815.09Zm7.54-31a1.08,1.08,0,0,1-.49-.84,7.44,7.44,0,0,1,1.19-2.37,40.74,40.74,0,0,0,8.16.77h12.7v-2.17c0-1.6-1.12-2.44-3.49-3a8.49,8.49,0,0,1,.7-2.23.79.79,0,0,1,.76-.42,38.14,38.14,0,0,1,6.49,1.12c.84.28,1,.42,1,1v5.72h11.86c1.95,0,7-.56,7.74-.56s1.19.14,1.19.84a18.31,18.31,0,0,1-.77,4.25c-2.65-.21-5-.21-7.67-.21H424.66a24.16,24.16,0,0,0-7.05,1A26.36,26.36,0,0,1,412.52,784.05Zm7.39,49.25v-6c0-1-.14-1.53-.76-1.95a8,8,0,0,0-3.91-1.26,7.67,7.67,0,0,1,.49-2.3.81.81,0,0,1,.77-.42,30.92,30.92,0,0,1,8.09,1c.76.28,1,.63,1,1.18v9.84h23.86c2,0,7-.56,7.75-.56s1.18.14,1.18.84a19.21,19.21,0,0,1-.76,4.32H424.59C421.24,838,419.91,836.51,419.91,833.3Zm26.79-34.88c0-2.65-3.21-5.44-10-5.44s-10,2.79-10,5.44,3.21,5.44,10,5.44S446.7,801.07,446.7,798.42Z" transform="translate(-272.63 -57.95)"/><path class="cls-4" d="M474.12,819.84a22.22,22.22,0,0,1-2-2.86c9.35-6,22-18,26.37-29H485.14a14.25,14.25,0,0,0-5.09,1,17.19,17.19,0,0,1-4.54-3.07.94.94,0,0,1-.35-.63,8.63,8.63,0,0,1,1-2.37,48.39,48.39,0,0,0,8.44.42h13.18c1.75,0,4.68-.28,6.07-.28s1.89,1.12,1.47,2.72c-1.19,4.61-4.19,9.7-7.95,14.58,5.3,5.86,8.23,9,13.6,14.37a1,1,0,0,1,0,1.47,26.73,26.73,0,0,1-3.56,3.28c-5.09-6.42-7.95-9.91-12.83-15.7-6.07,7-13.4,13.12-18.91,16.12A1.24,1.24,0,0,1,474.12,819.84Zm42.48-39.77c0-1-.35-1.32-1.18-2a14.41,14.41,0,0,0-4.82-1.88,11.39,11.39,0,0,1,.91-2.52.8.8,0,0,1,.77-.41,35.38,35.38,0,0,1,8.93,1.67c.76.28,1,.56,1,1.12v24.06h3.21c2.72,0,7.19-.69,7.88-.69,1,0,1.33.14,1.33,1a18.66,18.66,0,0,1-.84,4.12H522.25v24.07c0,2.93-.49,7.88-.77,10.25-.06.63-.2,1-.76,1.19a13.2,13.2,0,0,1-4.12.07Z" transform="translate(-272.63 -57.95)"/><path class="cls-4" d="M542.2,820.53a15.53,15.53,0,0,1-2-3c9.35-6,22.11-18.48,26.51-29.44H552a14.25,14.25,0,0,0-5.09,1,17.19,17.19,0,0,1-4.54-3.07.94.94,0,0,1-.35-.63,9,9,0,0,1,1-2.44,48.39,48.39,0,0,0,8.44.42h14.58c1.74,0,4.67-.28,6.07-.28s1.88,1.12,1.47,2.72c-3.21,12.49-19.68,29.23-29.79,34.81A1.26,1.26,0,0,1,542.2,820.53Zm40.53-40.46c0-1-.34-1.32-1.18-2a14.41,14.41,0,0,0-4.82-1.88,11.39,11.39,0,0,1,.91-2.52.8.8,0,0,1,.77-.41,35.3,35.3,0,0,1,8.93,1.67c.77.28,1,.56,1,1.12v24.06h3.49c2.72,0,7.19-.69,7.89-.69,1,0,1.32.14,1.32,1a18.66,18.66,0,0,1-.84,4.12H588.38v24.07c0,2.93-.48,7.88-.76,10.25-.07.63-.21,1-.77,1.19a13.2,13.2,0,0,1-4.12.07Z" transform="translate(-272.63 -57.95)"/><path class="cls-4" d="M626.75,799.67c0-10,6.7-16.81,16.53-16.81s16.54,6.77,16.54,16.81-6.7,16.82-16.54,16.82S626.75,809.72,626.75,799.67Zm27.35,0c0-7.39-4.61-12.06-10.82-12.06s-10.81,4.67-10.81,12.06,4.6,12.07,10.81,12.07S654.1,807.07,654.1,799.67Zm15.55-19.6c0-1-.34-1.32-1.18-2a14.41,14.41,0,0,0-4.82-1.88,11.39,11.39,0,0,1,.91-2.52.8.8,0,0,1,.77-.41,35.3,35.3,0,0,1,8.93,1.67c.77.28,1,.56,1,1.12v24.06h3.2c2.72,0,7.19-.69,7.89-.69,1,0,1.32.14,1.32,1a19.16,19.16,0,0,1-.83,4.12H675.31v24.07c0,2.93-.49,7.88-.77,10.25-.07.63-.21,1-.77,1.19a13.2,13.2,0,0,1-4.12.07Z" transform="translate(-272.63 -57.95)"/><path class="cls-4" d="M736.9,811.26c-11.72,2.93-27.48,5.51-36.55,5.51-2.93,0-3.91-1.47-3.91-4.26V790.12c0-1-.14-1.68-.77-2.1a9.75,9.75,0,0,0-3.9-1.39,9.77,9.77,0,0,1,.76-2.3.81.81,0,0,1,.77-.42,29.42,29.42,0,0,1,7.81,1.39c.77.28,1,.63,1,1.19v25.18c8.86,0,24.77-2.09,34.74-4.67V780.07c0-1-.35-1.32-1.18-2a14.41,14.41,0,0,0-4.82-1.88,11.39,11.39,0,0,1,.91-2.52.8.8,0,0,1,.77-.41,35.38,35.38,0,0,1,8.93,1.67c.76.28,1,.56,1,1.12v52.53c0,2.93-.49,7.88-.76,10.25-.07.63-.21,1-.77,1.19a13.2,13.2,0,0,1-4.12.07Z" transform="translate(-272.63 -57.95)"/><path class="cls-4" d="M756.78,799.67c0-10,6.7-16.81,16.53-16.81s16.54,6.77,16.54,16.81-6.7,16.82-16.54,16.82S756.78,809.72,756.78,799.67Zm27.35,0c0-7.39-4.61-12.06-10.82-12.06s-10.81,4.67-10.81,12.06,4.61,12.07,10.81,12.07S784.13,807.07,784.13,799.67Zm15.56-19.6c0-1-.35-1.32-1.19-2a14.44,14.44,0,0,0-4.81-1.88,11.43,11.43,0,0,1,.9-2.52.8.8,0,0,1,.77-.41,35.3,35.3,0,0,1,8.93,1.67c.77.28,1.05.56,1.05,1.12V792h3.07c2.72,0,7.18-.7,7.88-.7,1,0,1.32.14,1.32,1a18.57,18.57,0,0,1-.83,4.12H805.34v11h3.21c2.72,0,7.18-.7,7.88-.7,1,0,1.32.14,1.32,1a18.39,18.39,0,0,1-.83,4.11H805.34v16.89c0,2.93-.49,7.88-.77,10.25-.07.63-.21,1-.77,1.19a13.14,13.14,0,0,1-4.11.07Z" transform="translate(-272.63 -57.95)"/></g><rect class="cls-2" x="45.01" y="1105.94" width="317.35" height="130.83"/><g class="cls-3"><path d="M332.65,1222.58c0-10,6.69-16.82,16.53-16.82s16.53,6.77,16.53,16.82-6.69,16.81-16.53,16.81S332.65,1232.62,332.65,1222.58Zm27.34,0c0-7.4-4.6-12.07-10.81-12.07s-10.81,4.67-10.81,12.07,4.6,12.06,10.81,12.06S360,1230,360,1222.58ZM375.55,1203c0-1-.35-1.32-1.19-2a14.54,14.54,0,0,0-4.81-1.89,11.48,11.48,0,0,1,.91-2.51.8.8,0,0,1,.77-.41,35.22,35.22,0,0,1,8.92,1.67c.77.28,1.05.56,1.05,1.12v24.06h3.21c2.72,0,7.19-.69,7.88-.69,1,0,1.33.14,1.33,1a18.66,18.66,0,0,1-.84,4.12H381.2v24.07c0,2.93-.49,7.88-.77,10.25-.07.63-.21,1-.76,1.19a13.2,13.2,0,0,1-4.12.07Z" transform="translate(-272.63 -57.95)"/><path d="M396.06,1245a1.37,1.37,0,0,1-.42-.84,6.64,6.64,0,0,1,1.25-2.16,65.9,65.9,0,0,0,12.42.77h36c5.37,0,11.09-.63,12-.63s1.32.14,1.32,1a22.88,22.88,0,0,1-.83,4.67c-3.28-.14-7.26-.35-10.82-.35H410.22a27.75,27.75,0,0,0-7.81,1.47A17,17,0,0,1,396.06,1245Zm9.35-15.63c-.35-.35-.49-.56-.49-.83a6.14,6.14,0,0,1,1.11-2.1c2.51.77,6.42.77,8.93.77h1.68v-18.56h-.91a22.55,22.55,0,0,0-6,.84,27.29,27.29,0,0,1-4.46-3.21,1.08,1.08,0,0,1-.49-.84,6.29,6.29,0,0,1,1.11-2.09c2.52.77,6.42.77,8.93.77H441c2,0,7-.35,7.75-.35s1.18.14,1.18.84a18.23,18.23,0,0,1-.76,4.25c-2.65-.21-5-.21-7.68-.21h-2v18.56h1.4c1.95,0,7-.35,7.74-.35s1.18.14,1.18.84a18.15,18.15,0,0,1-.76,4.25c-2.65-.2-5-.2-7.68-.2H415.87a16,16,0,0,0-5.72,1.11A20.3,20.3,0,0,1,405.41,1229.34Zm28.6-2.16v-18.56H422.08v18.56Z" transform="translate(-272.63 -57.95)"/><path d="M465.19,1242.74a22.22,22.22,0,0,1-2-2.86c9.35-6,22-18,26.38-29h-13.4a14.29,14.29,0,0,0-5.09,1,17.19,17.19,0,0,1-4.54-3.07.94.94,0,0,1-.35-.63,8.63,8.63,0,0,1,1-2.37,48.39,48.39,0,0,0,8.44.42h13.19c1.74,0,4.67-.28,6.07-.28s1.88,1.12,1.46,2.72c-1.18,4.61-4.18,9.7-7.95,14.58,5.3,5.86,8.23,9,13.6,14.37a1,1,0,0,1,0,1.47,26.64,26.64,0,0,1-3.55,3.28c-5.1-6.42-8-9.91-12.84-15.7-6.07,7-13.4,13.12-18.91,16.12A1.25,1.25,0,0,1,465.19,1242.74ZM508.51,1203c0-1-.35-1.32-1.18-2a14.61,14.61,0,0,0-4.82-1.89,11.48,11.48,0,0,1,.91-2.51.8.8,0,0,1,.77-.41,35.38,35.38,0,0,1,8.93,1.67c.76.28,1,.56,1,1.12v52.53c0,2.93-.49,7.88-.76,10.25-.07.63-.21,1-.77,1.19a13.2,13.2,0,0,1-4.12.07Z" transform="translate(-272.63 -57.95)"/><path d="M530.62,1235.55v-23.3c0-1.88-1.53-2.79-3.42-3.21.07-.63.35-2.93,1.26-2.93,1.67,0,5.3.49,7.12.49h14.93c1.74,0,6.27-.28,8-.28,1.11,0,1.74.49,1.74,1.88v29a1.89,1.89,0,0,1-2.09,2.16H533.69C531.81,1239.32,530.62,1238.2,530.62,1235.55Zm24.07-.91v-23.37H536.2v23.37Zm16.6-31.67c0-1-.34-1.32-1.18-2a14.64,14.64,0,0,0-4.81-1.89,11,11,0,0,1,.9-2.51.8.8,0,0,1,.77-.41,35.3,35.3,0,0,1,8.93,1.67c.77.28,1.05.56,1.05,1.12v24.06h3.2c2.73,0,7.19-.69,7.89-.69,1,0,1.32.14,1.32,1a19.16,19.16,0,0,1-.83,4.12H577v24.07c0,2.93-.49,7.88-.77,10.25-.07.63-.21,1-.77,1.19a13.2,13.2,0,0,1-4.12.07Z" transform="translate(-272.63 -57.95)"/></g><g class="cls-3"><path class="cls-6" d="M2396,69.53c-.35-.35-.49-.56-.49-.84a6.71,6.71,0,0,1,1.12-2.3c2.51.76,6.42.76,8.93.76h7.95V64.64c0-1.6-1.11-2.44-3.49-3a8.49,8.49,0,0,1,.7-2.23.81.81,0,0,1,.77-.42,37,37,0,0,1,6.35,1.12c.83.28,1,.42,1,1v6.06h6.49c2,0,7-.55,7.75-.55s1.18.14,1.18.83a19.42,19.42,0,0,1-.77,4.4c-2.65-.21-5-.21-7.67-.21h-19.39a16,16,0,0,0-5.72,1.12A18.38,18.38,0,0,1,2396,69.53Zm6.14,17.16c0-6.35,4.95-11.93,13.6-11.93s13.61,5.58,13.61,11.93-5,11.93-13.61,11.93S2402.15,93,2402.15,86.69Zm21.7,0c0-3.91-2.93-7.4-8.1-7.4s-8.09,3.49-8.09,7.4,2.93,7.39,8.09,7.39S2423.85,90.59,2423.85,86.69Zm-11.79,32.86v-11c0-1.88-1.54-2.79-3.42-3.21.07-.62.35-2.93,1.25-2.93,1.68,0,5.31.49,7.12.49h19.6c1.75,0,6.28-.28,8-.28,1.11,0,1.74.49,1.74,1.89v16.67a1.89,1.89,0,0,1-2.09,2.16h-29.16C2413.24,123.31,2412.06,122.2,2412.06,119.55Zm28.74-.7V107.34h-23.16v11.51Zm.63-54.28c0-1-.35-1.32-1.19-1.95a14.44,14.44,0,0,0-4.81-1.88,10.46,10.46,0,0,1,.9-2.38.8.8,0,0,1,.77-.41,35.3,35.3,0,0,1,8.93,1.67c.77.28,1,.56,1,1.12V88.15c0,2.93-.49,7.89-.77,10.26-.07.63-.21,1-.77,1.18a13.13,13.13,0,0,1-4.11.07Z" transform="translate(-272.63 -57.95)"/><path class="cls-6" d="M2458.31,89.55a1.37,1.37,0,0,1-.42-.84,6.64,6.64,0,0,1,1.25-2.16,65.9,65.9,0,0,0,12.42.77h36c5.37,0,11.09-.63,12-.63s1.32.14,1.32,1a21.73,21.73,0,0,1-.83,4.54c-3.28-.14-7.26-.35-10.82-.35h-36.76a27.75,27.75,0,0,0-7.81,1.47A16.72,16.72,0,0,1,2458.31,89.55Zm13.46-12.7V67.57c0-2.16-1.95-2.79-4.05-3.07.07-.69.35-3,1.54-3,1.74,0,5.79.49,7.67.49h22.68c1.95,0,7-.56,7.74-.56s1.19.14,1.19.84a18.9,18.9,0,0,1-.77,4.33h-30.28V76.92h23.16c2,0,7-.56,7.75-.56s1.18.14,1.18.84a19.38,19.38,0,0,1-.76,4.33h-32.37C2473.1,81.53,2471.77,80.06,2471.77,76.85ZM2473.1,120V114c0-2-1.68-2.66-3.42-3.07.07-.63.56-2.73,1.46-2.73,1.12,0,3.77.21,5.44.21H2504v-6.27h-23.37a18.21,18.21,0,0,0-5.72.76,15.64,15.64,0,0,1-5-3.14.94.94,0,0,1-.35-.62,6.23,6.23,0,0,1,1.18-2c2.52.77,6.42.63,8.93.63h20.24c1.74,0,6.27-.28,8-.28,1.11,0,1.74.49,1.74,1.88v12.14c0,.77-.35,1.19-.9,1.19h-30v6.63h23.44c2.65,0,7.95-.56,8.65-.56,1,0,1.32.14,1.32,1a17.91,17.91,0,0,1-.76,4h-35.23C2474.28,123.8,2473.1,122.69,2473.1,120Z" transform="translate(-272.63 -57.95)"/><path class="cls-6" d="M2571.46,86.62h-11.09c-1,8.79-7.54,14.51-16.61,14.51-9.83,0-16.74-6.77-16.74-16.81s6.91-16.82,16.74-16.82c9.07,0,15.63,5.79,16.61,14.51h11.09V64.71c0-1-.35-1.32-1.19-1.95a14.35,14.35,0,0,0-4.81-1.88,11.39,11.39,0,0,1,.91-2.52.79.79,0,0,1,.76-.41,35.22,35.22,0,0,1,8.93,1.67c.77.28,1.05.56,1.05,1.12v52.53c0,2.93-.49,7.88-.77,10.25-.07.63-.21,1-.77,1.19a13.13,13.13,0,0,1-4.11.07Zm-16.67-2.3c0-7.4-4.68-12.07-11-12.07s-11,4.67-11,12.07,4.67,12.06,11,12.06S2554.79,91.78,2554.79,84.32Z" transform="translate(-272.63 -57.95)"/><path class="cls-6" d="M2609,74.83c-.35-.35-.49-.56-.49-.84a6.93,6.93,0,0,1,1.11-2.3c2.52.77,6.42.77,8.93.77h8.79V66.74c0-1.61-1.11-2.45-3.48-3a8.47,8.47,0,0,1,.69-2.24.8.8,0,0,1,.77-.41,38.18,38.18,0,0,1,6.49,1.11c.84.28,1,.42,1,1v9.28h7.32c1.95,0,7-.56,7.75-.56s1.18.14,1.18.84a19.44,19.44,0,0,1-.77,4.39c-2.65-.21-5-.21-7.67-.21h-21.21a16,16,0,0,0-5.72,1.12A18.31,18.31,0,0,1,2609,74.83Zm6.14,19.67c0-7.39,5.86-13.18,14.72-13.18s14.72,5.79,14.72,13.18-5.86,13.19-14.72,13.19S2615.13,101.9,2615.13,94.5Zm23.92,0c0-5-3.62-8.51-9.2-8.51s-9.21,3.56-9.21,8.51,3.62,8.51,9.21,8.51S2639.05,99.45,2639.05,94.5Zm15.77-29.79c0-1-.35-1.32-1.19-1.95a14.35,14.35,0,0,0-4.81-1.88,11.39,11.39,0,0,1,.91-2.52.8.8,0,0,1,.77-.41,35.38,35.38,0,0,1,8.93,1.67c.76.28,1,.56,1,1.12V85.5h2.86c2.72,0,7.19-.7,7.89-.7,1,0,1.32.14,1.32,1a18.66,18.66,0,0,1-.84,4.12h-11.23v23.37c0,2.93-.49,7.88-.77,10.25-.07.63-.2,1-.76,1.19a13.2,13.2,0,0,1-4.12.07Z" transform="translate(-272.63 -57.95)"/><path class="cls-6" d="M2675,107a1.37,1.37,0,0,1-.42-.84,6.52,6.52,0,0,1,1.26-2.16,65.73,65.73,0,0,0,12.41.77h13V90c0-1.89-1.74-2.65-4.53-3.35a8.28,8.28,0,0,1,.76-2.44.81.81,0,0,1,.77-.42,35.81,35.81,0,0,1,7.67,1c.77.21,1,.42,1,1v19h17.37c5.37,0,11.09-.63,12-.63s1.33.14,1.33,1a23,23,0,0,1-.84,4.67c-3.28-.14-7.26-.35-10.81-.35h-36.77a27.75,27.75,0,0,0-7.81,1.47A17.11,17.11,0,0,1,2675,107Zm43.6-7.61a190.25,190.25,0,0,0,3.35-28.53h-26.72a16.9,16.9,0,0,0-5.65,1,18.8,18.8,0,0,1-5.23-3.42,1.2,1.2,0,0,1-.42-.84,6.94,6.94,0,0,1,1.18-2.16,40.13,40.13,0,0,0,9.63.77h24.91c1.74,0,5-.35,6.76-.35,1.12,0,1.75.56,1.75,2,0,7.4-1.68,19.74-4.54,31.26a.93.93,0,0,1-1,.83A19.34,19.34,0,0,1,2718.58,99.38Z" transform="translate(-272.63 -57.95)"/><path class="cls-6" d="M2764.62,78.8c0-8.3,6.77-14.44,16-14.44s16,6.14,16,14.44-6.77,14.45-16,14.45S2764.62,87.11,2764.62,78.8Zm22.05,44.51a54.49,54.49,0,0,0,6.06-5.3l-7.39-7.32c-4.6,5.16-11,10.67-15.07,13.11a1,1,0,0,1-1.26,0,13.25,13.25,0,0,1-2-2.23c6.63-4.88,15.42-13.12,17.3-18.42.49-1.39-1.6-2.65-4.18-3.42a10.65,10.65,0,0,1,1.32-2.16.72.72,0,0,1,.56-.28,21.49,21.49,0,0,1,8.09,2.72c1.05.77.91,2.1.49,3.14a19.33,19.33,0,0,1-2.72,4.54l8.65,6.35c3.35-3.91,6-8,6.42-10.54.21-1.46-1.33-2.65-3.91-3.42a10.39,10.39,0,0,1,1.33-2.16.72.72,0,0,1,.56-.28,22.57,22.57,0,0,1,7.74,2.79c1.05.77.91,2.09.56,3.14a26.18,26.18,0,0,1-3.21,5.72c4.26,3.49,8.37,6.84,12.63,10.19a.86.86,0,0,1,.14,1.18,16.79,16.79,0,0,1-3.56,3.28c-3.84-3.84-7.75-7.67-11.65-11.44-4.12,5.16-9.63,10.53-13.68,13a1,1,0,0,1-1.25,0A19.2,19.2,0,0,1,2786.67,123.31Zm4.18-44.51a10.26,10.26,0,1,0-10.25,9.84A10,10,0,0,0,2790.85,78.8Zm16.81-14.23c0-1-.35-1.32-1.18-1.95a14.41,14.41,0,0,0-4.82-1.88,10,10,0,0,1,.91-2.38.8.8,0,0,1,.77-.41,35.3,35.3,0,0,1,8.93,1.67c.77.28,1,.56,1,1.12V85.36c0,2.93-.48,7.89-.76,10.26-.07.63-.21,1-.77,1.18a13.2,13.2,0,0,1-4.12.07Z" transform="translate(-272.63 -57.95)"/><path class="cls-6" d="M2824.54,91.08a1.37,1.37,0,0,1-.42-.83,6.55,6.55,0,0,1,1.26-2.17,65.9,65.9,0,0,0,12.42.77h36c5.38,0,11.1-.63,12-.63s1.33.14,1.33,1a21.63,21.63,0,0,1-.84,4.53c-3.28-.14-7.25-.35-10.81-.35H2838.7a27.75,27.75,0,0,0-7.81,1.47A16.75,16.75,0,0,1,2824.54,91.08Zm14.79,29v-5.72c0-2-1.67-2.65-3.42-3.07.07-.62.56-2.72,1.47-2.72,1.12,0,3.77.21,5.44.21h27.42V102.8h-23.37a18,18,0,0,0-5.72.77,15.87,15.87,0,0,1-5-3.14.94.94,0,0,1-.35-.63c0-.42.77-1.39,1.19-2,2.51.77,6.42.63,8.93.63h20.23c1.75,0,6.28-.28,8-.28,1.12,0,1.75.49,1.75,1.88v11.79c0,.77-.35,1.19-.91,1.19h-30v6.28h23.44c2.65,0,8-.56,8.65-.56,1,0,1.33.14,1.33,1a17.45,17.45,0,0,1-.77,4H2842.4C2840.52,123.8,2839.33,122.69,2839.33,120Zm.63-48c0-6.21,5.79-12.56,16.32-12.56s16.33,6.35,16.33,12.56-5.79,12.55-16.33,12.55S2840,78.25,2840,72Zm27,0c0-4.05-3.56-8-10.68-8s-10.67,3.91-10.67,8,3.56,7.95,10.67,7.95S2867,76.08,2867,72Z" transform="translate(-272.63 -57.95)"/><path class="cls-6" d="M2916.76,98.2V74.76c0-1.05-.14-1.68-.76-2.09a9.64,9.64,0,0,0-3.91-1.4,9.72,9.72,0,0,1,.77-2.3.81.81,0,0,1,.76-.42,29.5,29.5,0,0,1,7.82,1.39c.77.28,1,.63,1,1.19V97.57a161.76,161.76,0,0,0,28.4-3.21,12.64,12.64,0,0,1,.77,3.21.86.86,0,0,1-.7,1c-9.56,2.16-23.09,3.9-30.28,3.9C2917.74,102.45,2916.76,101,2916.76,98.2Zm41.16-13.26h-19.25a18.48,18.48,0,0,1-.84-4.11c0-.84.35-1,1.33-1,.7,0,5.16.49,7.88.49h10.88V64.71c0-1-.34-1.32-1.18-1.95a14.41,14.41,0,0,0-4.82-1.88,11.39,11.39,0,0,1,.91-2.52.8.8,0,0,1,.77-.41,35.38,35.38,0,0,1,8.93,1.67c.77.28,1,.56,1,1.12v52.53c0,2.93-.49,7.88-.77,10.25-.07.63-.21,1-.77,1.19a13.2,13.2,0,0,1-4.12.07Z" transform="translate(-272.63 -57.95)"/><path class="cls-6" d="M3013.31,86.83h-6.56c-.83,9-6.69,14.37-14.51,14.37-8.51,0-14.79-6.35-14.79-16.67s6.28-16.68,14.79-16.68c7.82,0,13.68,5.44,14.51,14.37h6.56V68.41c0-1.12-.14-1.67-.9-2.09a18,18,0,0,0-4-1.47,9.21,9.21,0,0,1,.91-2.3.9.9,0,0,1,.83-.42,29.73,29.73,0,0,1,7.47,1.19c.77.28,1,.63,1,1.18v46.67c0,2.93-.34,7.89-.62,10.26-.07.63-.21,1-.77,1.19a12.59,12.59,0,0,1-4,.07Zm-11.79-2.3c0-7.54-4.11-11.93-9.28-11.93S2983,77,2983,84.53s4.11,11.92,9.27,11.92S3001.52,92.06,3001.52,84.53Zm23.65-19.82a2.32,2.32,0,0,0-1.11-2.09,11.33,11.33,0,0,0-4.61-1.81,10.67,10.67,0,0,1,.91-2.45.8.8,0,0,1,.77-.41,32.16,32.16,0,0,1,8.51,1.6c.76.28,1,.56,1,1.12v52.6c0,2.93-.35,7.88-.62,10.25-.07.63-.21,1-.77,1.19a13.2,13.2,0,0,1-4.12.07Z" transform="translate(-272.63 -57.95)"/><path class="cls-6" d="M3079.72,89.41h-16.39c-4.95,6.7-11,12.63-15.91,15.83a1.35,1.35,0,0,1-1.6-.07,20.18,20.18,0,0,1-2.16-2.86c8.37-6.2,19-18.2,22.32-28.53h-10.25a16.06,16.06,0,0,0-5.45.77,31.44,31.44,0,0,1-4.88-2.93c-.21-.21-.35-.35-.35-.63a8.18,8.18,0,0,1,1-2.3,67.52,67.52,0,0,0,8.44.35h10.39c1.75,0,4.68-.28,6.07-.28s1.82,1.12,1.47,2.72a43.3,43.3,0,0,1-5.93,13.32h13.18V68.41c0-1.12-.14-1.67-.9-2.09a17.84,17.84,0,0,0-4-1.47,9.21,9.21,0,0,1,.91-2.3.91.91,0,0,1,.83-.42,29.66,29.66,0,0,1,7.47,1.19c.77.28,1,.63,1,1.18v46.67c0,2.93-.35,7.89-.63,10.26-.07.63-.21,1-.77,1.19a12.59,12.59,0,0,1-4,.07Zm12.56-24.7a2.32,2.32,0,0,0-1.11-2.09,11.39,11.39,0,0,0-4.61-1.81,10.67,10.67,0,0,1,.91-2.45.8.8,0,0,1,.77-.41,32.16,32.16,0,0,1,8.51,1.6c.76.28,1,.56,1,1.12v52.6c0,2.93-.35,7.88-.62,10.25-.08.63-.21,1-.77,1.19a13.2,13.2,0,0,1-4.12.07Z" transform="translate(-272.63 -57.95)"/></g><g class="cls-3"><path class="cls-6" d="M599.49,1283.91a42.16,42.16,0,0,0,4.86-5.85,15.92,15.92,0,0,0,2.54-8.15h-7.4v-16.63h18.77v13.66a21.58,21.58,0,0,1-3.86,12.11,31.64,31.64,0,0,1-10.12,9.63Z" transform="translate(-272.63 -57.95)"/></g><g class="cls-3"><path class="cls-6" d="M2152.47,382.58V352.94c0-1.61-.21-2.57-1.18-3.22a14.77,14.77,0,0,0-6-2.15,15,15,0,0,1,1.18-3.54,1.23,1.23,0,0,1,1.18-.64,45.06,45.06,0,0,1,12,2.14c1.18.43,1.61,1,1.61,1.83v34.26c10.95,0,29.21-1.94,43.71-4.94a19.36,19.36,0,0,1,1.18,4.94,1.31,1.31,0,0,1-1.07,1.5c-14.72,3.33-35.55,6-46.61,6C2154,389.13,2152.47,386.88,2152.47,382.58Zm19.23,40.71V405.35c0-1.61-.22-2.36-1.18-3a12.53,12.53,0,0,0-6-1.93,11.84,11.84,0,0,1,.75-3.54,1.25,1.25,0,0,1,1.18-.65c3.33,0,9.35.43,12.35,1.51,1.19.43,1.62,1,1.62,1.82v23.2h33c4.09,0,12.25-1.18,13.32-1.18,1.5,0,2,.21,2,1.5a31.3,31.3,0,0,1-1.18,6.77h-49.83C2173.2,429.84,2171.7,427.58,2171.7,423.29Zm44.13-58.21h-30.71a29,29,0,0,1-1.29-6.34c0-1.28.54-1.5,2-1.5,1.08,0,8,.75,12.14.75h17.82V340.7c0-1.61-.53-2-1.82-3a22.57,22.57,0,0,0-7.41-2.89,15.33,15.33,0,0,1,1.4-3.66,1.25,1.25,0,0,1,1.18-.64,54.58,54.58,0,0,1,13.74,2.58c1.18.43,1.61.86,1.61,1.72v54.12c0,4.51-.75,12.14-1.18,15.79-.11,1-.32,1.61-1.18,1.82a20.49,20.49,0,0,1-6.34.11Z" transform="translate(-272.63 -57.95)"/></g><g class="cls-3"><path class="cls-6" d="M2546.44,397c9.66-9.12,29.32-35.22,29.32-45.53,0-2.36-3.22-4.29-7-5.8a20.88,20.88,0,0,1,2.14-3.22,1.13,1.13,0,0,1,.86-.43c2.37,0,10.21,2.36,13.32,4.62a3,3,0,0,1,1.18,2.79c0,3.33-2.79,9.56-6.87,16.65,8.8,9.77,16.64,18.25,25,26.63a1.47,1.47,0,0,1,0,2.25A40.92,40.92,0,0,1,2599,400c-7.73-9.66-15.25-18.58-23.3-27.92-7.3,11.6-16.86,23.84-22.77,28.46a1.83,1.83,0,0,1-2.47.11A27,27,0,0,1,2546.44,397Zm69-56.05c0-1.61-.53-2-1.82-3a22.43,22.43,0,0,0-7.41-2.9,17.5,17.5,0,0,1,1.39-3.87,1.25,1.25,0,0,1,1.18-.64,54.58,54.58,0,0,1,13.75,2.58c1.18.43,1.61.86,1.61,1.72v37h4.94c4.19,0,11.06-1.07,12.14-1.07,1.5,0,2,.22,2,1.5a29,29,0,0,1-1.29,6.34h-17.83v37.05c0,4.51-.75,12.14-1.18,15.79-.11,1-.32,1.61-1.18,1.82a20.49,20.49,0,0,1-6.34.11Z" transform="translate(-272.63 -57.95)"/></g><g class="cls-3"><path class="cls-6" d="M2141.74,589.45a2.06,2.06,0,0,1-.65-1.29c0-.64,1.19-2.36,1.94-3.33,6.44,1.08,10.63,1.18,19.11,1.18h55.42c8.27,0,17.07-1,18.47-1s2,.21,2,1.5a33.88,33.88,0,0,1-1.29,7c-5.05-.21-11.17-.53-16.65-.53h-56.59c-3.87,0-7.63,1-12,2.25A25.72,25.72,0,0,1,2141.74,589.45ZM2164.51,634v-8.81c0-3.11-2.58-4.08-5.27-4.72.11-1,.86-4.19,2.26-4.19,1.72,0,5.8.32,8.38.32h42.2v-9.13h-36a27.77,27.77,0,0,0-8.8,1.18,24.26,24.26,0,0,1-7.73-4.83,1.42,1.42,0,0,1-.54-1c0-.65,1.18-2.15,1.82-3,3.87,1.18,9.88,1,13.75,1h31.14c2.69,0,9.67-.43,12.35-.43,1.72,0,2.69.76,2.69,2.9v18.15c0,1.18-.54,1.83-1.4,1.83H2173.2v9.66h36.09c4.08,0,12.24-.85,13.31-.85,1.51,0,2,.21,2,1.5a26.77,26.77,0,0,1-1.18,6.23h-54.23C2166.33,639.82,2164.51,638.1,2164.51,634Zm1-73.89c0-9.55,8.91-19.33,25.13-19.33s25.13,9.78,25.13,19.33-8.91,19.33-25.13,19.33S2165.47,569.69,2165.47,560.13Zm41.56,0c0-6.23-5.48-12.24-16.43-12.24s-16.43,6-16.43,12.24,5.48,12.25,16.43,12.25S2207,566.36,2207,560.13Z" transform="translate(-272.63 -57.95)"/></g><g class="cls-3"><path class="cls-6" d="M2817.31,380.65c-18,4.3-42.95,8.06-56.59,8.06-4.51,0-6-2.26-6-6.56V369.91c0-3.11-2.58-4.08-5.26-4.72.11-1,.86-4.62,2.26-4.62,2.57,0,7.73.75,10.52.75H2789V348.76h-23.3a22,22,0,0,0-7.84,1.5,26,26,0,0,1-7-4.73,1.4,1.4,0,0,1-.54-1,11.54,11.54,0,0,1,1.61-3.33c4.08.75,8.81.64,13,.64h17.72c2.69,0,9.67-.43,12.35-.43,1.72,0,2.69.76,2.69,2.9v22c0,1.18-.54,1.82-1.4,1.82H2763.4v13.32c13.32,0,38.34-3.44,53.91-7.3V340.7c0-1.61-.54-2-1.82-3a22.67,22.67,0,0,0-7.41-2.89,15.37,15.37,0,0,1,1.39-3.66,1.25,1.25,0,0,1,1.18-.64,54.58,54.58,0,0,1,13.75,2.58c1.18.43,1.61.86,1.61,1.72v25.66H2831c4.19,0,11.06-1.07,12.14-1.07,1.5,0,2,.21,2,1.5a29,29,0,0,1-1.29,6.34H2826v10c0,4.51-.75,12.13-1.18,15.78-.11,1-.32,1.61-1.18,1.83a20.21,20.21,0,0,1-6.34.1Zm-42,32.65c0-10.2,9-20.41,24.59-20.41s24.6,10.21,24.6,20.41-9,20.4-24.6,20.4S2775.32,423.5,2775.32,413.3Zm40.49,0c0-6.77-5.69-13.21-15.9-13.21S2784,406.53,2784,413.3s5.69,13.21,15.89,13.21S2815.81,420.06,2815.81,413.3Z" transform="translate(-272.63 -57.95)"/></g><g class="cls-3"><path class="cls-6" d="M2950.75,381.51a2.06,2.06,0,0,1-.65-1.29c0-.64,1.19-2.36,1.94-3.33,6.44,1.08,10.63,1.18,19.11,1.18h55.42c8.27,0,17.07-1,18.47-1s2,.21,2,1.5a33.88,33.88,0,0,1-1.29,7c-5.05-.21-11.17-.54-16.65-.54h-56.59c-3.87,0-7.63,1-12,2.26A25.72,25.72,0,0,1,2950.75,381.51Zm22.77,44.57v-8.81c0-3.11-2.58-4.08-5.27-4.72.11-1,.86-4.19,2.26-4.19,1.72,0,5.8.32,8.37.32h42.21v-9.13h-36a27.77,27.77,0,0,0-8.8,1.18,24.26,24.26,0,0,1-7.73-4.83,1.42,1.42,0,0,1-.54-1c0-.64,1.18-2.14,1.82-3,3.87,1.18,9.88,1,13.75,1h31.14c2.69,0,9.67-.43,12.35-.43,1.72,0,2.69.76,2.69,2.9v18.15c0,1.18-.54,1.83-1.4,1.83h-46.18V425h36.09c4.08,0,12.24-.86,13.31-.86,1.51,0,2,.22,2,1.51a26.77,26.77,0,0,1-1.18,6.23h-54.23C2975.34,431.88,2973.52,430.16,2973.52,426.08Zm1-73.89c0-9.56,8.92-19.33,25.13-19.33s25.13,9.77,25.13,19.33-8.91,19.33-25.13,19.33S2974.48,361.75,2974.48,352.19Zm41.56,0c0-6.23-5.47-12.24-16.43-12.24s-16.43,6-16.43,12.24,5.48,12.25,16.43,12.25S3016,358.42,3016,352.19Z" transform="translate(-272.63 -57.95)"/></g><g class="cls-3"><path class="cls-6" d="M2558.29,610.07a33.5,33.5,0,0,1-3-4.4c14.39-9.24,33.83-27.71,40.6-44.57h-20.62a22.22,22.22,0,0,0-7.84,1.5,26.41,26.41,0,0,1-7-4.72,1.45,1.45,0,0,1-.54-1,13,13,0,0,1,1.61-3.65c4.08.75,8.81.64,13,.64h20.29c2.69,0,7.2-.43,9.35-.43s2.9,1.72,2.25,4.19c-1.82,7.09-6.44,14.93-12.24,22.45,8.16,9,12.67,13.85,20.94,22.12a1.49,1.49,0,0,1,0,2.26,41.53,41.53,0,0,1-5.48,5c-7.84-9.88-12.24-15.25-19.76-24.16-9.34,10.74-20.62,20.19-29.1,24.81A2,2,0,0,1,2558.29,610.07Zm65.4-61.21c0-1.61-.54-2-1.82-3a22.43,22.43,0,0,0-7.41-2.9,17.5,17.5,0,0,1,1.39-3.87,1.25,1.25,0,0,1,1.18-.64,54.58,54.58,0,0,1,13.75,2.58c1.18.43,1.61.86,1.61,1.72v37h4.94c4.19,0,11.06-1.08,12.14-1.08,1.5,0,2,.22,2,1.51a29.06,29.06,0,0,1-1.29,6.33h-17.83V623.6c0,4.51-.75,12.14-1.18,15.79-.11,1-.32,1.61-1.18,1.82a20.19,20.19,0,0,1-6.34.11Z" transform="translate(-272.63 -57.95)"/></g><g class="cls-3"><path class="cls-6" d="M2760.79,602.23a24.24,24.24,0,0,1-3-4.62c15-7.84,33.29-24,40.27-38.87H2778a22,22,0,0,0-7.84,1.5,26.36,26.36,0,0,1-7-4.73,1.4,1.4,0,0,1-.54-1,13.79,13.79,0,0,1,1.61-3.76c4.08.75,8.81.64,13,.64h20.29c2.69,0,7.2-.42,9.35-.42s3.22,1.71,2.25,4.18a69.46,69.46,0,0,1-3.86,8.06h22.33V548.64c0-1.61-.53-2-1.82-3a22.57,22.57,0,0,0-7.41-2.89,15.33,15.33,0,0,1,1.4-3.66,1.25,1.25,0,0,1,1.18-.64,54.58,54.58,0,0,1,13.74,2.58c1.18.43,1.61.86,1.61,1.72v38.33c0,4.52-.75,12.14-1.18,15.79-.11,1-.32,1.61-1.18,1.83a20.21,20.21,0,0,1-6.34.1v-11.7h-27.06a28.22,28.22,0,0,1-1.29-6.23c0-1.29.54-1.5,2-1.5,1.08,0,7.95.75,12.14.75h14.17v-9.88h-26.74c-9.66,13.64-23.94,25.13-37.8,32.22A2.15,2.15,0,0,1,2760.79,602.23Zm65.72,8.7h-32.86a24.82,24.82,0,0,0-8.81,1.72,28.32,28.32,0,0,1-7.3-5.16c-.54-.53-.75-.86-.75-1.29a10.76,10.76,0,0,1,1.72-3.65c3.86,1.18,9.88,1.18,13.74,1.18h27.92c2.69,0,9.67-.43,12.35-.43,1.72,0,2.69.76,2.69,2.9v16.86c0,4.51-.75,12.14-1.18,15.79-.11,1-.32,1.61-1.18,1.83a20.22,20.22,0,0,1-6.34.1Z" transform="translate(-272.63 -57.95)"/></g><g class="cls-3"><path class="cls-6" d="M2959.55,579c0-15.46,10.63-25.88,25.77-25.88s25.77,10.42,25.77,25.88-10.63,25.89-25.77,25.89S2959.55,594.5,2959.55,579Zm42.74,0c0-11.38-7.2-18.57-17-18.57s-17,7.19-17,18.57,7.2,18.58,17,18.58S3002.29,590.52,3002.29,579Zm24.59-30.17c0-1.61-.54-2-1.83-3a22.24,22.24,0,0,0-7.41-2.9,18,18,0,0,1,1.4-3.87,1.25,1.25,0,0,1,1.18-.64A54.66,54.66,0,0,1,3034,541c1.18.43,1.61.86,1.61,1.72V623.6c0,4.51-.75,12.14-1.18,15.79-.11,1-.32,1.61-1.18,1.82a20.19,20.19,0,0,1-6.34.11Z" transform="translate(-272.63 -57.95)"/></g><g class="cls-3"><path class="cls-6" d="M1746.26,784.49c0-12.78,10.42-22.23,24.59-22.23s24.6,9.45,24.6,22.23-10.42,22.23-24.6,22.23S1746.26,797.27,1746.26,784.49ZM1780.2,853a83.53,83.53,0,0,0,9.34-8.17l-11.38-11.27c-7.09,7.94-17,16.43-23.2,20.19a1.6,1.6,0,0,1-1.93,0,19.77,19.77,0,0,1-3.12-3.44c10.2-7.52,23.73-20.19,26.63-28.35.76-2.15-2.47-4.08-6.44-5.26a16.4,16.4,0,0,1,2-3.33,1.12,1.12,0,0,1,.86-.43c2.79,0,10.09,2.47,12.46,4.19,1.61,1.18,1.39,3.22.75,4.83a30,30,0,0,1-4.19,7l13.32,9.77c5.15-6,9.23-12.24,9.88-16.21.32-2.26-2-4.09-6-5.27a16.31,16.31,0,0,1,2-3.32,1.1,1.1,0,0,1,.86-.43c2.15,0,9.56,2.57,11.92,4.29,1.61,1.18,1.4,3.22.86,4.83a39.74,39.74,0,0,1-4.94,8.81c6.55,5.37,12.89,10.52,19.44,15.68a1.32,1.32,0,0,1,.22,1.82,25.41,25.41,0,0,1-5.48,5.05c-5.91-5.9-11.92-11.81-17.94-17.61-6.33,7.95-14.82,16.22-21,20a1.61,1.61,0,0,1-1.94,0A31.1,31.1,0,0,1,1780.2,853Zm6.44-68.52c0-8.38-6.87-15.14-15.79-15.14s-15.78,6.76-15.78,15.14,6.87,15.14,15.78,15.14S1786.64,792.87,1786.64,784.49Zm25.88-21.91c0-1.61-.54-2-1.83-3a22.48,22.48,0,0,0-7.41-2.89,15.77,15.77,0,0,1,1.4-3.66,1.25,1.25,0,0,1,1.18-.64,54.66,54.66,0,0,1,13.75,2.58c1.18.43,1.61.86,1.61,1.72v37.9c0,4.51-.75,12.14-1.18,15.79-.11,1-.32,1.61-1.18,1.83a20.23,20.23,0,0,1-6.34.1Z" transform="translate(-272.63 -57.95)"/></g><g class="cls-3"><path class="cls-6" d="M1944.74,808.22a2.06,2.06,0,0,1-.65-1.29c0-.64,1.19-2.47,1.94-3.43,6.44,1.07,10.63,1.18,19.11,1.18h55.42c8.27,0,17.07-1,18.47-1s2,.22,2,1.51a34.68,34.68,0,0,1-1.29,7.08c-5-.21-11.17-.53-16.65-.53h-56.59c-3.87,0-7.63,1-12,2.25A25.72,25.72,0,0,1,1944.74,808.22Zm20.72-22v-17.4c0-1.61-.21-2.36-1.18-3a12.34,12.34,0,0,0-6-1.93,11.92,11.92,0,0,1,.75-3.54,1.24,1.24,0,0,1,1.18-.65c3.33,0,9.45.43,12.46,1.51,1.18.43,1.61,1,1.61,1.82v23.2h36.08c3,0,10.74-.86,11.93-.86s1.82.21,1.82,1.29a30.06,30.06,0,0,1-1.18,6.76h-50.26C1967.51,793.4,1965.46,791.15,1965.46,786.21Zm1.83,58.1V830.24c0-1.61-.21-2.36-1.18-3a12.27,12.27,0,0,0-6-1.93,11.68,11.68,0,0,1,.75-3.55,1.25,1.25,0,0,1,1.18-.64c3.33,0,9.45.43,12.46,1.5,1.18.43,1.61,1,1.61,1.83v19.87h37.58c3,0,10.74-.86,11.92-.86s1.83.21,1.83,1.29a30.06,30.06,0,0,1-1.18,6.76h-51.76C1969.33,851.5,1967.29,849.25,1967.29,844.31Z" transform="translate(-272.63 -57.95)"/></g><g class="cls-3"><path class="cls-6" d="M2347.15,818.85c9.66-9.12,29.32-35.22,29.32-45.53,0-2.36-3.22-4.29-7-5.8a20.88,20.88,0,0,1,2.14-3.22,1.13,1.13,0,0,1,.86-.43c2.37,0,10.21,2.36,13.32,4.62a3,3,0,0,1,1.18,2.79c0,3.33-2.79,9.56-6.87,16.65,8.8,9.77,16.64,18.25,25,26.63a1.47,1.47,0,0,1,0,2.25,40.92,40.92,0,0,1-5.48,5.05c-7.73-9.66-15.25-18.58-23.3-27.92-7.3,11.6-16.86,23.84-22.77,28.46a1.83,1.83,0,0,1-2.47.11A27,27,0,0,1,2347.15,818.85Zm69-56.05c0-1.61-.53-2-1.82-3a22.43,22.43,0,0,0-7.41-2.9,17.5,17.5,0,0,1,1.39-3.87,1.25,1.25,0,0,1,1.18-.64,54.58,54.58,0,0,1,13.75,2.58c1.18.43,1.61.86,1.61,1.72v37h4.94c4.19,0,11.06-1.07,12.14-1.07,1.5,0,2,.22,2,1.5a29,29,0,0,1-1.29,6.34H2424.9v37c0,4.51-.75,12.14-1.18,15.79-.11,1-.32,1.61-1.18,1.82a20.49,20.49,0,0,1-6.34.11Z" transform="translate(-272.63 -57.95)"/></g><g class="cls-3"><path class="cls-6" d="M2623.69,802.53c-18,4.3-43,8.06-56.59,8.06-4.51,0-6-2.26-6-6.56V791.79c0-3.11-2.57-4.08-5.26-4.72.11-1,.86-4.62,2.26-4.62,2.57,0,7.73.75,10.52.75h26.74V770.64H2572a22,22,0,0,0-7.84,1.5,26.19,26.19,0,0,1-7-4.73,1.4,1.4,0,0,1-.54-1,11.54,11.54,0,0,1,1.61-3.33c4.08.75,8.81.64,13,.64H2589c2.69,0,9.67-.43,12.35-.43,1.72,0,2.69.76,2.69,2.9v22c0,1.18-.54,1.82-1.4,1.82h-32.86v13.32c13.32,0,38.34-3.44,53.91-7.3V762.58c0-1.61-.54-2-1.82-3a22.67,22.67,0,0,0-7.41-2.89,15.37,15.37,0,0,1,1.39-3.66,1.25,1.25,0,0,1,1.18-.64,54.58,54.58,0,0,1,13.75,2.58c1.18.43,1.61.86,1.61,1.72v24.59h4.94c4.19,0,11.06-1.08,12.14-1.08,1.5,0,2,.22,2,1.51a28.94,28.94,0,0,1-1.29,6.33h-17.83v8.06c0,4.51-.75,12.13-1.18,15.78-.11,1-.32,1.62-1.18,1.83a20.49,20.49,0,0,1-6.34.11Zm-45,44.46v-18.9c0-2.9-2.37-4.29-5.27-4.94.11-1,.54-4.51,1.94-4.51,2.57,0,8.16.75,11,.75h30c2.69,0,9.67-.43,12.35-.43,1.72,0,2.69.75,2.69,2.9v27.6c0,2.69-1.61,3.33-3.23,3.33h-44.67C2580.52,852.79,2578.7,851.07,2578.7,847Zm44-1.29V826.48h-35.43V845.7Z" transform="translate(-272.63 -57.95)"/></g><g class="cls-3"><path class="cls-6" d="M2755.09,793c0-15.46,10.63-25.88,25.77-25.88s25.77,10.42,25.77,25.88-10.63,25.88-25.77,25.88S2755.09,808.44,2755.09,793Zm42.74,0c0-11.38-7.2-18.57-17-18.57s-17,7.19-17,18.57,7.2,18.58,17,18.58S2797.83,804.46,2797.83,793Zm24.59-30.17c0-1.61-.54-2-1.83-3a22.24,22.24,0,0,0-7.41-2.9,18,18,0,0,1,1.4-3.87,1.25,1.25,0,0,1,1.18-.64,54.66,54.66,0,0,1,13.75,2.58c1.18.43,1.61.86,1.61,1.72v80.86c0,4.51-.75,12.14-1.18,15.79-.11,1-.32,1.61-1.18,1.82a20.49,20.49,0,0,1-6.34.11Z" transform="translate(-272.63 -57.95)"/></g><g class="cls-3"><path class="cls-6" d="M2353.92,981.81c-.54-.54-.75-.86-.75-1.29a10.48,10.48,0,0,1,1.71-3.55c3.87,1.19,9.89,1.19,13.75,1.19h12.24v-3.87c0-2.47-1.71-3.76-5.37-4.62a13.08,13.08,0,0,1,1.08-3.43,1.24,1.24,0,0,1,1.18-.65,57.06,57.06,0,0,1,9.77,1.72c1.29.43,1.61.64,1.61,1.5v9.35h10c3,0,10.74-.86,11.92-.86s1.83.21,1.83,1.29a30.06,30.06,0,0,1-1.18,6.76c-4.09-.32-7.74-.32-11.82-.32H2370a24.82,24.82,0,0,0-8.81,1.72A28,28,0,0,1,2353.92,981.81Zm9.45,26.42c0-9.78,7.62-18.37,20.94-18.37s20.94,8.59,20.94,18.37-7.62,18.36-20.94,18.36S2363.37,1018,2363.37,1008.23Zm33.4,0c0-6-4.51-11.39-12.46-11.39s-12.46,5.37-12.46,11.39,4.51,11.38,12.46,11.38S2396.77,1014.24,2396.77,1008.23Zm-18.15,50.58v-17c0-2.9-2.36-4.3-5.26-4.94.1-1,.53-4.51,1.93-4.51,2.58,0,8.16.75,10.95.75h30.18c2.69,0,9.67-.43,12.35-.43,1.72,0,2.69.75,2.69,2.9v25.67c0,2.68-1.62,3.33-3.23,3.33h-44.89C2380.44,1064.61,2378.62,1062.89,2378.62,1058.81Zm44.24-1.08V1040h-35.65v17.72Zm1-83.55c0-1.61-.54-2-1.83-3a22.48,22.48,0,0,0-7.41-2.89,15.77,15.77,0,0,1,1.4-3.66,1.25,1.25,0,0,1,1.18-.64,54.66,54.66,0,0,1,13.75,2.58c1.18.43,1.61.86,1.61,1.72v42.2c0,4.51-.75,12.14-1.18,15.79-.11,1-.32,1.61-1.18,1.82a20.19,20.19,0,0,1-6.34.11Z" transform="translate(-272.63 -57.95)"/></g><g class="cls-3"><path class="cls-6" d="M2552,1012.63a2.09,2.09,0,0,1-.65-1.29c0-.64,1.19-2.36,1.94-3.33,6.44,1.07,10.63,1.18,19.11,1.18h55.42c8.27,0,17.07-1,18.47-1s2,.21,2,1.5a33.88,33.88,0,0,1-1.29,7c-5.05-.22-11.17-.54-16.65-.54h-56.59c-3.87,0-7.63,1-12,2.26A25.85,25.85,0,0,1,2552,1012.63Zm20.72-19.55V978.8c0-3.33-3-4.3-6.22-4.72.1-1.08.53-4.62,2.36-4.62,2.68,0,8.91.75,11.81.75h34.9c3,0,10.74-.86,11.92-.86s1.83.21,1.83,1.29a29.4,29.4,0,0,1-1.18,6.66h-46.61v15.89h35.65c3,0,10.74-.86,11.93-.86s1.82.22,1.82,1.29a29.4,29.4,0,0,1-1.18,6.66h-49.83C2574.73,1000.28,2572.68,998,2572.68,993.08Zm2.05,66.48v-9.34c0-3.12-2.58-4.09-5.27-4.73.11-1,.86-4.19,2.26-4.19,1.72,0,5.8.32,8.37.32h42.21V1032h-36a27.77,27.77,0,0,0-8.8,1.18,24.43,24.43,0,0,1-7.73-4.83,1.45,1.45,0,0,1-.54-1c0-.64,1.18-2.15,1.82-3,3.87,1.19,9.88,1,13.75,1H2616c2.69,0,9.67-.43,12.35-.43,1.72,0,2.69.75,2.69,2.9v18.69c0,1.18-.54,1.82-1.4,1.82h-46.18v10.2h36.09c4.08,0,12.24-.85,13.31-.85,1.51,0,2,.21,2,1.5a26.77,26.77,0,0,1-1.18,6.23h-54.23C2576.55,1065.36,2574.73,1063.64,2574.73,1059.56Z" transform="translate(-272.63 -57.95)"/></g><g class="cls-3"><path class="cls-6" d="M2767.83,1035.61a33.5,33.5,0,0,1-3-4.4c14.39-9.24,33.83-27.71,40.6-44.57H2784.8a22.22,22.22,0,0,0-7.84,1.5,26.41,26.41,0,0,1-7-4.72,1.45,1.45,0,0,1-.54-1,13.26,13.26,0,0,1,1.61-3.65c4.08.75,8.81.64,13,.64h20.29c2.69,0,7.2-.43,9.35-.43s2.9,1.72,2.25,4.19c-1.82,7.09-6.44,14.93-12.24,22.45,8.16,9,12.67,13.85,20.94,22.12a1.48,1.48,0,0,1,0,2.26,41.53,41.53,0,0,1-5.48,5c-7.84-9.88-12.24-15.25-19.76-24.16-9.34,10.74-20.61,20.19-29.1,24.81A2,2,0,0,1,2767.83,1035.61Zm66.69-61.21c0-1.61-.54-2-1.82-3a22.43,22.43,0,0,0-7.41-2.9,17.5,17.5,0,0,1,1.39-3.87,1.25,1.25,0,0,1,1.18-.64,54.66,54.66,0,0,1,13.75,2.58c1.18.43,1.61.86,1.61,1.72v80.86c0,4.51-.75,12.14-1.18,15.79-.11,1-.32,1.61-1.18,1.82a20.19,20.19,0,0,1-6.34.11Z" transform="translate(-272.63 -57.95)"/></g><g class="cls-3"><path class="cls-6" d="M2967.92,1024.55V988.68c0-2.9-2.36-4.3-5.26-4.94.11-1,.54-4.51,1.93-4.51,2.58,0,8.17.75,11,.75h23c2.68,0,9.66-.43,12.35-.43,1.72,0,2.68.75,2.68,2.9V1027c0,2.68-1.61,3.33-3.22,3.33h-37.69C2969.75,1030.35,2967.92,1028.63,2967.92,1024.55Zm37-1.4v-36h-28.46v36Zm25.56-48.75c0-1.61-.54-2-1.82-3a22.43,22.43,0,0,0-7.41-2.9,17.5,17.5,0,0,1,1.39-3.87,1.25,1.25,0,0,1,1.18-.64,54.58,54.58,0,0,1,13.75,2.58c1.18.43,1.61.86,1.61,1.72v37.05h4.94c4.19,0,11.06-1.08,12.14-1.08,1.5,0,2,.22,2,1.51a29.06,29.06,0,0,1-1.29,6.33h-17.83v37.05c0,4.51-.75,12.14-1.18,15.79-.11,1-.32,1.61-1.18,1.82a20.19,20.19,0,0,1-6.34.11Z" transform="translate(-272.63 -57.95)"/></g><g class="cls-3"><path class="cls-6" d="M2544.83,1466.09a2.09,2.09,0,0,1-.65-1.29c0-.65,1.19-2.36,1.94-3.33,6.44,1.07,10.63,1.18,19.11,1.18h55.42c8.27,0,17.07-1,18.47-1s2,.22,2,1.51a35.57,35.57,0,0,1-1.29,7.19c-5-.21-11.17-.53-16.65-.53h-56.59c-3.87,0-7.63,1-12,2.25A26.31,26.31,0,0,1,2544.83,1466.09Zm14.39-24.06c-.54-.54-.75-.86-.75-1.29a9.46,9.46,0,0,1,1.72-3.22c3.86,1.18,9.88,1.18,13.74,1.18h2.58v-28.56h-1.4a35.15,35.15,0,0,0-9.23,1.28,41.58,41.58,0,0,1-6.88-4.94,1.66,1.66,0,0,1-.75-1.28A9.58,9.58,0,0,1,2560,1402c3.87,1.19,9.88,1.19,13.75,1.19H2614c3,0,10.74-.54,11.92-.54s1.82.21,1.82,1.29a28,28,0,0,1-1.18,6.55c-4.08-.32-7.73-.32-11.81-.32h-3.11v28.56h2.14c3,0,10.74-.53,11.92-.53s1.83.21,1.83,1.28a28.49,28.49,0,0,1-1.18,6.55c-4.08-.32-7.73-.32-11.81-.32h-39.2a24.82,24.82,0,0,0-8.81,1.72A31.54,31.54,0,0,1,2559.22,1442Zm44-3.33v-28.56h-18.36v28.56Z" transform="translate(-272.63 -57.95)"/></g><g class="cls-3"><path class="cls-6" d="M2759.82,1462.65a33.5,33.5,0,0,1-3-4.4c14.39-9.24,33.83-27.71,40.6-44.57h-20.62a22.22,22.22,0,0,0-7.84,1.5,26.41,26.41,0,0,1-7-4.72,1.45,1.45,0,0,1-.54-1,13,13,0,0,1,1.61-3.65c4.08.75,8.81.64,13,.64h20.29c2.69,0,7.2-.43,9.35-.43s2.9,1.72,2.25,4.19c-1.82,7.09-6.44,14.93-12.24,22.45,8.16,9,12.67,13.85,20.94,22.12a1.49,1.49,0,0,1,0,2.26,41.53,41.53,0,0,1-5.48,5c-7.84-9.88-12.24-15.25-19.76-24.16-9.34,10.74-20.62,20.19-29.1,24.81A2,2,0,0,1,2759.82,1462.65Zm66.69-61.21c0-1.61-.54-2-1.83-3a22.24,22.24,0,0,0-7.41-2.9,18,18,0,0,1,1.4-3.87,1.25,1.25,0,0,1,1.18-.64,54.66,54.66,0,0,1,13.75,2.58c1.18.43,1.61.86,1.61,1.72v80.86c0,4.51-.75,12.14-1.18,15.79-.11,1-.32,1.61-1.18,1.82a20.19,20.19,0,0,1-6.34.11Z" transform="translate(-272.63 -57.95)"/></g><g class="cls-3"><path class="cls-6" d="M2958.8,1451.59v-35.87c0-2.9-2.36-4.3-5.26-4.94.11-1,.54-4.51,1.93-4.51,2.58,0,8.17.75,11,.75h23c2.68,0,9.66-.43,12.35-.43,1.72,0,2.68.75,2.68,2.9v44.57c0,2.68-1.61,3.33-3.22,3.33h-37.69C2960.63,1457.39,2958.8,1455.67,2958.8,1451.59Zm37-1.4v-36h-28.46v36Zm25.56-48.75c0-1.61-.53-2-1.82-3a22.43,22.43,0,0,0-7.41-2.9,17.5,17.5,0,0,1,1.39-3.87,1.25,1.25,0,0,1,1.18-.64,54.58,54.58,0,0,1,13.75,2.58c1.18.43,1.61.86,1.61,1.72v37h4.94c4.19,0,11.06-1.08,12.14-1.08,1.5,0,2,.22,2,1.51a29.06,29.06,0,0,1-1.29,6.33h-17.83v37c0,4.51-.75,12.14-1.18,15.79-.11,1-.32,1.61-1.18,1.82a20.19,20.19,0,0,1-6.34.11Z" transform="translate(-272.63 -57.95)"/></g><g class="cls-3"><path class="cls-6" d="M1953.86,587.09V559c0-2.79-2.47-3.86-6-4.51a13.87,13.87,0,0,1,1.07-3.54,1.31,1.31,0,0,1,1.29-.75,35.92,35.92,0,0,1,11,2,1.8,1.8,0,0,1,1.28,1.93v9.56h27.39v-9c0-2.8-2.47-3.87-6-4.51a13.69,13.69,0,0,1,1.07-3.55,1.29,1.29,0,0,1,1.29-.75,35.86,35.86,0,0,1,11,2,1.8,1.8,0,0,1,1.29,1.93v39.74c0,2.68-1.61,3.33-3.22,3.33h-36.62C1955.69,592.89,1953.86,591.17,1953.86,587.09Zm36-1.18V570.66h-27.39v15.25Zm-17.61,45.75V613.51c0-2.9-2.37-4.3-5.27-4.94.11-1,.54-4.51,1.94-4.51,2.57,0,8.16.75,10.95.75h31.57c3,0,10.74-.86,11.92-.86s1.83.21,1.83,1.29a29.4,29.4,0,0,1-1.18,6.66h-43.06v19.86H2014c3,0,10.74-.86,11.92-.86s1.83.22,1.83,1.29a29.31,29.31,0,0,1-1.18,6.66h-47.15C1974.27,638.85,1972.23,636.6,1972.23,631.66Zm44.24-83c0-1.61-.54-2-1.82-3a22.67,22.67,0,0,0-7.41-2.89,15.37,15.37,0,0,1,1.39-3.66,1.25,1.25,0,0,1,1.18-.64,54.58,54.58,0,0,1,13.75,2.58c1.18.43,1.61.86,1.61,1.72v23.51h4.94c4.19,0,11.06-1.07,12.14-1.07,1.5,0,2,.22,2,1.5A29,29,0,0,1,2043,573h-17.83v8.48c0,4.51-.75,12.14-1.18,15.79-.11,1-.32,1.61-1.18,1.83a20.21,20.21,0,0,1-6.34.1Z" transform="translate(-272.63 -57.95)"/></g><g class="cls-3"><path class="cls-6" d="M2953.22,793c0-15.46,10.31-25.88,25.45-25.88s25.45,10.42,25.45,25.88-10.31,25.88-25.45,25.88S2953.22,808.44,2953.22,793Zm42.09,0c0-11.38-7.08-18.57-16.64-18.57S2962,781.59,2962,793s7.09,18.58,16.65,18.58S2995.31,804.36,2995.31,793Zm24-30.17c0-1.61-.54-2-1.82-3a22.43,22.43,0,0,0-7.41-2.9,17.5,17.5,0,0,1,1.39-3.87,1.25,1.25,0,0,1,1.18-.64,54.58,54.58,0,0,1,13.75,2.58c1.18.43,1.61.86,1.61,1.72v24.48h4.73c4.18,0,11.06-1.07,12.13-1.07,1.5,0,2,.21,2,1.5a28.43,28.43,0,0,1-1.29,6.34H3028v16.86h4.94c4.19,0,11.06-1.08,12.14-1.08,1.5,0,2,.22,2,1.51a28.94,28.94,0,0,1-1.29,6.33H3028v26c0,4.51-.75,12.14-1.18,15.79-.11,1-.32,1.61-1.18,1.82a20.49,20.49,0,0,1-6.34.11Z" transform="translate(-272.63 -57.95)"/></g><g class="cls-3"><path class="cls-6" d="M2350.16,1431.61c0-15.46,10.31-25.88,25.45-25.88s25.45,10.42,25.45,25.88-10.31,25.89-25.45,25.89S2350.16,1447.08,2350.16,1431.61Zm42.09,0c0-11.38-7.08-18.57-16.64-18.57s-16.65,7.19-16.65,18.57,7.09,18.58,16.65,18.58S2392.25,1443,2392.25,1431.61Zm23.95-30.17c0-1.61-.53-2-1.82-3a22.43,22.43,0,0,0-7.41-2.9,17.5,17.5,0,0,1,1.39-3.87,1.25,1.25,0,0,1,1.18-.64,54.58,54.58,0,0,1,13.75,2.58c1.18.43,1.61.86,1.61,1.72v37h4.94c4.19,0,11.06-1.08,12.14-1.08,1.5,0,2,.22,2,1.51a29.06,29.06,0,0,1-1.29,6.33H2424.9v37c0,4.51-.75,12.14-1.18,15.79-.11,1-.32,1.61-1.18,1.82a20.19,20.19,0,0,1-6.34.11Z" transform="translate(-272.63 -57.95)"/></g><g class="cls-3"><path class="cls-6" d="M1812.52,1454.06c-18.15,4.29-44.24,8.16-57.88,8.16-4.51,0-6-2.25-6-6.55v-18c0-3.12-2.58-4.08-5.26-4.73.11-1,.86-4.61,2.26-4.61,2.57,0,7.73.75,10.52.75h26.1v-15.9h-22.66a22,22,0,0,0-7.84,1.51,26.27,26.27,0,0,1-7-4.73,1.42,1.42,0,0,1-.54-1,13.08,13.08,0,0,1,1.61-3.65c4.08.75,8.81.65,13,.65h17.08c2.68,0,9.67-.43,12.35-.43,1.72,0,2.68.75,2.68,2.9v26c0,1.18-.53,1.82-1.39,1.82h-32.22v18.47c13.32,0,39.52-3.33,55.2-7.19v-46.07c0-1.61-.54-2-1.83-3a22.24,22.24,0,0,0-7.41-2.9,18,18,0,0,1,1.4-3.87,1.25,1.25,0,0,1,1.18-.64,54.66,54.66,0,0,1,13.75,2.58c1.18.43,1.61.86,1.61,1.72v80.86c0,4.51-.75,12.14-1.18,15.79-.11,1-.32,1.61-1.18,1.82a20.2,20.2,0,0,1-6.34.11Z" transform="translate(-272.63 -57.95)"/></g><g class="cls-3"><path class="cls-6" d="M1944.74,1466.52a2.12,2.12,0,0,1-.65-1.29c0-.65,1.19-2.36,1.94-3.33,6.44,1.07,10.63,1.18,19.11,1.18h20v-22.77c0-2.9-2.69-4.08-7-5.15a12.73,12.73,0,0,1,1.18-3.76,1.23,1.23,0,0,1,1.18-.64,54.26,54.26,0,0,1,11.81,1.61c1.18.32,1.51.64,1.51,1.5v29.21h26.74c8.27,0,17.07-1,18.47-1s2,.22,2,1.51a35.57,35.57,0,0,1-1.29,7.19c-5-.21-11.17-.54-16.65-.54h-56.59c-3.87,0-7.63,1-12,2.26A26.31,26.31,0,0,1,1944.74,1466.52Zm67.12-11.71a292.46,292.46,0,0,0,5.15-43.92h-41.13a26,26,0,0,0-8.7,1.5,29,29,0,0,1-8-5.26,1.84,1.84,0,0,1-.65-1.29,10.55,10.55,0,0,1,1.83-3.33c4.3,1.08,9,1.18,14.82,1.18h38.34c2.68,0,7.73-.53,10.42-.53,1.71,0,2.68.85,2.68,3,0,11.39-2.58,30.39-7,48.11a1.44,1.44,0,0,1-1.61,1.29A29.77,29.77,0,0,1,2011.86,1454.81Z" transform="translate(-272.63 -57.95)"/></g><g class="cls-3"><path class="cls-6" d="M1539.88,1466.09a2.09,2.09,0,0,1-.65-1.29c0-.65,1.19-2.36,1.94-3.33,6.44,1.07,10.63,1.18,19.11,1.18h43.5a427,427,0,0,0,5.9-51.23h-38.34a26,26,0,0,0-8.69,1.51,29.14,29.14,0,0,1-8.06-5.26,1.88,1.88,0,0,1-.64-1.29,10.38,10.38,0,0,1,1.82-3.33c4.3,1.07,9,1.18,14.82,1.18h35.55c2.68,0,7.73-.54,10.42-.54,1.71,0,2.68.86,2.68,3,0,11.17-3.54,38.23-7.73,56h4.19c8.27,0,17.07-1,18.47-1s2,.22,2,1.51a35.57,35.57,0,0,1-1.29,7.19c-5.05-.21-11.17-.53-16.65-.53h-56.59c-3.87,0-7.63,1-12,2.25A26.31,26.31,0,0,1,1539.88,1466.09Z" transform="translate(-272.63 -57.95)"/></g><g class="cls-3"><path class="cls-6" d="M2131.72,1498.88a42.16,42.16,0,0,0,4.86-5.85,16,16,0,0,0,2.54-8.15h-7.41v-16.63h18.77v13.66a21.58,21.58,0,0,1-3.86,12.11,31.64,31.64,0,0,1-10.12,9.63Z" transform="translate(-272.63 -57.95)"/></g></svg>