<svg id="Layer_1" data-name="Layer 1" xmlns="http://www.w3.org/2000/svg" viewBox="0 0 3321.6 1571.98"><defs><style>.cls-1,.cls-4{fill:none;stroke:#010101;stroke-miterlimit:10;}.cls-1{stroke-width:1.87px;}.cls-2{fill:#fff;}.cls-3,.cls-5,.cls-6{font-size:69.76px;}.cls-3{fill:#cfcece;}.cls-3,.cls-5,.cls-6,.cls-8{font-family:RIDIBatang-KSCpc-EUC-H, RIDIBatang;}.cls-4{stroke-width:2px;}.cls-6,.cls-7,.cls-8{fill:#010101;}.cls-7{font-size:164.64px;font-family:BMHANNAPro, BM HANNA Pro;}.cls-8{font-size:107.39px;}</style></defs><line class="cls-1" x1="274.21" y1="291.16" x2="274.21" y2="471.8"/><line class="cls-1" x1="476.35" y1="291.16" x2="476.35" y2="471.8"/><line class="cls-1" x1="678.48" y1="291.16" x2="678.48" y2="471.8"/><line class="cls-1" x1="880.62" y1="291.16" x2="880.62" y2="471.8"/><line class="cls-1" x1="2093.43" y1="291.16" x2="2093.43" y2="471.8"/><line class="cls-1" x1="1082.75" y1="291.16" x2="1082.75" y2="471.8"/><line class="cls-1" x1="1284.89" y1="291.16" x2="1284.89" y2="471.8"/><line class="cls-1" x1="1487.02" y1="291.16" x2="1487.02" y2="471.8"/><line class="cls-1" x1="1689.16" y1="291.16" x2="1689.16" y2="471.8"/><line class="cls-1" x1="1891.3" y1="291.16" x2="1891.3" y2="471.8"/><line class="cls-1" x1="3104.11" y1="291.16" x2="3104.11" y2="471.8"/><line class="cls-1" x1="2295.57" y1="291.16" x2="2295.57" y2="471.8"/><line class="cls-1" x1="2497.7" y1="291.16" x2="2497.7" y2="471.8"/><line class="cls-1" x1="2699.84" y1="291.16" x2="2699.84" y2="471.8"/><line class="cls-1" x1="2901.97" y1="291.16" x2="2901.97" y2="471.8"/><line class="cls-1" x1="272.63" y1="290.45" x2="3103.47" y2="290.45"/><line class="cls-1" x1="272.63" y1="471.33" x2="3103.47" y2="471.33"/><rect class="cls-2" x="297.37" y="315.21" width="553.05" height="130.83"/><text class="cls-3" transform="translate(323.2 406.45)"><tspan xml:space="preserve">너 잘못이 아니야  </tspan></text><line class="cls-4" x1="2242.56" y1="167.68" x2="3105.76" y2="167.68"/><line class="cls-1" x1="274.21" y1="503.03" x2="274.21" y2="683.67"/><line class="cls-1" x1="476.35" y1="503.03" x2="476.35" y2="683.67"/><line class="cls-1" x1="678.48" y1="503.03" x2="678.48" y2="683.67"/><line class="cls-1" x1="880.62" y1="503.03" x2="880.62" y2="683.67"/><line class="cls-1" x1="2093.43" y1="503.03" x2="2093.43" y2="683.67"/><line class="cls-1" x1="1082.75" y1="503.03" x2="1082.75" y2="683.67"/><line class="cls-1" x1="1284.89" y1="503.03" x2="1284.89" y2="683.67"/><line class="cls-1" x1="1487.02" y1="503.03" x2="1487.02" y2="683.67"/><line class="cls-1" x1="1689.16" y1="503.03" x2="1689.16" y2="683.67"/><line class="cls-1" x1="1891.3" y1="503.03" x2="1891.3" y2="683.67"/><line class="cls-1" x1="3104.11" y1="503.03" x2="3104.11" y2="683.67"/><line class="cls-1" x1="2295.57" y1="503.03" x2="2295.57" y2="683.67"/><line class="cls-1" x1="2497.7" y1="503.03" x2="2497.7" y2="683.67"/><line class="cls-1" x1="2699.84" y1="503.03" x2="2699.84" y2="683.67"/><line class="cls-1" x1="2901.97" y1="503.03" x2="2901.97" y2="683.67"/><line class="cls-1" x1="272.63" y1="502.32" x2="3103.47" y2="502.32"/><line class="cls-1" x1="272.63" y1="683.2" x2="3103.47" y2="683.2"/><line class="cls-1" x1="274.21" y1="714.9" x2="274.21" y2="895.54"/><line class="cls-1" x1="476.35" y1="714.9" x2="476.35" y2="895.54"/><line class="cls-1" x1="678.48" y1="714.9" x2="678.48" y2="895.54"/><line class="cls-1" x1="880.62" y1="714.9" x2="880.62" y2="895.54"/><line class="cls-1" x1="2093.43" y1="714.9" x2="2093.43" y2="895.54"/><line class="cls-1" x1="1082.75" y1="714.9" x2="1082.75" y2="895.54"/><line class="cls-1" x1="1284.89" y1="714.9" x2="1284.89" y2="895.54"/><line class="cls-1" x1="1487.02" y1="714.9" x2="1487.02" y2="895.54"/><line class="cls-1" x1="1689.16" y1="714.9" x2="1689.16" y2="895.54"/><line class="cls-1" x1="1891.3" y1="714.9" x2="1891.3" y2="895.54"/><line class="cls-1" x1="3104.11" y1="714.9" x2="3104.11" y2="895.54"/><line class="cls-1" x1="2295.57" y1="714.9" x2="2295.57" y2="895.54"/><line class="cls-1" x1="2497.7" y1="714.9" x2="2497.7" y2="895.54"/><line class="cls-1" x1="2699.84" y1="714.9" x2="2699.84" y2="895.54"/><line class="cls-1" x1="2901.97" y1="714.9" x2="2901.97" y2="895.54"/><line class="cls-1" x1="272.63" y1="714.19" x2="3103.47" y2="714.19"/><line class="cls-1" x1="272.63" y1="895.07" x2="3103.47" y2="895.07"/><line class="cls-1" x1="274.21" y1="926.77" x2="274.21" y2="1107.41"/><line class="cls-1" x1="476.35" y1="926.77" x2="476.35" y2="1107.41"/><line class="cls-1" x1="678.48" y1="926.77" x2="678.48" y2="1107.41"/><line class="cls-1" x1="880.62" y1="926.77" x2="880.62" y2="1107.41"/><line class="cls-1" x1="2093.43" y1="926.77" x2="2093.43" y2="1107.41"/><line class="cls-1" x1="1082.75" y1="926.77" x2="1082.75" y2="1107.41"/><line class="cls-1" x1="1284.89" y1="926.77" x2="1284.89" y2="1107.41"/><line class="cls-1" x1="1487.02" y1="926.77" x2="1487.02" y2="1107.41"/><line class="cls-1" x1="1689.16" y1="926.77" x2="1689.16" y2="1107.41"/><line class="cls-1" x1="1891.3" y1="926.77" x2="1891.3" y2="1107.41"/><line class="cls-1" x1="3104.11" y1="926.77" x2="3104.11" y2="1107.41"/><line class="cls-1" x1="2295.57" y1="926.77" x2="2295.57" y2="1107.41"/><line class="cls-1" x1="2497.7" y1="926.77" x2="2497.7" y2="1107.41"/><line class="cls-1" x1="2699.84" y1="926.77" x2="2699.84" y2="1107.41"/><line class="cls-1" x1="2901.97" y1="926.77" x2="2901.97" y2="1107.41"/><line class="cls-1" x1="272.63" y1="926.06" x2="3103.47" y2="926.06"/><line class="cls-1" x1="272.63" y1="1106.94" x2="3103.47" y2="1106.94"/><line class="cls-1" x1="274.21" y1="1138.64" x2="274.21" y2="1319.28"/><line class="cls-1" x1="476.35" y1="1138.64" x2="476.35" y2="1319.28"/><line class="cls-1" x1="678.48" y1="1138.64" x2="678.48" y2="1319.28"/><line class="cls-1" x1="880.62" y1="1138.64" x2="880.62" y2="1319.28"/><line class="cls-1" x1="2093.43" y1="1138.64" x2="2093.43" y2="1319.28"/><line class="cls-1" x1="1082.75" y1="1138.64" x2="1082.75" y2="1319.28"/><line class="cls-1" x1="1284.89" y1="1138.64" x2="1284.89" y2="1319.28"/><line class="cls-1" x1="1487.02" y1="1138.64" x2="1487.02" y2="1319.28"/><line class="cls-1" x1="1689.16" y1="1138.64" x2="1689.16" y2="1319.28"/><line class="cls-1" x1="1891.3" y1="1138.64" x2="1891.3" y2="1319.28"/><line class="cls-1" x1="3104.11" y1="1138.64" x2="3104.11" y2="1319.28"/><line class="cls-1" x1="2295.57" y1="1138.64" x2="2295.57" y2="1319.28"/><line class="cls-1" x1="2497.7" y1="1138.64" x2="2497.7" y2="1319.28"/><line class="cls-1" x1="2699.84" y1="1138.64" x2="2699.84" y2="1319.28"/><line class="cls-1" x1="2901.97" y1="1138.64" x2="2901.97" y2="1319.28"/><line class="cls-1" x1="272.63" y1="1137.93" x2="3103.47" y2="1137.93"/><line class="cls-1" x1="272.63" y1="1318.81" x2="3103.47" y2="1318.81"/><line class="cls-1" x1="274.21" y1="1350.5" x2="274.21" y2="1531.15"/><line class="cls-1" x1="476.35" y1="1350.5" x2="476.35" y2="1531.15"/><line class="cls-1" x1="678.48" y1="1350.5" x2="678.48" y2="1531.15"/><line class="cls-1" x1="880.62" y1="1350.5" x2="880.62" y2="1531.15"/><line class="cls-1" x1="2093.43" y1="1350.5" x2="2093.43" y2="1531.15"/><line class="cls-1" x1="1082.75" y1="1350.5" x2="1082.75" y2="1531.15"/><line class="cls-1" x1="1284.89" y1="1350.5" x2="1284.89" y2="1531.15"/><line class="cls-1" x1="1487.02" y1="1350.5" x2="1487.02" y2="1531.15"/><line class="cls-1" x1="1689.16" y1="1350.5" x2="1689.16" y2="1531.15"/><line class="cls-1" x1="1891.3" y1="1350.5" x2="1891.3" y2="1531.15"/><line class="cls-1" x1="3104.11" y1="1350.5" x2="3104.11" y2="1531.15"/><line class="cls-1" x1="2295.57" y1="1350.5" x2="2295.57" y2="1531.15"/><line class="cls-1" x1="2497.7" y1="1350.5" x2="2497.7" y2="1531.15"/><line class="cls-1" x1="2699.84" y1="1350.5" x2="2699.84" y2="1531.15"/><line class="cls-1" x1="2901.97" y1="1350.5" x2="2901.97" y2="1531.15"/><line class="cls-1" x1="272.63" y1="1349.8" x2="3103.47" y2="1349.8"/><line class="cls-1" x1="272.63" y1="1530.68" x2="3103.47" y2="1530.68"/><rect class="cls-2" x="322.67" y="738.79" width="553.05" height="130.83"/><text class="cls-5" transform="translate(319.32 827.86)">넌 혼자가 아니야</text><rect class="cls-2" x="317.64" y="1163.89" width="317.35" height="130.83"/><text class="cls-3" transform="translate(328.53 1250.76)">아프지마</text><text class="cls-6" transform="translate(2393.57 112.5)">힘들어 하고 있을 너에게</text><text class="cls-7" transform="translate(823.64 840.27) rotate(-0.03)">,</text><text class="cls-8" transform="translate(2148.4 420.74)">넌</text><text class="cls-8" transform="translate(2556.95 420.74)">절</text><text class="cls-8" transform="translate(1946.08 632.05)">혼</text><text class="cls-8" transform="translate(2146.79 632.05)">자</text><text class="cls-8" transform="translate(2753.64 420.74)">대</text><text class="cls-8" transform="translate(2956.72 420.74)">로</text><text class="cls-8" transform="translate(2349.45 632.04)">가</text><text class="cls-8" transform="translate(2754.17 632.05)">아</text><text class="cls-8" transform="translate(2956.18 632.04)">냐</text><text class="cls-8" transform="translate(2557.49 836.1)">힘</text><text class="cls-8" transform="translate(2957.79 836.1)">걸</text><text class="cls-8" transform="translate(2556.95 1047.14)">현</text><text class="cls-8" transform="translate(2753.64 1047.13)">해</text><text class="cls-8" transform="translate(2956.72 1047.13)">줘</text><text class="cls-8" transform="translate(2349.98 1473.96)">도</text><text class="cls-8" transform="translate(2555.34 1473.96)">와</text><text class="cls-8" transform="translate(2754.71 1473.96)">줄</text><text class="cls-8" transform="translate(2955.64 1473.96)">게</text><text class="cls-8" transform="translate(2754.71 836.1)">든</text><text class="cls-8" transform="translate(1744.28 836.1)">나</text><text class="cls-8" transform="translate(2146.25 836.1)">게</text><text class="cls-8" transform="translate(1945.01 836.1)">에</text><text class="cls-8" transform="translate(2349.98 1047.13)">표</text></svg>