<svg id="Layer_1" data-name="Layer 1" xmlns="http://www.w3.org/2000/svg" viewBox="0 0 179.53 236.19"><defs><style>.cls-1{fill:#fff;stroke:#241916;stroke-width:2px;}.cls-1,.cls-2{stroke-linecap:round;stroke-linejoin:round;}.cls-2{fill:none;stroke:#010101;}.cls-3{isolation:isolate;}.cls-4{fill:#010101;}</style></defs><path class="cls-1" d="M185.75,159.9l-3.41,8.67-23.46,59.59a14,14,0,0,1-13,8.86H91.36a14,14,0,0,1-14-14,14.16,14.16,0,0,1,1-5.15L101.45,160h0l-79.21.09a14,14,0,0,1-14-14V16.83a14,14,0,0,1,14-14H171.77a14,14,0,0,1,14,14V159.9" transform="translate(-7.24 -1.83)"/><polyline class="cls-2" points="133.41 32.69 153.84 32.69 148 26.85"/><g class="cls-3"><g class="cls-3"><path class="cls-4" d="M42.39,84.12V77.4c0-.3,0-.48-.22-.6a2.75,2.75,0,0,0-1.12-.4,2.81,2.81,0,0,1,.22-.66.23.23,0,0,1,.22-.12,8.36,8.36,0,0,1,2.24.4c.22.08.3.18.3.34v7.58A46.27,46.27,0,0,0,52.17,83a3.63,3.63,0,0,1,.22.92.24.24,0,0,1-.2.28,48.27,48.27,0,0,1-8.68,1.12C42.67,85.34,42.39,84.92,42.39,84.12Zm11.8-3.8H48.67a5.35,5.35,0,0,1-.24-1.18c0-.24.1-.28.38-.28s1.48.14,2.26.14h3.12V74.52c0-.3-.1-.38-.34-.56a4.19,4.19,0,0,0-1.38-.54,3.26,3.26,0,0,1,.26-.72.23.23,0,0,1,.22-.12,10.16,10.16,0,0,1,2.56.48c.22.08.3.16.3.32V88.44c0,.84-.14,2.26-.22,2.94,0,.18-.06.3-.22.34a3.79,3.79,0,0,1-1.18,0Z" transform="translate(-7.24 -1.83)"/><path class="cls-4" d="M70.07,80.86H68.19C68,83.44,66.27,85,64,85c-2.44,0-4.24-1.82-4.24-4.78s1.8-4.78,4.24-4.78c2.24,0,3.92,1.56,4.16,4.12h1.88v-4c0-.32,0-.48-.26-.6a5.13,5.13,0,0,0-1.14-.42,2.66,2.66,0,0,1,.26-.66.26.26,0,0,1,.24-.12,8.54,8.54,0,0,1,2.14.34c.22.08.3.18.3.34V87.84c0,.84-.1,2.26-.18,2.94,0,.18-.06.3-.22.34a3.53,3.53,0,0,1-1.14,0Zm-3.38-.66c0-2.16-1.18-3.42-2.66-3.42S61.37,78,61.37,80.2s1.18,3.42,2.66,3.42S66.69,82.36,66.69,80.2Zm6.78-5.68a.66.66,0,0,0-.32-.6,3.29,3.29,0,0,0-1.32-.52,3,3,0,0,1,.26-.7.23.23,0,0,1,.22-.12,9.23,9.23,0,0,1,2.44.46c.22.08.3.16.3.32V88.44c0,.84-.1,2.26-.18,2.94,0,.18-.06.3-.22.34a3.79,3.79,0,0,1-1.18,0Z" transform="translate(-7.24 -1.83)"/><path class="cls-4" d="M89.11,81.6h-4.7a19.86,19.86,0,0,1-4.56,4.54.39.39,0,0,1-.46,0,6.22,6.22,0,0,1-.62-.82c2.4-1.78,5.44-5.22,6.4-8.18H82.23a4.6,4.6,0,0,0-1.56.22,8.92,8.92,0,0,1-1.4-.84c-.06-.06-.1-.1-.1-.18a2.35,2.35,0,0,1,.3-.66,19.43,19.43,0,0,0,2.42.1h3c.5,0,1.34-.08,1.74-.08s.52.32.42.78a12.42,12.42,0,0,1-1.7,3.82h3.78v-4.7c0-.32,0-.48-.26-.6a5.13,5.13,0,0,0-1.14-.42A2.66,2.66,0,0,1,88,73.9a.26.26,0,0,1,.24-.12,8.54,8.54,0,0,1,2.14.34c.22.08.3.18.3.34V87.84c0,.84-.1,2.26-.18,2.94,0,.18-.06.3-.22.34a3.53,3.53,0,0,1-1.14,0Zm3.6-7.08a.66.66,0,0,0-.32-.6,3.29,3.29,0,0,0-1.32-.52,3,3,0,0,1,.26-.7.23.23,0,0,1,.22-.12A9.23,9.23,0,0,1,94,73c.22.08.3.16.3.32V88.44c0,.84-.1,2.26-.18,2.94,0,.18-.06.3-.22.34a3.79,3.79,0,0,1-1.18,0Z" transform="translate(-7.24 -1.83)"/></g><g class="cls-3"><path class="cls-4" d="M54,111.9c-3.32.52-7.44,1-8.7,1.16s-1.8.24-2.36.38a8.87,8.87,0,0,1-1.84-.94.21.21,0,0,1-.1-.18,1.53,1.53,0,0,1,.3-.6,18.26,18.26,0,0,0,2.58.14v-5.28a5.52,5.52,0,0,0-1.3.22,7.89,7.89,0,0,1-1.28-.84.31.31,0,0,1-.14-.24,1.77,1.77,0,0,1,.32-.6,10.08,10.08,0,0,0,2.56.22h5.36c.56,0,2-.1,2.22-.1s.34,0,.34.24a4.7,4.7,0,0,1-.22,1.14c-.7-.06-1.34-.06-2-.06v4.82c1.42-.16,2.88-.36,4.28-.62v-5.64c0-.3-.1-.38-.34-.56a4.19,4.19,0,0,0-1.38-.54,2.85,2.85,0,0,1,.26-.68.23.23,0,0,1,.22-.12,10.16,10.16,0,0,1,2.56.48c.22.08.3.16.3.32v6.38c0,.84-.14,2.26-.22,2.94,0,.18-.06.3-.22.34a3.79,3.79,0,0,1-1.18,0Zm-8.22,9v-1.7c0-.58-.48-.76-1-.88,0-.18.16-.78.42-.78s1.08.06,1.56.06h7v-1.8H47.87a5.17,5.17,0,0,0-1.64.22,4.55,4.55,0,0,1-1.44-.9.27.27,0,0,1-.1-.18,1.8,1.8,0,0,1,.34-.58,10,10,0,0,0,2.56.18h5c.5,0,1.8-.08,2.3-.08.32,0,.5.14.5.54v3.5c0,.22-.1.34-.26.34H47.39v1.86h6.08c.76,0,2.28-.16,2.48-.16s.38,0,.38.28a5,5,0,0,1-.22,1.16H46.65C46.11,122,45.77,121.66,45.77,120.9Zm2.38-9.34v-5H45.43v5.24C46.25,111.74,47.17,111.66,48.15,111.56Z" transform="translate(-7.24 -1.83)"/><path class="cls-4" d="M58.83,117.4a.39.39,0,0,1-.12-.24,1.87,1.87,0,0,1,.36-.62,18.94,18.94,0,0,0,3.56.22h1.8V112.6a4.14,4.14,0,0,1-1.64-3.3c0-2.26,1.86-4.38,5.14-4.38s5.14,2.12,5.14,4.38a4.11,4.11,0,0,1-1.62,3.28v4.18H73c1.54,0,3.18-.18,3.44-.18s.38,0,.38.28a6.58,6.58,0,0,1-.24,1.34c-.94,0-2.08-.1-3.1-.1H62.89a8,8,0,0,0-2.24.42A4.88,4.88,0,0,1,58.83,117.4Zm12.62-8.1c0-1.6-1.14-3-3.52-3s-3.52,1.44-3.52,3,1.14,3,3.52,3S71.45,110.9,71.45,109.3Zm-1.62,7.46v-3.34a7,7,0,0,1-1.9.26,6.78,6.78,0,0,1-1.88-.26v3.34Z" transform="translate(-7.24 -1.83)"/><path class="cls-4" d="M78.05,106.74c-.1-.1-.14-.16-.14-.24a2,2,0,0,1,.32-.66,10.08,10.08,0,0,0,2.56.22h2.28v-.92c0-.46-.32-.7-1-.86a2.41,2.41,0,0,1,.2-.64.23.23,0,0,1,.22-.12,10.62,10.62,0,0,1,1.82.32c.24.08.3.12.3.28v1.94h1.86c.56,0,2-.16,2.22-.16s.34,0,.34.24a5.57,5.57,0,0,1-.22,1.26c-.76-.06-1.44-.06-2.2-.06H81.05a4.62,4.62,0,0,0-1.64.32A5.2,5.2,0,0,1,78.05,106.74Zm1.76,5c0-2,1.48-3.52,3.9-3.52s3.9,1.54,3.9,3.52-1.48,3.52-3.9,3.52S79.81,113.74,79.81,111.76Zm6.22,0A2.32,2.32,0,1,0,83.71,114,2.18,2.18,0,0,0,86,111.76Zm-2.88,8.78v-2.38c0-.3,0-.44-.22-.56a2.3,2.3,0,0,0-1.12-.36,2.19,2.19,0,0,1,.14-.66.23.23,0,0,1,.22-.12,8.73,8.73,0,0,1,2.3.28c.22.08.3.18.3.34v3.36h5.94c.76,0,2.28-.22,2.48-.22s.38,0,.38.28a5.76,5.76,0,0,1-.22,1.26H84.27C83.43,121.76,83.15,121.34,83.15,120.54Zm7.78-15.42c0-.3-.1-.38-.34-.56a4.19,4.19,0,0,0-1.38-.54,2.85,2.85,0,0,1,.26-.68.23.23,0,0,1,.22-.12,10.16,10.16,0,0,1,2.56.48c.22.08.3.16.3.32v5.66h.82c.78,0,2.06-.2,2.26-.2s.38,0,.38.28a5.35,5.35,0,0,1-.24,1.18H92.55v3.36c0,.84-.14,2.26-.22,2.94,0,.18-.06.3-.22.34a3.79,3.79,0,0,1-1.18,0Z" transform="translate(-7.24 -1.83)"/><path class="cls-4" d="M104.33,107.2a4.45,4.45,0,0,1,2-3.46l.54.46a3.51,3.51,0,0,0-1.4,2.18.92.92,0,0,1,.2,0,1.15,1.15,0,1,1,0,2.3C104.81,108.66,104.33,108.14,104.33,107.2Z" transform="translate(-7.24 -1.83)"/><path class="cls-4" d="M122,115.4h-4.24a8,8,0,0,0-2.24.42,4.88,4.88,0,0,1-1.82-1.12.39.39,0,0,1-.12-.24,1.87,1.87,0,0,1,.36-.62,18.94,18.94,0,0,0,3.56.22h10.32c1.54,0,3.18-.18,3.44-.18s.38,0,.38.28a6.58,6.58,0,0,1-.24,1.34c-.94,0-2.08-.1-3.1-.1h-4.68v3.68c0,.84-.14,2.26-.22,2.94,0,.18-.06.3-.22.34a3.79,3.79,0,0,1-1.18,0Zm-4.14-7.06c0-2.14,1.82-4.1,4.94-4.1s4.94,2,4.94,4.1-1.82,4.1-4.94,4.1S117.87,110.48,117.87,108.34Zm8.26,0c0-1.44-1.1-2.76-3.32-2.76s-3.32,1.32-3.32,2.76,1.1,2.76,3.32,2.76S126.13,109.78,126.13,108.34Z" transform="translate(-7.24 -1.83)"/><path class="cls-4" d="M146,115a58.42,58.42,0,0,1-10.78,1.52c-.84,0-1.12-.42-1.12-1.22V111.9c0-.58-.48-.76-1-.88,0-.18.16-.86.42-.86.48,0,1.44.14,2,.14h4.86v-3h-4.22a4.11,4.11,0,0,0-1.46.28,4.93,4.93,0,0,1-1.3-.88.27.27,0,0,1-.1-.18,2.44,2.44,0,0,1,.3-.68A13.92,13.92,0,0,0,136,106h3.18c.5,0,1.8-.08,2.3-.08.32,0,.5.14.5.54v4.84c0,.22-.1.34-.26.34h-6v3.44A54.56,54.56,0,0,0,146,113.74v-8.58c0-.3-.1-.38-.34-.56a4.19,4.19,0,0,0-1.38-.54,3.26,3.26,0,0,1,.26-.72.23.23,0,0,1,.22-.12,10.16,10.16,0,0,1,2.56.48c.22.08.3.16.3.32v15.06c0,.84-.14,2.26-.22,2.94,0,.18-.06.3-.22.34a3.79,3.79,0,0,1-1.18,0Z" transform="translate(-7.24 -1.83)"/><path class="cls-4" d="M157,108.2a3.51,3.51,0,0,0,1.4-2.18.92.92,0,0,1-.2,0,1.15,1.15,0,1,1,0-2.3c.84,0,1.32.52,1.32,1.46a4.45,4.45,0,0,1-2,3.46Z" transform="translate(-7.24 -1.83)"/></g></g></svg>