<svg id="Layer_1" data-name="Layer 1" xmlns="http://www.w3.org/2000/svg" viewBox="0 0 179.53 236.19"><defs><style>.cls-1{fill:#fff;stroke:#241916;stroke-width:2px;}.cls-1,.cls-2{stroke-linecap:round;stroke-linejoin:round;}.cls-2{fill:none;stroke:#010101;}.cls-3{isolation:isolate;}.cls-4{fill:#010101;}</style></defs><path class="cls-1" d="M185.75,159.9l-3.41,8.67-23.46,59.59a14,14,0,0,1-13,8.86H91.36a14,14,0,0,1-14-14,14.16,14.16,0,0,1,1-5.15L101.45,160h0l-79.21.09a14,14,0,0,1-14-14V16.83a14,14,0,0,1,14-14H171.77a14,14,0,0,1,14,14V159.9" transform="translate(-7.24 -1.83)"/><polyline class="cls-2" points="133.41 32.69 153.84 32.69 148 26.85"/><g class="cls-3"><g class="cls-3"><path class="cls-4" d="M47,113.91c2-1.72,4.84-5.64,4.84-7,0-.44-.6-.8-1.3-1.08a3.9,3.9,0,0,1,.4-.6.16.16,0,0,1,.16-.08,6.25,6.25,0,0,1,2.4.86.56.56,0,0,1,.22.52,6.29,6.29,0,0,1-1.08,2.68c1.3,1.28,2.46,2.48,3.7,3.66.16.16.12.28,0,.42a7.57,7.57,0,0,1-1,.92c-1.22-1.44-2.26-2.66-3.4-3.92a22.85,22.85,0,0,1-3.78,4.38.3.3,0,0,1-.44,0A8.71,8.71,0,0,1,47,113.91Zm5.72,6.6v-2.94c0-.3,0-.44-.22-.56a2.3,2.3,0,0,0-1.12-.36,2.19,2.19,0,0,1,.14-.66.23.23,0,0,1,.22-.12,8.73,8.73,0,0,1,2.3.28c.22.08.3.18.3.34v3.92H60.8c.76,0,2.28-.22,2.48-.22s.38,0,.38.28a5.76,5.76,0,0,1-.22,1.26h-9.6C53,121.73,52.72,121.31,52.72,120.51ZM58,110.11H55a5.35,5.35,0,0,1-.24-1.18c0-.24.1-.28.38-.28s1.66.14,2.44.14H58v-2.56c0-.32,0-.48-.26-.6a5.13,5.13,0,0,0-1.14-.42,2.66,2.66,0,0,1,.26-.66.26.26,0,0,1,.24-.12,8.54,8.54,0,0,1,2.14.34c.22.08.3.18.3.34v8.56c0,.84-.1,2.26-.18,2.94,0,.18-.06.3-.22.34A3.53,3.53,0,0,1,58,117Zm3.3-4.94a.66.66,0,0,0-.32-.6,3.29,3.29,0,0,0-1.32-.52,3,3,0,0,1,.26-.7.23.23,0,0,1,.22-.12,9.23,9.23,0,0,1,2.44.46c.22.08.3.16.3.32v10.26c0,.84-.1,2.26-.18,2.94,0,.18-.06.3-.22.34a3.79,3.79,0,0,1-1.18,0Z" transform="translate(-7.24 -1.83)"/><path class="cls-4" d="M67.6,115.15v-7.52c0-.54-.44-.8-1-.92,0-.18.1-.84.36-.84.48,0,1.52.14,2,.14h4.42c.56,0,2-.16,2.22-.16s.34,0,.34.24a5.57,5.57,0,0,1-.22,1.26H69.22v2.9h3.4c.56,0,2-.16,2.22-.16s.34,0,.34.24a5.57,5.57,0,0,1-.22,1.26H69.22V115a45,45,0,0,0,8-.94,3.63,3.63,0,0,1,.22.92.24.24,0,0,1-.2.28,46.69,46.69,0,0,1-8.52,1.12C67.88,116.37,67.6,116,67.6,115.15Zm12.1-3.66H76.12a5.35,5.35,0,0,1-.24-1.18c0-.24.1-.28.38-.28s1.48.14,2.26.14H79.7v-5c0-.3-.1-.38-.34-.56a4.19,4.19,0,0,0-1.38-.54,3.26,3.26,0,0,1,.26-.72.23.23,0,0,1,.22-.12,10.16,10.16,0,0,1,2.56.48c.22.08.3.16.3.32v15.06c0,.84-.14,2.26-.22,2.94,0,.18-.06.3-.22.34a3.79,3.79,0,0,1-1.18,0Z" transform="translate(-7.24 -1.83)"/><path class="cls-4" d="M91.16,114.19a3.85,3.85,0,0,1-.5-.76,32.22,32.22,0,0,0,7.62-6.26h-3.4a4.72,4.72,0,0,0-1.66.32,6.88,6.88,0,0,1-1.5-.88c-.06-.06-.1-.1-.1-.18a2.18,2.18,0,0,1,.3-.62,13.93,13.93,0,0,0,2.42.16h1.22v-.84c0-.46-.32-.7-1-.86a2.11,2.11,0,0,1,.2-.6.23.23,0,0,1,.22-.12,10.62,10.62,0,0,1,1.82.32c.24.08.3.12.3.28V106h1c.7,0,1.48-.08,1.9-.08a.67.67,0,0,1,.42,1.1,20.14,20.14,0,0,1-2.64,2.8c1.4.9,2.8,1.78,4.18,2.64a.21.21,0,0,1,0,.34,5,5,0,0,1-1,.92c-1.32-1-2.7-2-4.14-3.1a31.2,31.2,0,0,1-5.2,3.64A.35.35,0,0,1,91.16,114.19Zm2.64,8a3,3,0,0,1-.58-.78,20.2,20.2,0,0,0,6.14-4.72H96.9a4.62,4.62,0,0,0-1.64.32,5.23,5.23,0,0,1-1.36-.94c-.1-.1-.14-.16-.14-.24a1.89,1.89,0,0,1,.32-.64,10.08,10.08,0,0,0,2.56.22h6.42c.56,0,2-.16,2.22-.16s.34,0,.34.24a5.57,5.57,0,0,1-.22,1.26c-.76-.06-1.44-.06-2.2-.06h-1.8a5.88,5.88,0,0,1-.78,1c1.78,1.08,3.52,2.08,5.46,3.16a.22.22,0,0,1,.06.34,5,5,0,0,1-1.12,1c-1.7-1.22-3.38-2.4-5.24-3.64a24.15,24.15,0,0,1-5.6,3.68A.31.31,0,0,1,93.8,122.21Zm9.7-17.08c0-.3-.1-.38-.34-.56a4.19,4.19,0,0,0-1.38-.54,2.85,2.85,0,0,1,.26-.68.23.23,0,0,1,.22-.12,10.16,10.16,0,0,1,2.56.48c.22.08.3.16.3.32v4.46H106c.78,0,2.06-.2,2.26-.2s.38,0,.38.28a5.35,5.35,0,0,1-.24,1.18h-3.32V111c0,.84-.14,2.26-.22,2.94,0,.18-.06.3-.22.34a3.79,3.79,0,0,1-1.18,0Z" transform="translate(-7.24 -1.83)"/><path class="cls-4" d="M110.84,116.77a4.56,4.56,0,0,1-.56-.86c2.68-1.72,6.34-5.3,7.6-8.44h-4.24a4.11,4.11,0,0,0-1.46.28,4.93,4.93,0,0,1-1.3-.88.27.27,0,0,1-.1-.18,2.54,2.54,0,0,1,.3-.7,13.92,13.92,0,0,0,2.42.12h4.18c.5,0,1.34-.08,1.74-.08s.54.32.42.78c-.92,3.58-5.64,8.38-8.54,10A.36.36,0,0,1,110.84,116.77Zm11.94-11.6c0-.3-.1-.38-.34-.56a4.19,4.19,0,0,0-1.38-.54,3.26,3.26,0,0,1,.26-.72.23.23,0,0,1,.22-.12,10.16,10.16,0,0,1,2.56.48c.22.08.3.16.3.32v15.06c0,.84-.14,2.26-.22,2.94,0,.18-.06.3-.22.34a3.79,3.79,0,0,1-1.18,0Z" transform="translate(-7.24 -1.83)"/></g></g></svg>