<svg id="Layer_1" data-name="Layer 1" xmlns="http://www.w3.org/2000/svg" viewBox="0 0 3321.6 1571.98"><defs><style>.cls-1{font-size:107.39px;}.cls-1,.cls-7,.cls-8{fill:#010101;}.cls-1,.cls-4,.cls-6,.cls-7{font-family:RIDIBatang-KSCpc-EUC-H, RIDIBatang;}.cls-2,.cls-5{fill:none;stroke:#010101;stroke-miterlimit:10;}.cls-2{stroke-width:1.87px;}.cls-3{fill:#fff;}.cls-4,.cls-6,.cls-7{font-size:69.76px;}.cls-5{stroke-width:2px;}.cls-6{fill:#cfcece;}.cls-8{font-size:164.64px;font-family:BMHANNAPro, BM HANNA Pro;}</style></defs><text class="cls-1" transform="translate(2155.4 405.69)">넌</text><text class="cls-1" transform="translate(2550.4 406.48)">충</text><text class="cls-1" transform="translate(2154.26 630.71)">잘</text><text class="cls-1" transform="translate(2358.8 630.71)">하</text><text class="cls-1" transform="translate(2749.31 406.03)">분</text><text class="cls-1" transform="translate(2957.09 406.03)">히</text><text class="cls-1" transform="translate(2557.49 630.71)">고</text><line class="cls-2" x1="274.21" y1="291.16" x2="274.21" y2="471.8"/><line class="cls-2" x1="476.35" y1="291.16" x2="476.35" y2="471.8"/><line class="cls-2" x1="678.48" y1="291.16" x2="678.48" y2="471.8"/><line class="cls-2" x1="880.62" y1="291.16" x2="880.62" y2="471.8"/><line class="cls-2" x1="2093.43" y1="291.16" x2="2093.43" y2="471.8"/><line class="cls-2" x1="1082.75" y1="291.16" x2="1082.75" y2="471.8"/><line class="cls-2" x1="1284.89" y1="291.16" x2="1284.89" y2="471.8"/><line class="cls-2" x1="1487.02" y1="291.16" x2="1487.02" y2="471.8"/><line class="cls-2" x1="1689.16" y1="291.16" x2="1689.16" y2="471.8"/><line class="cls-2" x1="1891.3" y1="291.16" x2="1891.3" y2="471.8"/><line class="cls-2" x1="3104.11" y1="291.16" x2="3104.11" y2="471.8"/><line class="cls-2" x1="2295.57" y1="291.16" x2="2295.57" y2="471.8"/><line class="cls-2" x1="2497.7" y1="291.16" x2="2497.7" y2="471.8"/><line class="cls-2" x1="2699.84" y1="291.16" x2="2699.84" y2="471.8"/><line class="cls-2" x1="2901.97" y1="291.16" x2="2901.97" y2="471.8"/><line class="cls-2" x1="272.63" y1="290.45" x2="3103.47" y2="290.45"/><line class="cls-2" x1="272.63" y1="471.33" x2="3103.47" y2="471.33"/><rect class="cls-3" x="297.37" y="315.21" width="553.05" height="130.83"/><text class="cls-4" transform="translate(323.2 406.45)"><tspan xml:space="preserve">너 잘못이 아니야  </tspan></text><text class="cls-1" transform="translate(2770.05 630.71)">있</text><text class="cls-1" transform="translate(2952.72 630.71)">어</text><line class="cls-5" x1="2242.56" y1="167.68" x2="3105.76" y2="167.68"/><line class="cls-2" x1="274.21" y1="503.03" x2="274.21" y2="683.67"/><line class="cls-2" x1="476.35" y1="503.03" x2="476.35" y2="683.67"/><line class="cls-2" x1="678.48" y1="503.03" x2="678.48" y2="683.67"/><line class="cls-2" x1="880.62" y1="503.03" x2="880.62" y2="683.67"/><line class="cls-2" x1="2093.43" y1="503.03" x2="2093.43" y2="683.67"/><line class="cls-2" x1="1082.75" y1="503.03" x2="1082.75" y2="683.67"/><line class="cls-2" x1="1284.89" y1="503.03" x2="1284.89" y2="683.67"/><line class="cls-2" x1="1487.02" y1="503.03" x2="1487.02" y2="683.67"/><line class="cls-2" x1="1689.16" y1="503.03" x2="1689.16" y2="683.67"/><line class="cls-2" x1="1891.3" y1="503.03" x2="1891.3" y2="683.67"/><line class="cls-2" x1="3104.11" y1="503.03" x2="3104.11" y2="683.67"/><line class="cls-2" x1="2295.57" y1="503.03" x2="2295.57" y2="683.67"/><line class="cls-2" x1="2497.7" y1="503.03" x2="2497.7" y2="683.67"/><line class="cls-2" x1="2699.84" y1="503.03" x2="2699.84" y2="683.67"/><line class="cls-2" x1="2901.97" y1="503.03" x2="2901.97" y2="683.67"/><line class="cls-2" x1="272.63" y1="502.32" x2="3103.47" y2="502.32"/><line class="cls-2" x1="272.63" y1="683.2" x2="3103.47" y2="683.2"/><line class="cls-2" x1="274.21" y1="714.9" x2="274.21" y2="895.54"/><line class="cls-2" x1="476.35" y1="714.9" x2="476.35" y2="895.54"/><line class="cls-2" x1="678.48" y1="714.9" x2="678.48" y2="895.54"/><line class="cls-2" x1="880.62" y1="714.9" x2="880.62" y2="895.54"/><line class="cls-2" x1="2093.43" y1="714.9" x2="2093.43" y2="895.54"/><line class="cls-2" x1="1082.75" y1="714.9" x2="1082.75" y2="895.54"/><line class="cls-2" x1="1284.89" y1="714.9" x2="1284.89" y2="895.54"/><line class="cls-2" x1="1487.02" y1="714.9" x2="1487.02" y2="895.54"/><line class="cls-2" x1="1689.16" y1="714.9" x2="1689.16" y2="895.54"/><line class="cls-2" x1="1891.3" y1="714.9" x2="1891.3" y2="895.54"/><line class="cls-2" x1="3104.11" y1="714.9" x2="3104.11" y2="895.54"/><line class="cls-2" x1="2295.57" y1="714.9" x2="2295.57" y2="895.54"/><line class="cls-2" x1="2497.7" y1="714.9" x2="2497.7" y2="895.54"/><line class="cls-2" x1="2699.84" y1="714.9" x2="2699.84" y2="895.54"/><line class="cls-2" x1="2901.97" y1="714.9" x2="2901.97" y2="895.54"/><line class="cls-2" x1="272.63" y1="714.19" x2="3103.47" y2="714.19"/><line class="cls-2" x1="272.63" y1="895.07" x2="3103.47" y2="895.07"/><line class="cls-2" x1="274.21" y1="926.77" x2="274.21" y2="1107.41"/><line class="cls-2" x1="476.35" y1="926.77" x2="476.35" y2="1107.41"/><line class="cls-2" x1="678.48" y1="926.77" x2="678.48" y2="1107.41"/><line class="cls-2" x1="880.62" y1="926.77" x2="880.62" y2="1107.41"/><line class="cls-2" x1="2093.43" y1="926.77" x2="2093.43" y2="1107.41"/><line class="cls-2" x1="1082.75" y1="926.77" x2="1082.75" y2="1107.41"/><line class="cls-2" x1="1284.89" y1="926.77" x2="1284.89" y2="1107.41"/><line class="cls-2" x1="1487.02" y1="926.77" x2="1487.02" y2="1107.41"/><line class="cls-2" x1="1689.16" y1="926.77" x2="1689.16" y2="1107.41"/><line class="cls-2" x1="1891.3" y1="926.77" x2="1891.3" y2="1107.41"/><line class="cls-2" x1="3104.11" y1="926.77" x2="3104.11" y2="1107.41"/><line class="cls-2" x1="2295.57" y1="926.77" x2="2295.57" y2="1107.41"/><line class="cls-2" x1="2497.7" y1="926.77" x2="2497.7" y2="1107.41"/><line class="cls-2" x1="2699.84" y1="926.77" x2="2699.84" y2="1107.41"/><line class="cls-2" x1="2901.97" y1="926.77" x2="2901.97" y2="1107.41"/><line class="cls-2" x1="272.63" y1="926.06" x2="3103.47" y2="926.06"/><line class="cls-2" x1="272.63" y1="1106.94" x2="3103.47" y2="1106.94"/><line class="cls-2" x1="274.21" y1="1138.64" x2="274.21" y2="1319.28"/><line class="cls-2" x1="476.35" y1="1138.64" x2="476.35" y2="1319.28"/><line class="cls-2" x1="678.48" y1="1138.64" x2="678.48" y2="1319.28"/><line class="cls-2" x1="880.62" y1="1138.64" x2="880.62" y2="1319.28"/><line class="cls-2" x1="2093.43" y1="1138.64" x2="2093.43" y2="1319.28"/><line class="cls-2" x1="1082.75" y1="1138.64" x2="1082.75" y2="1319.28"/><line class="cls-2" x1="1284.89" y1="1138.64" x2="1284.89" y2="1319.28"/><line class="cls-2" x1="1487.02" y1="1138.64" x2="1487.02" y2="1319.28"/><line class="cls-2" x1="1689.16" y1="1138.64" x2="1689.16" y2="1319.28"/><line class="cls-2" x1="1891.3" y1="1138.64" x2="1891.3" y2="1319.28"/><line class="cls-2" x1="3104.11" y1="1138.64" x2="3104.11" y2="1319.28"/><line class="cls-2" x1="2295.57" y1="1138.64" x2="2295.57" y2="1319.28"/><line class="cls-2" x1="2497.7" y1="1138.64" x2="2497.7" y2="1319.28"/><line class="cls-2" x1="2699.84" y1="1138.64" x2="2699.84" y2="1319.28"/><line class="cls-2" x1="2901.97" y1="1138.64" x2="2901.97" y2="1319.28"/><line class="cls-2" x1="272.63" y1="1137.93" x2="3103.47" y2="1137.93"/><line class="cls-2" x1="272.63" y1="1318.81" x2="3103.47" y2="1318.81"/><line class="cls-2" x1="274.21" y1="1350.5" x2="274.21" y2="1531.15"/><line class="cls-2" x1="476.35" y1="1350.5" x2="476.35" y2="1531.15"/><line class="cls-2" x1="678.48" y1="1350.5" x2="678.48" y2="1531.15"/><line class="cls-2" x1="880.62" y1="1350.5" x2="880.62" y2="1531.15"/><line class="cls-2" x1="2093.43" y1="1350.5" x2="2093.43" y2="1531.15"/><line class="cls-2" x1="1082.75" y1="1350.5" x2="1082.75" y2="1531.15"/><line class="cls-2" x1="1284.89" y1="1350.5" x2="1284.89" y2="1531.15"/><line class="cls-2" x1="1487.02" y1="1350.5" x2="1487.02" y2="1531.15"/><line class="cls-2" x1="1689.16" y1="1350.5" x2="1689.16" y2="1531.15"/><line class="cls-2" x1="1891.3" y1="1350.5" x2="1891.3" y2="1531.15"/><line class="cls-2" x1="3104.11" y1="1350.5" x2="3104.11" y2="1531.15"/><line class="cls-2" x1="2295.57" y1="1350.5" x2="2295.57" y2="1531.15"/><line class="cls-2" x1="2497.7" y1="1350.5" x2="2497.7" y2="1531.15"/><line class="cls-2" x1="2699.84" y1="1350.5" x2="2699.84" y2="1531.15"/><line class="cls-2" x1="2901.97" y1="1350.5" x2="2901.97" y2="1531.15"/><line class="cls-2" x1="272.63" y1="1349.8" x2="3103.47" y2="1349.8"/><line class="cls-2" x1="272.63" y1="1530.68" x2="3103.47" y2="1530.68"/><text class="cls-1" transform="translate(1750.48 834.58)">잘</text><text class="cls-1" transform="translate(2149.26 834.58)">이</text><text class="cls-1" transform="translate(2347.76 834.58)">겨</text><text class="cls-1" transform="translate(2551.99 834.58)">낼</text><text class="cls-1" transform="translate(2953.59 834.58)">수</text><text class="cls-1" transform="translate(2353.56 1046.91)">있</text><text class="cls-1" transform="translate(2554.8 1047.13)">을</text><text class="cls-1" transform="translate(2758.72 1047.56)">거</text><text class="cls-1" transform="translate(2959.96 1047.34)">야</text><text class="cls-1" transform="translate(2553.88 1477.12)">괜</text><text class="cls-1" transform="translate(2755.41 1477.12)">찮</text><text class="cls-1" transform="translate(2965.44 1477.12)">아</text><rect class="cls-3" x="322.67" y="738.79" width="553.05" height="130.83"/><text class="cls-6" transform="translate(319.32 827.86)">넌 혼자가 아니야</text><rect class="cls-3" x="317.64" y="1163.89" width="317.35" height="130.83"/><text class="cls-6" transform="translate(328.53 1250.76)">아프지마</text><text class="cls-7" transform="translate(2393.57 112.5)">힘들어 하고 있을 너에게</text><text class="cls-8" transform="translate(823.64 418.86) rotate(-0.03)">,</text></svg>