<svg id="Layer_1" data-name="Layer 1" xmlns="http://www.w3.org/2000/svg" xmlns:xlink="http://www.w3.org/1999/xlink" viewBox="0 0 711 952"><defs><style>.cls-1,.cls-2,.cls-8{fill:none;}.cls-2,.cls-8{stroke:#000;stroke-miterlimit:10;}.cls-2{stroke-width:2px;}.cls-3{writing-mode:tb;text-orientation:upright;glyph-orientation-vertical:0deg;font-size:34.55px;letter-spacing:0.06em;}.cls-3,.cls-6{font-family:RIDIBatang-KSCpc-EUC-H, RIDIBatang;}.cls-4{letter-spacing:0.06em;}.cls-5{letter-spacing:0.06em;}.cls-6{font-size:41.11px;}.cls-7{clip-path:url(#clip-path);}.cls-8{stroke-width:1.87px;}</style><clipPath id="clip-path"><rect class="cls-1" x="-78" y="-7" width="817" height="945"/></clipPath></defs><line class="cls-2" x1="654.3" y1="431.71" x2="654.3" y2="4.19"/><text class="cls-3" transform="translate(695.26 3.73)">힘들어<tspan x="0" y="109.87"> </tspan><tspan x="0" y="121.96">하고</tspan><tspan class="cls-4" x="0" y="195.21"> </tspan><tspan class="cls-5" x="0" y="207.31">있을</tspan><tspan class="cls-4" x="0" y="280.55"> </tspan><tspan class="cls-5" x="0" y="292.65">너에게</tspan></text><text class="cls-6" transform="translate(529.96 161.82)">넌</text><text class="cls-6" transform="translate(529.55 343.8)">절</text><text class="cls-6" transform="translate(529.55 436.05)">대</text><text class="cls-6" transform="translate(530.17 531.64)">로</text><text class="cls-6" transform="translate(432.69 161.82)">혼</text><text class="cls-6" transform="translate(432.69 255.33)">자</text><text class="cls-6" transform="translate(432.89 344.66)">가</text><text class="cls-6" transform="translate(433.51 533.3)">아</text><text class="cls-6" transform="translate(433.3 626.05)">냐</text><text class="cls-6" transform="translate(335.43 161.82)">나</text><text class="cls-6" transform="translate(335.22 255.34)">에</text><text class="cls-6" transform="translate(335.22 346.79)">게</text><text class="cls-6" transform="translate(336.25 534.62)">힘</text><text class="cls-6" transform="translate(335.63 623.64)">든</text><text class="cls-6" transform="translate(336.04 715.85)">걸</text><text class="cls-6" transform="translate(239.2 161.82)">표</text><text class="cls-6" transform="translate(238.58 253.31)">현</text><text class="cls-6" transform="translate(238.99 349.08)">해</text><text class="cls-6" transform="translate(238.38 439.72)">줘</text><text class="cls-6" transform="translate(41.77 161.82)">도</text><text class="cls-6" transform="translate(41.98 253.32)">와</text><text class="cls-6" transform="translate(41.98 348.11)">줄</text><text class="cls-6" transform="translate(41.9 440.11)">게</text><g class="cls-7"><line class="cls-8" x1="589.93" y1="8.65" x2="506.93" y2="8.65"/><line class="cls-8" x1="589.93" y1="101.52" x2="506.93" y2="101.52"/><line class="cls-8" x1="589.93" y1="194.4" x2="506.93" y2="194.4"/><line class="cls-8" x1="589.93" y1="287.27" x2="506.93" y2="287.27"/><line class="cls-8" x1="589.93" y1="844.52" x2="506.93" y2="844.52"/><line class="cls-8" x1="589.93" y1="380.15" x2="506.93" y2="380.15"/><line class="cls-8" x1="589.93" y1="473.02" x2="506.93" y2="473.02"/><line class="cls-8" x1="589.93" y1="565.9" x2="506.93" y2="565.9"/><line class="cls-8" x1="589.93" y1="658.77" x2="506.93" y2="658.77"/><line class="cls-8" x1="589.93" y1="751.64" x2="506.93" y2="751.64"/><line class="cls-8" x1="589.93" y1="937.39" x2="506.93" y2="937.39"/><line class="cls-8" x1="590.25" y1="7.92" x2="590.25" y2="1308.6"/><line class="cls-8" x1="507.14" y1="7.92" x2="507.14" y2="1308.6"/><line class="cls-8" x1="492.58" y1="8.65" x2="409.58" y2="8.65"/><line class="cls-8" x1="492.58" y1="101.52" x2="409.58" y2="101.52"/><line class="cls-8" x1="492.58" y1="194.4" x2="409.58" y2="194.4"/><line class="cls-8" x1="492.58" y1="287.27" x2="409.58" y2="287.27"/><line class="cls-8" x1="492.58" y1="844.52" x2="409.58" y2="844.52"/><line class="cls-8" x1="492.58" y1="380.15" x2="409.58" y2="380.15"/><line class="cls-8" x1="492.58" y1="473.02" x2="409.58" y2="473.02"/><line class="cls-8" x1="492.58" y1="565.9" x2="409.58" y2="565.9"/><line class="cls-8" x1="492.58" y1="658.77" x2="409.58" y2="658.77"/><line class="cls-8" x1="492.58" y1="751.64" x2="409.58" y2="751.64"/><line class="cls-8" x1="492.58" y1="937.39" x2="409.58" y2="937.39"/><line class="cls-8" x1="492.9" y1="7.92" x2="492.9" y2="1308.6"/><line class="cls-8" x1="409.8" y1="7.92" x2="409.8" y2="1308.6"/><line class="cls-8" x1="395.23" y1="8.65" x2="312.23" y2="8.65"/><line class="cls-8" x1="395.23" y1="101.52" x2="312.23" y2="101.52"/><line class="cls-8" x1="395.23" y1="194.4" x2="312.23" y2="194.4"/><line class="cls-8" x1="395.23" y1="287.27" x2="312.23" y2="287.27"/><line class="cls-8" x1="395.23" y1="844.52" x2="312.23" y2="844.52"/><line class="cls-8" x1="395.23" y1="380.15" x2="312.23" y2="380.15"/><line class="cls-8" x1="395.23" y1="473.02" x2="312.23" y2="473.02"/><line class="cls-8" x1="395.23" y1="565.9" x2="312.23" y2="565.9"/><line class="cls-8" x1="395.23" y1="658.77" x2="312.23" y2="658.77"/><line class="cls-8" x1="395.23" y1="751.64" x2="312.23" y2="751.64"/><line class="cls-8" x1="395.23" y1="937.39" x2="312.23" y2="937.39"/><line class="cls-8" x1="395.56" y1="7.92" x2="395.56" y2="1308.6"/><line class="cls-8" x1="312.45" y1="7.92" x2="312.45" y2="1308.6"/><line class="cls-8" x1="297.89" y1="8.65" x2="214.89" y2="8.65"/><line class="cls-8" x1="297.89" y1="101.52" x2="214.89" y2="101.52"/><line class="cls-8" x1="297.89" y1="194.4" x2="214.89" y2="194.4"/><line class="cls-8" x1="297.89" y1="287.27" x2="214.89" y2="287.27"/><line class="cls-8" x1="297.89" y1="844.52" x2="214.89" y2="844.52"/><line class="cls-8" x1="297.89" y1="380.15" x2="214.89" y2="380.15"/><line class="cls-8" x1="297.89" y1="473.02" x2="214.89" y2="473.02"/><line class="cls-8" x1="297.89" y1="565.9" x2="214.89" y2="565.9"/><line class="cls-8" x1="297.89" y1="658.77" x2="214.89" y2="658.77"/><line class="cls-8" x1="297.89" y1="751.64" x2="214.89" y2="751.64"/><line class="cls-8" x1="297.89" y1="937.39" x2="214.89" y2="937.39"/><line class="cls-8" x1="298.21" y1="7.92" x2="298.21" y2="1308.6"/><line class="cls-8" x1="215.1" y1="7.92" x2="215.1" y2="1308.6"/><line class="cls-8" x1="200.54" y1="8.65" x2="117.54" y2="8.65"/><line class="cls-8" x1="200.54" y1="101.52" x2="117.54" y2="101.52"/><line class="cls-8" x1="200.54" y1="194.4" x2="117.54" y2="194.4"/><line class="cls-8" x1="200.54" y1="287.27" x2="117.54" y2="287.27"/><line class="cls-8" x1="200.54" y1="844.52" x2="117.54" y2="844.52"/><line class="cls-8" x1="200.54" y1="380.15" x2="117.54" y2="380.15"/><line class="cls-8" x1="200.54" y1="473.02" x2="117.54" y2="473.02"/><line class="cls-8" x1="200.54" y1="565.9" x2="117.54" y2="565.9"/><line class="cls-8" x1="200.54" y1="658.77" x2="117.54" y2="658.77"/><line class="cls-8" x1="200.54" y1="751.64" x2="117.54" y2="751.64"/><line class="cls-8" x1="200.54" y1="937.39" x2="117.54" y2="937.39"/><line class="cls-8" x1="200.86" y1="7.92" x2="200.86" y2="1308.6"/><line class="cls-8" x1="117.76" y1="7.92" x2="117.76" y2="1308.6"/><line class="cls-8" x1="103.19" y1="8.65" x2="20.19" y2="8.65"/><line class="cls-8" x1="103.19" y1="101.52" x2="20.19" y2="101.52"/><line class="cls-8" x1="103.19" y1="194.4" x2="20.19" y2="194.4"/><line class="cls-8" x1="103.19" y1="287.27" x2="20.19" y2="287.27"/><line class="cls-8" x1="103.19" y1="844.52" x2="20.19" y2="844.52"/><line class="cls-8" x1="103.19" y1="380.15" x2="20.19" y2="380.15"/><line class="cls-8" x1="103.19" y1="473.02" x2="20.19" y2="473.02"/><line class="cls-8" x1="103.19" y1="565.9" x2="20.19" y2="565.9"/><line class="cls-8" x1="103.19" y1="658.77" x2="20.19" y2="658.77"/><line class="cls-8" x1="103.19" y1="751.64" x2="20.19" y2="751.64"/><line class="cls-8" x1="103.19" y1="937.39" x2="20.19" y2="937.39"/><line class="cls-8" x1="103.52" y1="7.92" x2="103.52" y2="1308.6"/><line class="cls-8" x1="20.41" y1="7.92" x2="20.41" y2="1308.6"/><rect class="cls-2" x="4.13" y="8.34" width="600.85" height="1300.14"/></g><line class="cls-8" x1="4.13" y1="937" x2="604.98" y2="937"/></svg>