<svg id="Layer_1" data-name="Layer 1" xmlns="http://www.w3.org/2000/svg" viewBox="0 0 279.92 284.48"><defs><style>.cls-1{isolation:isolate;}.cls-2{fill:#cecece;}.cls-3{fill:#fff;}</style></defs><g class="cls-1"><path d="M295.26,64.09a22.25,22.25,0,0,0,2.6-3.14,8.5,8.5,0,0,0,1.37-4.37h-4V47.66h10.06V55a11.62,11.62,0,0,1-2.07,6.49,17,17,0,0,1-5.43,5.17Z" transform="translate(-25.41 -19.17)"/></g><g class="cls-1"><path d="M28.67,40.76V28.19c0-.56-.08-.9-.42-1.12a5.14,5.14,0,0,0-2.09-.75,5.26,5.26,0,0,1,.41-1.24.44.44,0,0,1,.41-.22,15.42,15.42,0,0,1,4.19.75c.41.15.56.33.56.63V40.42A86.29,86.29,0,0,0,47,38.7a6.85,6.85,0,0,1,.41,1.72A.46.46,0,0,1,47,41,90.23,90.23,0,0,1,30.76,43C29.19,43,28.67,42.26,28.67,40.76Zm22.07-7.11H40.41A10.29,10.29,0,0,1,40,31.44c0-.45.19-.52.72-.52.37,0,2.76.26,4.22.26h5.84V22.8c0-.56-.19-.71-.64-1.05a8,8,0,0,0-2.58-1A5.78,5.78,0,0,1,48,19.4a.43.43,0,0,1,.41-.23,19.12,19.12,0,0,1,4.79.9c.41.15.56.3.56.6V48.84c0,1.57-.26,4.23-.41,5.5,0,.34-.11.56-.41.64a7,7,0,0,1-2.21,0Z" transform="translate(-25.41 -19.17)"/><path d="M72.56,39.53a10.36,10.36,0,0,1-1.12-1.43c5.61-3.36,11.15-7.93,14.14-12.64h-7a7.6,7.6,0,0,0-2.73.52,10.66,10.66,0,0,1-2.66-1.64.54.54,0,0,1-.18-.34,3.93,3.93,0,0,1,.56-1.16,26.15,26.15,0,0,0,4.52.3h7c.75,0,3-.19,3.55-.19.9,0,1.24.82.79,1.72a26.33,26.33,0,0,1-4.12,5.73c2.32,2,4.68,3.92,7.15,5.87a.42.42,0,0,1,0,.6,8.81,8.81,0,0,1-2.1,1.46C88.27,36.2,86,34.1,83.78,32a45.91,45.91,0,0,1-10.44,7.6A.63.63,0,0,1,72.56,39.53ZM80,52.25V49.07c0-1.09-.9-1.43-1.84-1.65,0-.34.3-1.46.79-1.46s2,.11,2.92.11H94.9V42.71h-11a9.7,9.7,0,0,0-3.07.41,8.5,8.5,0,0,1-2.7-1.69A.49.49,0,0,1,78,41.1,3.39,3.39,0,0,1,78.58,40a18.9,18.9,0,0,0,4.79.34h9.32c.93,0,3.37-.15,4.3-.15.6,0,.94.26.94,1v6.55c0,.41-.19.63-.49.63H83v3.48H94.3c1.42,0,4.26-.3,4.64-.3s.71.08.71.53a9.72,9.72,0,0,1-.41,2.17H81.61C80.6,54.27,80,53.67,80,52.25Zm15.3-29.52c0-.56-.19-.72-.64-1.05a7.66,7.66,0,0,0-2.58-1,5.1,5.1,0,0,1,.49-1.27.43.43,0,0,1,.41-.23,19.12,19.12,0,0,1,4.79.9c.41.15.56.3.56.6v7.56H100c1.46,0,3.86-.38,4.23-.38s.71.08.71.53a9.74,9.74,0,0,1-.45,2.2H98.3v2c0,1.57-.26,4.23-.41,5.5,0,.34-.11.56-.41.64a7.24,7.24,0,0,1-2.21,0Z" transform="translate(-25.41 -19.17)"/><path d="M106.28,38.55a.69.69,0,0,1-.23-.45,3.59,3.59,0,0,1,.67-1.16,35,35,0,0,0,6.66.42h8.42V33.65h-6.36c-1,0-1.64-.6-1.64-2V24.48c0-1-.83-1.49-1.84-1.72,0-.33.19-1.57.68-1.57.89,0,2.84.26,3.81.26h11.34c.93,0,3.37-.15,4.3-.15.6,0,.94.27.94,1V32.49a1,1,0,0,1-1.13,1.16h-7.07v3.71h7.86c2.88,0,5.95-.34,6.43-.34s.72.07.72.52a12.31,12.31,0,0,1-.45,2.47c-1.76-.07-3.89-.19-5.8-.19H113.87a14.87,14.87,0,0,0-4.19.79A9,9,0,0,1,106.28,38.55Zm4.52,14.82c4-2.47,9.17-6.1,11.11-8.61.53-.71-.56-1.53-1.87-2a7.62,7.62,0,0,1,.75-1.13.4.4,0,0,1,.3-.15A11.78,11.78,0,0,1,125.58,43a1.05,1.05,0,0,1,.41,1,1.58,1.58,0,0,1-.22.75,13.8,13.8,0,0,1-.94,1.2c3.52,2.13,7.07,4.19,10.7,6.25a.41.41,0,0,1,.12.56,8.25,8.25,0,0,1-2.25,1.8c-3.33-2.29-6.73-4.61-10.21-6.89a47.56,47.56,0,0,1-10.44,7.11c-.26.11-.45.19-.68.08A4.33,4.33,0,0,1,110.8,53.37ZM130,31.18V23.92H116.79v7.26Z" transform="translate(-25.41 -19.17)"/><path d="M143.13,33.31a9,9,0,1,1,18,0,9,9,0,1,1-18,0Zm14.89,0c0-4-2.5-6.47-5.91-6.47s-5.91,2.51-5.91,6.47,2.51,6.48,5.91,6.48S158,37.32,158,33.31Zm8.57-10.51c0-.56-.18-.71-.63-1.05a8.18,8.18,0,0,0-2.59-1,6.28,6.28,0,0,1,.49-1.34.43.43,0,0,1,.41-.23,19,19,0,0,1,4.79.9c.41.15.56.3.56.6V48.84c0,1.57-.26,4.23-.41,5.5,0,.34-.11.56-.41.64a7,7,0,0,1-2.21,0Z" transform="translate(-25.41 -19.17)"/><path d="M188.11,33.31c0-5.38,3.59-9,8.87-9s8.87,3.63,8.87,9-3.6,9-8.87,9S188.11,38.7,188.11,33.31Zm14.67,0c0-4-2.47-6.47-5.8-6.47s-5.8,2.51-5.8,6.47,2.47,6.48,5.8,6.48S202.78,37.28,202.78,33.31Zm8.34-10.51c0-.56-.19-.71-.63-1.05a8.18,8.18,0,0,0-2.59-1,6.28,6.28,0,0,1,.49-1.34.43.43,0,0,1,.41-.23,19.12,19.12,0,0,1,4.79.9c.41.15.56.3.56.6V33.58h1.72c1.46,0,3.86-.38,4.23-.38.52,0,.71.08.71.53a9.74,9.74,0,0,1-.45,2.2h-6.21V48.84c0,1.57-.26,4.23-.41,5.5,0,.34-.11.56-.41.64a7,7,0,0,1-2.21,0Z" transform="translate(-25.41 -19.17)"/><path d="M247.19,39.53c-6.28,1.57-14.74,2.95-19.6,2.95-1.57,0-2.1-.78-2.1-2.28v-12c0-.56-.07-.9-.41-1.12a5.14,5.14,0,0,0-2.09-.75,5.26,5.26,0,0,1,.41-1.24.44.44,0,0,1,.41-.22,15.42,15.42,0,0,1,4.19.75c.41.15.56.33.56.63V39.75a90.94,90.94,0,0,0,18.63-2.51V22.8c0-.56-.18-.71-.63-1.05a8.2,8.2,0,0,0-2.58-1,5.82,5.82,0,0,1,.48-1.34.43.43,0,0,1,.41-.23,19,19,0,0,1,4.79.9c.41.15.56.3.56.6V48.84c0,1.57-.26,4.23-.41,5.5,0,.34-.11.56-.41.64a7,7,0,0,1-2.21,0Z" transform="translate(-25.41 -19.17)"/><path d="M257.86,33.31c0-5.38,3.59-9,8.87-9s8.87,3.63,8.87,9-3.6,9-8.87,9S257.86,38.7,257.86,33.31Zm14.67,0c0-4-2.47-6.47-5.8-6.47s-5.8,2.51-5.8,6.47,2.47,6.48,5.8,6.48S272.53,37.28,272.53,33.31Zm8.34-10.51c0-.56-.19-.71-.63-1.05a8.18,8.18,0,0,0-2.59-1,6.28,6.28,0,0,1,.49-1.34.43.43,0,0,1,.41-.23,19.12,19.12,0,0,1,4.79.9c.41.15.56.3.56.6V29.2h1.65c1.46,0,3.85-.38,4.23-.38s.71.08.71.53a10.41,10.41,0,0,1-.45,2.21H283.9v5.87h1.72c1.46,0,3.86-.37,4.23-.37s.71.07.71.52a9.71,9.71,0,0,1-.45,2.21H283.9v9.05c0,1.57-.26,4.23-.41,5.5,0,.34-.11.56-.41.64a7,7,0,0,1-2.21,0Z" transform="translate(-25.41 -19.17)"/></g><g class="cls-1"><path class="cls-2" d="M27.92,162.12V151.79c0-.56-.08-.9-.42-1.12a5.14,5.14,0,0,0-2.09-.75,5,5,0,0,1,.41-1.23.43.43,0,0,1,.41-.23,15.74,15.74,0,0,1,4.19.75c.41.15.56.34.56.64v11.93a86.29,86.29,0,0,0,15.23-1.72,6.85,6.85,0,0,1,.41,1.72c0,.26-.07.45-.37.52A90.32,90.32,0,0,1,30,164.4C28.44,164.4,27.92,163.61,27.92,162.12Zm6.69,14.18v-6.25c0-.56-.07-.82-.41-1.05a4.23,4.23,0,0,0-2.09-.67,4,4,0,0,1,.26-1.24.44.44,0,0,1,.41-.22,16.45,16.45,0,0,1,4.3.52c.41.15.56.34.56.64v8.08H49.13c1.42,0,4.27-.41,4.64-.41s.71.07.71.52a11,11,0,0,1-.41,2.36H36.71C35.14,178.58,34.61,177.79,34.61,176.3ZM50,156H39.29a10.29,10.29,0,0,1-.45-2.21c0-.45.19-.52.71-.52s2.77.26,4.23.26H50v-6c0-.56-.19-.72-.64-1.05a7.57,7.57,0,0,0-2.58-1,5.1,5.1,0,0,1,.49-1.27.43.43,0,0,1,.41-.23,19,19,0,0,1,4.79.9c.41.15.56.3.56.6v18.86c0,1.57-.26,4.22-.41,5.5,0,.33-.11.56-.41.63a7.24,7.24,0,0,1-2.21,0Z" transform="translate(-25.41 -19.17)"/><path class="cls-2" d="M69.9,166.38a.74.74,0,0,1-.22-.45,3.59,3.59,0,0,1,.67-1.16,34.83,34.83,0,0,0,6.66.42h8.42V162.6c-4.53-.41-6.85-2.69-6.85-5.16,0-2.73,2.84-5.24,8.34-5.24s8.35,2.51,8.35,5.24c0,2.47-2.32,4.75-6.81,5.16v2.59h7.86c2.88,0,5.94-.34,6.43-.34s.71.07.71.52a10.8,10.8,0,0,1-.45,2.36c-1.76-.08-3.89-.19-5.8-.19H77.5a14.87,14.87,0,0,0-4.19.79A9.9,9.9,0,0,1,69.9,166.38Zm4-16.65a.57.57,0,0,1-.26-.45,3.94,3.94,0,0,1,.64-1.27,21.82,21.82,0,0,0,4.37.41H85.5v-1.16c0-.86-.6-1.31-1.87-1.6a4.58,4.58,0,0,1,.38-1.2.43.43,0,0,1,.41-.23,20.85,20.85,0,0,1,3.48.6c.45.15.56.23.56.53v3.06h6.36c1.05,0,3.74-.3,4.15-.3s.64.08.64.45a10.11,10.11,0,0,1-.41,2.29c-1.42-.12-2.7-.12-4.12-.12H80.45a12.93,12.93,0,0,0-3.78.53A14.12,14.12,0,0,1,73.94,149.73Zm4,26.42v-3.22c0-.56-.08-.82-.41-1.05a4.28,4.28,0,0,0-2.1-.67,4.33,4.33,0,0,1,.26-1.24.45.45,0,0,1,.41-.22,16.89,16.89,0,0,1,4.35.52c.41.15.56.34.56.64v5.28H93.77c1,0,3.74-.3,4.15-.3s.64.07.64.45a10.26,10.26,0,0,1-.41,2.31H80.42C78.62,178.65,77.91,177.87,77.91,176.15Zm14.37-18.71c0-1.42-1.73-2.92-5.36-2.92s-5.35,1.5-5.35,2.92,1.73,2.92,5.35,2.92S92.28,158.86,92.28,157.44Z" transform="translate(-25.41 -19.17)"/><path class="cls-2" d="M107,168.93a12.44,12.44,0,0,1-1-1.54c5-3.22,11.78-9.65,14.14-15.52h-7.19a7.64,7.64,0,0,0-2.73.52,9.33,9.33,0,0,1-2.43-1.65.5.5,0,0,1-.19-.33,4.64,4.64,0,0,1,.57-1.28,25.18,25.18,0,0,0,4.52.23h7.07c.94,0,2.51-.15,3.26-.15s1,.6.79,1.46a23.34,23.34,0,0,1-4.27,7.82c2.84,3.14,4.41,4.82,7.3,7.71a.51.51,0,0,1,0,.78,14,14,0,0,1-1.91,1.76c-2.73-3.44-4.27-5.31-6.89-8.42A41,41,0,0,1,107.84,169,.68.68,0,0,1,107,168.93Zm22.79-21.33c0-.56-.19-.71-.64-1a8.1,8.1,0,0,0-2.58-1,5.78,5.78,0,0,1,.49-1.34.43.43,0,0,1,.41-.23,19.12,19.12,0,0,1,4.79.9c.41.15.56.3.56.6v12.91h1.72c1.46,0,3.85-.38,4.23-.38s.71.08.71.53a10.33,10.33,0,0,1-.45,2.2H132.8v12.91c0,1.57-.26,4.23-.41,5.5,0,.34-.11.56-.41.64a7,7,0,0,1-2.21,0Z" transform="translate(-25.41 -19.17)"/><path class="cls-2" d="M143.51,169.3a8.29,8.29,0,0,1-1-1.61c5-3.22,11.86-9.91,14.22-15.79h-7.94a7.66,7.66,0,0,0-2.73.53,9.33,9.33,0,0,1-2.43-1.65.52.52,0,0,1-.19-.34,5.19,5.19,0,0,1,.56-1.31,25.34,25.34,0,0,0,4.53.23h7.82c.94,0,2.51-.15,3.26-.15s1,.6.78,1.46c-1.72,6.7-10.55,15.67-16,18.67A.66.66,0,0,1,143.51,169.3Zm21.73-21.7c0-.56-.18-.71-.63-1a8.2,8.2,0,0,0-2.58-1,5.82,5.82,0,0,1,.48-1.34.43.43,0,0,1,.41-.23,19,19,0,0,1,4.79.9c.41.15.56.3.56.6v12.91h1.87c1.46,0,3.86-.38,4.23-.38.53,0,.71.08.71.53a9.74,9.74,0,0,1-.45,2.2h-6.36v12.91c0,1.57-.26,4.23-.41,5.5,0,.34-.11.56-.41.64a7,7,0,0,1-2.21,0Z" transform="translate(-25.41 -19.17)"/><path class="cls-2" d="M188.86,158.11c0-5.38,3.59-9,8.87-9s8.86,3.63,8.86,9-3.59,9-8.86,9S188.86,163.5,188.86,158.11Zm14.66,0c0-4-2.46-6.47-5.79-6.47s-5.8,2.51-5.8,6.47,2.47,6.48,5.8,6.48S203.52,162.08,203.52,158.11Zm8.35-10.51c0-.56-.19-.71-.64-1a8.1,8.1,0,0,0-2.58-1,5.78,5.78,0,0,1,.49-1.34.43.43,0,0,1,.41-.23,19.12,19.12,0,0,1,4.79.9c.41.15.56.3.56.6v12.91h1.72c1.46,0,3.85-.38,4.23-.38s.71.08.71.53a10.33,10.33,0,0,1-.45,2.2H214.9v12.91c0,1.57-.26,4.23-.41,5.5,0,.34-.11.56-.41.64a7,7,0,0,1-2.21,0Z" transform="translate(-25.41 -19.17)"/><path class="cls-2" d="M247.94,164.33c-6.28,1.57-14.74,2.95-19.61,2.95-1.57,0-2.09-.78-2.09-2.28V153c0-.56-.07-.9-.41-1.12a5.13,5.13,0,0,0-2.1-.75,5.77,5.77,0,0,1,.41-1.24.46.46,0,0,1,.42-.22,15.42,15.42,0,0,1,4.19.75c.41.15.56.33.56.63v13.51A90.94,90.94,0,0,0,247.94,162V147.6c0-.56-.19-.71-.64-1a8,8,0,0,0-2.58-1,5.78,5.78,0,0,1,.49-1.34.43.43,0,0,1,.41-.23,19,19,0,0,1,4.79.9c.41.15.56.3.56.6v28.17c0,1.57-.26,4.23-.41,5.5,0,.34-.11.56-.41.64a7,7,0,0,1-2.21,0Z" transform="translate(-25.41 -19.17)"/><path class="cls-2" d="M258.61,158.11c0-5.38,3.59-9,8.87-9s8.86,3.63,8.86,9-3.59,9-8.86,9S258.61,163.5,258.61,158.11Zm14.66,0c0-4-2.46-6.47-5.79-6.47s-5.8,2.51-5.8,6.47,2.47,6.48,5.8,6.48S273.27,162.08,273.27,158.11Zm8.35-10.51c0-.56-.19-.71-.64-1a8.1,8.1,0,0,0-2.58-1,5.78,5.78,0,0,1,.49-1.34.43.43,0,0,1,.41-.23,19.12,19.12,0,0,1,4.79.9c.41.15.56.3.56.6V154h1.64c1.46,0,3.86-.38,4.23-.38.53,0,.71.08.71.53a9.81,9.81,0,0,1-.45,2.21h-6.13v5.87h1.72c1.46,0,3.85-.37,4.23-.37s.71.07.71.52a10.29,10.29,0,0,1-.45,2.21h-6.21v9c0,1.57-.26,4.23-.41,5.5,0,.34-.12.56-.41.64a7,7,0,0,1-2.21,0Z" transform="translate(-25.41 -19.17)"/></g><g class="cls-1"><path class="cls-2" d="M89.89,272.35c0-5.38,3.59-9,8.86-9s8.87,3.63,8.87,9-3.59,9-8.87,9S89.89,277.74,89.89,272.35Zm14.66,0c0-4-2.47-6.47-5.8-6.47S93,268.39,93,272.35s2.46,6.48,5.79,6.48S104.55,276.32,104.55,272.35Zm8.35-10.51c0-.56-.19-.71-.64-1a8.1,8.1,0,0,0-2.58-1,5.78,5.78,0,0,1,.49-1.34.43.43,0,0,1,.41-.23,19.12,19.12,0,0,1,4.79.9c.41.15.56.3.56.6v12.91h1.72c1.46,0,3.85-.38,4.23-.38s.71.08.71.53a10.21,10.21,0,0,1-.45,2.2h-6.21v12.91c0,1.57-.26,4.23-.41,5.5,0,.34-.12.56-.42.64a6.9,6.9,0,0,1-2.2,0Z" transform="translate(-25.41 -19.17)"/><path class="cls-2" d="M123.9,284.36a.74.74,0,0,1-.22-.44,3.4,3.4,0,0,1,.67-1.16,35.87,35.87,0,0,0,6.66.41h19.31c2.88,0,6-.34,6.43-.34s.71.08.71.52a12,12,0,0,1-.45,2.51c-1.75-.07-3.89-.19-5.8-.19H131.5a14.87,14.87,0,0,0-4.19.79A9.09,9.09,0,0,1,123.9,284.36Zm5-8.38c-.19-.18-.27-.3-.27-.45a3.45,3.45,0,0,1,.6-1.12,18.94,18.94,0,0,0,4.79.41h.9v-9.95h-.49a12.06,12.06,0,0,0-3.21.45,14.64,14.64,0,0,1-2.4-1.72.57.57,0,0,1-.26-.45,3.26,3.26,0,0,1,.6-1.12,18.9,18.9,0,0,0,4.79.41h14c1,0,3.74-.19,4.15-.19s.64.08.64.45a10,10,0,0,1-.41,2.28c-1.43-.11-2.7-.11-4.12-.11h-1.09v9.95h.75c1.05,0,3.74-.18,4.16-.18s.63.07.63.45a10.13,10.13,0,0,1-.41,2.28c-1.42-.11-2.69-.11-4.12-.11H134.53a8.84,8.84,0,0,0-3.07.59A10.52,10.52,0,0,1,128.92,276Zm15.34-1.16v-9.95h-6.4v9.95Z" transform="translate(-25.41 -19.17)"/><path class="cls-2" d="M161,283.17a12.44,12.44,0,0,1-1-1.54c5-3.21,11.78-9.65,14.14-15.52H166.9a7.6,7.6,0,0,0-2.73.52,9,9,0,0,1-2.44-1.65.49.49,0,0,1-.18-.33,4.41,4.41,0,0,1,.56-1.27,26.14,26.14,0,0,0,4.52.22h7.08c.93,0,2.5-.15,3.25-.15s1,.6.79,1.46a23.34,23.34,0,0,1-4.27,7.82c2.84,3.14,4.42,4.82,7.3,7.71a.51.51,0,0,1,0,.78,14,14,0,0,1-1.91,1.76c-2.73-3.44-4.27-5.31-6.89-8.42a41,41,0,0,1-10.14,8.64A.68.68,0,0,1,161,283.17Zm23.24-21.33c0-.56-.19-.71-.64-1a8.1,8.1,0,0,0-2.58-1,5.78,5.78,0,0,1,.49-1.34.43.43,0,0,1,.41-.23,19.12,19.12,0,0,1,4.79.9c.41.15.56.3.56.6v28.17c0,1.57-.26,4.23-.41,5.5,0,.34-.11.56-.41.64a7,7,0,0,1-2.21,0Z" transform="translate(-25.41 -19.17)"/><path class="cls-2" d="M196.08,279.31V266.82c0-1-.82-1.5-1.83-1.72,0-.34.19-1.58.67-1.58.9,0,2.85.27,3.82.27h8c.93,0,3.36-.15,4.3-.15.6,0,.94.26.94,1v15.52a1,1,0,0,1-1.13,1.16H197.73C196.72,281.33,196.08,280.74,196.08,279.31Zm12.91-.48V266.29h-9.91v12.54Zm8.91-17c0-.56-.19-.71-.64-1a8.1,8.1,0,0,0-2.58-1,5.78,5.78,0,0,1,.49-1.34.43.43,0,0,1,.41-.23,19.12,19.12,0,0,1,4.79.9c.41.15.56.3.56.6v12.91h1.72c1.46,0,3.85-.38,4.23-.38s.71.08.71.53a10.21,10.21,0,0,1-.45,2.2h-6.21v12.91c0,1.57-.26,4.23-.41,5.5,0,.34-.12.56-.42.64a6.9,6.9,0,0,1-2.2,0Z" transform="translate(-25.41 -19.17)"/></g><g class="cls-1"><path class="cls-3" d="M233.26,301.09a22.25,22.25,0,0,0,2.6-3.14,8.5,8.5,0,0,0,1.37-4.37h-4v-8.92h10.06V292a11.62,11.62,0,0,1-2.07,6.49,17,17,0,0,1-5.43,5.17Z" transform="translate(-25.41 -19.17)"/></g></svg>