<svg id="Layer_1" data-name="Layer 1" xmlns="http://www.w3.org/2000/svg" viewBox="0 0 3321.6 1571.98"><defs><style>.cls-1,.cls-4{fill:none;stroke:#010101;stroke-miterlimit:10;}.cls-1{stroke-width:1.87px;}.cls-2{fill:#fff;}.cls-3,.cls-5,.cls-6{font-size:69.76px;}.cls-3{fill:#cfcece;}.cls-3,.cls-5,.cls-6,.cls-8{font-family:RIDIBatang-KSCpc-EUC-H, RIDIBatang;}.cls-4{stroke-width:2px;}.cls-6,.cls-7,.cls-8{fill:#010101;}.cls-7{font-size:164.64px;font-family:BMHANNAPro, BM HANNA Pro;}.cls-8{font-size:107.39px;}</style></defs><line class="cls-1" x1="274.21" y1="291.16" x2="274.21" y2="471.8"/><line class="cls-1" x1="476.35" y1="291.16" x2="476.35" y2="471.8"/><line class="cls-1" x1="678.48" y1="291.16" x2="678.48" y2="471.8"/><line class="cls-1" x1="880.62" y1="291.16" x2="880.62" y2="471.8"/><line class="cls-1" x1="2093.43" y1="291.16" x2="2093.43" y2="471.8"/><line class="cls-1" x1="1082.75" y1="291.16" x2="1082.75" y2="471.8"/><line class="cls-1" x1="1284.89" y1="291.16" x2="1284.89" y2="471.8"/><line class="cls-1" x1="1487.02" y1="291.16" x2="1487.02" y2="471.8"/><line class="cls-1" x1="1689.16" y1="291.16" x2="1689.16" y2="471.8"/><line class="cls-1" x1="1891.3" y1="291.16" x2="1891.3" y2="471.8"/><line class="cls-1" x1="3104.11" y1="291.16" x2="3104.11" y2="471.8"/><line class="cls-1" x1="2295.57" y1="291.16" x2="2295.57" y2="471.8"/><line class="cls-1" x1="2497.7" y1="291.16" x2="2497.7" y2="471.8"/><line class="cls-1" x1="2699.84" y1="291.16" x2="2699.84" y2="471.8"/><line class="cls-1" x1="2901.97" y1="291.16" x2="2901.97" y2="471.8"/><line class="cls-1" x1="272.63" y1="290.45" x2="3103.47" y2="290.45"/><line class="cls-1" x1="272.63" y1="471.33" x2="3103.47" y2="471.33"/><rect class="cls-2" x="297.37" y="315.21" width="553.05" height="130.83"/><text class="cls-3" transform="translate(323.2 406.45)"><tspan xml:space="preserve">너 잘못이 아니야  </tspan></text><line class="cls-4" x1="2242.56" y1="167.68" x2="3105.76" y2="167.68"/><line class="cls-1" x1="274.21" y1="503.03" x2="274.21" y2="683.67"/><line class="cls-1" x1="476.35" y1="503.03" x2="476.35" y2="683.67"/><line class="cls-1" x1="678.48" y1="503.03" x2="678.48" y2="683.67"/><line class="cls-1" x1="880.62" y1="503.03" x2="880.62" y2="683.67"/><line class="cls-1" x1="2093.43" y1="503.03" x2="2093.43" y2="683.67"/><line class="cls-1" x1="1082.75" y1="503.03" x2="1082.75" y2="683.67"/><line class="cls-1" x1="1284.89" y1="503.03" x2="1284.89" y2="683.67"/><line class="cls-1" x1="1487.02" y1="503.03" x2="1487.02" y2="683.67"/><line class="cls-1" x1="1689.16" y1="503.03" x2="1689.16" y2="683.67"/><line class="cls-1" x1="1891.3" y1="503.03" x2="1891.3" y2="683.67"/><line class="cls-1" x1="3104.11" y1="503.03" x2="3104.11" y2="683.67"/><line class="cls-1" x1="2295.57" y1="503.03" x2="2295.57" y2="683.67"/><line class="cls-1" x1="2497.7" y1="503.03" x2="2497.7" y2="683.67"/><line class="cls-1" x1="2699.84" y1="503.03" x2="2699.84" y2="683.67"/><line class="cls-1" x1="2901.97" y1="503.03" x2="2901.97" y2="683.67"/><line class="cls-1" x1="272.63" y1="502.32" x2="3103.47" y2="502.32"/><line class="cls-1" x1="272.63" y1="683.2" x2="3103.47" y2="683.2"/><line class="cls-1" x1="274.21" y1="714.9" x2="274.21" y2="895.54"/><line class="cls-1" x1="476.35" y1="714.9" x2="476.35" y2="895.54"/><line class="cls-1" x1="678.48" y1="714.9" x2="678.48" y2="895.54"/><line class="cls-1" x1="880.62" y1="714.9" x2="880.62" y2="895.54"/><line class="cls-1" x1="2093.43" y1="714.9" x2="2093.43" y2="895.54"/><line class="cls-1" x1="1082.75" y1="714.9" x2="1082.75" y2="895.54"/><line class="cls-1" x1="1284.89" y1="714.9" x2="1284.89" y2="895.54"/><line class="cls-1" x1="1487.02" y1="714.9" x2="1487.02" y2="895.54"/><line class="cls-1" x1="1689.16" y1="714.9" x2="1689.16" y2="895.54"/><line class="cls-1" x1="1891.3" y1="714.9" x2="1891.3" y2="895.54"/><line class="cls-1" x1="3104.11" y1="714.9" x2="3104.11" y2="895.54"/><line class="cls-1" x1="2295.57" y1="714.9" x2="2295.57" y2="895.54"/><line class="cls-1" x1="2497.7" y1="714.9" x2="2497.7" y2="895.54"/><line class="cls-1" x1="2699.84" y1="714.9" x2="2699.84" y2="895.54"/><line class="cls-1" x1="2901.97" y1="714.9" x2="2901.97" y2="895.54"/><line class="cls-1" x1="272.63" y1="714.19" x2="3103.47" y2="714.19"/><line class="cls-1" x1="272.63" y1="895.07" x2="3103.47" y2="895.07"/><line class="cls-1" x1="274.21" y1="926.77" x2="274.21" y2="1107.41"/><line class="cls-1" x1="476.35" y1="926.77" x2="476.35" y2="1107.41"/><line class="cls-1" x1="678.48" y1="926.77" x2="678.48" y2="1107.41"/><line class="cls-1" x1="880.62" y1="926.77" x2="880.62" y2="1107.41"/><line class="cls-1" x1="2093.43" y1="926.77" x2="2093.43" y2="1107.41"/><line class="cls-1" x1="1082.75" y1="926.77" x2="1082.75" y2="1107.41"/><line class="cls-1" x1="1284.89" y1="926.77" x2="1284.89" y2="1107.41"/><line class="cls-1" x1="1487.02" y1="926.77" x2="1487.02" y2="1107.41"/><line class="cls-1" x1="1689.16" y1="926.77" x2="1689.16" y2="1107.41"/><line class="cls-1" x1="1891.3" y1="926.77" x2="1891.3" y2="1107.41"/><line class="cls-1" x1="3104.11" y1="926.77" x2="3104.11" y2="1107.41"/><line class="cls-1" x1="2295.57" y1="926.77" x2="2295.57" y2="1107.41"/><line class="cls-1" x1="2497.7" y1="926.77" x2="2497.7" y2="1107.41"/><line class="cls-1" x1="2699.84" y1="926.77" x2="2699.84" y2="1107.41"/><line class="cls-1" x1="2901.97" y1="926.77" x2="2901.97" y2="1107.41"/><line class="cls-1" x1="272.63" y1="926.06" x2="3103.47" y2="926.06"/><line class="cls-1" x1="272.63" y1="1106.94" x2="3103.47" y2="1106.94"/><line class="cls-1" x1="274.21" y1="1138.64" x2="274.21" y2="1319.28"/><line class="cls-1" x1="476.35" y1="1138.64" x2="476.35" y2="1319.28"/><line class="cls-1" x1="678.48" y1="1138.64" x2="678.48" y2="1319.28"/><line class="cls-1" x1="880.62" y1="1138.64" x2="880.62" y2="1319.28"/><line class="cls-1" x1="2093.43" y1="1138.64" x2="2093.43" y2="1319.28"/><line class="cls-1" x1="1082.75" y1="1138.64" x2="1082.75" y2="1319.28"/><line class="cls-1" x1="1284.89" y1="1138.64" x2="1284.89" y2="1319.28"/><line class="cls-1" x1="1487.02" y1="1138.64" x2="1487.02" y2="1319.28"/><line class="cls-1" x1="1689.16" y1="1138.64" x2="1689.16" y2="1319.28"/><line class="cls-1" x1="1891.3" y1="1138.64" x2="1891.3" y2="1319.28"/><line class="cls-1" x1="3104.11" y1="1138.64" x2="3104.11" y2="1319.28"/><line class="cls-1" x1="2295.57" y1="1138.64" x2="2295.57" y2="1319.28"/><line class="cls-1" x1="2497.7" y1="1138.64" x2="2497.7" y2="1319.28"/><line class="cls-1" x1="2699.84" y1="1138.64" x2="2699.84" y2="1319.28"/><line class="cls-1" x1="2901.97" y1="1138.64" x2="2901.97" y2="1319.28"/><line class="cls-1" x1="272.63" y1="1137.93" x2="3103.47" y2="1137.93"/><line class="cls-1" x1="272.63" y1="1318.81" x2="3103.47" y2="1318.81"/><line class="cls-1" x1="274.21" y1="1350.5" x2="274.21" y2="1531.15"/><line class="cls-1" x1="476.35" y1="1350.5" x2="476.35" y2="1531.15"/><line class="cls-1" x1="678.48" y1="1350.5" x2="678.48" y2="1531.15"/><line class="cls-1" x1="880.62" y1="1350.5" x2="880.62" y2="1531.15"/><line class="cls-1" x1="2093.43" y1="1350.5" x2="2093.43" y2="1531.15"/><line class="cls-1" x1="1082.75" y1="1350.5" x2="1082.75" y2="1531.15"/><line class="cls-1" x1="1284.89" y1="1350.5" x2="1284.89" y2="1531.15"/><line class="cls-1" x1="1487.02" y1="1350.5" x2="1487.02" y2="1531.15"/><line class="cls-1" x1="1689.16" y1="1350.5" x2="1689.16" y2="1531.15"/><line class="cls-1" x1="1891.3" y1="1350.5" x2="1891.3" y2="1531.15"/><line class="cls-1" x1="3104.11" y1="1350.5" x2="3104.11" y2="1531.15"/><line class="cls-1" x1="2295.57" y1="1350.5" x2="2295.57" y2="1531.15"/><line class="cls-1" x1="2497.7" y1="1350.5" x2="2497.7" y2="1531.15"/><line class="cls-1" x1="2699.84" y1="1350.5" x2="2699.84" y2="1531.15"/><line class="cls-1" x1="2901.97" y1="1350.5" x2="2901.97" y2="1531.15"/><line class="cls-1" x1="272.63" y1="1349.8" x2="3103.47" y2="1349.8"/><line class="cls-1" x1="272.63" y1="1530.68" x2="3103.47" y2="1530.68"/><rect class="cls-2" x="322.67" y="738.79" width="553.05" height="130.83"/><text class="cls-3" transform="translate(319.32 827.86)">넌 혼자가 아니야</text><rect class="cls-2" x="317.64" y="1163.89" width="317.35" height="130.83"/><text class="cls-5" transform="translate(328.53 1250.76)">아프지마</text><text class="cls-6" transform="translate(2393.57 112.5)">힘들어 하고 있을 너에게</text><text class="cls-7" transform="translate(591.25 1263.17) rotate(-0.03)">,</text><text class="cls-8" transform="translate(2141.09 414.48)">넌</text><text class="cls-8" transform="translate(2543.11 414.48)">사</text><text class="cls-8" transform="translate(2140.02 622.42)">을</text><text class="cls-8" transform="translate(2744.93 414.48)">랑</text><text class="cls-8" transform="translate(2949.03 414.48)">을</text><text class="cls-8" transform="translate(2551.31 622.42)">자</text><text class="cls-8" transform="translate(2752.84 622.42)">격</text><text class="cls-8" transform="translate(2953.21 622.42)">이</text><text class="cls-8" transform="translate(1738.85 836.36)">있</text><text class="cls-8" transform="translate(1943.02 836.36)">는</text><text class="cls-8" transform="translate(2343.82 836.36)">사</text><text class="cls-8" transform="translate(2551.31 836.36)">람</text><text class="cls-8" transform="translate(2748.75 836.36)">이</text><text class="cls-8" transform="translate(2350.16 1047.96)">힘</text><text class="cls-8" transform="translate(2550.24 1047.96)">들</text><text class="cls-8" transform="translate(2760.85 1047.96)">지</text><text class="cls-8" transform="translate(2958.15 1047.96)">마</text><text class="cls-8" transform="translate(2543.11 1475)">프</text><text class="cls-8" transform="translate(2752.84 1475)">지</text><text class="cls-8" transform="translate(2949.03 1475)">마</text><text class="cls-8" transform="translate(1944.09 622.42)">받</text><text class="cls-8" transform="translate(2946.88 836.36)">야</text><text class="cls-8" transform="translate(2343.82 1475)">아</text><text class="cls-8" transform="translate(1738.85 1475)">리</text><text class="cls-8" transform="translate(1943.02 1475)">고</text><text class="cls-8" transform="translate(1538.16 1475)">그</text><text class="cls-7" transform="translate(2123.48 1478.14) rotate(-0.03)">,</text></svg>