<?xml version="1.0" encoding="utf-8"?>
<!-- Generator: Adobe Illustrator 26.0.0, SVG Export Plug-In . SVG Version: 6.00 Build 0)  -->
<svg version="1.1" id="Layer_1" xmlns="http://www.w3.org/2000/svg" xmlns:xlink="http://www.w3.org/1999/xlink" x="0px" y="0px"
	 viewBox="0 0 711 952" style="enable-background:new 0 0 711 952;" xml:space="preserve">
<style type="text/css">
	.st0{fill:none;stroke:#000000;stroke-width:2;stroke-miterlimit:10;}
	.st1{enable-background:new    ;}
	.st2{clip-path:url(#SVGID_00000064314712751018644530000017657296369611771815_);}
	.st3{fill:none;stroke:#000000;stroke-width:1.87;stroke-miterlimit:10;}
</style>
<line class="st0" x1="654.3" y1="431.7" x2="654.3" y2="4.2"/>
<g class="st1">
	<path d="M680.7,10.1c-0.2-0.2-0.2-0.3-0.2-0.4c0-0.2,0.3-0.8,0.6-1.1c1.2,0.4,3.2,0.4,4.4,0.4h3.9V7.7c0-0.8-0.6-1.2-1.7-1.5
		c0.1-0.4,0.2-0.9,0.3-1.1c0.1-0.2,0.2-0.2,0.4-0.2c0.5,0,2.3,0.3,3.1,0.6c0.4,0.1,0.5,0.2,0.5,0.5v3h3.2c1,0,3.5-0.3,3.8-0.3
		c0.4,0,0.6,0.1,0.6,0.4c0,0.4-0.2,1.6-0.4,2.2c-1.3-0.1-2.5-0.1-3.8-0.1h-9.6c-0.6,0-2,0.1-2.8,0.6
		C682.2,11.3,681.2,10.6,680.7,10.1z M683.8,18.6c0-3.1,2.5-5.9,6.7-5.9c4.3,0,6.7,2.8,6.7,5.9s-2.5,5.9-6.7,5.9
		C686.2,24.5,683.8,21.7,683.8,18.6z M694.5,18.6c0-1.9-1.5-3.7-4-3.7s-4,1.7-4,3.7s1.5,3.7,4,3.7S694.5,20.5,694.5,18.6z
		 M688.7,34.9v-5.5c0-0.9-0.8-1.4-1.7-1.6c0-0.3,0.2-1.5,0.6-1.5c0.8,0,2.6,0.2,3.5,0.2h9.7c0.9,0,3.1-0.1,4-0.1
		c0.6,0,0.9,0.2,0.9,0.9v8.3c0,0.9-0.5,1.1-1,1.1h-14.4C689.2,36.7,688.7,36.2,688.7,34.9z M702.9,34.5v-5.7h-11.5v5.7H702.9z
		 M703.2,7.6c0-0.5-0.2-0.7-0.6-1c-0.4-0.3-1.4-0.7-2.4-0.9c0.1-0.4,0.3-1,0.4-1.2c0.1-0.2,0.2-0.2,0.4-0.2c1.1,0,3.4,0.4,4.4,0.8
		c0.4,0.1,0.5,0.3,0.5,0.6v13.6c0,1.5-0.2,3.9-0.4,5.1c0,0.3-0.1,0.5-0.4,0.6c-0.4,0.1-1.4,0.1-2,0V7.6z"/>
	<path d="M679.5,56.6c-0.1-0.1-0.2-0.2-0.2-0.4c0-0.2,0.4-0.8,0.6-1.1c2.1,0.3,3.4,0.4,6.1,0.4h17.8c2.7,0,5.5-0.3,5.9-0.3
		c0.5,0,0.7,0.1,0.7,0.5c0,0.4-0.2,1.6-0.4,2.2c-1.6-0.1-3.6-0.2-5.4-0.2h-18.2c-1.2,0-2.5,0.3-3.9,0.7
		C681.5,58.1,680.4,57.5,679.5,56.6z M686.2,50.3v-4.6c0-1.1-1-1.4-2-1.5c0-0.3,0.2-1.5,0.8-1.5c0.9,0,2.9,0.2,3.8,0.2H700
		c1,0,3.5-0.3,3.8-0.3c0.4,0,0.6,0.1,0.6,0.4c0,0.4-0.2,1.6-0.4,2.1h-15v5.1h11.5c1,0,3.5-0.3,3.8-0.3c0.4,0,0.6,0.1,0.6,0.4
		c0,0.4-0.2,1.6-0.4,2.1h-16C686.9,52.7,686.2,51.9,686.2,50.3z M686.9,71.7v-3c0-1-0.8-1.3-1.7-1.5c0-0.3,0.3-1.3,0.7-1.3
		c0.6,0,1.9,0.1,2.7,0.1h13.6v-3.1h-11.6c-0.6,0-1.6,0-2.8,0.4c-1-0.4-1.9-1-2.5-1.6c-0.1-0.1-0.2-0.2-0.2-0.3c0-0.2,0.4-0.7,0.6-1
		c1.2,0.4,3.2,0.3,4.4,0.3h10c0.9,0,3.1-0.1,4-0.1c0.6,0,0.9,0.2,0.9,0.9v6c0,0.4-0.2,0.6-0.4,0.6h-14.9v3.3h11.6
		c1.3,0,3.9-0.3,4.3-0.3c0.5,0,0.7,0.1,0.7,0.5c0,0.4-0.2,1.4-0.4,2h-17.4C687.5,73.6,686.9,73,686.9,71.7z"/>
	<path d="M703.4,91.8h-5.5c-0.5,4.4-3.7,7.2-8.2,7.2c-4.9,0-8.3-3.4-8.3-8.3s3.4-8.3,8.3-8.3c4.5,0,7.7,2.9,8.2,7.2h5.5V81
		c0-0.5-0.2-0.7-0.6-1c-0.4-0.3-1.4-0.7-2.4-0.9c0.1-0.4,0.3-1,0.4-1.2c0.1-0.2,0.2-0.2,0.4-0.2c1.1,0,3.4,0.4,4.4,0.8
		c0.4,0.1,0.5,0.3,0.5,0.6v26c0,1.5-0.2,3.9-0.4,5.1c0,0.3-0.1,0.5-0.4,0.6c-0.4,0.1-1.4,0.1-2,0V91.8z M695.1,90.7
		c0-3.7-2.3-6-5.5-6s-5.5,2.3-5.5,6c0,3.7,2.3,6,5.5,6S695.1,94.4,695.1,90.7z"/>
</g>
<g class="st1">
	<path d="M679.6,134.7c-0.2-0.2-0.2-0.3-0.2-0.4c0-0.2,0.3-0.8,0.6-1.1c1.2,0.4,3.2,0.4,4.4,0.4h4.4v-2.8c0-0.8-0.6-1.2-1.7-1.5
		c0.1-0.4,0.2-0.9,0.3-1.1c0.1-0.2,0.2-0.2,0.4-0.2c0.5,0,2.4,0.3,3.2,0.6c0.4,0.1,0.5,0.2,0.5,0.5v4.6h3.6c1,0,3.5-0.3,3.8-0.3
		c0.4,0,0.6,0.1,0.6,0.4c0,0.4-0.2,1.6-0.4,2.2c-1.3-0.1-2.5-0.1-3.8-0.1h-10.5c-0.6,0-2,0.1-2.8,0.6
		C681,135.8,680.1,135.2,679.6,134.7z M682.6,144.4c0-3.7,2.9-6.5,7.3-6.5s7.3,2.9,7.3,6.5s-2.9,6.5-7.3,6.5
		S682.6,148.1,682.6,144.4z M694.5,144.4c0-2.5-1.8-4.2-4.6-4.2s-4.6,1.8-4.6,4.2c0,2.5,1.8,4.2,4.6,4.2S694.5,146.9,694.5,144.4z
		 M702.3,129.7c0-0.5-0.2-0.7-0.6-1c-0.4-0.3-1.4-0.7-2.4-0.9c0.1-0.4,0.3-1,0.4-1.2c0.1-0.2,0.2-0.2,0.4-0.2c1.1,0,3.4,0.4,4.4,0.8
		c0.4,0.1,0.5,0.3,0.5,0.6V140h1.4c1.3,0,3.6-0.3,3.9-0.3c0.5,0,0.7,0.1,0.7,0.5c0,0.4-0.2,1.4-0.4,2h-5.6v11.6
		c0,1.5-0.2,3.9-0.4,5.1c0,0.3-0.1,0.5-0.4,0.6c-0.4,0.1-1.4,0.1-2,0V129.7z"/>
	<path d="M679.5,187.2c-0.1-0.1-0.2-0.2-0.2-0.4c0-0.2,0.4-0.8,0.6-1.1c2.1,0.3,3.4,0.4,6.1,0.4h6.4v-7.3c0-0.9-0.9-1.3-2.2-1.7
		c0.1-0.4,0.2-1,0.4-1.2c0.1-0.2,0.2-0.2,0.4-0.2c0.9,0,2.7,0.2,3.8,0.5c0.4,0.1,0.5,0.2,0.5,0.5v9.4h8.6c2.7,0,5.5-0.3,5.9-0.3
		c0.5,0,0.7,0.1,0.7,0.5c0,0.4-0.2,1.7-0.4,2.3c-1.6-0.1-3.6-0.2-5.4-0.2h-18.2c-1.2,0-2.5,0.3-3.9,0.7
		C681.5,188.7,680.4,188.1,679.5,187.2z M701.1,183.5c1-5.2,1.4-9.2,1.7-14.1h-13.2c-0.8,0-1.5,0.1-2.8,0.5c-1-0.5-2-1.1-2.6-1.7
		c-0.1-0.1-0.2-0.2-0.2-0.4c0-0.2,0.3-0.8,0.6-1.1c1.4,0.3,2.9,0.4,4.8,0.4h12.3c0.9,0,2.5-0.2,3.4-0.2c0.6,0,0.9,0.3,0.9,1
		c0,3.7-0.8,9.8-2.2,15.5c-0.1,0.3-0.2,0.4-0.5,0.4C702.7,183.7,701.5,183.6,701.1,183.5z"/>
</g>
<g class="st1">
	<path d="M681.9,222c0-4.1,3.4-7.2,7.9-7.2c4.6,0,7.9,3,7.9,7.2c0,4.1-3.4,7.2-7.9,7.2C685.2,229.1,681.9,226.1,681.9,222z
		 M692.8,244c0.9-0.7,2-1.6,3-2.6l-3.7-3.6c-2.3,2.6-5.5,5.3-7.5,6.5c-0.2,0.1-0.4,0.1-0.6,0c-0.2-0.2-0.8-0.8-1-1.1
		c3.3-2.4,7.6-6.5,8.6-9.1c0.2-0.7-0.8-1.3-2.1-1.7c0.2-0.4,0.4-0.8,0.7-1.1c0.1-0.1,0.2-0.1,0.3-0.1c0.9,0,3.2,0.8,4,1.3
		c0.5,0.4,0.4,1,0.2,1.6c-0.2,0.7-0.7,1.4-1.3,2.2l4.3,3.1c1.7-1.9,3-3.9,3.2-5.2c0.1-0.7-0.7-1.3-1.9-1.7c0.2-0.4,0.4-0.8,0.7-1.1
		c0.1-0.1,0.2-0.1,0.3-0.1c0.7,0,3.1,0.8,3.8,1.4c0.5,0.4,0.4,1,0.3,1.6c-0.3,0.8-0.8,1.8-1.6,2.8c2.1,1.7,4.1,3.4,6.3,5
		c0.2,0.1,0.2,0.4,0.1,0.6c-0.3,0.4-1.1,1.2-1.8,1.6c-1.9-1.9-3.8-3.8-5.8-5.7c-2,2.6-4.8,5.2-6.8,6.4c-0.2,0.1-0.4,0.1-0.6,0
		C693.5,244.9,693,244.3,692.8,244z M694.9,222c0-2.7-2.2-4.9-5.1-4.9c-2.9,0-5.1,2.2-5.1,4.9s2.2,4.9,5.1,4.9
		C692.7,226.9,694.9,224.7,694.9,222z M703.2,214.9c0-0.5-0.2-0.7-0.6-1c-0.4-0.3-1.4-0.7-2.4-0.9c0.1-0.4,0.3-1,0.4-1.2
		c0.1-0.2,0.2-0.2,0.4-0.2c1.1,0,3.4,0.4,4.4,0.8c0.4,0.1,0.5,0.3,0.5,0.6v12.2c0,1.5-0.2,3.9-0.4,5.1c0,0.3-0.1,0.5-0.4,0.6
		c-0.4,0.1-1.4,0.1-2,0V214.9z"/>
	<path d="M679.5,264.7c-0.1-0.1-0.2-0.2-0.2-0.4c0-0.2,0.4-0.8,0.6-1.1c2.1,0.3,3.4,0.4,6.1,0.4h17.8c2.7,0,5.5-0.3,5.9-0.3
		c0.5,0,0.7,0.1,0.7,0.5c0,0.4-0.2,1.6-0.4,2.2c-1.6-0.1-3.6-0.2-5.4-0.2h-18.2c-1.2,0-2.5,0.3-3.9,0.7
		C681.5,266.1,680.4,265.6,679.5,264.7z M686.9,279v-2.8c0-1-0.8-1.3-1.7-1.5c0-0.3,0.3-1.3,0.7-1.3c0.6,0,1.9,0.1,2.7,0.1h13.6
		v-2.9h-11.6c-0.6,0-1.6,0-2.8,0.4c-1-0.4-1.9-1-2.5-1.6c-0.1-0.1-0.2-0.2-0.2-0.3c0-0.2,0.4-0.7,0.6-1c1.2,0.4,3.2,0.3,4.4,0.3h10
		c0.9,0,3.1-0.1,4-0.1c0.6,0,0.9,0.2,0.9,0.9v5.8c0,0.4-0.2,0.6-0.4,0.6h-14.9v3.1h11.6c1.3,0,3.9-0.3,4.3-0.3
		c0.5,0,0.7,0.1,0.7,0.5c0,0.4-0.2,1.4-0.4,2h-17.4C687.5,280.9,686.9,280.3,686.9,279z M687.2,255.3c0-3.1,2.9-6.2,8.1-6.2
		c5.2,0,8.1,3.1,8.1,6.2c0,3.1-2.9,6.2-8.1,6.2C690,261.5,687.2,258.3,687.2,255.3z M700.5,255.3c0-2-1.8-3.9-5.3-3.9
		c-3.5,0-5.3,1.9-5.3,3.9c0,2,1.8,3.9,5.3,3.9C698.8,259.2,700.5,257.3,700.5,255.3z"/>
</g>
<g class="st1">
	<path d="M683,316.9v-11.6c0-0.5-0.1-0.8-0.4-1c-0.4-0.3-1.1-0.6-1.9-0.7c0.1-0.4,0.3-0.9,0.4-1.1c0.1-0.2,0.2-0.2,0.4-0.2
		c1.1,0,2.9,0.3,3.9,0.7c0.4,0.1,0.5,0.3,0.5,0.6v13.1c3.5,0,9.4-0.6,14.1-1.6c0.1,0.3,0.4,1.2,0.4,1.6c0,0.2-0.1,0.4-0.3,0.5
		c-4.7,1.1-11.4,1.9-15,1.9C683.5,319,683,318.3,683,316.9z M703.4,310.4h-9.5c-0.2-0.7-0.4-1.6-0.4-2c0-0.4,0.2-0.5,0.7-0.5
		c0.3,0,2.6,0.2,3.9,0.2h5.4v-7.7c0-0.5-0.2-0.7-0.6-1c-0.4-0.3-1.4-0.7-2.4-0.9c0.1-0.4,0.3-1,0.4-1.2c0.1-0.2,0.2-0.2,0.4-0.2
		c1.1,0,3.4,0.4,4.4,0.8c0.4,0.1,0.5,0.3,0.5,0.6v26c0,1.5-0.2,3.9-0.4,5.1c0,0.3-0.1,0.5-0.4,0.6c-0.4,0.1-1.4,0.1-2,0V310.4z"/>
	<path d="M698.3,347.9H695c-0.4,4.5-3.3,7.1-7.2,7.1c-4.2,0-7.3-3.1-7.3-8.3c0-5.1,3.1-8.3,7.3-8.3c3.9,0,6.8,2.7,7.2,7.1h3.2v-6.8
		c0-0.6-0.1-0.8-0.4-1c-0.4-0.2-1.2-0.5-2-0.7c0.1-0.4,0.3-0.9,0.4-1.1c0.1-0.2,0.3-0.2,0.4-0.2c1,0,2.7,0.3,3.7,0.6
		c0.4,0.1,0.5,0.3,0.5,0.6V360c0,1.5-0.2,3.9-0.3,5.1c0,0.3-0.1,0.5-0.4,0.6c-0.4,0.1-1.3,0.1-2,0V347.9z M692.4,346.8
		c0-3.7-2-5.9-4.6-5.9c-2.6,0-4.6,2.2-4.6,5.9c0,3.7,2,5.9,4.6,5.9C690.4,352.7,692.4,350.5,692.4,346.8z M704.1,337
		c0-0.5-0.2-0.7-0.6-1c-0.4-0.3-1.3-0.7-2.3-0.9c0.1-0.4,0.3-1,0.4-1.2c0.1-0.2,0.2-0.2,0.4-0.2c1.1,0,3.2,0.4,4.2,0.8
		c0.4,0.1,0.5,0.3,0.5,0.6v26c0,1.5-0.2,3.9-0.3,5.1c0,0.3-0.1,0.5-0.4,0.6c-0.4,0.1-1.4,0.1-2,0V337z"/>
	<path d="M697.9,385.8h-8.1c-2.5,3.3-5.5,6.3-7.9,7.8c-0.2,0.2-0.6,0.1-0.8,0c-0.2-0.2-0.8-1-1.1-1.4c4.1-3.1,9.4-9,11.1-14.1H686
		c-0.9,0-1.8,0.1-2.7,0.4c-0.7-0.3-2-1.1-2.4-1.5c-0.1-0.1-0.2-0.2-0.2-0.3c0-0.2,0.3-0.9,0.5-1.1c1.3,0.2,2.8,0.2,4.2,0.2h5.1
		c0.9,0,2.3-0.1,3-0.1c0.7,0,0.9,0.6,0.7,1.3c-0.4,2.1-1.5,4.4-2.9,6.6h6.5v-8.1c0-0.6-0.1-0.8-0.4-1c-0.4-0.2-1.2-0.5-2-0.7
		c0.1-0.4,0.3-0.9,0.4-1.1c0.1-0.2,0.3-0.2,0.4-0.2c1,0,2.7,0.3,3.7,0.6c0.4,0.1,0.5,0.3,0.5,0.6v23.1c0,1.5-0.2,3.9-0.3,5.1
		c0,0.3-0.1,0.5-0.4,0.6c-0.4,0.1-1.3,0.1-2,0V385.8z M704.1,373.6c0-0.5-0.2-0.7-0.6-1c-0.4-0.3-1.3-0.7-2.3-0.9
		c0.1-0.4,0.3-1,0.4-1.2c0.1-0.2,0.2-0.2,0.4-0.2c1.1,0,3.2,0.4,4.2,0.8c0.4,0.1,0.5,0.3,0.5,0.6v26c0,1.5-0.2,3.9-0.3,5.1
		c0,0.3-0.1,0.5-0.4,0.6c-0.4,0.1-1.4,0.1-2,0V373.6z"/>
</g>
<g>
	<defs>
		<rect id="SVGID_1_" x="-78" y="-7" width="817" height="945"/>
	</defs>
	<clipPath id="SVGID_00000156571661703766057920000008480193757243877005_">
		<use xlink:href="#SVGID_1_"  style="overflow:visible;"/>
	</clipPath>
	<g style="clip-path:url(#SVGID_00000156571661703766057920000008480193757243877005_);">
		<line class="st3" x1="589.9" y1="8.6" x2="506.9" y2="8.6"/>
		<line class="st3" x1="589.9" y1="101.5" x2="506.9" y2="101.5"/>
		<line class="st3" x1="589.9" y1="194.4" x2="506.9" y2="194.4"/>
		<line class="st3" x1="589.9" y1="287.3" x2="506.9" y2="287.3"/>
		<line class="st3" x1="589.9" y1="844.5" x2="506.9" y2="844.5"/>
		<line class="st3" x1="589.9" y1="380.1" x2="506.9" y2="380.1"/>
		<line class="st3" x1="589.9" y1="473" x2="506.9" y2="473"/>
		<line class="st3" x1="589.9" y1="565.9" x2="506.9" y2="565.9"/>
		<line class="st3" x1="589.9" y1="658.8" x2="506.9" y2="658.8"/>
		<line class="st3" x1="589.9" y1="751.6" x2="506.9" y2="751.6"/>
		<line class="st3" x1="589.9" y1="937.4" x2="506.9" y2="937.4"/>
		<line class="st3" x1="590.2" y1="7.9" x2="590.2" y2="1308.6"/>
		<line class="st3" x1="507.1" y1="7.9" x2="507.1" y2="1308.6"/>
		<line class="st3" x1="492.6" y1="8.6" x2="409.6" y2="8.6"/>
		<line class="st3" x1="492.6" y1="101.5" x2="409.6" y2="101.5"/>
		<line class="st3" x1="492.6" y1="194.4" x2="409.6" y2="194.4"/>
		<line class="st3" x1="492.6" y1="287.3" x2="409.6" y2="287.3"/>
		<line class="st3" x1="492.6" y1="844.5" x2="409.6" y2="844.5"/>
		<line class="st3" x1="492.6" y1="380.1" x2="409.6" y2="380.1"/>
		<line class="st3" x1="492.6" y1="473" x2="409.6" y2="473"/>
		<line class="st3" x1="492.6" y1="565.9" x2="409.6" y2="565.9"/>
		<line class="st3" x1="492.6" y1="658.8" x2="409.6" y2="658.8"/>
		<line class="st3" x1="492.6" y1="751.6" x2="409.6" y2="751.6"/>
		<line class="st3" x1="492.6" y1="937.4" x2="409.6" y2="937.4"/>
		<line class="st3" x1="492.9" y1="7.9" x2="492.9" y2="1308.6"/>
		<line class="st3" x1="409.8" y1="7.9" x2="409.8" y2="1308.6"/>
		<line class="st3" x1="395.2" y1="8.6" x2="312.2" y2="8.6"/>
		<line class="st3" x1="395.2" y1="101.5" x2="312.2" y2="101.5"/>
		<line class="st3" x1="395.2" y1="194.4" x2="312.2" y2="194.4"/>
		<line class="st3" x1="395.2" y1="287.3" x2="312.2" y2="287.3"/>
		<line class="st3" x1="395.2" y1="844.5" x2="312.2" y2="844.5"/>
		<line class="st3" x1="395.2" y1="380.1" x2="312.2" y2="380.1"/>
		<line class="st3" x1="395.2" y1="473" x2="312.2" y2="473"/>
		<line class="st3" x1="395.2" y1="565.9" x2="312.2" y2="565.9"/>
		<line class="st3" x1="395.2" y1="658.8" x2="312.2" y2="658.8"/>
		<line class="st3" x1="395.2" y1="751.6" x2="312.2" y2="751.6"/>
		<line class="st3" x1="395.2" y1="937.4" x2="312.2" y2="937.4"/>
		<line class="st3" x1="395.6" y1="7.9" x2="395.6" y2="1308.6"/>
		<line class="st3" x1="312.5" y1="7.9" x2="312.5" y2="1308.6"/>
		<line class="st3" x1="297.9" y1="8.6" x2="214.9" y2="8.6"/>
		<line class="st3" x1="297.9" y1="101.5" x2="214.9" y2="101.5"/>
		<line class="st3" x1="297.9" y1="194.4" x2="214.9" y2="194.4"/>
		<line class="st3" x1="297.9" y1="287.3" x2="214.9" y2="287.3"/>
		<line class="st3" x1="297.9" y1="844.5" x2="214.9" y2="844.5"/>
		<line class="st3" x1="297.9" y1="380.1" x2="214.9" y2="380.1"/>
		<line class="st3" x1="297.9" y1="473" x2="214.9" y2="473"/>
		<line class="st3" x1="297.9" y1="565.9" x2="214.9" y2="565.9"/>
		<line class="st3" x1="297.9" y1="658.8" x2="214.9" y2="658.8"/>
		<line class="st3" x1="297.9" y1="751.6" x2="214.9" y2="751.6"/>
		<line class="st3" x1="297.9" y1="937.4" x2="214.9" y2="937.4"/>
		<line class="st3" x1="298.2" y1="7.9" x2="298.2" y2="1308.6"/>
		<line class="st3" x1="215.1" y1="7.9" x2="215.1" y2="1308.6"/>
		<line class="st3" x1="200.5" y1="8.6" x2="117.5" y2="8.6"/>
		<line class="st3" x1="200.5" y1="101.5" x2="117.5" y2="101.5"/>
		<line class="st3" x1="200.5" y1="194.4" x2="117.5" y2="194.4"/>
		<line class="st3" x1="200.5" y1="287.3" x2="117.5" y2="287.3"/>
		<line class="st3" x1="200.5" y1="844.5" x2="117.5" y2="844.5"/>
		<line class="st3" x1="200.5" y1="380.1" x2="117.5" y2="380.1"/>
		<line class="st3" x1="200.5" y1="473" x2="117.5" y2="473"/>
		<line class="st3" x1="200.5" y1="565.9" x2="117.5" y2="565.9"/>
		<line class="st3" x1="200.5" y1="658.8" x2="117.5" y2="658.8"/>
		<line class="st3" x1="200.5" y1="751.6" x2="117.5" y2="751.6"/>
		<line class="st3" x1="200.5" y1="937.4" x2="117.5" y2="937.4"/>
		<line class="st3" x1="200.9" y1="7.9" x2="200.9" y2="1308.6"/>
		<line class="st3" x1="117.8" y1="7.9" x2="117.8" y2="1308.6"/>
		<line class="st3" x1="103.2" y1="8.6" x2="20.2" y2="8.6"/>
		<line class="st3" x1="103.2" y1="101.5" x2="20.2" y2="101.5"/>
		<line class="st3" x1="103.2" y1="194.4" x2="20.2" y2="194.4"/>
		<line class="st3" x1="103.2" y1="287.3" x2="20.2" y2="287.3"/>
		<line class="st3" x1="103.2" y1="844.5" x2="20.2" y2="844.5"/>
		<line class="st3" x1="103.2" y1="380.1" x2="20.2" y2="380.1"/>
		<line class="st3" x1="103.2" y1="473" x2="20.2" y2="473"/>
		<line class="st3" x1="103.2" y1="565.9" x2="20.2" y2="565.9"/>
		<line class="st3" x1="103.2" y1="658.8" x2="20.2" y2="658.8"/>
		<line class="st3" x1="103.2" y1="751.6" x2="20.2" y2="751.6"/>
		<line class="st3" x1="103.2" y1="937.4" x2="20.2" y2="937.4"/>
		<line class="st3" x1="103.5" y1="7.9" x2="103.5" y2="1308.6"/>
		<line class="st3" x1="20.4" y1="7.9" x2="20.4" y2="1308.6"/>
		<rect x="4.1" y="8.3" class="st0" width="600.8" height="1300.1"/>
	</g>
</g>
<line class="st3" x1="4.1" y1="937" x2="605" y2="937"/>
<g class="st1">
	<path d="M534.3,148.8v-11.3c0-0.6-0.1-1-0.5-1.2c-0.5-0.3-1.3-0.7-2.3-0.8c0.1-0.5,0.3-1.1,0.5-1.4c0.1-0.2,0.3-0.2,0.5-0.2
		c1.3,0,3.5,0.4,4.6,0.8c0.5,0.2,0.6,0.4,0.6,0.7v13.1c4.2,0,11.2-0.7,16.7-1.9c0.2,0.4,0.5,1.5,0.5,1.9c0,0.3-0.1,0.5-0.4,0.6
		c-5.6,1.3-13.6,2.3-17.8,2.3C534.9,151.3,534.3,150.4,534.3,148.8z M541.7,164.3v-6.9c0-0.6-0.1-0.9-0.5-1.2
		c-0.5-0.3-1.3-0.7-2.3-0.7c0-0.5,0.2-1.1,0.3-1.4c0.1-0.2,0.3-0.2,0.5-0.2c1.3,0,3.6,0.2,4.7,0.6c0.5,0.2,0.6,0.4,0.6,0.7v8.9h12.6
		c1.6,0,4.7-0.5,5.1-0.5c0.6,0,0.8,0.1,0.8,0.6c0,0.5-0.2,1.8-0.5,2.6H544C542.2,166.8,541.7,166,541.7,164.3z M558.6,142.1h-11.8
		c-0.2-0.8-0.5-1.9-0.5-2.4s0.2-0.6,0.8-0.6c0.4,0,3,0.3,4.6,0.3h6.8v-6.6c0-0.6-0.2-0.8-0.7-1.2c-0.5-0.4-1.7-0.9-2.8-1.1
		c0.1-0.5,0.4-1.2,0.5-1.4c0.1-0.2,0.3-0.2,0.5-0.2c1.3,0,4.1,0.5,5.3,1c0.5,0.2,0.6,0.3,0.6,0.7v20.7c0,1.7-0.3,4.6-0.5,6
		c0,0.4-0.1,0.6-0.5,0.7c-0.5,0.1-1.7,0.2-2.4,0V142.1z"/>
</g>
<g class="st1">
	<path d="M530.8,339.9c3.7-3.5,11.2-13.5,11.2-17.4c0-0.9-1.2-1.6-2.7-2.2c0.2-0.5,0.6-0.9,0.8-1.2c0.1-0.1,0.2-0.2,0.3-0.2
		c0.9,0,3.9,0.9,5.1,1.8c0.3,0.2,0.5,0.5,0.5,1.1c0,1.3-1.1,3.7-2.6,6.4c3.4,3.7,6.4,7,9.6,10.2c0.3,0.3,0.2,0.6,0,0.9
		c-0.5,0.6-1.4,1.4-2.1,1.9c-3-3.7-5.8-7.1-8.9-10.7c-2.8,4.4-6.5,9.1-8.7,10.9c-0.3,0.2-0.6,0.3-0.9,0
		C532,341,531.3,340.5,530.8,339.9z M557.2,318.4c0-0.6-0.2-0.8-0.7-1.2s-1.7-0.9-2.8-1.1c0.1-0.5,0.4-1.2,0.5-1.5
		c0.1-0.2,0.3-0.2,0.5-0.2c1.3,0,4.1,0.5,5.3,1c0.5,0.2,0.6,0.3,0.6,0.7v14.2h1.9c1.6,0,4.2-0.4,4.6-0.4c0.6,0,0.8,0.1,0.8,0.6
		s-0.2,1.6-0.5,2.4h-6.8V347c0,1.7-0.3,4.6-0.5,6c0,0.4-0.1,0.6-0.5,0.7c-0.5,0.1-1.7,0.2-2.4,0V318.4z"/>
</g>
<g class="st1">
	<path d="M557.2,424.4c-6.9,1.6-16.4,3.1-21.7,3.1c-1.7,0-2.3-0.9-2.3-2.5v-4.7c0-1.2-1-1.6-2-1.8c0-0.4,0.3-1.8,0.9-1.8
		c1,0,3,0.3,4,0.3h10.2v-4.8h-8.9c-1.1,0-1.9,0.2-3,0.6c-1-0.5-2-1.2-2.7-1.8c-0.1-0.1-0.2-0.2-0.2-0.4c0-0.2,0.4-1,0.6-1.3
		c1.6,0.3,3.4,0.2,5,0.2h6.8c1,0,3.7-0.2,4.7-0.2c0.7,0,1,0.3,1,1.1v8.4c0,0.5-0.2,0.7-0.5,0.7h-12.6v5.1c5.1,0,14.7-1.3,20.6-2.8
		v-12.8c0-0.6-0.2-0.8-0.7-1.2s-1.7-0.9-2.8-1.1c0.1-0.5,0.4-1.2,0.5-1.4c0.1-0.2,0.3-0.2,0.5-0.2c1.3,0,4.1,0.5,5.3,1
		c0.5,0.2,0.6,0.3,0.6,0.7v9.8h1.9c1.6,0,4.2-0.4,4.6-0.4c0.6,0,0.8,0.1,0.8,0.6s-0.2,1.6-0.5,2.4h-6.8v3.8c0,1.7-0.3,4.6-0.5,6
		c0,0.4-0.1,0.6-0.5,0.7c-0.5,0.1-1.7,0.2-2.4,0V424.4z M541.2,436.9c0-3.9,3.5-7.8,9.4-7.8c6,0,9.4,3.9,9.4,7.8s-3.5,7.8-9.4,7.8
		C544.6,444.7,541.2,440.8,541.2,436.9z M556.7,436.9c0-2.6-2.2-5.1-6.1-5.1c-3.9,0-6.1,2.5-6.1,5.1s2.2,5.1,6.1,5.1
		C554.5,442,556.7,439.5,556.7,436.9z"/>
</g>
<g class="st1">
	<path d="M530.8,518.5c-0.1-0.1-0.2-0.3-0.2-0.5c0-0.2,0.5-0.9,0.7-1.3c2.5,0.4,4.1,0.5,7.3,0.5h21.2c3.2,0,6.5-0.4,7.1-0.4
		c0.6,0,0.8,0.1,0.8,0.6s-0.2,1.9-0.5,2.7c-1.9-0.1-4.3-0.2-6.4-0.2h-21.7c-1.5,0-2.9,0.4-4.6,0.9
		C533.2,520.2,531.8,519.5,530.8,518.5z M539.5,535.5v-3.4c0-1.2-1-1.6-2-1.8c0-0.4,0.3-1.6,0.9-1.6c0.7,0,2.2,0.1,3.2,0.1h16.2
		v-3.5H544c-0.7,0-1.9,0-3.4,0.5c-1.2-0.5-2.3-1.2-3-1.8c-0.1-0.1-0.2-0.2-0.2-0.4c0-0.2,0.5-0.8,0.7-1.2c1.5,0.5,3.8,0.4,5.3,0.4
		h11.9c1,0,3.7-0.2,4.7-0.2c0.7,0,1,0.3,1,1.1v6.9c0,0.5-0.2,0.7-0.5,0.7h-17.7v3.7h13.8c1.6,0,4.7-0.3,5.1-0.3
		c0.6,0,0.8,0.1,0.8,0.6c0,0.5-0.2,1.6-0.5,2.4h-20.8C540.2,537.7,539.5,537.1,539.5,535.5z M539.9,507.2c0-3.7,3.4-7.4,9.6-7.4
		c6.2,0,9.6,3.7,9.6,7.4c0,3.7-3.4,7.4-9.6,7.4C543.3,514.6,539.9,510.9,539.9,507.2z M555.8,507.2c0-2.4-2.1-4.7-6.3-4.7
		c-4.2,0-6.3,2.3-6.3,4.7c0,2.4,2.1,4.7,6.3,4.7C553.7,511.9,555.8,509.6,555.8,507.2z"/>
</g>
<g class="st1">
	<path d="M436.4,147.4v-10.8c0-1.1-0.9-1.5-2.3-1.7c0-0.4,0.3-1.2,0.4-1.4c0.1-0.2,0.2-0.3,0.5-0.3c1.3,0,2.9,0.3,4.2,0.8
		c0.3,0.1,0.5,0.3,0.5,0.7v3.7h10.5V135c0-1.1-0.9-1.5-2.3-1.7c0-0.4,0.3-1.2,0.4-1.4c0.1-0.2,0.2-0.3,0.5-0.3
		c1.3,0,2.9,0.3,4.2,0.8c0.3,0.1,0.5,0.3,0.5,0.7v15.2c0,1-0.6,1.3-1.2,1.3h-14C437.1,149.7,436.4,149,436.4,147.4z M450.2,147v-5.8
		h-10.5v5.8H450.2z M443.4,164.5v-6.9c0-1.1-0.9-1.6-2-1.9c0-0.4,0.2-1.7,0.7-1.7c1,0,3.1,0.3,4.2,0.3h12.1c1.2,0,4.1-0.3,4.6-0.3
		c0.5,0,0.7,0.1,0.7,0.5c0,0.5-0.2,1.8-0.5,2.5h-16.5v7.6h12.7c1.2,0,4.1-0.3,4.6-0.3c0.5,0,0.7,0.1,0.7,0.5c0,0.5-0.2,1.8-0.5,2.5
		h-18C444.2,167.2,443.4,166.4,443.4,164.5z M460.4,132.7c0-0.6-0.2-0.8-0.7-1.2s-1.7-0.9-2.8-1.1c0.1-0.5,0.4-1.2,0.5-1.4
		c0.1-0.2,0.3-0.2,0.5-0.2c1.3,0,4.1,0.5,5.3,1c0.5,0.2,0.6,0.3,0.6,0.7v9h1.9c1.6,0,4.2-0.4,4.6-0.4c0.6,0,0.8,0.1,0.8,0.6
		s-0.2,1.6-0.5,2.4h-6.8v3.2c0,1.7-0.3,4.6-0.5,6c0,0.4-0.1,0.6-0.5,0.7c-0.5,0.1-1.7,0.2-2.4,0V132.7z"/>
</g>
<g class="st1">
	<path d="M433.3,240.3c-0.1-0.1-0.2-0.3-0.2-0.5c0-0.2,0.5-0.9,0.7-1.3c2.5,0.4,4.1,0.5,7.3,0.5h21.2c3.2,0,6.5-0.4,7.1-0.4
		c0.6,0,0.8,0.1,0.8,0.6s-0.2,1.9-0.5,2.7c-1.9-0.1-4.3-0.2-6.4-0.2h-21.7c-1.5,0-2.9,0.4-4.6,0.9
		C435.7,242.1,434.3,241.4,433.3,240.3z M442,257.4V254c0-1.2-1-1.6-2-1.8c0-0.4,0.3-1.6,0.9-1.6c0.7,0,2.2,0.1,3.2,0.1h16.2v-3.5
		h-13.8c-0.7,0-1.9,0-3.4,0.5c-1.2-0.5-2.3-1.2-3-1.8c-0.1-0.1-0.2-0.2-0.2-0.4c0-0.2,0.5-0.8,0.7-1.2c1.5,0.5,3.8,0.4,5.3,0.4h11.9
		c1,0,3.7-0.2,4.7-0.2c0.7,0,1,0.3,1,1.1v6.9c0,0.5-0.2,0.7-0.5,0.7h-17.7v3.7h13.8c1.6,0,4.7-0.3,5.1-0.3c0.6,0,0.8,0.1,0.8,0.6
		c0,0.5-0.2,1.6-0.5,2.4h-20.8C442.7,259.6,442,259,442,257.4z M442.4,229.1c0-3.7,3.4-7.4,9.6-7.4s9.6,3.7,9.6,7.4
		c0,3.7-3.4,7.4-9.6,7.4S442.4,232.8,442.4,229.1z M458.3,229.1c0-2.4-2.1-4.7-6.3-4.7c-4.2,0-6.3,2.3-6.3,4.7
		c0,2.4,2.1,4.7,6.3,4.7C456.2,233.8,458.3,231.5,458.3,229.1z"/>
</g>
<g class="st1">
	<path d="M435.5,341.8c-0.2-0.2-0.8-1.1-1.2-1.7c5.5-3.5,12.9-10.6,15.5-17.1H442c-1.1,0-1.9,0.2-3,0.6c-1-0.5-2-1.2-2.7-1.8
		c-0.1-0.1-0.2-0.2-0.2-0.4c0-0.2,0.4-1.1,0.6-1.4c1.6,0.3,3.4,0.2,5,0.2h7.8c1,0,2.8-0.2,3.6-0.2s1.1,0.7,0.9,1.6
		c-0.7,2.7-2.5,5.7-4.7,8.6c3.1,3.5,4.9,5.3,8,8.5c0.3,0.3,0.2,0.6,0,0.9c-0.5,0.6-1.4,1.4-2.1,1.9c-3-3.8-4.7-5.8-7.6-9.2
		c-3.6,4.1-7.9,7.7-11.1,9.5C436.2,342.1,435.8,342.1,435.5,341.8z M460.6,318.4c0-0.6-0.2-0.8-0.7-1.2s-1.7-0.9-2.8-1.1
		c0.1-0.5,0.4-1.2,0.5-1.5c0.1-0.2,0.3-0.2,0.5-0.2c1.3,0,4.1,0.5,5.3,1c0.5,0.2,0.6,0.3,0.6,0.7v14.2h1.9c1.6,0,4.2-0.4,4.6-0.4
		c0.6,0,0.8,0.1,0.8,0.6s-0.2,1.6-0.5,2.4h-6.8V347c0,1.7-0.3,4.6-0.5,6c0,0.4-0.1,0.6-0.5,0.7c-0.5,0.1-1.7,0.2-2.4,0V318.4z"/>
</g>
<g class="st1">
	<path d="M436.5,429.6c-0.2-0.2-1-1.4-1.2-1.8c5.8-3,12.7-9.2,15.4-14.9h-7.7c-1.1,0-1.9,0.2-3,0.6c-1-0.5-2-1.2-2.7-1.8
		c-0.1-0.1-0.2-0.2-0.2-0.4c0-0.2,0.4-1.2,0.6-1.4c1.6,0.3,3.4,0.2,5,0.2h7.8c1,0,2.8-0.2,3.6-0.2s1.2,0.7,0.9,1.6
		c-0.4,1.1-0.9,2.1-1.5,3.1h8.5v-5.6c0-0.6-0.2-0.8-0.7-1.2c-0.5-0.4-1.7-0.9-2.8-1.1c0.1-0.5,0.4-1.2,0.5-1.4
		c0.1-0.2,0.3-0.2,0.5-0.2c1.3,0,4.1,0.5,5.3,1c0.5,0.2,0.6,0.3,0.6,0.7v14.7c0,1.7-0.3,4.6-0.5,6c0,0.4-0.1,0.6-0.5,0.7
		c-0.5,0.1-1.7,0.2-2.4,0v-4.5h-10.4c-0.2-0.8-0.5-1.9-0.5-2.4s0.2-0.6,0.8-0.6c0.4,0,3,0.3,4.6,0.3h5.4v-3.8h-10.2
		c-3.7,5.2-9.2,9.6-14.5,12.3C437.1,429.8,436.8,429.8,436.5,429.6z M461.7,433h-12.6c-0.7,0-2.3,0.2-3.4,0.7
		c-1.1-0.5-2.2-1.4-2.8-2c-0.2-0.2-0.3-0.3-0.3-0.5c0-0.2,0.4-1,0.7-1.4c1.5,0.5,3.8,0.5,5.3,0.5h10.7c1,0,3.7-0.2,4.7-0.2
		c0.7,0,1,0.3,1,1.1v6.5c0,1.7-0.3,4.6-0.5,6c0,0.4-0.1,0.6-0.5,0.7c-0.5,0.1-1.7,0.2-2.4,0V433z"/>
</g>
<g class="st1">
	<path d="M435.7,514.5c0-5.9,4.1-9.9,9.9-9.9s9.9,4,9.9,9.9c0,5.9-4.1,9.9-9.9,9.9S435.7,520.4,435.7,514.5z M452.1,514.5
		c0-4.4-2.8-7.1-6.5-7.1c-3.7,0-6.5,2.8-6.5,7.1c0,4.4,2.8,7.1,6.5,7.1C449.3,521.6,452.1,518.9,452.1,514.5z M461.5,502.9
		c0-0.6-0.2-0.8-0.7-1.2c-0.5-0.4-1.7-0.9-2.8-1.1c0.1-0.5,0.4-1.2,0.5-1.5c0.1-0.2,0.3-0.2,0.5-0.2c1.3,0,4.1,0.5,5.3,1
		c0.5,0.2,0.6,0.3,0.6,0.7v31c0,1.7-0.3,4.6-0.5,6c0,0.4-0.1,0.6-0.5,0.7c-0.5,0.1-1.7,0.2-2.4,0V502.9z"/>
</g>
<g class="st1">
	<path d="M339.6,141.1c0-4.9,4-8.5,9.4-8.5s9.4,3.6,9.4,8.5s-4,8.5-9.4,8.5S339.6,146,339.6,141.1z M352.6,167.3
		c1.1-0.8,2.3-1.9,3.6-3.1l-4.4-4.3c-2.7,3-6.5,6.3-8.9,7.7c-0.3,0.2-0.5,0.2-0.7,0c-0.3-0.2-0.9-0.9-1.2-1.3
		c3.9-2.9,9.1-7.7,10.2-10.9c0.3-0.8-0.9-1.6-2.5-2c0.2-0.5,0.5-1,0.8-1.3c0.1-0.1,0.2-0.2,0.3-0.2c1.1,0,3.9,0.9,4.8,1.6
		c0.6,0.5,0.5,1.2,0.3,1.8c-0.3,0.8-0.9,1.7-1.6,2.7l5.1,3.7c2-2.3,3.5-4.7,3.8-6.2c0.1-0.9-0.8-1.6-2.3-2c0.2-0.5,0.5-1,0.8-1.3
		c0.1-0.1,0.2-0.2,0.3-0.2c0.8,0,3.7,1,4.6,1.6c0.6,0.5,0.5,1.2,0.3,1.8c-0.3,0.9-1,2.1-1.9,3.4c2.5,2.1,4.9,4,7.4,6
		c0.2,0.2,0.2,0.5,0.1,0.7c-0.3,0.5-1.3,1.4-2.1,1.9c-2.3-2.3-4.6-4.5-6.9-6.7c-2.4,3-5.7,6.2-8.1,7.6c-0.3,0.2-0.5,0.2-0.7,0
		C353.4,168.4,352.8,167.7,352.6,167.3z M355,141.1c0-3.2-2.6-5.8-6-5.8c-3.4,0-6,2.6-6,5.8c0,3.2,2.6,5.8,6,5.8
		C352.4,146.9,355,144.3,355,141.1z M364.9,132.7c0-0.6-0.2-0.8-0.7-1.2c-0.5-0.4-1.7-0.9-2.8-1.1c0.1-0.5,0.4-1.2,0.5-1.4
		c0.1-0.2,0.3-0.2,0.5-0.2c1.3,0,4.1,0.5,5.3,1c0.5,0.2,0.6,0.3,0.6,0.7V145c0,1.7-0.3,4.6-0.5,6c0,0.4-0.1,0.6-0.5,0.7
		c-0.5,0.1-1.7,0.2-2.4,0V132.7z"/>
</g>
<g class="st1">
	<path d="M336.8,242.2c-0.1-0.1-0.2-0.3-0.2-0.5c0-0.2,0.5-0.9,0.7-1.3c2.5,0.4,4.1,0.5,7.3,0.5h21.2c3.2,0,6.5-0.4,7.1-0.4
		c0.6,0,0.8,0.1,0.8,0.6s-0.2,1.9-0.5,2.7c-1.9-0.1-4.3-0.2-6.4-0.2h-21.7c-1.5,0-2.9,0.4-4.6,0.9
		C339.2,243.9,337.8,243.2,336.8,242.2z M344.7,233.8v-6.7c0-0.6-0.1-0.9-0.5-1.2c-0.5-0.3-1.3-0.7-2.3-0.7c0-0.5,0.2-1.1,0.3-1.4
		c0.1-0.2,0.3-0.2,0.5-0.2c1.3,0,3.6,0.2,4.8,0.6c0.5,0.2,0.6,0.4,0.6,0.7v8.9h13.8c1.2,0,4.1-0.3,4.6-0.3c0.5,0,0.7,0.1,0.7,0.5
		c0,0.5-0.2,1.9-0.5,2.6h-19.2C345.5,236.5,344.7,235.7,344.7,233.8z M345.4,256v-5.4c0-0.6-0.1-0.9-0.5-1.2
		c-0.5-0.3-1.3-0.7-2.3-0.7c0-0.5,0.2-1.1,0.3-1.4c0.1-0.2,0.3-0.2,0.5-0.2c1.3,0,3.6,0.2,4.8,0.6c0.5,0.2,0.6,0.4,0.6,0.7v7.6h14.4
		c1.2,0,4.1-0.3,4.6-0.3c0.5,0,0.7,0.1,0.7,0.5c0,0.5-0.2,1.9-0.5,2.6h-19.8C346.2,258.8,345.4,257.9,345.4,256z"/>
</g>
<g class="st1">
	<path d="M337.2,430.7c3.7-3.5,11.2-13.5,11.2-17.4c0-0.9-1.2-1.6-2.7-2.2c0.2-0.5,0.6-0.9,0.8-1.2c0.1-0.1,0.2-0.2,0.3-0.2
		c0.9,0,3.9,0.9,5.1,1.8c0.3,0.2,0.5,0.5,0.5,1.1c0,1.3-1.1,3.7-2.6,6.4c3.4,3.7,6.4,7,9.6,10.2c0.3,0.3,0.2,0.6,0,0.9
		c-0.5,0.6-1.4,1.4-2.1,1.9c-3-3.7-5.8-7.1-8.9-10.7c-2.8,4.4-6.5,9.1-8.7,10.9c-0.3,0.2-0.6,0.3-0.9,0
		C338.4,431.8,337.7,431.3,337.2,430.7z M363.6,409.2c0-0.6-0.2-0.8-0.7-1.2s-1.7-0.9-2.8-1.1c0.1-0.5,0.4-1.2,0.5-1.5
		c0.1-0.2,0.3-0.2,0.5-0.2c1.3,0,4.1,0.5,5.3,1c0.5,0.2,0.6,0.3,0.6,0.7V421h1.9c1.6,0,4.2-0.4,4.6-0.4c0.6,0,0.8,0.1,0.8,0.6
		s-0.2,1.6-0.5,2.4h-6.8v14.2c0,1.7-0.3,4.6-0.5,6c0,0.4-0.1,0.6-0.5,0.7c-0.5,0.1-1.7,0.2-2.4,0V409.2z"/>
</g>
<g class="st1">
	<path d="M363.6,518.1c-6.9,1.6-16.4,3.1-21.7,3.1c-1.7,0-2.3-0.9-2.3-2.5V514c0-1.2-1-1.6-2-1.8c0-0.4,0.3-1.8,0.9-1.8
		c1,0,3,0.3,4,0.3h10.2v-4.8h-8.9c-1.1,0-1.9,0.2-3,0.6c-1-0.5-2-1.2-2.7-1.8c-0.1-0.1-0.2-0.2-0.2-0.4c0-0.2,0.4-1,0.6-1.3
		c1.6,0.3,3.4,0.2,5,0.2h6.8c1,0,3.7-0.2,4.7-0.2c0.7,0,1,0.3,1,1.1v8.4c0,0.5-0.2,0.7-0.5,0.7H343v5.1c5.1,0,14.7-1.3,20.6-2.8
		v-12.8c0-0.6-0.2-0.8-0.7-1.2s-1.7-0.9-2.8-1.1c0.1-0.5,0.4-1.2,0.5-1.4c0.1-0.2,0.3-0.2,0.5-0.2c1.3,0,4.1,0.5,5.3,1
		c0.5,0.2,0.6,0.3,0.6,0.7v9.4h1.9c1.6,0,4.2-0.4,4.6-0.4c0.6,0,0.8,0.1,0.8,0.6s-0.2,1.6-0.5,2.4h-6.8v3.1c0,1.7-0.3,4.6-0.5,6
		c0,0.4-0.1,0.6-0.5,0.7c-0.5,0.1-1.7,0.2-2.4,0V518.1z M346.4,535.2v-7.2c0-1.1-0.9-1.6-2-1.9c0-0.4,0.2-1.7,0.7-1.7
		c1,0,3.1,0.3,4.2,0.3h11.5c1,0,3.7-0.2,4.7-0.2c0.7,0,1,0.3,1,1.1v10.6c0,1-0.6,1.3-1.2,1.3h-17.1
		C347.1,537.4,346.4,536.7,346.4,535.2z M363.2,534.7v-7.4h-13.6v7.4H363.2z"/>
</g>
<g class="st1">
	<path d="M339.2,608.2c0-5.9,4.1-9.9,9.9-9.9s9.9,4,9.9,9.9c0,5.9-4.1,9.9-9.9,9.9S339.2,614.1,339.2,608.2z M355.5,608.2
		c0-4.4-2.8-7.1-6.5-7.1s-6.5,2.8-6.5,7.1c0,4.4,2.8,7.1,6.5,7.1S355.5,612.6,355.5,608.2z M364.9,596.6c0-0.6-0.2-0.8-0.7-1.2
		c-0.5-0.4-1.7-0.9-2.8-1.1c0.1-0.5,0.4-1.2,0.5-1.5c0.1-0.2,0.3-0.2,0.5-0.2c1.3,0,4.1,0.5,5.3,1c0.5,0.2,0.6,0.3,0.6,0.7v31
		c0,1.7-0.3,4.6-0.5,6c0,0.4-0.1,0.6-0.5,0.7c-0.5,0.1-1.7,0.2-2.4,0V596.6z"/>
</g>
<g class="st1">
	<path d="M240.6,135.6c-0.2-0.2-0.3-0.3-0.3-0.5c0-0.2,0.4-1,0.7-1.4c1.5,0.5,3.8,0.5,5.3,0.5h4.7v-1.5c0-0.9-0.7-1.4-2.1-1.8
		c0.1-0.5,0.2-1,0.4-1.3c0.1-0.2,0.3-0.2,0.5-0.2c0.6,0,2.8,0.4,3.7,0.7c0.5,0.2,0.6,0.2,0.6,0.6v3.6h3.8c1.2,0,4.1-0.3,4.6-0.3
		c0.5,0,0.7,0.1,0.7,0.5c0,0.5-0.2,1.9-0.5,2.6c-1.6-0.1-3-0.1-4.5-0.1h-11.4c-0.7,0-2.3,0.2-3.4,0.7
		C242.3,137,241.2,136.3,240.6,135.6z M244.2,145.8c0-3.7,2.9-7,8-7c5.1,0,8,3.3,8,7c0,3.7-2.9,7-8,7
		C247.2,152.8,244.2,149.5,244.2,145.8z M257,145.8c0-2.3-1.7-4.4-4.8-4.4s-4.8,2.1-4.8,4.4c0,2.3,1.7,4.4,4.8,4.4
		S257,148.1,257,145.8z M250.1,165.1v-6.5c0-1.1-0.9-1.6-2-1.9c0-0.4,0.2-1.7,0.7-1.7c1,0,3.1,0.3,4.2,0.3h11.6c1,0,3.7-0.2,4.7-0.2
		c0.7,0,1,0.3,1,1.1v9.8c0,1-0.6,1.3-1.2,1.3h-17.2C250.8,167.3,250.1,166.7,250.1,165.1z M267,164.7v-6.8h-13.6v6.8H267z
		 M267.4,132.7c0-0.6-0.2-0.8-0.7-1.2c-0.5-0.4-1.7-0.9-2.8-1.1c0.1-0.5,0.4-1.2,0.5-1.4c0.1-0.2,0.3-0.2,0.5-0.2
		c1.3,0,4.1,0.5,5.3,1c0.5,0.2,0.6,0.3,0.6,0.7v16.2c0,1.7-0.3,4.6-0.5,6c0,0.4-0.1,0.6-0.5,0.7c-0.5,0.1-1.7,0.2-2.4,0V132.7z"/>
</g>
<g class="st1">
	<path d="M239.2,239.4c-0.1-0.1-0.2-0.3-0.2-0.5c0-0.2,0.5-0.9,0.7-1.3c2.5,0.4,4.1,0.5,7.3,0.5h21.2c3.2,0,6.5-0.4,7.1-0.4
		c0.6,0,0.8,0.1,0.8,0.6s-0.2,1.9-0.5,2.7c-1.9-0.1-4.3-0.2-6.4-0.2h-21.7c-1.5,0-2.9,0.4-4.6,0.9
		C241.6,241.2,240.2,240.5,239.2,239.4z M247.2,232v-5.5c0-1.3-1.2-1.6-2.4-1.8c0-0.4,0.2-1.8,0.9-1.8c1,0,3.4,0.3,4.5,0.3h13.4
		c1.2,0,4.1-0.3,4.6-0.3c0.5,0,0.7,0.1,0.7,0.5c0,0.5-0.2,1.9-0.5,2.5h-17.8v6.1h13.6c1.2,0,4.1-0.3,4.6-0.3c0.5,0,0.7,0.1,0.7,0.5
		c0,0.5-0.2,1.8-0.5,2.5h-19.1C247.9,234.7,247.2,233.9,247.2,232z M247.9,257.4v-3.6c0-1.2-1-1.6-2-1.8c0-0.4,0.3-1.6,0.9-1.6
		c0.7,0,2.2,0.1,3.2,0.1h16.2v-3.7h-13.8c-0.7,0-1.9,0-3.4,0.5c-1.2-0.5-2.3-1.2-3-1.8c-0.1-0.1-0.2-0.2-0.2-0.4
		c0-0.2,0.5-0.8,0.7-1.2c1.5,0.5,3.8,0.4,5.3,0.4h11.9c1,0,3.7-0.2,4.7-0.2c0.7,0,1,0.3,1,1.1v7.2c0,0.5-0.2,0.7-0.5,0.7h-17.7v3.9
		h13.8c1.6,0,4.7-0.3,5.1-0.3c0.6,0,0.8,0.1,0.8,0.6c0,0.5-0.2,1.6-0.5,2.4h-20.8C248.6,259.6,247.9,259,247.9,257.4z"/>
</g>
<g class="st1">
	<path d="M241.6,341.8c-0.2-0.2-0.8-1.1-1.2-1.7c5.5-3.5,12.9-10.6,15.5-17.1h-7.9c-1.1,0-1.9,0.2-3,0.6c-1-0.5-2-1.2-2.7-1.8
		c-0.1-0.1-0.2-0.2-0.2-0.4c0-0.2,0.4-1.1,0.6-1.4c1.6,0.3,3.4,0.2,5,0.2h7.8c1,0,2.8-0.2,3.6-0.2s1.1,0.7,0.9,1.6
		c-0.7,2.7-2.5,5.7-4.7,8.6c3.1,3.5,4.9,5.3,8,8.5c0.3,0.3,0.2,0.6,0,0.9c-0.5,0.6-1.4,1.4-2.1,1.9c-3-3.8-4.7-5.8-7.6-9.2
		c-3.6,4.1-7.9,7.7-11.1,9.5C242.3,342.1,241.9,342.1,241.6,341.8z M267.2,318.4c0-0.6-0.2-0.8-0.7-1.2c-0.5-0.4-1.7-0.9-2.8-1.1
		c0.1-0.5,0.4-1.2,0.5-1.5c0.1-0.2,0.3-0.2,0.5-0.2c1.3,0,4.1,0.5,5.3,1c0.5,0.2,0.6,0.3,0.6,0.7v31c0,1.7-0.3,4.6-0.5,6
		c0,0.4-0.1,0.6-0.5,0.7c-0.5,0.1-1.7,0.2-2.4,0V318.4z"/>
</g>
<g class="st1">
	<path d="M242.1,428.4v-13.7c0-1.1-0.9-1.6-2-1.9c0-0.4,0.2-1.7,0.7-1.7c1,0,3.1,0.3,4.2,0.3h8.8c1,0,3.7-0.2,4.7-0.2
		c0.7,0,1,0.3,1,1.1v17.1c0,1-0.6,1.3-1.2,1.3h-14.4C242.8,430.6,242.1,430,242.1,428.4z M256.3,427.9v-13.8h-10.9v13.8H256.3z
		 M266.1,409.2c0-0.6-0.2-0.8-0.7-1.2s-1.7-0.9-2.8-1.1c0.1-0.5,0.4-1.2,0.5-1.5c0.1-0.2,0.3-0.2,0.5-0.2c1.3,0,4.1,0.5,5.3,1
		c0.5,0.2,0.6,0.3,0.6,0.7V421h1.9c1.6,0,4.2-0.4,4.6-0.4c0.6,0,0.8,0.1,0.8,0.6s-0.2,1.6-0.5,2.4h-6.8v14.2c0,1.7-0.3,4.6-0.5,6
		c0,0.4-0.1,0.6-0.5,0.7c-0.5,0.1-1.7,0.2-2.4,0V409.2z"/>
</g>
<g class="st1">
	<path d="M42.8,157.5c-0.1-0.1-0.2-0.3-0.2-0.5c0-0.2,0.5-0.9,0.7-1.3c2.5,0.4,4.1,0.5,7.3,0.5h16.6c1.2-6.1,1.9-13.6,2.3-19.6H54.8
		c-0.9,0-1.8,0.1-3.3,0.6c-1.2-0.6-2.3-1.3-3.1-2c-0.1-0.1-0.2-0.2-0.2-0.5c0-0.2,0.4-0.9,0.7-1.3c1.6,0.4,3.5,0.5,5.7,0.5h13.6
		c1,0,3-0.2,4-0.2c0.7,0,1,0.3,1,1.2c0,4.3-1.4,14.6-3,21.4h1.6c3.2,0,6.5-0.4,7.1-0.4c0.6,0,0.8,0.1,0.8,0.6s-0.2,2-0.5,2.8
		c-1.9-0.1-4.3-0.2-6.4-0.2H51.1c-1.5,0-2.9,0.4-4.6,0.9C45.2,159.4,43.8,158.6,42.8,157.5z"/>
</g>
<g class="st1">
	<path d="M70.9,245c-6.9,1.6-16.9,3.1-22.2,3.1c-1.7,0-2.3-0.9-2.3-2.5v-6.9c0-1.2-1-1.6-2-1.8c0-0.4,0.3-1.8,0.9-1.8
		c1,0,3,0.3,4,0.3h10v-6.1h-8.7c-1.1,0-1.9,0.2-3,0.6c-1-0.5-2-1.2-2.7-1.8c-0.1-0.1-0.2-0.2-0.2-0.4c0-0.2,0.4-1.1,0.6-1.4
		c1.6,0.3,3.4,0.2,5,0.2h6.5c1,0,3.7-0.2,4.7-0.2c0.7,0,1,0.3,1,1.1v9.9c0,0.5-0.2,0.7-0.5,0.7H49.8v7.1c5.1,0,15.1-1.3,21.1-2.8
		v-17.6c0-0.6-0.2-0.8-0.7-1.2c-0.5-0.4-1.7-0.9-2.8-1.1c0.1-0.5,0.4-1.2,0.5-1.5c0.1-0.2,0.3-0.2,0.5-0.2c1.3,0,4.1,0.5,5.3,1
		c0.5,0.2,0.6,0.3,0.6,0.7v31c0,1.7-0.3,4.6-0.5,6c0,0.4-0.1,0.6-0.5,0.7c-0.5,0.1-1.7,0.2-2.4,0V245z"/>
</g>
<g class="st1">
	<path d="M42.8,343.3c-0.1-0.1-0.2-0.3-0.2-0.5c0-0.2,0.5-0.9,0.7-1.3c2.5,0.4,4.1,0.5,7.3,0.5h7.6v-8.7c0-1.1-1-1.6-2.7-2
		c0.1-0.5,0.3-1.2,0.5-1.4c0.1-0.2,0.3-0.2,0.5-0.2c1,0,3.2,0.2,4.5,0.6c0.5,0.1,0.6,0.2,0.6,0.6V342h10.2c3.2,0,6.5-0.4,7.1-0.4
		c0.6,0,0.8,0.1,0.8,0.6s-0.2,2-0.5,2.8c-1.9-0.1-4.3-0.2-6.4-0.2H51.1c-1.5,0-2.9,0.4-4.6,0.9C45.2,345.1,43.8,344.3,42.8,343.3z
		 M68.5,338.8c1.2-6.2,1.7-10.9,2-16.8H54.7c-0.9,0-1.8,0.1-3.3,0.6c-1.2-0.6-2.3-1.3-3.1-2c-0.1-0.1-0.2-0.2-0.2-0.5
		c0-0.2,0.4-0.9,0.7-1.3c1.6,0.4,3.5,0.5,5.7,0.5h14.7c1,0,3-0.2,4-0.2c0.7,0,1,0.3,1,1.2c0,4.4-1,11.6-2.7,18.4
		c-0.1,0.4-0.3,0.5-0.6,0.5C70.4,339.1,68.9,339,68.5,338.8z"/>
</g>
<g class="st1">
	<path d="M338.3,701.4c0-5.9,3.9-9.9,9.7-9.9c5.8,0,9.7,4,9.7,9.9c0,5.9-3.9,9.9-9.7,9.9C342.3,711.3,338.3,707.3,338.3,701.4z
		 M354.4,701.4c0-4.4-2.7-7.1-6.4-7.1c-3.7,0-6.4,2.8-6.4,7.1s2.7,7.1,6.4,7.1C351.7,708.5,354.4,705.7,354.4,701.4z M363.6,689.8
		c0-0.6-0.2-0.8-0.7-1.2s-1.7-0.9-2.8-1.1c0.1-0.5,0.4-1.2,0.5-1.5c0.1-0.2,0.3-0.2,0.5-0.2c1.3,0,4.1,0.5,5.3,1
		c0.5,0.2,0.6,0.3,0.6,0.7v9.4h1.8c1.6,0,4.2-0.4,4.6-0.4c0.6,0,0.8,0.1,0.8,0.6s-0.2,1.6-0.5,2.4h-6.7v6.5h1.9
		c1.6,0,4.2-0.4,4.6-0.4c0.6,0,0.8,0.1,0.8,0.6s-0.2,1.6-0.5,2.4h-6.8v9.9c0,1.7-0.3,4.6-0.5,6c0,0.4-0.1,0.6-0.5,0.7
		c-0.5,0.1-1.7,0.2-2.4,0V689.8z"/>
</g>
<g class="st1">
	<path d="M44.4,514.5c0-5.9,3.9-9.9,9.7-9.9c5.8,0,9.7,4,9.7,9.9c0,5.9-3.9,9.9-9.7,9.9C48.3,524.4,44.4,520.4,44.4,514.5z
		 M60.5,514.5c0-4.4-2.7-7.1-6.4-7.1c-3.7,0-6.4,2.8-6.4,7.1c0,4.4,2.7,7.1,6.4,7.1C57.8,521.6,60.5,518.8,60.5,514.5z M69.6,502.9
		c0-0.6-0.2-0.8-0.7-1.2s-1.7-0.9-2.8-1.1c0.1-0.5,0.4-1.2,0.5-1.5c0.1-0.2,0.3-0.2,0.5-0.2c1.3,0,4.1,0.5,5.3,1
		c0.5,0.2,0.6,0.3,0.6,0.7v14.2h1.9c1.6,0,4.2-0.4,4.6-0.4c0.6,0,0.8,0.1,0.8,0.6s-0.2,1.6-0.5,2.4H73v14.2c0,1.7-0.3,4.6-0.5,6
		c0,0.4-0.1,0.6-0.5,0.7c-0.5,0.1-1.7,0.2-2.4,0V502.9z"/>
</g>
<g class="st1">
	<path d="M42.8,619.7c-0.1-0.1-0.2-0.3-0.2-0.5c0-0.2,0.5-0.9,0.7-1.3c2.5,0.4,4.1,0.5,7.3,0.5h21.2c3.2,0,6.5-0.4,7.1-0.4
		c0.6,0,0.8,0.1,0.8,0.6s-0.2,2-0.5,2.8c-1.9-0.1-4.3-0.2-6.4-0.2H51.1c-1.5,0-2.9,0.4-4.6,0.9C45.2,621.5,43.8,620.8,42.8,619.7z
		 M48.3,610.5c-0.2-0.2-0.3-0.3-0.3-0.5c0-0.2,0.4-0.9,0.7-1.2c1.5,0.5,3.8,0.5,5.3,0.5h1v-10.9h-0.5c-1.1,0-2.4,0.2-3.5,0.5
		c-1-0.6-2-1.3-2.6-1.9c-0.2-0.2-0.3-0.3-0.3-0.5c0-0.2,0.4-0.9,0.7-1.2c1.5,0.5,3.8,0.5,5.3,0.5h15.4c1.2,0,4.1-0.2,4.6-0.2
		c0.5,0,0.7,0.1,0.7,0.5c0,0.5-0.2,1.8-0.5,2.5c-1.6-0.1-3-0.1-4.5-0.1h-1.2v10.9h0.8c1.2,0,4.1-0.2,4.6-0.2c0.5,0,0.7,0.1,0.7,0.5
		c0,0.5-0.2,1.8-0.5,2.5c-1.6-0.1-3-0.1-4.5-0.1h-15c-0.7,0-2.3,0.2-3.4,0.7C50,612,48.9,611.1,48.3,610.5z M65.2,609.2v-10.9h-7
		v10.9H65.2z"/>
</g>
<g class="st1">
	<path d="M45.4,713.2c-0.2-0.2-0.8-1.1-1.2-1.7c5.5-3.5,12.9-10.6,15.5-17.1h-7.9c-1.1,0-1.9,0.2-3,0.6c-1-0.5-2-1.2-2.7-1.8
		c-0.1-0.1-0.2-0.2-0.2-0.4c0-0.2,0.4-1.1,0.6-1.4c1.6,0.3,3.4,0.2,5,0.2h7.8c1,0,2.8-0.2,3.6-0.2s1.1,0.7,0.9,1.6
		c-0.7,2.7-2.5,5.7-4.7,8.6c3.1,3.5,4.9,5.3,8,8.5c0.3,0.3,0.2,0.6,0,0.9c-0.5,0.6-1.4,1.4-2.1,1.9c-3-3.8-4.7-5.8-7.6-9.2
		c-3.6,4.1-7.9,7.7-11.1,9.5C46,713.4,45.7,713.4,45.4,713.2z M70.9,689.8c0-0.6-0.2-0.8-0.7-1.2c-0.5-0.4-1.7-0.9-2.8-1.1
		c0.1-0.5,0.4-1.2,0.5-1.5c0.1-0.2,0.3-0.2,0.5-0.2c1.3,0,4.1,0.5,5.3,1c0.5,0.2,0.6,0.3,0.6,0.7v31c0,1.7-0.3,4.6-0.5,6
		c0,0.4-0.1,0.6-0.5,0.7c-0.5,0.1-1.7,0.2-2.4,0V689.8z"/>
</g>
<g class="st1">
	<path d="M45.7,803.5v-13.7c0-1.1-0.9-1.6-2-1.9c0-0.4,0.2-1.7,0.7-1.7c1,0,3.1,0.3,4.2,0.3h8.8c1,0,3.7-0.2,4.7-0.2
		c0.7,0,1,0.3,1,1.1v17.1c0,1-0.6,1.3-1.2,1.3H47.5C46.4,805.7,45.7,805,45.7,803.5z M59.9,802.9v-13.8H49v13.8H59.9z M69.6,784.3
		c0-0.6-0.2-0.8-0.7-1.2s-1.7-0.9-2.8-1.1c0.1-0.5,0.4-1.2,0.5-1.5c0.1-0.2,0.3-0.2,0.5-0.2c1.3,0,4.1,0.5,5.3,1
		c0.5,0.2,0.6,0.3,0.6,0.7v14.2h1.9c1.6,0,4.2-0.4,4.6-0.4c0.6,0,0.8,0.1,0.8,0.6s-0.2,1.6-0.5,2.4H73v14.2c0,1.7-0.3,4.6-0.5,6
		c0,0.4-0.1,0.6-0.5,0.7c-0.5,0.1-1.7,0.2-2.4,0V784.3z"/>
</g>
</svg>
