<?xml version="1.0" encoding="utf-8"?>
<!-- Generator: Adobe Illustrator 26.0.0, SVG Export Plug-In . SVG Version: 6.00 Build 0)  -->
<svg version="1.1" id="Layer_1" xmlns="http://www.w3.org/2000/svg" xmlns:xlink="http://www.w3.org/1999/xlink" x="0px" y="0px"
	 viewBox="0 0 711 952" style="enable-background:new 0 0 711 952;" xml:space="preserve">
<style type="text/css">
	.st0{fill:none;stroke:#000000;stroke-width:2;stroke-miterlimit:10;}
	.st1{enable-background:new    ;}
	.st2{clip-path:url(#SVGID_00000134939379423399042940000004349597679281645231_);}
	.st3{fill:none;stroke:#000000;stroke-width:1.87;stroke-miterlimit:10;}
</style>
<line class="st0" x1="654.3" y1="431.7" x2="654.3" y2="4.2"/>
<g class="st1">
	<path d="M680.7,10.1c-0.2-0.2-0.2-0.3-0.2-0.4c0-0.2,0.3-0.8,0.6-1.1c1.2,0.4,3.2,0.4,4.4,0.4h3.9V7.7c0-0.8-0.6-1.2-1.7-1.5
		c0.1-0.4,0.2-0.9,0.3-1.1c0.1-0.2,0.2-0.2,0.4-0.2c0.5,0,2.3,0.3,3.1,0.6c0.4,0.1,0.5,0.2,0.5,0.5v3h3.2c1,0,3.5-0.3,3.8-0.3
		c0.4,0,0.6,0.1,0.6,0.4c0,0.4-0.2,1.6-0.4,2.2c-1.3-0.1-2.5-0.1-3.8-0.1h-9.6c-0.6,0-2,0.1-2.8,0.6
		C682.2,11.3,681.2,10.6,680.7,10.1z M683.8,18.6c0-3.1,2.5-5.9,6.7-5.9c4.3,0,6.7,2.8,6.7,5.9s-2.5,5.9-6.7,5.9
		C686.2,24.5,683.8,21.7,683.8,18.6z M694.5,18.6c0-1.9-1.5-3.7-4-3.7s-4,1.7-4,3.7s1.5,3.7,4,3.7S694.5,20.5,694.5,18.6z
		 M688.7,34.9v-5.5c0-0.9-0.8-1.4-1.7-1.6c0-0.3,0.2-1.5,0.6-1.5c0.8,0,2.6,0.2,3.5,0.2h9.7c0.9,0,3.1-0.1,4-0.1
		c0.6,0,0.9,0.2,0.9,0.9v8.3c0,0.9-0.5,1.1-1,1.1h-14.4C689.2,36.7,688.7,36.2,688.7,34.9z M702.9,34.5v-5.7h-11.5v5.7H702.9z
		 M703.2,7.6c0-0.5-0.2-0.7-0.6-1c-0.4-0.3-1.4-0.7-2.4-0.9c0.1-0.4,0.3-1,0.4-1.2c0.1-0.2,0.2-0.2,0.4-0.2c1.1,0,3.4,0.4,4.4,0.8
		c0.4,0.1,0.5,0.3,0.5,0.6v13.6c0,1.5-0.2,3.9-0.4,5.1c0,0.3-0.1,0.5-0.4,0.6c-0.4,0.1-1.4,0.1-2,0V7.6z"/>
	<path d="M679.5,56.6c-0.1-0.1-0.2-0.2-0.2-0.4c0-0.2,0.4-0.8,0.6-1.1c2.1,0.3,3.4,0.4,6.1,0.4h17.8c2.7,0,5.5-0.3,5.9-0.3
		c0.5,0,0.7,0.1,0.7,0.5c0,0.4-0.2,1.6-0.4,2.2c-1.6-0.1-3.6-0.2-5.4-0.2h-18.2c-1.2,0-2.5,0.3-3.9,0.7
		C681.5,58.1,680.4,57.5,679.5,56.6z M686.2,50.3v-4.6c0-1.1-1-1.4-2-1.5c0-0.3,0.2-1.5,0.8-1.5c0.9,0,2.9,0.2,3.8,0.2H700
		c1,0,3.5-0.3,3.8-0.3c0.4,0,0.6,0.1,0.6,0.4c0,0.4-0.2,1.6-0.4,2.1h-15v5.1h11.5c1,0,3.5-0.3,3.8-0.3c0.4,0,0.6,0.1,0.6,0.4
		c0,0.4-0.2,1.6-0.4,2.1h-16C686.9,52.7,686.2,51.9,686.2,50.3z M686.9,71.7v-3c0-1-0.8-1.3-1.7-1.5c0-0.3,0.3-1.3,0.7-1.3
		c0.6,0,1.9,0.1,2.7,0.1h13.6v-3.1h-11.6c-0.6,0-1.6,0-2.8,0.4c-1-0.4-1.9-1-2.5-1.6c-0.1-0.1-0.2-0.2-0.2-0.3c0-0.2,0.4-0.7,0.6-1
		c1.2,0.4,3.2,0.3,4.4,0.3h10c0.9,0,3.1-0.1,4-0.1c0.6,0,0.9,0.2,0.9,0.9v6c0,0.4-0.2,0.6-0.4,0.6h-14.9v3.3h11.6
		c1.3,0,3.9-0.3,4.3-0.3c0.5,0,0.7,0.1,0.7,0.5c0,0.4-0.2,1.4-0.4,2h-17.4C687.5,73.6,686.9,73,686.9,71.7z"/>
	<path d="M703.4,91.8h-5.5c-0.5,4.4-3.7,7.2-8.2,7.2c-4.9,0-8.3-3.4-8.3-8.3s3.4-8.3,8.3-8.3c4.5,0,7.7,2.9,8.2,7.2h5.5V81
		c0-0.5-0.2-0.7-0.6-1c-0.4-0.3-1.4-0.7-2.4-0.9c0.1-0.4,0.3-1,0.4-1.2c0.1-0.2,0.2-0.2,0.4-0.2c1.1,0,3.4,0.4,4.4,0.8
		c0.4,0.1,0.5,0.3,0.5,0.6v26c0,1.5-0.2,3.9-0.4,5.1c0,0.3-0.1,0.5-0.4,0.6c-0.4,0.1-1.4,0.1-2,0V91.8z M695.1,90.7
		c0-3.7-2.3-6-5.5-6s-5.5,2.3-5.5,6c0,3.7,2.3,6,5.5,6S695.1,94.4,695.1,90.7z"/>
</g>
<g class="st1">
	<path d="M679.6,134.7c-0.2-0.2-0.2-0.3-0.2-0.4c0-0.2,0.3-0.8,0.6-1.1c1.2,0.4,3.2,0.4,4.4,0.4h4.4v-2.8c0-0.8-0.6-1.2-1.7-1.5
		c0.1-0.4,0.2-0.9,0.3-1.1c0.1-0.2,0.2-0.2,0.4-0.2c0.5,0,2.4,0.3,3.2,0.6c0.4,0.1,0.5,0.2,0.5,0.5v4.6h3.6c1,0,3.5-0.3,3.8-0.3
		c0.4,0,0.6,0.1,0.6,0.4c0,0.4-0.2,1.6-0.4,2.2c-1.3-0.1-2.5-0.1-3.8-0.1h-10.5c-0.6,0-2,0.1-2.8,0.6
		C681,135.8,680.1,135.2,679.6,134.7z M682.6,144.4c0-3.7,2.9-6.5,7.3-6.5s7.3,2.9,7.3,6.5s-2.9,6.5-7.3,6.5
		S682.6,148.1,682.6,144.4z M694.5,144.4c0-2.5-1.8-4.2-4.6-4.2s-4.6,1.8-4.6,4.2c0,2.5,1.8,4.2,4.6,4.2S694.5,146.9,694.5,144.4z
		 M702.3,129.7c0-0.5-0.2-0.7-0.6-1c-0.4-0.3-1.4-0.7-2.4-0.9c0.1-0.4,0.3-1,0.4-1.2c0.1-0.2,0.2-0.2,0.4-0.2c1.1,0,3.4,0.4,4.4,0.8
		c0.4,0.1,0.5,0.3,0.5,0.6V140h1.4c1.3,0,3.6-0.3,3.9-0.3c0.5,0,0.7,0.1,0.7,0.5c0,0.4-0.2,1.4-0.4,2h-5.6v11.6
		c0,1.5-0.2,3.9-0.4,5.1c0,0.3-0.1,0.5-0.4,0.6c-0.4,0.1-1.4,0.1-2,0V129.7z"/>
	<path d="M679.5,187.2c-0.1-0.1-0.2-0.2-0.2-0.4c0-0.2,0.4-0.8,0.6-1.1c2.1,0.3,3.4,0.4,6.1,0.4h6.4v-7.3c0-0.9-0.9-1.3-2.2-1.7
		c0.1-0.4,0.2-1,0.4-1.2c0.1-0.2,0.2-0.2,0.4-0.2c0.9,0,2.7,0.2,3.8,0.5c0.4,0.1,0.5,0.2,0.5,0.5v9.4h8.6c2.7,0,5.5-0.3,5.9-0.3
		c0.5,0,0.7,0.1,0.7,0.5c0,0.4-0.2,1.7-0.4,2.3c-1.6-0.1-3.6-0.2-5.4-0.2h-18.2c-1.2,0-2.5,0.3-3.9,0.7
		C681.5,188.7,680.4,188.1,679.5,187.2z M701.1,183.5c1-5.2,1.4-9.2,1.7-14.1h-13.2c-0.8,0-1.5,0.1-2.8,0.5c-1-0.5-2-1.1-2.6-1.7
		c-0.1-0.1-0.2-0.2-0.2-0.4c0-0.2,0.3-0.8,0.6-1.1c1.4,0.3,2.9,0.4,4.8,0.4h12.3c0.9,0,2.5-0.2,3.4-0.2c0.6,0,0.9,0.3,0.9,1
		c0,3.7-0.8,9.8-2.2,15.5c-0.1,0.3-0.2,0.4-0.5,0.4C702.7,183.7,701.5,183.6,701.1,183.5z"/>
</g>
<g class="st1">
	<path d="M681.9,222c0-4.1,3.4-7.2,7.9-7.2c4.6,0,7.9,3,7.9,7.2c0,4.1-3.4,7.2-7.9,7.2C685.2,229.1,681.9,226.1,681.9,222z
		 M692.8,244c0.9-0.7,2-1.6,3-2.6l-3.7-3.6c-2.3,2.6-5.5,5.3-7.5,6.5c-0.2,0.1-0.4,0.1-0.6,0c-0.2-0.2-0.8-0.8-1-1.1
		c3.3-2.4,7.6-6.5,8.6-9.1c0.2-0.7-0.8-1.3-2.1-1.7c0.2-0.4,0.4-0.8,0.7-1.1c0.1-0.1,0.2-0.1,0.3-0.1c0.9,0,3.2,0.8,4,1.3
		c0.5,0.4,0.4,1,0.2,1.6c-0.2,0.7-0.7,1.4-1.3,2.2l4.3,3.1c1.7-1.9,3-3.9,3.2-5.2c0.1-0.7-0.7-1.3-1.9-1.7c0.2-0.4,0.4-0.8,0.7-1.1
		c0.1-0.1,0.2-0.1,0.3-0.1c0.7,0,3.1,0.8,3.8,1.4c0.5,0.4,0.4,1,0.3,1.6c-0.3,0.8-0.8,1.8-1.6,2.8c2.1,1.7,4.1,3.4,6.3,5
		c0.2,0.1,0.2,0.4,0.1,0.6c-0.3,0.4-1.1,1.2-1.8,1.6c-1.9-1.9-3.8-3.8-5.8-5.7c-2,2.6-4.8,5.2-6.8,6.4c-0.2,0.1-0.4,0.1-0.6,0
		C693.5,244.9,693,244.3,692.8,244z M694.9,222c0-2.7-2.2-4.9-5.1-4.9c-2.9,0-5.1,2.2-5.1,4.9s2.2,4.9,5.1,4.9
		C692.7,226.9,694.9,224.7,694.9,222z M703.2,214.9c0-0.5-0.2-0.7-0.6-1c-0.4-0.3-1.4-0.7-2.4-0.9c0.1-0.4,0.3-1,0.4-1.2
		c0.1-0.2,0.2-0.2,0.4-0.2c1.1,0,3.4,0.4,4.4,0.8c0.4,0.1,0.5,0.3,0.5,0.6v12.2c0,1.5-0.2,3.9-0.4,5.1c0,0.3-0.1,0.5-0.4,0.6
		c-0.4,0.1-1.4,0.1-2,0V214.9z"/>
	<path d="M679.5,264.7c-0.1-0.1-0.2-0.2-0.2-0.4c0-0.2,0.4-0.8,0.6-1.1c2.1,0.3,3.4,0.4,6.1,0.4h17.8c2.7,0,5.5-0.3,5.9-0.3
		c0.5,0,0.7,0.1,0.7,0.5c0,0.4-0.2,1.6-0.4,2.2c-1.6-0.1-3.6-0.2-5.4-0.2h-18.2c-1.2,0-2.5,0.3-3.9,0.7
		C681.5,266.1,680.4,265.6,679.5,264.7z M686.9,279v-2.8c0-1-0.8-1.3-1.7-1.5c0-0.3,0.3-1.3,0.7-1.3c0.6,0,1.9,0.1,2.7,0.1h13.6
		v-2.9h-11.6c-0.6,0-1.6,0-2.8,0.4c-1-0.4-1.9-1-2.5-1.6c-0.1-0.1-0.2-0.2-0.2-0.3c0-0.2,0.4-0.7,0.6-1c1.2,0.4,3.2,0.3,4.4,0.3h10
		c0.9,0,3.1-0.1,4-0.1c0.6,0,0.9,0.2,0.9,0.9v5.8c0,0.4-0.2,0.6-0.4,0.6h-14.9v3.1h11.6c1.3,0,3.9-0.3,4.3-0.3
		c0.5,0,0.7,0.1,0.7,0.5c0,0.4-0.2,1.4-0.4,2h-17.4C687.5,280.9,686.9,280.3,686.9,279z M687.2,255.3c0-3.1,2.9-6.2,8.1-6.2
		c5.2,0,8.1,3.1,8.1,6.2c0,3.1-2.9,6.2-8.1,6.2C690,261.5,687.2,258.3,687.2,255.3z M700.5,255.3c0-2-1.8-3.9-5.3-3.9
		c-3.5,0-5.3,1.9-5.3,3.9c0,2,1.8,3.9,5.3,3.9C698.8,259.2,700.5,257.3,700.5,255.3z"/>
</g>
<g class="st1">
	<path d="M683,316.9v-11.6c0-0.5-0.1-0.8-0.4-1c-0.4-0.3-1.1-0.6-1.9-0.7c0.1-0.4,0.3-0.9,0.4-1.1c0.1-0.2,0.2-0.2,0.4-0.2
		c1.1,0,2.9,0.3,3.9,0.7c0.4,0.1,0.5,0.3,0.5,0.6v13.1c3.5,0,9.4-0.6,14.1-1.6c0.1,0.3,0.4,1.2,0.4,1.6c0,0.2-0.1,0.4-0.3,0.5
		c-4.7,1.1-11.4,1.9-15,1.9C683.5,319,683,318.3,683,316.9z M703.4,310.4h-9.5c-0.2-0.7-0.4-1.6-0.4-2c0-0.4,0.2-0.5,0.7-0.5
		c0.3,0,2.6,0.2,3.9,0.2h5.4v-7.7c0-0.5-0.2-0.7-0.6-1c-0.4-0.3-1.4-0.7-2.4-0.9c0.1-0.4,0.3-1,0.4-1.2c0.1-0.2,0.2-0.2,0.4-0.2
		c1.1,0,3.4,0.4,4.4,0.8c0.4,0.1,0.5,0.3,0.5,0.6v26c0,1.5-0.2,3.9-0.4,5.1c0,0.3-0.1,0.5-0.4,0.6c-0.4,0.1-1.4,0.1-2,0V310.4z"/>
	<path d="M698.3,347.9H695c-0.4,4.5-3.3,7.1-7.2,7.1c-4.2,0-7.3-3.1-7.3-8.3c0-5.1,3.1-8.3,7.3-8.3c3.9,0,6.8,2.7,7.2,7.1h3.2v-6.8
		c0-0.6-0.1-0.8-0.4-1c-0.4-0.2-1.2-0.5-2-0.7c0.1-0.4,0.3-0.9,0.4-1.1c0.1-0.2,0.3-0.2,0.4-0.2c1,0,2.7,0.3,3.7,0.6
		c0.4,0.1,0.5,0.3,0.5,0.6V360c0,1.5-0.2,3.9-0.3,5.1c0,0.3-0.1,0.5-0.4,0.6c-0.4,0.1-1.3,0.1-2,0V347.9z M692.4,346.8
		c0-3.7-2-5.9-4.6-5.9c-2.6,0-4.6,2.2-4.6,5.9c0,3.7,2,5.9,4.6,5.9C690.4,352.7,692.4,350.5,692.4,346.8z M704.1,337
		c0-0.5-0.2-0.7-0.6-1c-0.4-0.3-1.3-0.7-2.3-0.9c0.1-0.4,0.3-1,0.4-1.2c0.1-0.2,0.2-0.2,0.4-0.2c1.1,0,3.2,0.4,4.2,0.8
		c0.4,0.1,0.5,0.3,0.5,0.6v26c0,1.5-0.2,3.9-0.3,5.1c0,0.3-0.1,0.5-0.4,0.6c-0.4,0.1-1.4,0.1-2,0V337z"/>
	<path d="M697.9,385.8h-8.1c-2.5,3.3-5.5,6.3-7.9,7.8c-0.2,0.2-0.6,0.1-0.8,0c-0.2-0.2-0.8-1-1.1-1.4c4.1-3.1,9.4-9,11.1-14.1H686
		c-0.9,0-1.8,0.1-2.7,0.4c-0.7-0.3-2-1.1-2.4-1.5c-0.1-0.1-0.2-0.2-0.2-0.3c0-0.2,0.3-0.9,0.5-1.1c1.3,0.2,2.8,0.2,4.2,0.2h5.1
		c0.9,0,2.3-0.1,3-0.1c0.7,0,0.9,0.6,0.7,1.3c-0.4,2.1-1.5,4.4-2.9,6.6h6.5v-8.1c0-0.6-0.1-0.8-0.4-1c-0.4-0.2-1.2-0.5-2-0.7
		c0.1-0.4,0.3-0.9,0.4-1.1c0.1-0.2,0.3-0.2,0.4-0.2c1,0,2.7,0.3,3.7,0.6c0.4,0.1,0.5,0.3,0.5,0.6v23.1c0,1.5-0.2,3.9-0.3,5.1
		c0,0.3-0.1,0.5-0.4,0.6c-0.4,0.1-1.3,0.1-2,0V385.8z M704.1,373.6c0-0.5-0.2-0.7-0.6-1c-0.4-0.3-1.3-0.7-2.3-0.9
		c0.1-0.4,0.3-1,0.4-1.2c0.1-0.2,0.2-0.2,0.4-0.2c1.1,0,3.2,0.4,4.2,0.8c0.4,0.1,0.5,0.3,0.5,0.6v26c0,1.5-0.2,3.9-0.3,5.1
		c0,0.3-0.1,0.5-0.4,0.6c-0.4,0.1-1.4,0.1-2,0V373.6z"/>
</g>
<g>
	<defs>
		<rect id="SVGID_1_" x="-78" y="-7" width="817" height="945"/>
	</defs>
	<clipPath id="SVGID_00000070839069343403903900000010576241118588040887_">
		<use xlink:href="#SVGID_1_"  style="overflow:visible;"/>
	</clipPath>
	<g style="clip-path:url(#SVGID_00000070839069343403903900000010576241118588040887_);">
		<line class="st3" x1="589.9" y1="8.6" x2="506.9" y2="8.6"/>
		<line class="st3" x1="589.9" y1="101.5" x2="506.9" y2="101.5"/>
		<line class="st3" x1="589.9" y1="194.4" x2="506.9" y2="194.4"/>
		<line class="st3" x1="589.9" y1="287.3" x2="506.9" y2="287.3"/>
		<line class="st3" x1="589.9" y1="844.5" x2="506.9" y2="844.5"/>
		<line class="st3" x1="589.9" y1="380.1" x2="506.9" y2="380.1"/>
		<line class="st3" x1="589.9" y1="473" x2="506.9" y2="473"/>
		<line class="st3" x1="589.9" y1="565.9" x2="506.9" y2="565.9"/>
		<line class="st3" x1="589.9" y1="658.8" x2="506.9" y2="658.8"/>
		<line class="st3" x1="589.9" y1="751.6" x2="506.9" y2="751.6"/>
		<line class="st3" x1="589.9" y1="937.4" x2="506.9" y2="937.4"/>
		<line class="st3" x1="590.2" y1="7.9" x2="590.2" y2="1308.6"/>
		<line class="st3" x1="507.1" y1="7.9" x2="507.1" y2="1308.6"/>
		<line class="st3" x1="492.6" y1="8.6" x2="409.6" y2="8.6"/>
		<line class="st3" x1="492.6" y1="101.5" x2="409.6" y2="101.5"/>
		<line class="st3" x1="492.6" y1="194.4" x2="409.6" y2="194.4"/>
		<line class="st3" x1="492.6" y1="287.3" x2="409.6" y2="287.3"/>
		<line class="st3" x1="492.6" y1="844.5" x2="409.6" y2="844.5"/>
		<line class="st3" x1="492.6" y1="380.1" x2="409.6" y2="380.1"/>
		<line class="st3" x1="492.6" y1="473" x2="409.6" y2="473"/>
		<line class="st3" x1="492.6" y1="565.9" x2="409.6" y2="565.9"/>
		<line class="st3" x1="492.6" y1="658.8" x2="409.6" y2="658.8"/>
		<line class="st3" x1="492.6" y1="751.6" x2="409.6" y2="751.6"/>
		<line class="st3" x1="492.6" y1="937.4" x2="409.6" y2="937.4"/>
		<line class="st3" x1="492.9" y1="7.9" x2="492.9" y2="1308.6"/>
		<line class="st3" x1="409.8" y1="7.9" x2="409.8" y2="1308.6"/>
		<line class="st3" x1="395.2" y1="8.6" x2="312.2" y2="8.6"/>
		<line class="st3" x1="395.2" y1="101.5" x2="312.2" y2="101.5"/>
		<line class="st3" x1="395.2" y1="194.4" x2="312.2" y2="194.4"/>
		<line class="st3" x1="395.2" y1="287.3" x2="312.2" y2="287.3"/>
		<line class="st3" x1="395.2" y1="844.5" x2="312.2" y2="844.5"/>
		<line class="st3" x1="395.2" y1="380.1" x2="312.2" y2="380.1"/>
		<line class="st3" x1="395.2" y1="473" x2="312.2" y2="473"/>
		<line class="st3" x1="395.2" y1="565.9" x2="312.2" y2="565.9"/>
		<line class="st3" x1="395.2" y1="658.8" x2="312.2" y2="658.8"/>
		<line class="st3" x1="395.2" y1="751.6" x2="312.2" y2="751.6"/>
		<line class="st3" x1="395.2" y1="937.4" x2="312.2" y2="937.4"/>
		<line class="st3" x1="395.6" y1="7.9" x2="395.6" y2="1308.6"/>
		<line class="st3" x1="312.5" y1="7.9" x2="312.5" y2="1308.6"/>
		<line class="st3" x1="297.9" y1="8.6" x2="214.9" y2="8.6"/>
		<line class="st3" x1="297.9" y1="101.5" x2="214.9" y2="101.5"/>
		<line class="st3" x1="297.9" y1="194.4" x2="214.9" y2="194.4"/>
		<line class="st3" x1="297.9" y1="287.3" x2="214.9" y2="287.3"/>
		<line class="st3" x1="297.9" y1="844.5" x2="214.9" y2="844.5"/>
		<line class="st3" x1="297.9" y1="380.1" x2="214.9" y2="380.1"/>
		<line class="st3" x1="297.9" y1="473" x2="214.9" y2="473"/>
		<line class="st3" x1="297.9" y1="565.9" x2="214.9" y2="565.9"/>
		<line class="st3" x1="297.9" y1="658.8" x2="214.9" y2="658.8"/>
		<line class="st3" x1="297.9" y1="751.6" x2="214.9" y2="751.6"/>
		<line class="st3" x1="297.9" y1="937.4" x2="214.9" y2="937.4"/>
		<line class="st3" x1="298.2" y1="7.9" x2="298.2" y2="1308.6"/>
		<line class="st3" x1="215.1" y1="7.9" x2="215.1" y2="1308.6"/>
		<line class="st3" x1="200.5" y1="8.6" x2="117.5" y2="8.6"/>
		<line class="st3" x1="200.5" y1="101.5" x2="117.5" y2="101.5"/>
		<line class="st3" x1="200.5" y1="194.4" x2="117.5" y2="194.4"/>
		<line class="st3" x1="200.5" y1="287.3" x2="117.5" y2="287.3"/>
		<line class="st3" x1="200.5" y1="844.5" x2="117.5" y2="844.5"/>
		<line class="st3" x1="200.5" y1="380.1" x2="117.5" y2="380.1"/>
		<line class="st3" x1="200.5" y1="473" x2="117.5" y2="473"/>
		<line class="st3" x1="200.5" y1="565.9" x2="117.5" y2="565.9"/>
		<line class="st3" x1="200.5" y1="658.8" x2="117.5" y2="658.8"/>
		<line class="st3" x1="200.5" y1="751.6" x2="117.5" y2="751.6"/>
		<line class="st3" x1="200.5" y1="937.4" x2="117.5" y2="937.4"/>
		<line class="st3" x1="200.9" y1="7.9" x2="200.9" y2="1308.6"/>
		<line class="st3" x1="117.8" y1="7.9" x2="117.8" y2="1308.6"/>
		<line class="st3" x1="103.2" y1="8.6" x2="20.2" y2="8.6"/>
		<line class="st3" x1="103.2" y1="101.5" x2="20.2" y2="101.5"/>
		<line class="st3" x1="103.2" y1="194.4" x2="20.2" y2="194.4"/>
		<line class="st3" x1="103.2" y1="287.3" x2="20.2" y2="287.3"/>
		<line class="st3" x1="103.2" y1="844.5" x2="20.2" y2="844.5"/>
		<line class="st3" x1="103.2" y1="380.1" x2="20.2" y2="380.1"/>
		<line class="st3" x1="103.2" y1="473" x2="20.2" y2="473"/>
		<line class="st3" x1="103.2" y1="565.9" x2="20.2" y2="565.9"/>
		<line class="st3" x1="103.2" y1="658.8" x2="20.2" y2="658.8"/>
		<line class="st3" x1="103.2" y1="751.6" x2="20.2" y2="751.6"/>
		<line class="st3" x1="103.2" y1="937.4" x2="20.2" y2="937.4"/>
		<line class="st3" x1="103.5" y1="7.9" x2="103.5" y2="1308.6"/>
		<line class="st3" x1="20.4" y1="7.9" x2="20.4" y2="1308.6"/>
		<rect x="4.1" y="8.3" class="st0" width="600.8" height="1300.1"/>
	</g>
</g>
<line class="st3" x1="4.1" y1="937" x2="605" y2="937"/>
<g class="st1">
	<path d="M534.3,149.8v-11.3c0-0.6-0.1-1-0.5-1.2c-0.5-0.3-1.3-0.7-2.3-0.8c0.1-0.5,0.3-1.1,0.5-1.4c0.1-0.2,0.3-0.2,0.5-0.2
		c1.3,0,3.5,0.4,4.6,0.8c0.5,0.2,0.6,0.4,0.6,0.7v13.1c4.2,0,11.2-0.7,16.7-1.9c0.2,0.4,0.5,1.5,0.5,1.9c0,0.3-0.1,0.5-0.4,0.6
		c-5.6,1.3-13.6,2.3-17.8,2.3C534.9,152.3,534.3,151.4,534.3,149.8z M541.7,165.3v-6.9c0-0.6-0.1-0.9-0.5-1.2
		c-0.5-0.3-1.3-0.7-2.3-0.7c0-0.5,0.2-1.1,0.3-1.4c0.1-0.2,0.3-0.2,0.5-0.2c1.3,0,3.6,0.2,4.7,0.6c0.5,0.2,0.6,0.4,0.6,0.7v8.9h12.6
		c1.6,0,4.7-0.5,5.1-0.5c0.6,0,0.8,0.1,0.8,0.6c0,0.5-0.2,1.8-0.5,2.6H544C542.2,167.8,541.7,167,541.7,165.3z M558.6,143.1h-11.8
		c-0.2-0.8-0.5-1.9-0.5-2.4s0.2-0.6,0.8-0.6c0.4,0,3,0.3,4.6,0.3h6.8v-6.6c0-0.6-0.2-0.8-0.7-1.2c-0.5-0.4-1.7-0.9-2.8-1.1
		c0.1-0.5,0.4-1.2,0.5-1.4c0.1-0.2,0.3-0.2,0.5-0.2c1.3,0,4.1,0.5,5.3,1c0.5,0.2,0.6,0.3,0.6,0.7v20.7c0,1.7-0.3,4.6-0.5,6
		c0,0.4-0.1,0.6-0.5,0.7c-0.5,0.1-1.7,0.2-2.4,0V143.1z"/>
</g>
<g class="st1">
	<path d="M539.5,344.4c0-3.3,2.7-6.6,7.8-7.2v-2.9h-8.7c-1.5,0-2.9,0.8-4.6,1.3c-1.4-0.5-2.7-1.6-3.7-2.6c-0.1-0.1-0.2-0.3-0.2-0.5
		c0-0.2,0.5-0.9,0.7-1.3c2.5,0.4,4.1,0.5,7.3,0.5h21.2c3.2,0,6.5-0.4,7.1-0.4c0.6,0,0.8,0.1,0.8,0.6s-0.2,1.9-0.5,2.7
		c-1.9-0.1-4.3-0.2-6.4-0.2h-9.6v2.9c5,0.6,7.7,3.9,7.7,7.2c0,3.7-3.3,7.3-9.4,7.3S539.5,348,539.5,344.4z M535.7,329.8
		c-0.2-0.3-0.7-1.2-1-1.7c6.9-2.5,13.4-5.5,19.4-8.9h-10.7c-1.1,0-2.1,0.2-3.2,0.5c-0.8-0.4-2.1-1.1-2.7-1.6
		c-0.1-0.1-0.2-0.2-0.2-0.4c0-0.2,0.4-1.1,0.6-1.4c1.6,0.3,3.4,0.2,5,0.2h4.4v-1.4c0-0.9-0.7-1.4-2.1-1.8c0.1-0.5,0.2-1,0.4-1.3
		c0.1-0.2,0.3-0.2,0.5-0.2c0.6,0,2.8,0.4,3.8,0.7c0.5,0.2,0.6,0.2,0.6,0.6v3.5h4.6c1,0,2.8-0.1,3.6-0.1c0.9,0,1.2,1.5,0.7,2
		c-1.6,1.6-4.5,3.5-7.9,5.2c3.5,1.2,6.9,2.4,10.6,3.5c0.3,0.1,0.4,0.4,0.2,0.7c-0.4,0.6-1.2,1.5-1.8,2.1c-3.9-1.7-7.7-3.3-11.7-4.9
		c-4.8,2.3-9.8,4.3-12.2,5.1C536.2,330.2,535.9,330.1,535.7,329.8z M555,344.4c0-2.3-2-4.6-6.1-4.6s-6.1,2.3-6.1,4.6s2,4.6,6.1,4.6
		S555,346.7,555,344.4z"/>
</g>
<g class="st1">
	<path d="M547.4,427.9h-8.9c-1.5,0-2.9,0.4-4.6,0.9c-1.4-0.5-2.8-1.2-3.7-2.2c-0.1-0.1-0.2-0.3-0.2-0.5c0-0.2,0.5-0.9,0.7-1.3
		c2.5,0.4,4.1,0.5,7.3,0.5h21.2c3.2,0,6.5-0.4,7.1-0.4c0.6,0,0.8,0.1,0.8,0.6c0,0.5-0.2,1.9-0.5,2.7c-1.9-0.1-4.3-0.2-6.4-0.2h-9.5
		v2c0,1.3-0.2,4-0.5,5.4c0,0.4-0.1,0.6-0.5,0.7c-0.5,0.1-1.7,0.2-2.4,0V427.9z M538.8,439.2v-4.4c0-0.6-0.1-0.9-0.5-1.2
		c-0.5-0.3-1.3-0.7-2.3-0.7c0-0.5,0.2-1.1,0.3-1.4c0.1-0.2,0.3-0.2,0.5-0.2c1.3,0,3.6,0.2,4.8,0.6c0.5,0.2,0.6,0.4,0.6,0.7v6.6h14.4
		c1.2,0,4.1-0.3,4.6-0.3c0.5,0,0.7,0.1,0.7,0.5c0,0.5-0.2,1.9-0.5,2.6h-19.8C539.6,442,538.8,441.1,538.8,439.2z M538.6,419.5v-9.9
		c0-1.1-0.9-1.5-2.3-1.7c0-0.4,0.3-1.2,0.4-1.4c0.1-0.2,0.2-0.3,0.5-0.3c1.3,0,2.9,0.3,4.2,0.8c0.3,0.1,0.5,0.3,0.5,0.7v3.6h14.2
		v-2.6c0-1.1-0.9-1.5-2.3-1.7c0-0.4,0.3-1.2,0.4-1.4c0.1-0.2,0.2-0.3,0.5-0.3c1.3,0,2.9,0.3,4.2,0.8c0.3,0.1,0.5,0.3,0.5,0.7v13.5
		c0,1-0.6,1.3-1.2,1.3h-17.8C539.3,421.8,538.6,421.1,538.6,419.5z M556.1,419v-4.9h-14.2v4.9H556.1z"/>
</g>
<g class="st1">
	<path d="M531,509.6c-0.2-0.2-0.3-0.3-0.3-0.5c0-0.2,0.4-1,0.7-1.4c1.5,0.5,3.8,0.5,5.3,0.5h5.2v-3.4c0-0.9-0.7-1.4-2.1-1.8
		c0.1-0.5,0.2-1,0.4-1.3c0.1-0.2,0.3-0.2,0.5-0.2c0.6,0,2.8,0.4,3.8,0.7c0.5,0.2,0.6,0.2,0.6,0.6v5.5h4.3c1.2,0,4.1-0.3,4.6-0.3
		c0.5,0,0.7,0.1,0.7,0.5c0,0.5-0.2,1.9-0.5,2.6c-1.6-0.1-3-0.1-4.5-0.1h-12.5c-0.7,0-2.3,0.2-3.4,0.7
		C532.8,511,531.7,510.2,531,509.6z M534.7,521.2c0-4.4,3.5-7.8,8.7-7.8s8.7,3.4,8.7,7.8s-3.5,7.8-8.7,7.8S534.7,525.5,534.7,521.2z
		 M548.8,521.2c0-2.9-2.1-5-5.4-5c-3.3,0-5.4,2.1-5.4,5c0,2.9,2.1,5,5.4,5C546.6,526.2,548.8,524.1,548.8,521.2z M558.3,503.6
		c0-0.6-0.2-0.8-0.7-1.2s-1.7-0.9-2.8-1.1c0.1-0.5,0.4-1.2,0.5-1.5c0.1-0.2,0.3-0.2,0.5-0.2c1.3,0,4.1,0.5,5.3,1
		c0.5,0.2,0.6,0.3,0.6,0.7v31c0,1.7-0.3,4.6-0.5,6c0,0.4-0.1,0.6-0.5,0.7c-0.5,0.1-1.7,0.2-2.4,0V503.6z"/>
</g>
<g class="st1">
	<path d="M435.4,152.2c-0.2-0.2-0.9-1.1-1.2-1.6c6.2-3.7,12.2-8.7,15.5-13.9h-7.6c-1.1,0-1.9,0.2-3,0.6c-1-0.5-2.3-1.2-2.9-1.8
		c-0.1-0.1-0.2-0.2-0.2-0.4c0-0.2,0.4-1,0.6-1.3c1.6,0.3,3.4,0.3,5,0.3h7.7c0.8,0,3.3-0.2,3.9-0.2c1,0,1.4,0.9,0.9,1.9
		c-1.1,2.1-2.6,4.2-4.5,6.3c2.5,2.2,5.1,4.3,7.9,6.5c0.2,0.2,0.2,0.5,0,0.7c-0.5,0.5-1.5,1.2-2.3,1.6c-2.4-2.3-4.9-4.6-7.3-6.9
		c-3.3,3.2-7.4,6.2-11.5,8.3C435.9,152.5,435.7,152.4,435.4,152.2z M443.6,166.2v-3.5c0-1.2-1-1.6-2-1.8c0-0.4,0.3-1.6,0.9-1.6
		c0.7,0,2.2,0.1,3.2,0.1H460v-3.7h-12.1c-0.7,0-1.9,0-3.4,0.5c-1.2-0.5-2.3-1.2-3-1.9c-0.1-0.1-0.2-0.2-0.2-0.4
		c0-0.2,0.5-0.9,0.7-1.2c1.5,0.5,3.8,0.4,5.3,0.4h10.2c1,0,3.7-0.2,4.7-0.2c0.7,0,1,0.3,1,1.1v7.2c0,0.5-0.2,0.7-0.5,0.7h-15.9v3.8
		h12.4c1.6,0,4.7-0.3,5.1-0.3c0.6,0,0.8,0.1,0.8,0.6c0,0.5-0.2,1.6-0.5,2.4h-19.4C444.3,168.4,443.6,167.7,443.6,166.2z
		 M460.4,133.7c0-0.6-0.2-0.8-0.7-1.2s-1.7-0.9-2.8-1.1c0.1-0.5,0.4-1.2,0.5-1.4c0.1-0.2,0.3-0.2,0.5-0.2c1.3,0,4.1,0.5,5.3,1
		c0.5,0.2,0.6,0.3,0.6,0.7v8.3h1.9c1.6,0,4.2-0.4,4.6-0.4c0.6,0,0.8,0.1,0.8,0.6s-0.2,1.6-0.5,2.4h-6.8v2.2c0,1.7-0.3,4.6-0.5,6
		c0,0.4-0.1,0.6-0.5,0.7c-0.5,0.1-1.7,0.2-2.4,0V133.7z"/>
</g>
<g class="st1">
	<path d="M433.6,233.3c-0.2-0.2-0.3-0.3-0.3-0.5c0-0.2,0.4-1,0.7-1.4c1.5,0.5,3.8,0.5,5.3,0.5h5.2v-3.4c0-0.9-0.7-1.4-2.1-1.8
		c0.1-0.5,0.2-1,0.4-1.3c0.1-0.2,0.3-0.2,0.5-0.2c0.6,0,2.8,0.4,3.8,0.7c0.5,0.2,0.6,0.2,0.6,0.6v5.5h4.3c1.2,0,4.1-0.3,4.6-0.3
		c0.5,0,0.7,0.1,0.7,0.5c0,0.5-0.2,1.9-0.5,2.6c-1.6-0.1-3-0.1-4.5-0.1h-12.5c-0.7,0-2.3,0.2-3.4,0.7
		C435.3,234.7,434.2,233.9,433.6,233.3z M437.2,244.9c0-4.4,3.5-7.8,8.7-7.8s8.7,3.4,8.7,7.8s-3.5,7.8-8.7,7.8
		S437.2,249.2,437.2,244.9z M451.3,244.9c0-2.9-2.1-5-5.4-5c-3.3,0-5.4,2.1-5.4,5c0,2.9,2.1,5,5.4,5
		C449.1,249.9,451.3,247.8,451.3,244.9z M460.6,227.3c0-0.6-0.2-0.8-0.7-1.2s-1.7-0.9-2.8-1.1c0.1-0.5,0.4-1.2,0.5-1.5
		c0.1-0.2,0.3-0.2,0.5-0.2c1.3,0,4.1,0.5,5.3,1c0.5,0.2,0.6,0.3,0.6,0.7v14.6h1.7c1.6,0,4.2-0.4,4.6-0.4c0.6,0,0.8,0.1,0.8,0.6
		s-0.2,1.6-0.5,2.4h-6.6v13.8c0,1.7-0.3,4.6-0.5,6c0,0.4-0.1,0.6-0.5,0.7c-0.5,0.1-1.7,0.2-2.4,0V227.3z"/>
</g>
<g class="st1">
	<path d="M433.5,341.6c-0.1-0.1-0.2-0.3-0.2-0.5c0-0.2,0.5-0.9,0.7-1.3c2.5,0.4,4.1,0.5,7.3,0.5h7.6v-8.7c0-1.1-1-1.6-2.7-2
		c0.1-0.5,0.3-1.2,0.5-1.4c0.1-0.2,0.3-0.2,0.5-0.2c1,0,3.2,0.2,4.5,0.6c0.5,0.1,0.6,0.2,0.6,0.6v11.2h10.2c3.2,0,6.5-0.4,7.1-0.4
		c0.6,0,0.8,0.1,0.8,0.6s-0.2,2-0.5,2.8c-1.9-0.1-4.3-0.2-6.4-0.2h-21.7c-1.5,0-2.9,0.4-4.6,0.9
		C435.9,343.4,434.5,342.6,433.5,341.6z M459.2,337.1c1.2-6.2,1.7-10.9,2-16.8h-15.7c-0.9,0-1.8,0.1-3.3,0.6c-1.2-0.6-2.3-1.3-3.1-2
		c-0.1-0.1-0.2-0.2-0.2-0.5c0-0.2,0.4-0.9,0.7-1.3c1.6,0.4,3.5,0.5,5.7,0.5h14.7c1,0,3-0.2,4-0.2c0.7,0,1,0.3,1,1.2
		c0,4.4-1,11.6-2.7,18.4c-0.1,0.4-0.3,0.5-0.6,0.5C461.1,337.4,459.7,337.2,459.2,337.1z"/>
</g>
<g class="st1">
	<path d="M436.3,417.6c0-4.9,4-8.5,9.4-8.5c5.4,0,9.4,3.6,9.4,8.5s-4,8.5-9.4,8.5C440.3,426.1,436.3,422.5,436.3,417.6z
		 M449.3,443.8c1.1-0.8,2.3-1.9,3.6-3.1l-4.4-4.3c-2.7,3-6.5,6.3-8.9,7.7c-0.3,0.2-0.5,0.2-0.7,0c-0.3-0.2-0.9-0.9-1.2-1.3
		c3.9-2.9,9.1-7.7,10.2-10.9c0.3-0.8-0.9-1.6-2.5-2c0.2-0.5,0.5-1,0.8-1.3c0.1-0.1,0.2-0.2,0.3-0.2c1.1,0,3.9,0.9,4.8,1.6
		c0.6,0.5,0.5,1.2,0.3,1.8c-0.3,0.8-0.9,1.7-1.6,2.7l5.1,3.7c2-2.3,3.5-4.7,3.8-6.2c0.1-0.9-0.8-1.6-2.3-2c0.2-0.5,0.5-1,0.8-1.3
		c0.1-0.1,0.2-0.2,0.3-0.2c0.8,0,3.7,1,4.6,1.6c0.6,0.5,0.5,1.2,0.3,1.8c-0.3,0.9-1,2.1-1.9,3.4c2.5,2.1,4.9,4,7.4,6
		c0.2,0.2,0.2,0.5,0.1,0.7c-0.3,0.5-1.3,1.4-2.1,1.9c-2.3-2.3-4.6-4.5-6.9-6.7c-2.4,3-5.7,6.2-8.1,7.6c-0.3,0.2-0.5,0.2-0.7,0
		C450.2,444.8,449.6,444.2,449.3,443.8z M451.8,417.6c0-3.2-2.6-5.8-6-5.8c-3.4,0-6,2.6-6,5.8c0,3.2,2.6,5.8,6,5.8
		C449.1,423.4,451.8,420.8,451.8,417.6z M461.7,409.2c0-0.6-0.2-0.8-0.7-1.2c-0.5-0.4-1.7-0.9-2.8-1.1c0.1-0.5,0.4-1.2,0.5-1.4
		c0.1-0.2,0.3-0.2,0.5-0.2c1.3,0,4.1,0.5,5.3,1c0.5,0.2,0.6,0.3,0.6,0.7v14.5c0,1.7-0.3,4.6-0.5,6c0,0.4-0.1,0.6-0.5,0.7
		c-0.5,0.1-1.7,0.2-2.4,0V409.2z"/>
</g>
<g class="st1">
	<path d="M461.9,514.9h-6.5c-0.6,5.2-4.4,8.6-9.8,8.6c-5.8,0-9.9-4-9.9-9.9c0-5.9,4.1-9.9,9.9-9.9c5.3,0,9.2,3.4,9.8,8.5h6.5V502
		c0-0.6-0.2-0.8-0.7-1.2c-0.5-0.4-1.7-0.9-2.8-1.1c0.1-0.5,0.4-1.2,0.5-1.5c0.1-0.2,0.3-0.2,0.5-0.2c1.3,0,4.1,0.5,5.3,1
		c0.5,0.2,0.6,0.3,0.6,0.7v31c0,1.7-0.3,4.6-0.5,6c0,0.4-0.1,0.6-0.5,0.7c-0.5,0.1-1.7,0.2-2.4,0V514.9z M452.1,513.6
		c0-4.4-2.8-7.1-6.5-7.1c-3.7,0-6.5,2.8-6.5,7.1c0,4.4,2.8,7.1,6.5,7.1C449.3,520.7,452.1,518,452.1,513.6z"/>
</g>
<g class="st1">
	<path d="M338.6,152.2c-0.2-0.2-0.9-1.1-1.2-1.6c6.2-3.7,12.2-8.7,15.5-13.9h-7.6c-1.1,0-1.9,0.2-3,0.6c-1-0.5-2.3-1.2-2.9-1.8
		c-0.1-0.1-0.2-0.2-0.2-0.4c0-0.2,0.4-1,0.6-1.3c1.6,0.3,3.4,0.3,5,0.3h7.7c0.8,0,3.3-0.2,3.9-0.2c1,0,1.4,0.9,0.9,1.9
		c-1.1,2.1-2.6,4.2-4.5,6.3c2.5,2.2,5.1,4.3,7.9,6.5c0.2,0.2,0.2,0.5,0,0.7c-0.5,0.5-1.5,1.2-2.3,1.6c-2.4-2.3-4.9-4.6-7.3-6.9
		c-3.3,3.2-7.4,6.2-11.5,8.3C339.1,152.5,338.9,152.4,338.6,152.2z M346.7,166.2v-3.5c0-1.2-1-1.6-2-1.8c0-0.4,0.3-1.6,0.9-1.6
		c0.7,0,2.2,0.1,3.2,0.1h14.3v-3.7H351c-0.7,0-1.9,0-3.4,0.5c-1.2-0.5-2.3-1.2-3-1.9c-0.1-0.1-0.2-0.2-0.2-0.4
		c0-0.2,0.5-0.9,0.7-1.2c1.5,0.5,3.8,0.4,5.3,0.4h10.2c1,0,3.7-0.2,4.7-0.2c0.7,0,1,0.3,1,1.1v7.2c0,0.5-0.2,0.7-0.5,0.7H350v3.8
		h12.4c1.6,0,4.7-0.3,5.1-0.3c0.6,0,0.8,0.1,0.8,0.6c0,0.5-0.2,1.6-0.5,2.4h-19.4C347.4,168.4,346.7,167.7,346.7,166.2z
		 M363.5,133.7c0-0.6-0.2-0.8-0.7-1.2s-1.7-0.9-2.8-1.1c0.1-0.5,0.4-1.2,0.5-1.4c0.1-0.2,0.3-0.2,0.5-0.2c1.3,0,4.1,0.5,5.3,1
		c0.5,0.2,0.6,0.3,0.6,0.7v8.3h1.9c1.6,0,4.2-0.4,4.6-0.4c0.6,0,0.8,0.1,0.8,0.6s-0.2,1.6-0.5,2.4h-6.8v2.2c0,1.7-0.3,4.6-0.5,6
		c0,0.4-0.1,0.6-0.5,0.7c-0.5,0.1-1.7,0.2-2.4,0V133.7z"/>
</g>
<g class="st1">
	<path d="M339.1,331.9c0-5.9,4.1-9.9,9.9-9.9s9.9,4,9.9,9.9c0,5.9-4.1,9.9-9.9,9.9S339.1,337.8,339.1,331.9z M355.4,331.9
		c0-4.4-2.8-7.1-6.5-7.1s-6.5,2.8-6.5,7.1c0,4.4,2.8,7.1,6.5,7.1S355.4,336.3,355.4,331.9z M364.8,320.3c0-0.6-0.2-0.8-0.7-1.2
		s-1.7-0.9-2.8-1.1c0.1-0.5,0.4-1.2,0.5-1.5c0.1-0.2,0.3-0.2,0.5-0.2c1.3,0,4.1,0.5,5.3,1c0.5,0.2,0.6,0.3,0.6,0.7v31
		c0,1.7-0.3,4.6-0.5,6c0,0.4-0.1,0.6-0.5,0.7c-0.5,0.1-1.7,0.2-2.4,0V320.3z"/>
</g>
<g class="st1">
	<path d="M365.1,430.2h-11.3c-0.2-0.8-0.5-1.9-0.5-2.4s0.2-0.6,0.8-0.6c0.4,0,3,0.3,4.6,0.3h6.3v-4.9h-10.8
		c-3.8,5.5-9.4,10.8-13.4,13c-0.3,0.2-0.7,0.2-0.9,0c-0.2-0.2-1-1.4-1.2-1.8c5.5-3.5,12.7-10.9,15.3-17.3h-8.2c-1.1,0-1.9,0.2-3,0.6
		c-1-0.5-2-1.2-2.7-1.8c-0.1-0.1-0.2-0.2-0.2-0.4c0-0.2,0.4-1.2,0.6-1.4c1.6,0.3,3.4,0.2,5,0.2h8c1,0,2.8-0.2,3.6-0.2
		s1.1,0.7,0.9,1.6c-0.4,1.5-1.1,3.1-2,4.8h9.1v-8.1c0-0.6-0.2-0.8-0.7-1.2c-0.5-0.4-1.7-0.9-2.8-1.1c0.1-0.5,0.4-1.2,0.5-1.5
		c0.1-0.2,0.3-0.2,0.5-0.2c1.3,0,4.1,0.5,5.3,1c0.5,0.2,0.6,0.3,0.6,0.7v31c0,1.7-0.3,4.6-0.5,6c0,0.4-0.1,0.6-0.5,0.7
		c-0.5,0.1-1.7,0.2-2.4,0V430.2z"/>
</g>
<g class="st1">
	<path d="M357.3,520.3c-4.9,1.4-10.4,2.5-15.2,2.5c-1.7,0-2.3-0.9-2.3-2.5v-9.1c0-1.1-0.9-1.6-2.5-2c0.1-0.5,0.3-1.1,0.5-1.4
		c0.1-0.2,0.3-0.2,0.5-0.2c1.2,0,3.2,0.4,4.4,0.8c0.5,0.2,0.6,0.4,0.6,0.7v10.8c4.6,0,9.5-0.7,14.1-2.1v-9c0-0.7-0.1-1-0.5-1.2
		c-0.5-0.3-1.4-0.6-2.3-0.9c0.1-0.5,0.4-1.1,0.5-1.4c0.1-0.2,0.3-0.2,0.5-0.2c1.2,0,3.2,0.3,4.4,0.7c0.5,0.2,0.6,0.4,0.6,0.7v6.5
		h5.5v-6.4c0-0.6-0.2-0.9-0.7-1.2c-0.5-0.4-1.6-0.9-2.7-1.1c0.1-0.5,0.4-1.2,0.5-1.4c0.1-0.2,0.3-0.2,0.5-0.2c1.3,0,3.8,0.5,5,0.9
		c0.5,0.2,0.6,0.3,0.6,0.7v13c0,1.7-0.2,4.6-0.4,6c0,0.4-0.1,0.6-0.5,0.7c-0.5,0.1-1.7,0.2-2.4,0v-8.3h-5.5v1.4
		c0,1.7-0.2,4.8-0.4,6.2c0,0.4-0.1,0.6-0.5,0.7c-0.5,0.1-1.6,0.2-2.3,0V520.3z M348.2,539v-3.6c0-1.2-1-1.6-2-1.8
		c0-0.4,0.3-1.6,0.9-1.6c0.7,0,2.2,0.1,3.2,0.1h15.2v-3.8h-12.9c-0.7,0-1.9,0-3.4,0.5c-1.2-0.5-2.3-1.2-3-1.8
		c-0.1-0.1-0.2-0.2-0.2-0.4c0-0.2,0.5-0.9,0.7-1.2c1.5,0.5,3.8,0.4,5.3,0.4H363c1,0,3.7-0.2,4.7-0.2c0.7,0,1,0.3,1,1.1v7.3
		c0,0.5-0.2,0.7-0.5,0.7h-16.7v3.9h12.7c1.6,0,4.7-0.3,5.1-0.3c0.6,0,0.8,0.1,0.8,0.6c0,0.5-0.2,1.6-0.5,2.4H350
		C348.9,541.2,348.2,540.5,348.2,539z"/>
</g>
<g class="st1">
	<path d="M353.7,711.3H345c-1.5,0-2.9,0.4-4.6,0.9c-1.4-0.5-2.8-1.3-3.7-2.3c-0.1-0.1-0.2-0.3-0.2-0.5c0-0.2,0.5-0.9,0.7-1.3
		c2.5,0.4,4.1,0.5,7.3,0.5h21.2c3.2,0,6.5-0.4,7.1-0.4c0.6,0,0.8,0.1,0.8,0.6s-0.2,2-0.5,2.8c-1.9-0.1-4.3-0.2-6.4-0.2h-9.6v7.9
		c0,1.7-0.3,4.6-0.5,6c0,0.4-0.1,0.6-0.5,0.7c-0.5,0.1-1.7,0.2-2.4,0V711.3z M341.3,703.7c4.5-2.5,12.9-9.1,14.1-11.9
		c0.4-0.9-0.8-1.7-2.3-2.3c0.2-0.5,0.5-0.9,0.7-1.2c0.1-0.1,0.2-0.2,0.3-0.2c0.9,0,4,0.9,5.2,1.8c0.3,0.2,0.5,0.6,0.5,1
		c0,0.4-0.1,0.6-0.2,0.9c-0.6,1-1.4,2.1-2.3,3.1c3.8,2.6,7.6,5.1,11.6,7.6c0.2,0.2,0.2,0.5,0.1,0.7c-0.4,0.5-1.4,1.4-2.1,2.1
		c-3.8-3-7.6-5.8-11.3-8.5c-3.7,3.5-8.7,6.9-12,8.8c-0.3,0.2-0.5,0.2-0.7,0.1C342.3,705.4,341.5,704.1,341.3,703.7z"/>
</g>
<g class="st1">
	<path d="M242,142.1c0-4.9,4-8.5,9.4-8.5s9.4,3.6,9.4,8.5s-4,8.5-9.4,8.5S242,147,242,142.1z M255,168.3c1.1-0.8,2.3-1.9,3.6-3.1
		l-4.4-4.3c-2.7,3-6.5,6.3-8.9,7.7c-0.3,0.2-0.5,0.2-0.7,0c-0.3-0.2-0.9-0.9-1.2-1.3c3.9-2.9,9.1-7.7,10.2-10.9
		c0.3-0.8-0.9-1.6-2.5-2c0.2-0.5,0.5-1,0.8-1.3c0.1-0.1,0.2-0.2,0.3-0.2c1.1,0,3.9,0.9,4.8,1.6c0.6,0.5,0.5,1.2,0.3,1.8
		c-0.3,0.8-0.9,1.7-1.6,2.7l5.1,3.7c2-2.3,3.5-4.7,3.8-6.2c0.1-0.9-0.8-1.6-2.3-2c0.2-0.5,0.5-1,0.8-1.3c0.1-0.1,0.2-0.2,0.3-0.2
		c0.8,0,3.7,1,4.6,1.6c0.6,0.5,0.5,1.2,0.3,1.8c-0.3,0.9-1,2.1-1.9,3.4c2.5,2.1,4.9,4,7.4,6c0.2,0.2,0.2,0.5,0.1,0.7
		c-0.3,0.5-1.3,1.4-2.1,1.9c-2.3-2.3-4.6-4.5-6.9-6.7c-2.4,3-5.7,6.2-8.1,7.6c-0.3,0.2-0.5,0.2-0.7,0
		C255.9,169.4,255.3,168.7,255,168.3z M257.5,142.1c0-3.2-2.6-5.8-6-5.8c-3.4,0-6,2.6-6,5.8c0,3.2,2.6,5.8,6,5.8
		C254.8,147.9,257.5,145.3,257.5,142.1z M267.4,133.7c0-0.6-0.2-0.8-0.7-1.2c-0.5-0.4-1.7-0.9-2.8-1.1c0.1-0.5,0.4-1.2,0.5-1.4
		c0.1-0.2,0.3-0.2,0.5-0.2c1.3,0,4.1,0.5,5.3,1c0.5,0.2,0.6,0.3,0.6,0.7V146c0,1.7-0.3,4.6-0.5,6c0,0.4-0.1,0.6-0.5,0.7
		c-0.5,0.1-1.7,0.2-2.4,0V133.7z"/>
</g>
<g class="st1">
	<path d="M239.2,240.8c-0.1-0.1-0.2-0.3-0.2-0.5c0-0.2,0.5-0.9,0.7-1.3c2.5,0.4,4.1,0.5,7.3,0.5h21.2c3.2,0,6.5-0.4,7.1-0.4
		c0.6,0,0.8,0.1,0.8,0.6s-0.2,1.9-0.5,2.7c-1.9-0.1-4.3-0.2-6.4-0.2h-21.7c-1.5,0-2.9,0.4-4.6,0.9
		C241.6,242.6,240.2,241.9,239.2,240.8z M247.9,257.9v-3.4c0-1.2-1-1.6-2-1.8c0-0.4,0.3-1.6,0.9-1.6c0.7,0,2.2,0.1,3.2,0.1h16.2
		v-3.5h-13.8c-0.7,0-1.9,0-3.4,0.5c-1.2-0.5-2.3-1.2-3-1.8c-0.1-0.1-0.2-0.2-0.2-0.4c0-0.2,0.5-0.8,0.7-1.2c1.5,0.5,3.8,0.4,5.3,0.4
		h11.9c1,0,3.7-0.2,4.7-0.2c0.7,0,1,0.3,1,1.1v6.9c0,0.5-0.2,0.7-0.5,0.7h-17.7v3.7h13.8c1.6,0,4.7-0.3,5.1-0.3
		c0.6,0,0.8,0.1,0.8,0.6c0,0.5-0.2,1.6-0.5,2.4h-20.8C248.6,260.1,247.9,259.5,247.9,257.9z M248.3,229.6c0-3.7,3.4-7.4,9.6-7.4
		c6.2,0,9.6,3.7,9.6,7.4c0,3.7-3.4,7.4-9.6,7.4C251.7,237,248.3,233.3,248.3,229.6z M264.2,229.6c0-2.4-2.1-4.7-6.3-4.7
		s-6.3,2.3-6.3,4.7c0,2.4,2.1,4.7,6.3,4.7S264.2,232,264.2,229.6z"/>
</g>
<g class="st1">
	<path d="M242.4,344.9c-0.2-0.2-1-1.4-1.2-1.8c5.5-3.5,12.8-10.9,15.4-17.3h-8.3c-1.1,0-1.9,0.2-3,0.6c-1-0.5-2-1.2-2.7-1.8
		c-0.1-0.1-0.2-0.2-0.2-0.4c0-0.2,0.4-1.2,0.6-1.4c1.6,0.3,3.4,0.2,5,0.2h8.2c1,0,2.8-0.2,3.6-0.2c0.8,0,1.1,0.7,0.9,1.6
		c-1.9,7.4-11.4,17.2-17.3,20.5C243,345.2,242.7,345.2,242.4,344.9z M267.6,335.6H259c-0.2-0.8-0.5-1.9-0.5-2.4
		c0-0.5,0.2-0.6,0.8-0.6c0.4,0,3,0.3,4.6,0.3h3.7v-11.8c0-0.6-0.2-0.8-0.7-1.2c-0.5-0.4-1.7-0.9-2.8-1.1c0.1-0.5,0.4-1.2,0.5-1.5
		c0.1-0.2,0.3-0.2,0.5-0.2c1.3,0,4.1,0.5,5.3,1c0.5,0.2,0.6,0.3,0.6,0.7v31c0,1.7-0.3,4.6-0.5,6c0,0.4-0.1,0.6-0.5,0.7
		c-0.5,0.1-1.7,0.2-2.4,0V335.6z"/>
</g>
<g class="st1">
	<path d="M240.8,423.3c0-5.9,3.9-9.9,9.7-9.9c5.8,0,9.7,4,9.7,9.9c0,5.9-3.9,9.9-9.7,9.9C244.7,433.2,240.8,429.2,240.8,423.3z
		 M256.9,423.3c0-4.4-2.7-7.1-6.4-7.1c-3.7,0-6.4,2.8-6.4,7.1s2.7,7.1,6.4,7.1C254.2,430.4,256.9,427.6,256.9,423.3z M266.1,411.7
		c0-0.6-0.2-0.8-0.7-1.2s-1.7-0.9-2.8-1.1c0.1-0.5,0.4-1.2,0.5-1.5c0.1-0.2,0.3-0.2,0.5-0.2c1.3,0,4.1,0.5,5.3,1
		c0.5,0.2,0.6,0.3,0.6,0.7v9.4h1.8c1.6,0,4.2-0.4,4.6-0.4c0.6,0,0.8,0.1,0.8,0.6s-0.2,1.6-0.5,2.4h-6.7v6.5h1.9
		c1.6,0,4.2-0.4,4.6-0.4c0.6,0,0.8,0.1,0.8,0.6s-0.2,1.6-0.5,2.4h-6.8v9.9c0,1.7-0.3,4.6-0.5,6c0,0.4-0.1,0.6-0.5,0.7
		c-0.5,0.1-1.7,0.2-2.4,0V411.7z"/>
</g>
<g class="st1">
	<path d="M72.5,145.7h-4.2v6.8c0,1.7-0.2,4.6-0.4,6c0,0.4-0.1,0.6-0.5,0.7c-0.5,0.1-1.6,0.2-2.3,0v-7.1c-4.9,1-11.9,2.1-14.1,2.4
		c-1.8,0.2-3.7,0.6-4.9,0.9c-1.4-0.5-2.8-1.4-3.8-2.1c-0.1-0.1-0.2-0.2-0.2-0.4c0-0.2,0.5-1,0.8-1.3c2.1,0.4,3.5,0.6,5.5,0.5
		c0.5,0,1.1,0,1.7-0.1v-6c0-1.1-0.8-1.6-2.4-2c0.1-0.5,0.2-1.1,0.4-1.4c0.1-0.2,0.3-0.2,0.5-0.2c1,0,2.8,0.2,4.1,0.6
		c0.5,0.1,0.6,0.2,0.6,0.6v8c3.8-0.5,8.2-1.2,11.8-2V136c0-0.7-0.1-1-0.5-1.2c-0.5-0.3-1.4-0.6-2.3-0.9c0.1-0.5,0.4-1.1,0.5-1.4
		c0.1-0.2,0.3-0.2,0.5-0.2c1.2,0,3.2,0.3,4.4,0.7c0.5,0.2,0.6,0.4,0.6,0.7v9.4h4.2v-9.2c0-0.6-0.2-0.9-0.7-1.2
		c-0.5-0.4-1.6-0.9-2.7-1.1c0.1-0.5,0.4-1.2,0.5-1.4c0.1-0.2,0.3-0.2,0.5-0.2c1.3,0,3.8,0.5,5,0.9c0.5,0.2,0.6,0.3,0.6,0.7v22.3
		c0,1.7-0.2,4.6-0.4,6c0,0.4-0.1,0.6-0.5,0.7c-0.5,0.1-1.7,0.2-2.4,0V145.7z M57.1,148.7c0.7-3.5,1.1-7.1,1.2-11.3h-7.6
		c-0.9,0-1.8,0.1-3.3,0.6c-1.2-0.6-2.3-1.3-3.1-2c-0.1-0.1-0.2-0.2-0.2-0.5c0-0.2,0.4-0.9,0.7-1.3c1.6,0.4,3.5,0.5,5.7,0.5h6.4
		c1,0,3-0.2,4-0.2c0.7,0,1,0.3,1,1.2c0,3.5-0.9,9.7-1.8,12.9c-0.1,0.4-0.3,0.5-0.6,0.5C58.9,149.1,57.5,148.8,57.1,148.7z
		 M54.5,165.4v-4.9c0-0.6-0.1-0.9-0.5-1.2c-0.5-0.3-1.3-0.7-2.3-0.7c0-0.5,0.2-1.1,0.3-1.4c0.1-0.2,0.3-0.2,0.5-0.2
		c1.3,0,3.6,0.2,4.7,0.6c0.5,0.2,0.6,0.4,0.6,0.7v6.9h13.7c1.6,0,4.7-0.5,5.1-0.5c0.6,0,0.8,0.1,0.8,0.6c0,0.5-0.2,1.8-0.5,2.6H56.8
		C55,167.9,54.5,167.1,54.5,165.4z"/>
</g>
<g class="st1">
	<path d="M44.3,243.8c-0.3-0.3-0.8-1.1-1-1.6c5.3-3.2,12.3-8.8,15.7-13h-7c-1.4,0-2.3,0.3-3.4,0.7c-1-0.5-2.3-1.2-3.1-1.8
		c-0.1-0.1-0.2-0.2-0.2-0.4c0-0.2,0.4-1,0.6-1.3c1.6,0.3,3.4,0.3,5,0.3h2.5V225c0-0.9-0.7-1.4-2.1-1.8c0.1-0.5,0.2-0.9,0.4-1.2
		c0.1-0.2,0.3-0.2,0.5-0.2c0.6,0,2.8,0.4,3.7,0.7c0.5,0.2,0.6,0.2,0.6,0.6v3.7h2c1.4,0,3-0.2,3.9-0.2c1,0,1.5,1.3,0.9,2.3
		c-1.2,1.6-3,3.6-5.3,5.7c2.7,1.8,5.2,3.4,8,5.2c0.3,0.2,0.2,0.5,0.1,0.7c-0.4,0.5-1.3,1.4-2.1,1.9c-2.7-2.1-5.1-3.9-8-6.1
		c-3.4,2.9-7.4,5.8-10.8,7.6C44.8,244,44.5,244,44.3,243.8z M49.3,256.8v-7.5c0-0.6-0.1-0.9-0.5-1.2c-0.5-0.3-1.3-0.7-2.3-0.7
		c0-0.5,0.2-1.1,0.3-1.4c0.1-0.2,0.3-0.2,0.5-0.2c1.3,0,3.6,0.2,4.7,0.6c0.5,0.2,0.6,0.4,0.6,0.7v9.4c2.4,0,4.9-0.5,7.2-1.4
		c0.4,0.4,0.7,1.3,0.7,1.7c0,0.3,0,0.4-0.3,0.5c-1.9,1.1-5.9,2-8.7,2C49.9,259.3,49.3,258.5,49.3,256.8z M58.4,248
		c-0.2-0.2-0.3-0.3-0.3-0.5c0-0.2,0.3-0.8,0.6-1.2c1.4,0.3,2.8,0.5,4.6,0.5h3.6v-0.9c0-1-0.5-1.4-1.6-1.8c0.1-0.5,0.2-0.9,0.4-1.2
		c0.1-0.2,0.3-0.2,0.5-0.2c0.4,0,2.3,0.2,3.3,0.6c0.5,0.2,0.6,0.4,0.6,0.8v2.8h2.3c1.2,0,4.1-0.2,4.6-0.2c0.5,0,0.7,0.1,0.7,0.5
		c0,0.5-0.2,1.5-0.5,2.2c-1.6-0.1-3-0.1-4.5-0.1h-7.4c-1.5,0-2.8,0.1-4,0.5C60.1,249.1,59.1,248.5,58.4,248z M61.4,255.4
		c0-2.7,2.5-5.2,6.8-5.2c4.3,0,6.8,2.5,6.8,5.2c0,2.7-2.5,5.2-6.8,5.2C63.9,260.7,61.4,258.1,61.4,255.4z M71.9,255.4
		c0-1.5-1.2-2.8-3.7-2.8s-3.7,1.4-3.7,2.8c0,1.5,1.2,2.8,3.7,2.8S71.9,256.9,71.9,255.4z M69.9,225.2c0-0.6-0.2-0.8-0.7-1.2
		s-1.7-0.9-2.8-1.1c0.1-0.5,0.4-1.2,0.5-1.4c0.1-0.2,0.3-0.2,0.5-0.2c1.3,0,4.1,0.5,5.3,1c0.5,0.2,0.6,0.3,0.6,0.7v8.1h1.7
		c1.6,0,4.2-0.4,4.6-0.4c0.6,0,0.8,0.1,0.8,0.6s-0.2,1.6-0.5,2.4h-6.6v2.1c0,1.7-0.3,4.4-0.5,5.8c0,0.4-0.1,0.6-0.5,0.7
		c-0.5,0.1-1.7,0.2-2.4,0V225.2z"/>
</g>
<g class="st1">
	<path d="M44.4,331.6c0-5.9,3.9-9.9,9.7-9.9c5.8,0,9.7,4,9.7,9.9c0,5.9-3.9,9.9-9.7,9.9C48.3,341.6,44.4,337.6,44.4,331.6z
		 M60.5,331.6c0-4.4-2.7-7.1-6.4-7.1c-3.7,0-6.4,2.8-6.4,7.1s2.7,7.1,6.4,7.1C57.8,338.8,60.5,336,60.5,331.6z M69.7,320.1
		c0-0.6-0.2-0.8-0.7-1.2s-1.7-0.9-2.8-1.1c0.1-0.5,0.4-1.2,0.5-1.5c0.1-0.2,0.3-0.2,0.5-0.2c1.3,0,4.1,0.5,5.3,1
		c0.5,0.2,0.6,0.3,0.6,0.7v14.2h1.9c1.6,0,4.2-0.4,4.6-0.4c0.6,0,0.8,0.1,0.8,0.6s-0.2,1.6-0.5,2.4H73v14.2c0,1.7-0.3,4.6-0.5,6
		c0,0.4-0.1,0.6-0.5,0.7c-0.5,0.1-1.7,0.2-2.4,0V320.1z"/>
</g>
</svg>
