<svg id="Layer_1" data-name="Layer 1" xmlns="http://www.w3.org/2000/svg" xmlns:xlink="http://www.w3.org/1999/xlink" viewBox="0 0 707.92 1305.29"><defs><style>.cls-1,.cls-2,.cls-5{fill:none;}.cls-2,.cls-5{stroke:#000;stroke-miterlimit:10;}.cls-2{stroke-width:2px;}.cls-3{isolation:isolate;}.cls-4{clip-path:url(#clip-path);}.cls-5{stroke-width:1.87px;}</style><clipPath id="clip-path" transform="translate(-3.13 -4.19)"><rect class="cls-1" x="-78" y="-7" width="817" height="945"/></clipPath></defs><line class="cls-2" x1="651.17" y1="427.52" x2="651.17"/><g class="cls-3"><g class="cls-3"><path d="M680.71,10.09c-.17-.17-.24-.28-.24-.41A3.3,3.3,0,0,1,681,8.53a17.36,17.36,0,0,0,4.42.38h3.94V7.67c0-.79-.56-1.21-1.73-1.48A4.56,4.56,0,0,1,688,5.08a.42.42,0,0,1,.38-.21,17.7,17.7,0,0,1,3.15.56c.41.13.52.2.52.48v3h3.21c1,0,3.45-.27,3.83-.27s.59.07.59.41a9.52,9.52,0,0,1-.38,2.18c-1.31-.1-2.49-.1-3.8-.1h-9.6a7.88,7.88,0,0,0-2.84.55A9.26,9.26,0,0,1,680.71,10.09Zm3,8.5c0-3.15,2.46-5.91,6.74-5.91s6.74,2.76,6.74,5.91-2.46,5.9-6.74,5.9S683.75,21.73,683.75,18.59Zm10.75,0a4,4,0,1,0-4,3.66A3.69,3.69,0,0,0,694.5,18.59Zm-5.84,16.27V29.4c0-.93-.76-1.38-1.69-1.59,0-.31.17-1.45.62-1.45.83,0,2.62.24,3.52.24h9.71c.86,0,3.11-.14,4-.14.56,0,.87.25.87.94v8.25a.93.93,0,0,1-1,1.07H690.18C689.25,36.72,688.66,36.17,688.66,34.86Zm14.23-.35v-5.7H691.42v5.7Zm.31-26.87c0-.52-.17-.66-.58-1a7.18,7.18,0,0,0-2.39-.93,5.13,5.13,0,0,1,.45-1.18.4.4,0,0,1,.38-.2,17.51,17.51,0,0,1,4.42.82c.38.14.52.28.52.56V19.31c0,1.45-.24,3.91-.38,5.08,0,.31-.1.52-.38.59a6.48,6.48,0,0,1-2,0Z" transform="translate(-3.13 -4.19)"/><path d="M679.54,56.63a.67.67,0,0,1-.21-.42,3.32,3.32,0,0,1,.62-1.07,32.38,32.38,0,0,0,6.15.38h17.83c2.66,0,5.49-.31,5.94-.31s.66.07.66.49a10.73,10.73,0,0,1-.42,2.24c-1.62-.07-3.59-.17-5.35-.17H686.55a14,14,0,0,0-3.87.72A8.25,8.25,0,0,1,679.54,56.63Zm6.67-6.29V45.75c0-1.08-1-1.39-2-1.52,0-.35.18-1.49.76-1.49.87,0,2.87.24,3.8.24H700c1,0,3.46-.28,3.84-.28s.58.07.58.42a9.23,9.23,0,0,1-.38,2.14H689v5.11h11.47c1,0,3.45-.27,3.83-.27s.59.07.59.41a9.14,9.14,0,0,1-.38,2.14h-16C686.86,52.65,686.21,51.93,686.21,50.34Zm.65,21.38v-3c0-1-.83-1.31-1.69-1.52,0-.31.28-1.35.73-1.35s1.86.1,2.69.1h13.58v-3.1H690.59a8.92,8.92,0,0,0-2.83.38,8,8,0,0,1-2.49-1.56.5.5,0,0,1-.17-.31c0-.21.38-.69.59-1a17.33,17.33,0,0,0,4.42.31h10c.86,0,3.11-.13,4-.13.55,0,.87.24.87.93v6c0,.38-.18.59-.45.59H689.66v3.28h11.61c1.31,0,3.94-.28,4.28-.28.49,0,.66.07.66.49a8.5,8.5,0,0,1-.38,2H688.38C687.45,73.59,686.86,73,686.86,71.72Z" transform="translate(-3.13 -4.19)"/><path d="M703.38,91.8h-5.5A7.83,7.83,0,0,1,689.66,99a8.33,8.33,0,0,1,0-16.66,7.85,7.85,0,0,1,8.22,7.19h5.5V81c0-.52-.18-.65-.59-1a7.18,7.18,0,0,0-2.38-.94,6,6,0,0,1,.44-1.24.42.42,0,0,1,.38-.21,17.6,17.6,0,0,1,4.43.83c.38.14.51.28.51.55v26c0,1.45-.24,3.9-.38,5.07,0,.32-.1.52-.38.59a6.39,6.39,0,0,1-2,0Zm-8.26-1.14c0-3.66-2.32-6-5.46-6s-5.46,2.32-5.46,6,2.32,6,5.46,6S695.12,94.36,695.12,90.66Z" transform="translate(-3.13 -4.19)"/></g><g class="cls-3"><path d="M679.57,134.67c-.17-.17-.24-.27-.24-.41a3.4,3.4,0,0,1,.55-1.14,17.48,17.48,0,0,0,4.43.38h4.35v-2.83c0-.8-.55-1.21-1.73-1.49a4.07,4.07,0,0,1,.35-1.1.39.39,0,0,1,.38-.21,19.11,19.11,0,0,1,3.21.55c.42.14.52.21.52.49v4.59H695c1,0,3.45-.28,3.83-.28s.59.07.59.42a9.52,9.52,0,0,1-.38,2.18c-1.31-.11-2.49-.11-3.8-.11h-10.5a8.1,8.1,0,0,0-2.84.55A9,9,0,0,1,679.57,134.67Zm3,9.75c0-3.67,2.91-6.53,7.29-6.53s7.29,2.86,7.29,6.53-2.9,6.53-7.29,6.53S682.61,148.08,682.61,144.42Zm11.85,0c0-2.46-1.79-4.22-4.56-4.22s-4.56,1.76-4.56,4.22,1.8,4.21,4.56,4.21S694.46,146.87,694.46,144.42Zm7.81-14.75c0-.52-.17-.66-.59-1a7,7,0,0,0-2.38-.93,5.37,5.37,0,0,1,.45-1.25.39.39,0,0,1,.38-.2,17.51,17.51,0,0,1,4.42.82c.38.14.52.28.52.56V140h1.42c1.34,0,3.55-.35,3.9-.35s.66.07.66.49a9.24,9.24,0,0,1-.42,2h-5.56v11.57c0,1.45-.24,3.9-.38,5.08,0,.31-.11.52-.38.59a6.8,6.8,0,0,1-2,0Z" transform="translate(-3.13 -4.19)"/><path d="M679.54,187.22a.67.67,0,0,1-.21-.41,3.22,3.22,0,0,1,.62-1.07,33.23,33.23,0,0,0,6.15.38h6.43v-7.33c0-.93-.86-1.31-2.25-1.65a4.43,4.43,0,0,1,.38-1.21.4.4,0,0,1,.38-.21,17.53,17.53,0,0,1,3.8.52c.38.1.49.21.49.48v9.4h8.6c2.66,0,5.49-.31,5.94-.31s.66.07.66.48a11.25,11.25,0,0,1-.42,2.32c-1.62-.07-3.59-.18-5.35-.18H686.55a13.67,13.67,0,0,0-3.87.73A8.42,8.42,0,0,1,679.54,187.22Zm21.59-3.76a94,94,0,0,0,1.66-14.13H689.56a8.48,8.48,0,0,0-2.8.48,9.22,9.22,0,0,1-2.59-1.69.59.59,0,0,1-.21-.41,3.47,3.47,0,0,1,.59-1.08,19.65,19.65,0,0,0,4.77.38h12.33c.86,0,2.49-.17,3.35-.17.55,0,.86.28.86,1a73.29,73.29,0,0,1-2.24,15.48.46.46,0,0,1-.52.41A9.47,9.47,0,0,1,701.13,183.46Z" transform="translate(-3.13 -4.19)"/></g><g class="cls-3"><path d="M681.89,222c0-4.11,3.35-7.15,7.91-7.15s7.91,3,7.91,7.15-3.35,7.16-7.91,7.16S681.89,226.1,681.89,222Zm10.92,22a27,27,0,0,0,3-2.62l-3.66-3.63a39,39,0,0,1-7.46,6.5.54.54,0,0,1-.62,0,6.56,6.56,0,0,1-1-1.11c3.29-2.42,7.64-6.49,8.57-9.12.24-.69-.79-1.31-2.07-1.69a5.31,5.31,0,0,1,.65-1.07.36.36,0,0,1,.28-.14,10.48,10.48,0,0,1,4,1.35,1.24,1.24,0,0,1,.24,1.55,9.58,9.58,0,0,1-1.35,2.25l4.29,3.14c1.65-1.94,3-3.94,3.17-5.22.11-.72-.65-1.31-1.93-1.69a4.9,4.9,0,0,1,.66-1.07.36.36,0,0,1,.27-.14,11.31,11.31,0,0,1,3.84,1.38,1.3,1.3,0,0,1,.27,1.56,12.94,12.94,0,0,1-1.58,2.83c2.1,1.73,4.14,3.39,6.25,5a.44.44,0,0,1,.07.59,7.92,7.92,0,0,1-1.77,1.62c-1.89-1.89-3.83-3.8-5.76-5.66a30.36,30.36,0,0,1-6.78,6.43.54.54,0,0,1-.62,0A10.47,10.47,0,0,1,692.81,244Zm2.07-22a5.08,5.08,0,1,0-5.08,4.87A4.94,4.94,0,0,0,694.88,222Zm8.32-7c0-.52-.17-.66-.58-1a7.18,7.18,0,0,0-2.39-.93,5.13,5.13,0,0,1,.45-1.18.41.41,0,0,1,.38-.21,17.52,17.52,0,0,1,4.42.83c.38.14.52.28.52.56v12.19c0,1.45-.24,3.91-.38,5.08,0,.31-.1.52-.38.59a6.8,6.8,0,0,1-2,0Z" transform="translate(-3.13 -4.19)"/><path d="M679.54,264.7a.7.7,0,0,1-.21-.42,3.22,3.22,0,0,1,.62-1.07,32.38,32.38,0,0,0,6.15.38h17.83c2.66,0,5.49-.31,5.94-.31s.66.07.66.48a10.7,10.7,0,0,1-.42,2.25c-1.62-.07-3.59-.17-5.35-.17H686.55a14,14,0,0,0-3.87.72A8.25,8.25,0,0,1,679.54,264.7ZM686.86,279V276.2c0-1-.83-1.31-1.69-1.52,0-.31.28-1.35.73-1.35s1.86.11,2.69.11h13.58V270.5H690.59a8.92,8.92,0,0,0-2.83.38,8,8,0,0,1-2.49-1.55.53.53,0,0,1-.17-.31,2.89,2.89,0,0,1,.59-1,17.33,17.33,0,0,0,4.42.31h10c.86,0,3.11-.14,4-.14.55,0,.87.24.87.93V275c0,.38-.18.59-.45.59H689.66v3.11h11.61c1.31,0,3.94-.28,4.28-.28.49,0,.66.07.66.49a8.5,8.5,0,0,1-.38,2H688.38C687.45,280.9,686.86,280.35,686.86,279Zm.31-23.76c0-3.08,2.87-6.22,8.09-6.22s8.08,3.14,8.08,6.22-2.87,6.21-8.08,6.21S687.17,258.34,687.17,255.27Zm13.37,0c0-2-1.76-3.94-5.28-3.94s-5.29,1.93-5.29,3.94,1.76,3.93,5.29,3.93S700.54,257.27,700.54,255.27Z" transform="translate(-3.13 -4.19)"/></g><g class="cls-3"><path d="M683,316.94V305.33c0-.52-.07-.83-.38-1a4.88,4.88,0,0,0-1.93-.69,5.2,5.2,0,0,1,.38-1.14.39.39,0,0,1,.38-.2,14.29,14.29,0,0,1,3.87.69c.38.14.52.31.52.58v13.1A79.77,79.77,0,0,0,699.89,315a6.15,6.15,0,0,1,.38,1.59.42.42,0,0,1-.35.48,83.42,83.42,0,0,1-15,1.94C683.48,319.05,683,318.32,683,316.94Zm20.39-6.57h-9.54a9,9,0,0,1-.41-2c0-.42.17-.49.65-.49s2.56.24,3.91.24h5.39v-7.73c0-.52-.18-.66-.59-1a7.2,7.2,0,0,0-2.38-.93,5.92,5.92,0,0,1,.44-1.25.41.41,0,0,1,.38-.2,17.58,17.58,0,0,1,4.43.82c.38.14.51.28.51.56v26c0,1.45-.24,3.9-.38,5.08,0,.31-.1.52-.38.59a6.74,6.74,0,0,1-2,0Z" transform="translate(-3.13 -4.19)"/><path d="M698.26,347.93H695c-.42,4.46-3.32,7.12-7.19,7.12-4.21,0-7.32-3.15-7.32-8.26s3.11-8.26,7.32-8.26c3.87,0,6.77,2.7,7.19,7.12h3.24v-6.84c0-.55-.07-.83-.45-1a8.93,8.93,0,0,0-2-.72,5.18,5.18,0,0,1,.45-1.14.47.47,0,0,1,.42-.21,14.81,14.81,0,0,1,3.7.59c.38.14.51.31.51.59V360c0,1.45-.17,3.9-.31,5.07,0,.32-.1.52-.38.59a6,6,0,0,1-2,0Zm-5.84-1.14c0-3.73-2-5.91-4.59-5.91s-4.59,2.18-4.59,5.91,2,5.91,4.59,5.91S692.42,350.52,692.42,346.79ZM704.14,337a1.15,1.15,0,0,0-.56-1,5.86,5.86,0,0,0-2.28-.9,5.33,5.33,0,0,1,.45-1.2.39.39,0,0,1,.38-.21,16,16,0,0,1,4.22.79c.38.14.52.28.52.55v26c0,1.45-.18,3.91-.32,5.08,0,.31-.1.52-.38.59a6.43,6.43,0,0,1-2,0Z" transform="translate(-3.13 -4.19)"/><path d="M697.92,385.83H689.8a34.16,34.16,0,0,1-7.88,7.84.66.66,0,0,1-.79,0,10.25,10.25,0,0,1-1.07-1.42c4.14-3.07,9.39-9,11.05-14.13H686a8,8,0,0,0-2.69.38,15.31,15.31,0,0,1-2.42-1.45.41.41,0,0,1-.17-.31,3.88,3.88,0,0,1,.52-1.14,34.05,34.05,0,0,0,4.18.17h5.14c.87,0,2.32-.13,3-.13s.9.55.73,1.34a21.52,21.52,0,0,1-2.94,6.6h6.53v-8.12c0-.55-.07-.83-.45-1a8.77,8.77,0,0,0-2-.73,4.5,4.5,0,0,1,.45-1.14.46.46,0,0,1,.41-.21,14.81,14.81,0,0,1,3.7.59c.38.14.52.31.52.59v23.11c0,1.45-.17,3.9-.31,5.08,0,.31-.11.52-.38.58a6,6,0,0,1-2,0Zm6.22-12.23a1.14,1.14,0,0,0-.56-1,5.57,5.57,0,0,0-2.28-.9,5.44,5.44,0,0,1,.45-1.21.41.41,0,0,1,.38-.21,16,16,0,0,1,4.22.8c.38.13.52.27.52.55v26c0,1.45-.18,3.9-.32,5.07,0,.32-.1.52-.38.59a6.39,6.39,0,0,1-2,0Z" transform="translate(-3.13 -4.19)"/></g></g><g class="cls-4"><line class="cls-5" x1="586.8" y1="4.46" x2="503.8" y2="4.46"/><line class="cls-5" x1="586.8" y1="97.33" x2="503.8" y2="97.33"/><line class="cls-5" x1="586.8" y1="190.21" x2="503.8" y2="190.21"/><line class="cls-5" x1="586.8" y1="283.08" x2="503.8" y2="283.08"/><line class="cls-5" x1="586.8" y1="840.33" x2="503.8" y2="840.33"/><line class="cls-5" x1="586.8" y1="375.96" x2="503.8" y2="375.96"/><line class="cls-5" x1="586.8" y1="468.83" x2="503.8" y2="468.83"/><line class="cls-5" x1="586.8" y1="561.71" x2="503.8" y2="561.71"/><line class="cls-5" x1="586.8" y1="654.58" x2="503.8" y2="654.58"/><line class="cls-5" x1="586.8" y1="747.45" x2="503.8" y2="747.45"/><line class="cls-5" x1="586.8" y1="933.2" x2="503.8" y2="933.2"/><line class="cls-5" x1="587.12" y1="3.73" x2="587.12" y2="1304.41"/><line class="cls-5" x1="504.01" y1="3.73" x2="504.01" y2="1304.41"/><line class="cls-5" x1="489.45" y1="4.46" x2="406.45" y2="4.46"/><line class="cls-5" x1="489.45" y1="97.33" x2="406.45" y2="97.33"/><line class="cls-5" x1="489.45" y1="190.21" x2="406.45" y2="190.21"/><line class="cls-5" x1="489.45" y1="283.08" x2="406.45" y2="283.08"/><line class="cls-5" x1="489.45" y1="840.33" x2="406.45" y2="840.33"/><line class="cls-5" x1="489.45" y1="375.96" x2="406.45" y2="375.96"/><line class="cls-5" x1="489.45" y1="468.83" x2="406.45" y2="468.83"/><line class="cls-5" x1="489.45" y1="561.71" x2="406.45" y2="561.71"/><line class="cls-5" x1="489.45" y1="654.58" x2="406.45" y2="654.58"/><line class="cls-5" x1="489.45" y1="747.45" x2="406.45" y2="747.45"/><line class="cls-5" x1="489.45" y1="933.2" x2="406.45" y2="933.2"/><line class="cls-5" x1="489.77" y1="3.73" x2="489.77" y2="1304.41"/><line class="cls-5" x1="406.67" y1="3.73" x2="406.67" y2="1304.41"/><line class="cls-5" x1="392.1" y1="4.46" x2="309.1" y2="4.46"/><line class="cls-5" x1="392.1" y1="97.33" x2="309.1" y2="97.33"/><line class="cls-5" x1="392.1" y1="190.21" x2="309.1" y2="190.21"/><line class="cls-5" x1="392.1" y1="283.08" x2="309.1" y2="283.08"/><line class="cls-5" x1="392.1" y1="840.33" x2="309.1" y2="840.33"/><line class="cls-5" x1="392.1" y1="375.96" x2="309.1" y2="375.96"/><line class="cls-5" x1="392.1" y1="468.83" x2="309.1" y2="468.83"/><line class="cls-5" x1="392.1" y1="561.71" x2="309.1" y2="561.71"/><line class="cls-5" x1="392.1" y1="654.58" x2="309.1" y2="654.58"/><line class="cls-5" x1="392.1" y1="747.45" x2="309.1" y2="747.45"/><line class="cls-5" x1="392.1" y1="933.2" x2="309.1" y2="933.2"/><line class="cls-5" x1="392.43" y1="3.73" x2="392.43" y2="1304.41"/><line class="cls-5" x1="309.32" y1="3.73" x2="309.32" y2="1304.41"/><line class="cls-5" x1="294.76" y1="4.46" x2="211.76" y2="4.46"/><line class="cls-5" x1="294.76" y1="97.33" x2="211.76" y2="97.33"/><line class="cls-5" x1="294.76" y1="190.21" x2="211.76" y2="190.21"/><line class="cls-5" x1="294.76" y1="283.08" x2="211.76" y2="283.08"/><line class="cls-5" x1="294.76" y1="840.33" x2="211.76" y2="840.33"/><line class="cls-5" x1="294.76" y1="375.96" x2="211.76" y2="375.96"/><line class="cls-5" x1="294.76" y1="468.83" x2="211.76" y2="468.83"/><line class="cls-5" x1="294.76" y1="561.71" x2="211.76" y2="561.71"/><line class="cls-5" x1="294.76" y1="654.58" x2="211.76" y2="654.58"/><line class="cls-5" x1="294.76" y1="747.45" x2="211.76" y2="747.45"/><line class="cls-5" x1="294.76" y1="933.2" x2="211.76" y2="933.2"/><line class="cls-5" x1="295.08" y1="3.73" x2="295.08" y2="1304.41"/><line class="cls-5" x1="211.97" y1="3.73" x2="211.97" y2="1304.41"/><line class="cls-5" x1="197.41" y1="4.46" x2="114.41" y2="4.46"/><line class="cls-5" x1="197.41" y1="97.33" x2="114.41" y2="97.33"/><line class="cls-5" x1="197.41" y1="190.21" x2="114.41" y2="190.21"/><line class="cls-5" x1="197.41" y1="283.08" x2="114.41" y2="283.08"/><line class="cls-5" x1="197.41" y1="840.33" x2="114.41" y2="840.33"/><line class="cls-5" x1="197.41" y1="375.96" x2="114.41" y2="375.96"/><line class="cls-5" x1="197.41" y1="468.83" x2="114.41" y2="468.83"/><line class="cls-5" x1="197.41" y1="561.71" x2="114.41" y2="561.71"/><line class="cls-5" x1="197.41" y1="654.58" x2="114.41" y2="654.58"/><line class="cls-5" x1="197.41" y1="747.45" x2="114.41" y2="747.45"/><line class="cls-5" x1="197.41" y1="933.2" x2="114.41" y2="933.2"/><line class="cls-5" x1="197.73" y1="3.73" x2="197.73" y2="1304.41"/><line class="cls-5" x1="114.63" y1="3.73" x2="114.63" y2="1304.41"/><line class="cls-5" x1="100.06" y1="4.46" x2="17.06" y2="4.46"/><line class="cls-5" x1="100.06" y1="97.33" x2="17.06" y2="97.33"/><line class="cls-5" x1="100.06" y1="190.21" x2="17.06" y2="190.21"/><line class="cls-5" x1="100.06" y1="283.08" x2="17.06" y2="283.08"/><line class="cls-5" x1="100.06" y1="840.33" x2="17.06" y2="840.33"/><line class="cls-5" x1="100.06" y1="375.96" x2="17.06" y2="375.96"/><line class="cls-5" x1="100.06" y1="468.83" x2="17.06" y2="468.83"/><line class="cls-5" x1="100.06" y1="561.71" x2="17.06" y2="561.71"/><line class="cls-5" x1="100.06" y1="654.58" x2="17.06" y2="654.58"/><line class="cls-5" x1="100.06" y1="747.45" x2="17.06" y2="747.45"/><line class="cls-5" x1="100.06" y1="933.2" x2="17.06" y2="933.2"/><line class="cls-5" x1="100.39" y1="3.73" x2="100.39" y2="1304.41"/><line class="cls-5" x1="17.28" y1="3.73" x2="17.28" y2="1304.41"/><rect class="cls-2" x="1" y="4.15" width="600.85" height="1300.14"/></g><line class="cls-5" x1="1" y1="932.81" x2="601.85" y2="932.81"/><g class="cls-3"><path d="M534.3,148.75V137.41c0-.62-.08-1-.45-1.24a5.65,5.65,0,0,0-2.31-.82A5.93,5.93,0,0,1,532,134a.47.47,0,0,1,.45-.24,17.21,17.21,0,0,1,4.6.82c.45.16.62.37.62.7v13.11a95.21,95.21,0,0,0,16.73-1.89,7.66,7.66,0,0,1,.45,1.89.51.51,0,0,1-.41.58,99.6,99.6,0,0,1-17.84,2.3C534.87,151.26,534.3,150.4,534.3,148.75Zm7.36,15.58v-6.86c0-.62-.09-.91-.46-1.16a4.77,4.77,0,0,0-2.3-.73,4.58,4.58,0,0,1,.29-1.36.47.47,0,0,1,.45-.25,18,18,0,0,1,4.73.58c.45.16.62.37.62.7v8.88h12.62c1.56,0,4.68-.46,5.09-.46.58,0,.78.09.78.58a11.65,11.65,0,0,1-.45,2.59H544C542.23,166.84,541.66,166,541.66,164.33Zm16.89-22.28H546.79a11.36,11.36,0,0,1-.49-2.42c0-.5.21-.58.78-.58.41,0,3,.29,4.65.29h6.82v-6.62c0-.62-.2-.78-.7-1.15a8.63,8.63,0,0,0-2.83-1.11,6.06,6.06,0,0,1,.53-1.4.49.49,0,0,1,.45-.25,20.9,20.9,0,0,1,5.26,1c.46.17.62.33.62.66v20.72c0,1.72-.29,4.64-.45,6,0,.37-.13.62-.45.7a8,8,0,0,1-2.43,0Z" transform="translate(-3.13 -4.19)"/></g><g class="cls-3"><path d="M530.8,339.86c3.7-3.49,11.23-13.48,11.23-17.43,0-.9-1.24-1.64-2.68-2.22a7.7,7.7,0,0,1,.83-1.23.4.4,0,0,1,.33-.17,13.56,13.56,0,0,1,5.09,1.77,1.15,1.15,0,0,1,.45,1.07c0,1.27-1.06,3.66-2.63,6.37,3.37,3.74,6.38,7,9.58,10.2a.56.56,0,0,1,0,.86,16.15,16.15,0,0,1-2.09,1.93c-3-3.7-5.84-7.11-8.92-10.69-2.8,4.44-6.46,9.13-8.72,10.9a.7.7,0,0,1-.94,0A10.72,10.72,0,0,1,530.8,339.86Zm26.44-21.46c0-.62-.21-.78-.7-1.15a8.79,8.79,0,0,0-2.84-1.11,6.36,6.36,0,0,1,.54-1.48.48.48,0,0,1,.45-.25,21,21,0,0,1,5.26,1c.45.16.62.33.62.66v14.18h1.89c1.6,0,4.23-.41,4.64-.41.58,0,.78.08.78.57a10.73,10.73,0,0,1-.49,2.43h-6.82V347c0,1.73-.29,4.65-.46,6,0,.38-.12.62-.45.7a7.37,7.37,0,0,1-2.42,0Z" transform="translate(-3.13 -4.19)"/></g><g class="cls-3"><path d="M557.23,424.41c-6.91,1.65-16.45,3.08-21.67,3.08-1.72,0-2.3-.86-2.3-2.5V420.3c0-1.19-1-1.56-2-1.81,0-.37.33-1.77.86-1.77,1,0,3,.29,4,.29h10.23V412.2h-8.92a8.46,8.46,0,0,0-3,.58,10.16,10.16,0,0,1-2.67-1.81.56.56,0,0,1-.2-.37,4.58,4.58,0,0,1,.61-1.28,28.42,28.42,0,0,0,5,.25H544c1,0,3.7-.16,4.73-.16.65,0,1,.29,1,1.11v8.42c0,.46-.2.7-.53.7H536.59v5.1A107.88,107.88,0,0,0,557.23,422V409.12c0-.62-.21-.78-.7-1.15a8.79,8.79,0,0,0-2.84-1.11,5.46,5.46,0,0,1,.54-1.4.48.48,0,0,1,.45-.25,21,21,0,0,1,5.26,1c.45.16.62.33.62.66v9.82h1.89c1.6,0,4.23-.41,4.64-.41.58,0,.78.08.78.58a10.76,10.76,0,0,1-.49,2.42h-6.82v3.83c0,1.72-.29,4.64-.46,6,0,.37-.12.62-.45.7a8,8,0,0,1-2.42,0Zm-16.08,12.5c0-3.91,3.46-7.81,9.42-7.81S560,433,560,436.91s-3.45,7.81-9.41,7.81S541.15,440.81,541.15,436.91Zm15.5,0c0-2.59-2.18-5.06-6.08-5.06s-6.09,2.47-6.09,5.06,2.18,5,6.09,5S556.65,439.5,556.65,436.91Z" transform="translate(-3.13 -4.19)"/></g><g class="cls-3"><path d="M530.8,518.47a.82.82,0,0,1-.25-.49,3.79,3.79,0,0,1,.74-1.28,39.08,39.08,0,0,0,7.32.45h21.21c3.16,0,6.54-.37,7.07-.37s.78.09.78.58a13.3,13.3,0,0,1-.49,2.67c-1.93-.08-4.28-.2-6.37-.2H539.14a16.46,16.46,0,0,0-4.6.86A9.7,9.7,0,0,1,530.8,518.47Zm8.71,17.06v-3.37c0-1.19-1-1.56-2-1.81,0-.37.33-1.6.86-1.6s2.22.12,3.21.12h16.15v-3.49H544a10.67,10.67,0,0,0-3.37.45,9.5,9.5,0,0,1-3-1.85.56.56,0,0,1-.2-.37c0-.25.45-.82.69-1.15a20.81,20.81,0,0,0,5.27.37H555.3c1,0,3.7-.17,4.72-.17.66,0,1,.29,1,1.11v7c0,.45-.2.7-.53.7H542.84v3.7h13.81c1.57,0,4.69-.33,5.1-.33.58,0,.78.08.78.57a10.11,10.11,0,0,1-.45,2.39H541.32C540.21,537.75,539.51,537.09,539.51,535.53Zm.37-28.28c0-3.66,3.41-7.4,9.62-7.4s9.62,3.74,9.62,7.4-3.41,7.4-9.62,7.4S539.88,510.91,539.88,507.25Zm15.91,0c0-2.39-2.1-4.69-6.29-4.69s-6.29,2.3-6.29,4.69,2.1,4.68,6.29,4.68S555.79,509.63,555.79,507.25Z" transform="translate(-3.13 -4.19)"/></g><g class="cls-3"><path d="M436.4,147.44V136.67c0-1.07-.94-1.48-2.3-1.73a5.48,5.48,0,0,1,.41-1.36.5.5,0,0,1,.49-.28,13.53,13.53,0,0,1,4.2.78.69.69,0,0,1,.49.74v3.65h10.48V135c0-1.07-.94-1.48-2.3-1.72a5.35,5.35,0,0,1,.41-1.36.49.49,0,0,1,.49-.29,13.83,13.83,0,0,1,4.2.78.68.68,0,0,1,.49.74v15.21a1.12,1.12,0,0,1-1.23,1.28h-14C437.1,149.66,436.4,149,436.4,147.44Zm13.77-.46v-5.83H439.69V147Zm-6.74,17.52v-6.95c0-1.11-.9-1.65-2-1.89,0-.37.2-1.73.74-1.73,1,0,3.12.29,4.19.29h12.08c1.15,0,4.11-.33,4.57-.33s.7.08.7.49a11,11,0,0,1-.46,2.55H446.76v7.61h12.66c1.15,0,4.11-.33,4.56-.33s.7.08.7.49a11,11,0,0,1-.45,2.55H446.18C444.21,167.25,443.43,166.39,443.43,164.5Zm16.94-31.78c0-.62-.21-.78-.7-1.15a8.79,8.79,0,0,0-2.84-1.11,5.61,5.61,0,0,1,.54-1.4.48.48,0,0,1,.45-.25,21,21,0,0,1,5.26,1c.45.17.62.33.62.66v9h1.89c1.6,0,4.23-.41,4.64-.41.58,0,.78.08.78.58a10.76,10.76,0,0,1-.49,2.42H463.7v3.25c0,1.72-.29,4.64-.46,6,0,.37-.12.62-.45.7a8,8,0,0,1-2.42,0Z" transform="translate(-3.13 -4.19)"/></g><g class="cls-3"><path d="M433.32,240.35a.82.82,0,0,1-.25-.49,3.79,3.79,0,0,1,.74-1.28,39.08,39.08,0,0,0,7.32.45h21.21c3.16,0,6.54-.37,7.07-.37s.78.09.78.58a13.3,13.3,0,0,1-.49,2.67c-1.93-.08-4.28-.2-6.37-.2H441.66a16.46,16.46,0,0,0-4.6.86A9.7,9.7,0,0,1,433.32,240.35ZM442,257.41V254c0-1.19-1-1.56-2-1.81,0-.37.33-1.6.86-1.6s2.22.12,3.21.12h16.15v-3.49H446.47a10.67,10.67,0,0,0-3.37.45,9.32,9.32,0,0,1-3-1.85.56.56,0,0,1-.2-.37c0-.25.45-.82.69-1.15a20.81,20.81,0,0,0,5.27.37h11.92c1,0,3.7-.17,4.72-.17.66,0,1,.29,1,1.11v6.95c0,.45-.2.7-.53.7H445.36V257h13.81c1.57,0,4.69-.33,5.1-.33.58,0,.78.08.78.58a10.13,10.13,0,0,1-.45,2.38H443.84C442.73,259.63,442,259,442,257.41Zm.37-28.28c0-3.66,3.41-7.4,9.62-7.4s9.62,3.74,9.62,7.4-3.41,7.4-9.62,7.4S442.4,232.79,442.4,229.13Zm15.91,0c0-2.39-2.1-4.69-6.29-4.69s-6.29,2.3-6.29,4.69,2.1,4.68,6.29,4.68S458.31,231.51,458.31,229.13Z" transform="translate(-3.13 -4.19)"/></g><g class="cls-3"><path d="M435.54,341.83a13.34,13.34,0,0,1-1.15-1.68c5.51-3.54,12.95-10.61,15.54-17.06H442a8.41,8.41,0,0,0-3,.57,10.06,10.06,0,0,1-2.68-1.81.54.54,0,0,1-.2-.37,4.85,4.85,0,0,1,.62-1.39,29.36,29.36,0,0,0,5,.24h7.77c1,0,2.75-.16,3.57-.16s1.11.66.87,1.6a25.42,25.42,0,0,1-4.69,8.59c3.13,3.46,4.85,5.31,8,8.47a.56.56,0,0,1,0,.86,16.31,16.31,0,0,1-2.1,1.94c-3-3.79-4.69-5.84-7.56-9.25a45.43,45.43,0,0,1-11.14,9.49A.74.74,0,0,1,435.54,341.83Zm25-23.43c0-.62-.21-.78-.7-1.15a8.79,8.79,0,0,0-2.84-1.11,6.36,6.36,0,0,1,.54-1.48.48.48,0,0,1,.45-.25,21,21,0,0,1,5.26,1c.45.16.62.33.62.66v14.18h1.89c1.6,0,4.23-.41,4.64-.41.58,0,.78.08.78.57a10.73,10.73,0,0,1-.49,2.43h-6.82V347c0,1.73-.29,4.65-.46,6,0,.38-.12.62-.45.7a7.37,7.37,0,0,1-2.42,0Z" transform="translate(-3.13 -4.19)"/></g><g class="cls-3"><path d="M436.52,429.63a9.32,9.32,0,0,1-1.15-1.77c5.76-3,12.74-9.16,15.42-14.88H443.1a8.46,8.46,0,0,0-3,.58,9.84,9.84,0,0,1-2.67-1.81.53.53,0,0,1-.21-.37,5.08,5.08,0,0,1,.62-1.44,28.36,28.36,0,0,0,5,.25h7.77c1,0,2.75-.17,3.58-.17s1.23.66.86,1.61a25.67,25.67,0,0,1-1.48,3.08h8.55v-5.59c0-.62-.2-.78-.7-1.15a8.63,8.63,0,0,0-2.83-1.11,5.88,5.88,0,0,1,.53-1.4.49.49,0,0,1,.45-.25,20.9,20.9,0,0,1,5.26,1c.46.16.62.33.62.66v14.67c0,1.73-.29,4.65-.45,6.05,0,.37-.13.61-.45.7a8,8,0,0,1-2.43,0v-4.48H451.73a11.13,11.13,0,0,1-.49-2.39c0-.49.2-.57.78-.57.41,0,3,.28,4.65.28h5.42v-3.78H451.86a41.4,41.4,0,0,1-14.47,12.33A.81.81,0,0,1,436.52,429.63ZM461.68,433H449.1a9.58,9.58,0,0,0-3.37.66,11,11,0,0,1-2.8-2c-.2-.21-.28-.33-.28-.5a4.28,4.28,0,0,1,.65-1.39,20.92,20.92,0,0,0,5.27.45h10.68c1,0,3.7-.17,4.73-.17.66,0,1,.29,1,1.11v6.46c0,1.72-.29,4.64-.45,6,0,.37-.13.62-.45.7a8,8,0,0,1-2.43,0Z" transform="translate(-3.13 -4.19)"/></g><g class="cls-3"><path d="M435.71,514.48c0-5.92,4.07-9.9,9.86-9.9s9.87,4,9.87,9.9-4.07,9.91-9.87,9.91S435.71,520.4,435.71,514.48Zm16.36,0c0-4.36-2.76-7.11-6.5-7.11s-6.49,2.75-6.49,7.11,2.75,7.11,6.49,7.11S452.07,518.88,452.07,514.48Zm9.41-11.55c0-.62-.21-.78-.7-1.15a8.61,8.61,0,0,0-2.84-1.11,6.86,6.86,0,0,1,.54-1.48.49.49,0,0,1,.45-.25,20.9,20.9,0,0,1,5.26,1c.45.16.62.33.62.66v30.95c0,1.73-.29,4.65-.45,6,0,.37-.13.62-.45.7a7.44,7.44,0,0,1-2.43,0Z" transform="translate(-3.13 -4.19)"/></g><g class="cls-3"><path d="M339.57,141.11c0-4.9,4-8.51,9.41-8.51s9.41,3.61,9.41,8.51-4,8.5-9.41,8.5S339.57,146,339.57,141.11Zm13,26.22a32.91,32.91,0,0,0,3.57-3.12l-4.35-4.32a46.84,46.84,0,0,1-8.88,7.73.63.63,0,0,1-.74,0,7.5,7.5,0,0,1-1.2-1.32c3.91-2.87,9.09-7.72,10.2-10.85.29-.82-1-1.56-2.47-2a6.87,6.87,0,0,1,.78-1.28.45.45,0,0,1,.33-.16,12.54,12.54,0,0,1,4.77,1.6,1.5,1.5,0,0,1,.29,1.85,11.1,11.1,0,0,1-1.61,2.67l5.1,3.74c2-2.3,3.54-4.68,3.78-6.2.13-.87-.78-1.57-2.3-2a6.77,6.77,0,0,1,.78-1.27.46.46,0,0,1,.33-.17,13.29,13.29,0,0,1,4.56,1.65,1.55,1.55,0,0,1,.33,1.85,15.17,15.17,0,0,1-1.89,3.37c2.51,2.05,4.94,4,7.44,6a.51.51,0,0,1,.09.7,9.82,9.82,0,0,1-2.1,1.93c-2.26-2.26-4.56-4.52-6.87-6.74a36.31,36.31,0,0,1-8.05,7.65.63.63,0,0,1-.74,0A11.26,11.26,0,0,1,352.56,167.33ZM355,141.11a6,6,0,1,0-6,5.79A5.87,5.87,0,0,0,355,141.11Zm9.91-8.39c0-.62-.21-.78-.7-1.15a8.61,8.61,0,0,0-2.84-1.11,6,6,0,0,1,.54-1.4.49.49,0,0,1,.45-.25,20.9,20.9,0,0,1,5.26,1c.45.17.62.33.62.66V145c0,1.73-.29,4.64-.45,6,0,.37-.13.62-.45.7a7.73,7.73,0,0,1-2.43,0Z" transform="translate(-3.13 -4.19)"/></g><g class="cls-3"><path d="M336.78,242.2a.82.82,0,0,1-.25-.49,3.91,3.91,0,0,1,.74-1.32,39.08,39.08,0,0,0,7.32.45H365.8c3.16,0,6.53-.37,7.07-.37s.78.09.78.58a13.62,13.62,0,0,1-.49,2.71c-1.93-.08-4.28-.2-6.37-.2H345.12a16.46,16.46,0,0,0-4.6.86A9.7,9.7,0,0,1,336.78,242.2Zm7.93-8.43v-6.66c0-.61-.08-.9-.45-1.15a4.7,4.7,0,0,0-2.3-.74,4.21,4.21,0,0,1,.29-1.35.46.46,0,0,1,.45-.25,18.39,18.39,0,0,1,4.77.57c.45.17.61.37.61.7v8.88h13.81c1.15,0,4.11-.33,4.57-.33s.7.09.7.5a11.36,11.36,0,0,1-.46,2.59H347.47C345.49,236.53,344.71,235.66,344.71,233.77Zm.7,22.24v-5.38c0-.62-.08-.91-.45-1.15a4.7,4.7,0,0,0-2.3-.74,4.63,4.63,0,0,1,.28-1.36.48.48,0,0,1,.46-.25,18.26,18.26,0,0,1,4.76.58c.46.16.62.37.62.7V256h14.39c1.15,0,4.11-.33,4.56-.33s.7.08.7.5a11.85,11.85,0,0,1-.45,2.59H348.16C346.19,258.77,345.41,257.9,345.41,256Z" transform="translate(-3.13 -4.19)"/></g><g class="cls-3"><path d="M337.18,430.66c3.7-3.49,11.23-13.48,11.23-17.43,0-.9-1.24-1.64-2.68-2.22a8.18,8.18,0,0,1,.83-1.23.4.4,0,0,1,.33-.17,13.56,13.56,0,0,1,5.09,1.77,1.15,1.15,0,0,1,.46,1.07c0,1.27-1.07,3.66-2.64,6.37,3.38,3.74,6.38,7,9.58,10.2a.56.56,0,0,1,0,.86,16.15,16.15,0,0,1-2.09,1.93c-3-3.7-5.84-7.11-8.92-10.69-2.8,4.44-6.46,9.13-8.72,10.9a.7.7,0,0,1-.94,0A10.72,10.72,0,0,1,337.18,430.66Zm26.44-21.46c0-.62-.21-.78-.7-1.15a8.79,8.79,0,0,0-2.84-1.11,6.36,6.36,0,0,1,.54-1.48.48.48,0,0,1,.45-.25,21,21,0,0,1,5.26,1c.45.16.62.33.62.66V421h1.89c1.6,0,4.23-.41,4.64-.41.58,0,.78.08.78.57a10.73,10.73,0,0,1-.49,2.43H367v14.18c0,1.73-.29,4.65-.46,6.05,0,.37-.12.61-.45.69a7.37,7.37,0,0,1-2.42,0Z" transform="translate(-3.13 -4.19)"/></g><g class="cls-3"><path d="M363.62,518.14c-6.91,1.64-16.45,3.08-21.67,3.08-1.72,0-2.3-.86-2.3-2.5V514c0-1.19-1-1.56-2-1.81,0-.37.33-1.77.86-1.77,1,0,3,.29,4,.29h10.23v-4.81h-8.92a8.46,8.46,0,0,0-3,.58,10.16,10.16,0,0,1-2.67-1.81.56.56,0,0,1-.2-.37,4.58,4.58,0,0,1,.61-1.28,28.42,28.42,0,0,0,5,.25h6.78c1,0,3.7-.16,4.73-.16.65,0,1,.28,1,1.11v8.42c0,.46-.2.7-.53.7H343v5.1a107.15,107.15,0,0,0,20.64-2.8V502.85c0-.62-.21-.78-.7-1.15a8.57,8.57,0,0,0-2.84-1.11,5.46,5.46,0,0,1,.54-1.4.48.48,0,0,1,.45-.25,21,21,0,0,1,5.26,1c.45.16.62.33.62.66V510h1.89c1.6,0,4.23-.41,4.64-.41.58,0,.78.08.78.58a10.76,10.76,0,0,1-.49,2.42H367v3.08c0,1.73-.29,4.65-.46,6.05,0,.37-.12.61-.45.7a8,8,0,0,1-2.42,0Zm-17.23,17v-7.24c0-1.11-.9-1.64-2-1.89,0-.37.2-1.72.74-1.72,1,0,3.12.28,4.19.28h11.47c1,0,3.7-.16,4.73-.16.66,0,1,.29,1,1.11V536.1a1.12,1.12,0,0,1-1.24,1.28H348.2C347.09,537.38,346.39,536.72,346.39,535.16Zm16.86-.49v-7.36H349.68v7.36Z" transform="translate(-3.13 -4.19)"/></g><g class="cls-3"><path d="M339.16,608.17c0-5.92,4.07-9.9,9.86-9.9s9.87,4,9.87,9.9-4.07,9.91-9.87,9.91S339.16,614.09,339.16,608.17Zm16.36,0c0-4.35-2.76-7.11-6.5-7.11s-6.49,2.76-6.49,7.11,2.75,7.11,6.49,7.11S355.52,612.57,355.52,608.17Zm9.41-11.55c0-.62-.21-.78-.7-1.15a8.61,8.61,0,0,0-2.84-1.11,6.86,6.86,0,0,1,.54-1.48.49.49,0,0,1,.45-.25,20.9,20.9,0,0,1,5.26,1c.45.16.62.33.62.66v31c0,1.73-.29,4.65-.45,6,0,.37-.13.61-.45.69a7.44,7.44,0,0,1-2.43,0Z" transform="translate(-3.13 -4.19)"/></g><g class="cls-3"><path d="M240.62,135.64c-.21-.21-.29-.33-.29-.5a4,4,0,0,1,.66-1.35,20.8,20.8,0,0,0,5.26.45h4.69v-1.48c0-.94-.66-1.44-2.06-1.77a5.06,5.06,0,0,1,.41-1.31.48.48,0,0,1,.45-.25,21.72,21.72,0,0,1,3.75.66c.49.16.61.25.61.57v3.58h3.83c1.15,0,4.11-.33,4.56-.33s.7.08.7.49a11.17,11.17,0,0,1-.46,2.59c-1.56-.12-3-.12-4.52-.12H246.79a9.62,9.62,0,0,0-3.38.66A10.7,10.7,0,0,1,240.62,135.64Zm3.62,10.11c0-3.74,2.91-7,8-7s8,3.29,8,7-2.92,7-8,7S244.24,149.49,244.24,145.75Zm12.78,0c0-2.3-1.73-4.36-4.77-4.36s-4.77,2.06-4.77,4.36,1.73,4.36,4.77,4.36S257,148.05,257,145.75Zm-6.95,19.36v-6.49c0-1.11-.9-1.65-2-1.89,0-.37.2-1.73.74-1.73,1,0,3.12.29,4.19.29h11.55c1,0,3.7-.17,4.73-.17.66,0,1,.29,1,1.11v9.83a1.11,1.11,0,0,1-1.24,1.27H251.88C250.77,167.33,250.07,166.67,250.07,165.11ZM267,164.7v-6.78H253.36v6.78Zm.37-32c0-.62-.21-.78-.7-1.15a8.61,8.61,0,0,0-2.84-1.11,6,6,0,0,1,.54-1.4.49.49,0,0,1,.45-.25,20.9,20.9,0,0,1,5.26,1c.45.17.62.33.62.66v16.15c0,1.73-.29,4.65-.45,6,0,.37-.13.61-.45.7a8,8,0,0,1-2.43,0Z" transform="translate(-3.13 -4.19)"/></g><g class="cls-3"><path d="M239.22,239.45a.85.85,0,0,1-.25-.5,3.86,3.86,0,0,1,.74-1.27,39.08,39.08,0,0,0,7.32.45h21.21c3.16,0,6.54-.37,7.07-.37s.78.08.78.58a13.3,13.3,0,0,1-.49,2.67c-1.93-.08-4.28-.21-6.37-.21H247.56a16.14,16.14,0,0,0-4.6.87A10,10,0,0,1,239.22,239.45Zm7.93-7.49V226.5c0-1.28-1.15-1.65-2.38-1.81,0-.41.2-1.77.9-1.77,1,0,3.41.29,4.52.29h13.36c1.15,0,4.11-.33,4.57-.33s.69.08.69.49a10.9,10.9,0,0,1-.45,2.55H250.52V232h13.65c1.15,0,4.11-.33,4.56-.33s.7.08.7.49a11,11,0,0,1-.45,2.55H249.91C247.93,234.72,247.15,233.85,247.15,232Zm.78,25.45v-3.58c0-1.19-1-1.56-2-1.81,0-.37.33-1.6.86-1.6s2.22.12,3.21.12h16.15v-3.7H252.37a10.45,10.45,0,0,0-3.37.46,9.5,9.5,0,0,1-3-1.85.56.56,0,0,1-.2-.37c0-.25.45-.82.69-1.15a20.81,20.81,0,0,0,5.27.37h11.92c1,0,3.7-.17,4.72-.17.66,0,1,.29,1,1.11v7.15c0,.46-.2.7-.53.7H251.26V257h13.81c1.57,0,4.69-.33,5.1-.33.58,0,.78.08.78.58a10.13,10.13,0,0,1-.45,2.38H249.74C248.63,259.63,247.93,259,247.93,257.41Z" transform="translate(-3.13 -4.19)"/></g><g class="cls-3"><path d="M241.64,341.83a13.34,13.34,0,0,1-1.15-1.68c5.51-3.54,12.95-10.61,15.54-17.06h-7.89a8.45,8.45,0,0,0-3,.57,10.06,10.06,0,0,1-2.68-1.81.54.54,0,0,1-.2-.37,4.85,4.85,0,0,1,.62-1.39,29.36,29.36,0,0,0,5,.24h7.77c1,0,2.75-.16,3.57-.16s1.11.66.87,1.6a25.42,25.42,0,0,1-4.69,8.59c3.13,3.46,4.85,5.31,8,8.47a.56.56,0,0,1,0,.86,16.31,16.31,0,0,1-2.1,1.94c-3-3.79-4.69-5.84-7.56-9.25a45.43,45.43,0,0,1-11.14,9.49A.74.74,0,0,1,241.64,341.83Zm25.53-23.43c0-.62-.21-.78-.7-1.15a8.61,8.61,0,0,0-2.84-1.11,6.86,6.86,0,0,1,.54-1.48.49.49,0,0,1,.45-.25,20.9,20.9,0,0,1,5.26,1c.45.16.62.33.62.66V347c0,1.73-.29,4.65-.45,6,0,.38-.13.62-.45.7a7.44,7.44,0,0,1-2.43,0Z" transform="translate(-3.13 -4.19)"/></g><g class="cls-3"><path d="M242.09,428.4V414.67c0-1.11-.9-1.65-2-1.89,0-.37.2-1.73.74-1.73,1,0,3.12.29,4.19.29h8.8c1,0,3.7-.17,4.72-.17.66,0,1,.29,1,1.11v17.06a1.12,1.12,0,0,1-1.23,1.28H243.9C242.79,430.62,242.09,430,242.09,428.4Zm14.18-.54V414.09H245.38v13.77Zm9.79-18.66c0-.62-.21-.78-.7-1.15a8.79,8.79,0,0,0-2.84-1.11,6.36,6.36,0,0,1,.54-1.48.48.48,0,0,1,.45-.25,21,21,0,0,1,5.26,1c.45.16.62.33.62.66V421h1.89c1.6,0,4.23-.41,4.64-.41.58,0,.78.08.78.57a10.73,10.73,0,0,1-.49,2.43h-6.82v14.18c0,1.73-.29,4.65-.46,6.05,0,.37-.12.61-.45.69a7.37,7.37,0,0,1-2.42,0Z" transform="translate(-3.13 -4.19)"/></g><g class="cls-3"><path d="M42.8,157.55a.82.82,0,0,1-.25-.5,3.86,3.86,0,0,1,.74-1.27,39.08,39.08,0,0,0,7.32.45H67.26a163,163,0,0,0,2.26-19.61H54.84a10.11,10.11,0,0,0-3.33.58,11.25,11.25,0,0,1-3.08-2,.74.74,0,0,1-.25-.5,4,4,0,0,1,.7-1.27,23.73,23.73,0,0,0,5.67.45H68.16c1,0,3-.2,4-.2.66,0,1,.32,1,1.15a124.59,124.59,0,0,1-3,21.41h1.6c3.16,0,6.54-.37,7.07-.37s.78.09.78.58a14,14,0,0,1-.49,2.75c-1.93-.08-4.28-.2-6.37-.2H51.14a16.46,16.46,0,0,0-4.6.86A9.87,9.87,0,0,1,42.8,157.55Z" transform="translate(-3.13 -4.19)"/></g><g class="cls-3"><path d="M71,245c-7,1.65-16.94,3.13-22.16,3.13-1.72,0-2.3-.86-2.3-2.51v-6.91c0-1.19-1-1.56-2-1.8,0-.37.33-1.77.86-1.77,1,0,3,.29,4,.29h10v-6.09H50.68a8.46,8.46,0,0,0-3,.58A10.16,10.16,0,0,1,45,228.06a.56.56,0,0,1-.2-.37,5.13,5.13,0,0,1,.61-1.4,28.42,28.42,0,0,0,5,.25h6.53c1,0,3.7-.17,4.73-.17.66,0,1,.29,1,1.11v10c0,.45-.21.7-.54.7H49.82v7.07A112.08,112.08,0,0,0,71,242.45V224.81c0-.62-.21-.78-.7-1.15a8.61,8.61,0,0,0-2.84-1.11,6.86,6.86,0,0,1,.54-1.48.49.49,0,0,1,.45-.25,20.9,20.9,0,0,1,5.26,1c.45.16.62.33.62.66v30.95c0,1.73-.29,4.65-.45,6.05,0,.37-.13.61-.45.69a7.44,7.44,0,0,1-2.43,0Z" transform="translate(-3.13 -4.19)"/></g><g class="cls-3"><path d="M42.8,343.31a.82.82,0,0,1-.25-.49,3.67,3.67,0,0,1,.74-1.27,39.08,39.08,0,0,0,7.32.45h7.64v-8.72c0-1.11-1-1.56-2.67-2a5,5,0,0,1,.45-1.44.48.48,0,0,1,.46-.25,21,21,0,0,1,4.52.62c.45.12.57.25.57.58V342H71.82c3.16,0,6.54-.37,7.07-.37s.78.08.78.57a13.91,13.91,0,0,1-.49,2.76c-1.93-.09-4.28-.21-6.37-.21H51.14a16.46,16.46,0,0,0-4.6.86A9.87,9.87,0,0,1,42.8,343.31Zm25.69-4.48a111,111,0,0,0,2-16.81H54.72a10,10,0,0,0-3.33.57,11,11,0,0,1-3.08-2,.68.68,0,0,1-.25-.49,4,4,0,0,1,.7-1.28,23.68,23.68,0,0,0,5.67.45H69.11c1,0,3-.2,4-.2.66,0,1,.33,1,1.15a87.13,87.13,0,0,1-2.67,18.42.55.55,0,0,1-.62.49A11,11,0,0,1,68.49,338.83Z" transform="translate(-3.13 -4.19)"/></g><g class="cls-3"><path d="M338.34,701.35c0-5.92,3.94-9.9,9.74-9.9s9.74,4,9.74,9.9-3.95,9.91-9.74,9.91S338.34,707.27,338.34,701.35Zm16.11,0c0-4.36-2.71-7.11-6.37-7.11s-6.37,2.75-6.37,7.11,2.71,7.11,6.37,7.11S354.45,705.71,354.45,701.35Zm9.17-11.55c0-.62-.21-.78-.7-1.15a8.79,8.79,0,0,0-2.84-1.11,6.36,6.36,0,0,1,.54-1.48.48.48,0,0,1,.45-.25,21,21,0,0,1,5.26,1c.45.16.62.33.62.66v9.37h1.8c1.61,0,4.24-.41,4.65-.41.58,0,.78.08.78.57a11.31,11.31,0,0,1-.49,2.43H367v6.45h1.89c1.6,0,4.23-.41,4.64-.41.58,0,.78.09.78.58a10.76,10.76,0,0,1-.49,2.42H367v9.95c0,1.73-.29,4.65-.46,6,0,.37-.12.62-.45.7a7.37,7.37,0,0,1-2.42,0Z" transform="translate(-3.13 -4.19)"/></g><g class="cls-3"><path d="M44.36,514.48c0-5.92,3.94-9.9,9.74-9.9s9.74,4,9.74,9.9-4,9.91-9.74,9.91S44.36,520.4,44.36,514.48Zm16.11,0c0-4.36-2.71-7.11-6.37-7.11s-6.37,2.75-6.37,7.11,2.71,7.11,6.37,7.11S60.47,518.84,60.47,514.48Zm9.17-11.55c0-.62-.21-.78-.7-1.15a8.79,8.79,0,0,0-2.84-1.11,6.36,6.36,0,0,1,.54-1.48.48.48,0,0,1,.45-.25,21,21,0,0,1,5.26,1c.45.16.62.33.62.66v14.18h1.89c1.6,0,4.23-.41,4.64-.41.58,0,.78.08.78.57a10.73,10.73,0,0,1-.49,2.43H73v14.18c0,1.73-.29,4.65-.46,6,0,.37-.12.62-.45.7a7.37,7.37,0,0,1-2.42,0Z" transform="translate(-3.13 -4.19)"/></g><g class="cls-3"><path d="M42.8,619.73a.82.82,0,0,1-.25-.49,3.79,3.79,0,0,1,.74-1.28,39.08,39.08,0,0,0,7.32.45H71.82c3.16,0,6.54-.37,7.07-.37s.78.09.78.58a14,14,0,0,1-.49,2.75c-1.93-.08-4.28-.2-6.37-.2H51.14a16.46,16.46,0,0,0-4.6.86A9.87,9.87,0,0,1,42.8,619.73Zm5.51-9.21c-.21-.2-.29-.33-.29-.49a3.59,3.59,0,0,1,.66-1.24,20.36,20.36,0,0,0,5.26.46h1V598.31h-.53a13.72,13.72,0,0,0-3.54.49,16,16,0,0,1-2.63-1.89.63.63,0,0,1-.28-.49,3.78,3.78,0,0,1,.65-1.23,20.88,20.88,0,0,0,5.27.45H69.27c1.15,0,4.11-.21,4.56-.21s.7.09.7.5a10.69,10.69,0,0,1-.45,2.51c-1.56-.13-3-.13-4.52-.13H68.37v10.94h.82c1.15,0,4.11-.21,4.56-.21s.7.08.7.49A11.14,11.14,0,0,1,74,612c-1.56-.12-3-.12-4.52-.12h-15a9.35,9.35,0,0,0-3.37.66A11.88,11.88,0,0,1,48.31,610.52Zm16.85-1.27V598.31h-7v10.94Z" transform="translate(-3.13 -4.19)"/></g><g class="cls-3"><path d="M45.42,713.2a13.34,13.34,0,0,1-1.15-1.68c5.51-3.54,12.95-10.61,15.54-17.06H51.92a8.41,8.41,0,0,0-3,.57,10.28,10.28,0,0,1-2.68-1.8.59.59,0,0,1-.2-.37,4.78,4.78,0,0,1,.62-1.4,29.36,29.36,0,0,0,5,.24H59.4c1,0,2.75-.16,3.57-.16s1.11.66.87,1.6a25.42,25.42,0,0,1-4.69,8.59c3.13,3.46,4.85,5.31,8,8.47a.58.58,0,0,1,0,.87,17,17,0,0,1-2.1,1.93c-3-3.78-4.69-5.84-7.56-9.25a45.43,45.43,0,0,1-11.14,9.49A.74.74,0,0,1,45.42,713.2ZM71,689.77c0-.62-.21-.78-.7-1.15a8.61,8.61,0,0,0-2.84-1.11A6.86,6.86,0,0,1,68,686a.49.49,0,0,1,.45-.25,20.9,20.9,0,0,1,5.26,1c.45.17.62.33.62.66v31c0,1.73-.29,4.65-.45,6,0,.37-.13.61-.45.69a7.44,7.44,0,0,1-2.43,0Z" transform="translate(-3.13 -4.19)"/></g><g class="cls-3"><path d="M45.67,803.48V789.75c0-1.11-.9-1.65-2-1.89,0-.37.2-1.73.74-1.73,1,0,3.12.29,4.19.29h8.8c1,0,3.7-.17,4.72-.17.66,0,1,.29,1,1.11v17.06a1.12,1.12,0,0,1-1.23,1.28H47.48C46.37,805.7,45.67,805,45.67,803.48Zm14.18-.54V789.17H49v13.77Zm9.79-18.66c0-.62-.21-.78-.7-1.15A8.79,8.79,0,0,0,66.1,782a6.36,6.36,0,0,1,.54-1.48.48.48,0,0,1,.45-.25,21,21,0,0,1,5.26,1c.45.17.62.33.62.66v14.18h1.89c1.6,0,4.23-.41,4.64-.41.58,0,.78.08.78.57a10.73,10.73,0,0,1-.49,2.43H73v14.18c0,1.73-.29,4.65-.46,6.05,0,.37-.12.61-.45.69a7.37,7.37,0,0,1-2.42,0Z" transform="translate(-3.13 -4.19)"/></g></svg>