<?xml version="1.0" encoding="utf-8"?>
<!-- Generator: Adobe Illustrator 26.0.0, SVG Export Plug-In . SVG Version: 6.00 Build 0)  -->
<svg version="1.1" id="Layer_1" xmlns="http://www.w3.org/2000/svg" xmlns:xlink="http://www.w3.org/1999/xlink" x="0px" y="0px"
	 viewBox="0 0 711 952" style="enable-background:new 0 0 711 952;" xml:space="preserve">
<style type="text/css">
	.st0{fill:none;stroke:#000000;stroke-width:2;stroke-miterlimit:10;}
	.st1{enable-background:new    ;}
	.st2{clip-path:url(#SVGID_00000060736338260835636220000015278845980176862652_);}
	.st3{fill:none;stroke:#000000;stroke-width:1.87;stroke-miterlimit:10;}
</style>
<line class="st0" x1="654.3" y1="431.7" x2="654.3" y2="4.2"/>
<g class="st1">
	<path d="M680.7,10.1c-0.2-0.2-0.2-0.3-0.2-0.4c0-0.2,0.3-0.8,0.6-1.1c1.2,0.4,3.2,0.4,4.4,0.4h3.9V7.7c0-0.8-0.6-1.2-1.7-1.5
		c0.1-0.4,0.2-0.9,0.3-1.1c0.1-0.2,0.2-0.2,0.4-0.2c0.5,0,2.3,0.3,3.1,0.6c0.4,0.1,0.5,0.2,0.5,0.5v3h3.2c1,0,3.5-0.3,3.8-0.3
		c0.4,0,0.6,0.1,0.6,0.4c0,0.4-0.2,1.6-0.4,2.2c-1.3-0.1-2.5-0.1-3.8-0.1h-9.6c-0.6,0-2,0.1-2.8,0.6
		C682.2,11.3,681.2,10.6,680.7,10.1z M683.8,18.6c0-3.1,2.5-5.9,6.7-5.9c4.3,0,6.7,2.8,6.7,5.9s-2.5,5.9-6.7,5.9
		C686.2,24.5,683.8,21.7,683.8,18.6z M694.5,18.6c0-1.9-1.5-3.7-4-3.7s-4,1.7-4,3.7s1.5,3.7,4,3.7S694.5,20.5,694.5,18.6z
		 M688.7,34.9v-5.5c0-0.9-0.8-1.4-1.7-1.6c0-0.3,0.2-1.5,0.6-1.5c0.8,0,2.6,0.2,3.5,0.2h9.7c0.9,0,3.1-0.1,4-0.1
		c0.6,0,0.9,0.2,0.9,0.9v8.3c0,0.9-0.5,1.1-1,1.1h-14.4C689.2,36.7,688.7,36.2,688.7,34.9z M702.9,34.5v-5.7h-11.5v5.7H702.9z
		 M703.2,7.6c0-0.5-0.2-0.7-0.6-1c-0.4-0.3-1.4-0.7-2.4-0.9c0.1-0.4,0.3-1,0.4-1.2c0.1-0.2,0.2-0.2,0.4-0.2c1.1,0,3.4,0.4,4.4,0.8
		c0.4,0.1,0.5,0.3,0.5,0.6v13.6c0,1.5-0.2,3.9-0.4,5.1c0,0.3-0.1,0.5-0.4,0.6c-0.4,0.1-1.4,0.1-2,0V7.6z"/>
	<path d="M679.5,56.6c-0.1-0.1-0.2-0.2-0.2-0.4c0-0.2,0.4-0.8,0.6-1.1c2.1,0.3,3.4,0.4,6.1,0.4h17.8c2.7,0,5.5-0.3,5.9-0.3
		c0.5,0,0.7,0.1,0.7,0.5c0,0.4-0.2,1.6-0.4,2.2c-1.6-0.1-3.6-0.2-5.4-0.2h-18.2c-1.2,0-2.5,0.3-3.9,0.7
		C681.5,58.1,680.4,57.5,679.5,56.6z M686.2,50.3v-4.6c0-1.1-1-1.4-2-1.5c0-0.3,0.2-1.5,0.8-1.5c0.9,0,2.9,0.2,3.8,0.2H700
		c1,0,3.5-0.3,3.8-0.3c0.4,0,0.6,0.1,0.6,0.4c0,0.4-0.2,1.6-0.4,2.1h-15v5.1h11.5c1,0,3.5-0.3,3.8-0.3c0.4,0,0.6,0.1,0.6,0.4
		c0,0.4-0.2,1.6-0.4,2.1h-16C686.9,52.7,686.2,51.9,686.2,50.3z M686.9,71.7v-3c0-1-0.8-1.3-1.7-1.5c0-0.3,0.3-1.3,0.7-1.3
		c0.6,0,1.9,0.1,2.7,0.1h13.6v-3.1h-11.6c-0.6,0-1.6,0-2.8,0.4c-1-0.4-1.9-1-2.5-1.6c-0.1-0.1-0.2-0.2-0.2-0.3c0-0.2,0.4-0.7,0.6-1
		c1.2,0.4,3.2,0.3,4.4,0.3h10c0.9,0,3.1-0.1,4-0.1c0.6,0,0.9,0.2,0.9,0.9v6c0,0.4-0.2,0.6-0.4,0.6h-14.9v3.3h11.6
		c1.3,0,3.9-0.3,4.3-0.3c0.5,0,0.7,0.1,0.7,0.5c0,0.4-0.2,1.4-0.4,2h-17.4C687.5,73.6,686.9,73,686.9,71.7z"/>
	<path d="M703.4,91.8h-5.5c-0.5,4.4-3.7,7.2-8.2,7.2c-4.9,0-8.3-3.4-8.3-8.3s3.4-8.3,8.3-8.3c4.5,0,7.7,2.9,8.2,7.2h5.5V81
		c0-0.5-0.2-0.7-0.6-1c-0.4-0.3-1.4-0.7-2.4-0.9c0.1-0.4,0.3-1,0.4-1.2c0.1-0.2,0.2-0.2,0.4-0.2c1.1,0,3.4,0.4,4.4,0.8
		c0.4,0.1,0.5,0.3,0.5,0.6v26c0,1.5-0.2,3.9-0.4,5.1c0,0.3-0.1,0.5-0.4,0.6c-0.4,0.1-1.4,0.1-2,0V91.8z M695.1,90.7
		c0-3.7-2.3-6-5.5-6s-5.5,2.3-5.5,6c0,3.7,2.3,6,5.5,6S695.1,94.4,695.1,90.7z"/>
</g>
<g class="st1">
	<path d="M679.6,134.7c-0.2-0.2-0.2-0.3-0.2-0.4c0-0.2,0.3-0.8,0.6-1.1c1.2,0.4,3.2,0.4,4.4,0.4h4.4v-2.8c0-0.8-0.6-1.2-1.7-1.5
		c0.1-0.4,0.2-0.9,0.3-1.1c0.1-0.2,0.2-0.2,0.4-0.2c0.5,0,2.4,0.3,3.2,0.6c0.4,0.1,0.5,0.2,0.5,0.5v4.6h3.6c1,0,3.5-0.3,3.8-0.3
		c0.4,0,0.6,0.1,0.6,0.4c0,0.4-0.2,1.6-0.4,2.2c-1.3-0.1-2.5-0.1-3.8-0.1h-10.5c-0.6,0-2,0.1-2.8,0.6
		C681,135.8,680.1,135.2,679.6,134.7z M682.6,144.4c0-3.7,2.9-6.5,7.3-6.5s7.3,2.9,7.3,6.5s-2.9,6.5-7.3,6.5
		S682.6,148.1,682.6,144.4z M694.5,144.4c0-2.5-1.8-4.2-4.6-4.2s-4.6,1.8-4.6,4.2c0,2.5,1.8,4.2,4.6,4.2S694.5,146.9,694.5,144.4z
		 M702.3,129.7c0-0.5-0.2-0.7-0.6-1c-0.4-0.3-1.4-0.7-2.4-0.9c0.1-0.4,0.3-1,0.4-1.2c0.1-0.2,0.2-0.2,0.4-0.2c1.1,0,3.4,0.4,4.4,0.8
		c0.4,0.1,0.5,0.3,0.5,0.6V140h1.4c1.3,0,3.6-0.3,3.9-0.3c0.5,0,0.7,0.1,0.7,0.5c0,0.4-0.2,1.4-0.4,2h-5.6v11.6
		c0,1.5-0.2,3.9-0.4,5.1c0,0.3-0.1,0.5-0.4,0.6c-0.4,0.1-1.4,0.1-2,0V129.7z"/>
	<path d="M679.5,187.2c-0.1-0.1-0.2-0.2-0.2-0.4c0-0.2,0.4-0.8,0.6-1.1c2.1,0.3,3.4,0.4,6.1,0.4h6.4v-7.3c0-0.9-0.9-1.3-2.2-1.7
		c0.1-0.4,0.2-1,0.4-1.2c0.1-0.2,0.2-0.2,0.4-0.2c0.9,0,2.7,0.2,3.8,0.5c0.4,0.1,0.5,0.2,0.5,0.5v9.4h8.6c2.7,0,5.5-0.3,5.9-0.3
		c0.5,0,0.7,0.1,0.7,0.5c0,0.4-0.2,1.7-0.4,2.3c-1.6-0.1-3.6-0.2-5.4-0.2h-18.2c-1.2,0-2.5,0.3-3.9,0.7
		C681.5,188.7,680.4,188.1,679.5,187.2z M701.1,183.5c1-5.2,1.4-9.2,1.7-14.1h-13.2c-0.8,0-1.5,0.1-2.8,0.5c-1-0.5-2-1.1-2.6-1.7
		c-0.1-0.1-0.2-0.2-0.2-0.4c0-0.2,0.3-0.8,0.6-1.1c1.4,0.3,2.9,0.4,4.8,0.4h12.3c0.9,0,2.5-0.2,3.4-0.2c0.6,0,0.9,0.3,0.9,1
		c0,3.7-0.8,9.8-2.2,15.5c-0.1,0.3-0.2,0.4-0.5,0.4C702.7,183.7,701.5,183.6,701.1,183.5z"/>
</g>
<g class="st1">
	<path d="M681.9,222c0-4.1,3.4-7.2,7.9-7.2c4.6,0,7.9,3,7.9,7.2c0,4.1-3.4,7.2-7.9,7.2C685.2,229.1,681.9,226.1,681.9,222z
		 M692.8,244c0.9-0.7,2-1.6,3-2.6l-3.7-3.6c-2.3,2.6-5.5,5.3-7.5,6.5c-0.2,0.1-0.4,0.1-0.6,0c-0.2-0.2-0.8-0.8-1-1.1
		c3.3-2.4,7.6-6.5,8.6-9.1c0.2-0.7-0.8-1.3-2.1-1.7c0.2-0.4,0.4-0.8,0.7-1.1c0.1-0.1,0.2-0.1,0.3-0.1c0.9,0,3.2,0.8,4,1.3
		c0.5,0.4,0.4,1,0.2,1.6c-0.2,0.7-0.7,1.4-1.3,2.2l4.3,3.1c1.7-1.9,3-3.9,3.2-5.2c0.1-0.7-0.7-1.3-1.9-1.7c0.2-0.4,0.4-0.8,0.7-1.1
		c0.1-0.1,0.2-0.1,0.3-0.1c0.7,0,3.1,0.8,3.8,1.4c0.5,0.4,0.4,1,0.3,1.6c-0.3,0.8-0.8,1.8-1.6,2.8c2.1,1.7,4.1,3.4,6.3,5
		c0.2,0.1,0.2,0.4,0.1,0.6c-0.3,0.4-1.1,1.2-1.8,1.6c-1.9-1.9-3.8-3.8-5.8-5.7c-2,2.6-4.8,5.2-6.8,6.4c-0.2,0.1-0.4,0.1-0.6,0
		C693.5,244.9,693,244.3,692.8,244z M694.9,222c0-2.7-2.2-4.9-5.1-4.9c-2.9,0-5.1,2.2-5.1,4.9s2.2,4.9,5.1,4.9
		C692.7,226.9,694.9,224.7,694.9,222z M703.2,214.9c0-0.5-0.2-0.7-0.6-1c-0.4-0.3-1.4-0.7-2.4-0.9c0.1-0.4,0.3-1,0.4-1.2
		c0.1-0.2,0.2-0.2,0.4-0.2c1.1,0,3.4,0.4,4.4,0.8c0.4,0.1,0.5,0.3,0.5,0.6v12.2c0,1.5-0.2,3.9-0.4,5.1c0,0.3-0.1,0.5-0.4,0.6
		c-0.4,0.1-1.4,0.1-2,0V214.9z"/>
	<path d="M679.5,264.7c-0.1-0.1-0.2-0.2-0.2-0.4c0-0.2,0.4-0.8,0.6-1.1c2.1,0.3,3.4,0.4,6.1,0.4h17.8c2.7,0,5.5-0.3,5.9-0.3
		c0.5,0,0.7,0.1,0.7,0.5c0,0.4-0.2,1.6-0.4,2.2c-1.6-0.1-3.6-0.2-5.4-0.2h-18.2c-1.2,0-2.5,0.3-3.9,0.7
		C681.5,266.1,680.4,265.6,679.5,264.7z M686.9,279v-2.8c0-1-0.8-1.3-1.7-1.5c0-0.3,0.3-1.3,0.7-1.3c0.6,0,1.9,0.1,2.7,0.1h13.6
		v-2.9h-11.6c-0.6,0-1.6,0-2.8,0.4c-1-0.4-1.9-1-2.5-1.6c-0.1-0.1-0.2-0.2-0.2-0.3c0-0.2,0.4-0.7,0.6-1c1.2,0.4,3.2,0.3,4.4,0.3h10
		c0.9,0,3.1-0.1,4-0.1c0.6,0,0.9,0.2,0.9,0.9v5.8c0,0.4-0.2,0.6-0.4,0.6h-14.9v3.1h11.6c1.3,0,3.9-0.3,4.3-0.3
		c0.5,0,0.7,0.1,0.7,0.5c0,0.4-0.2,1.4-0.4,2h-17.4C687.5,280.9,686.9,280.3,686.9,279z M687.2,255.3c0-3.1,2.9-6.2,8.1-6.2
		c5.2,0,8.1,3.1,8.1,6.2c0,3.1-2.9,6.2-8.1,6.2C690,261.5,687.2,258.3,687.2,255.3z M700.5,255.3c0-2-1.8-3.9-5.3-3.9
		c-3.5,0-5.3,1.9-5.3,3.9c0,2,1.8,3.9,5.3,3.9C698.8,259.2,700.5,257.3,700.5,255.3z"/>
</g>
<g class="st1">
	<path d="M683,316.9v-11.6c0-0.5-0.1-0.8-0.4-1c-0.4-0.3-1.1-0.6-1.9-0.7c0.1-0.4,0.3-0.9,0.4-1.1c0.1-0.2,0.2-0.2,0.4-0.2
		c1.1,0,2.9,0.3,3.9,0.7c0.4,0.1,0.5,0.3,0.5,0.6v13.1c3.5,0,9.4-0.6,14.1-1.6c0.1,0.3,0.4,1.2,0.4,1.6c0,0.2-0.1,0.4-0.3,0.5
		c-4.7,1.1-11.4,1.9-15,1.9C683.5,319,683,318.3,683,316.9z M703.4,310.4h-9.5c-0.2-0.7-0.4-1.6-0.4-2c0-0.4,0.2-0.5,0.7-0.5
		c0.3,0,2.6,0.2,3.9,0.2h5.4v-7.7c0-0.5-0.2-0.7-0.6-1c-0.4-0.3-1.4-0.7-2.4-0.9c0.1-0.4,0.3-1,0.4-1.2c0.1-0.2,0.2-0.2,0.4-0.2
		c1.1,0,3.4,0.4,4.4,0.8c0.4,0.1,0.5,0.3,0.5,0.6v26c0,1.5-0.2,3.9-0.4,5.1c0,0.3-0.1,0.5-0.4,0.6c-0.4,0.1-1.4,0.1-2,0V310.4z"/>
	<path d="M698.3,347.9H695c-0.4,4.5-3.3,7.1-7.2,7.1c-4.2,0-7.3-3.1-7.3-8.3c0-5.1,3.1-8.3,7.3-8.3c3.9,0,6.8,2.7,7.2,7.1h3.2v-6.8
		c0-0.6-0.1-0.8-0.4-1c-0.4-0.2-1.2-0.5-2-0.7c0.1-0.4,0.3-0.9,0.4-1.1c0.1-0.2,0.3-0.2,0.4-0.2c1,0,2.7,0.3,3.7,0.6
		c0.4,0.1,0.5,0.3,0.5,0.6V360c0,1.5-0.2,3.9-0.3,5.1c0,0.3-0.1,0.5-0.4,0.6c-0.4,0.1-1.3,0.1-2,0V347.9z M692.4,346.8
		c0-3.7-2-5.9-4.6-5.9c-2.6,0-4.6,2.2-4.6,5.9c0,3.7,2,5.9,4.6,5.9C690.4,352.7,692.4,350.5,692.4,346.8z M704.1,337
		c0-0.5-0.2-0.7-0.6-1c-0.4-0.3-1.3-0.7-2.3-0.9c0.1-0.4,0.3-1,0.4-1.2c0.1-0.2,0.2-0.2,0.4-0.2c1.1,0,3.2,0.4,4.2,0.8
		c0.4,0.1,0.5,0.3,0.5,0.6v26c0,1.5-0.2,3.9-0.3,5.1c0,0.3-0.1,0.5-0.4,0.6c-0.4,0.1-1.4,0.1-2,0V337z"/>
	<path d="M697.9,385.8h-8.1c-2.5,3.3-5.5,6.3-7.9,7.8c-0.2,0.2-0.6,0.1-0.8,0c-0.2-0.2-0.8-1-1.1-1.4c4.1-3.1,9.4-9,11.1-14.1H686
		c-0.9,0-1.8,0.1-2.7,0.4c-0.7-0.3-2-1.1-2.4-1.5c-0.1-0.1-0.2-0.2-0.2-0.3c0-0.2,0.3-0.9,0.5-1.1c1.3,0.2,2.8,0.2,4.2,0.2h5.1
		c0.9,0,2.3-0.1,3-0.1c0.7,0,0.9,0.6,0.7,1.3c-0.4,2.1-1.5,4.4-2.9,6.6h6.5v-8.1c0-0.6-0.1-0.8-0.4-1c-0.4-0.2-1.2-0.5-2-0.7
		c0.1-0.4,0.3-0.9,0.4-1.1c0.1-0.2,0.3-0.2,0.4-0.2c1,0,2.7,0.3,3.7,0.6c0.4,0.1,0.5,0.3,0.5,0.6v23.1c0,1.5-0.2,3.9-0.3,5.1
		c0,0.3-0.1,0.5-0.4,0.6c-0.4,0.1-1.3,0.1-2,0V385.8z M704.1,373.6c0-0.5-0.2-0.7-0.6-1c-0.4-0.3-1.3-0.7-2.3-0.9
		c0.1-0.4,0.3-1,0.4-1.2c0.1-0.2,0.2-0.2,0.4-0.2c1.1,0,3.2,0.4,4.2,0.8c0.4,0.1,0.5,0.3,0.5,0.6v26c0,1.5-0.2,3.9-0.3,5.1
		c0,0.3-0.1,0.5-0.4,0.6c-0.4,0.1-1.4,0.1-2,0V373.6z"/>
</g>
<g class="st1">
	<path d="M534.3,149.6v-11.3c0-0.6-0.1-1-0.5-1.2c-0.5-0.3-1.3-0.7-2.3-0.8c0.1-0.5,0.3-1.1,0.5-1.4c0.1-0.2,0.3-0.2,0.5-0.2
		c1.3,0,3.5,0.4,4.6,0.8c0.5,0.2,0.6,0.4,0.6,0.7v13.1c4.2,0,11.2-0.7,16.7-1.9c0.2,0.4,0.5,1.5,0.5,1.9c0,0.3-0.1,0.5-0.4,0.6
		c-5.6,1.3-13.6,2.3-17.8,2.3C534.9,152.1,534.3,151.3,534.3,149.6z M541.7,165.2v-6.9c0-0.6-0.1-0.9-0.5-1.2
		c-0.5-0.3-1.3-0.7-2.3-0.7c0-0.5,0.2-1.1,0.3-1.4c0.1-0.2,0.3-0.2,0.5-0.2c1.3,0,3.6,0.2,4.7,0.6c0.5,0.2,0.6,0.4,0.6,0.7v8.9h12.6
		c1.6,0,4.7-0.5,5.1-0.5c0.6,0,0.8,0.1,0.8,0.6c0,0.5-0.2,1.8-0.5,2.6H544C542.3,167.7,541.7,166.8,541.7,165.2z M558.6,142.9h-11.8
		c-0.2-0.8-0.5-1.9-0.5-2.4s0.2-0.6,0.8-0.6c0.4,0,3,0.3,4.6,0.3h6.8v-6.6c0-0.6-0.2-0.8-0.7-1.2s-1.7-0.9-2.8-1.1
		c0.1-0.5,0.4-1.2,0.5-1.4c0.1-0.2,0.3-0.2,0.5-0.2c1.3,0,4.1,0.5,5.3,1c0.5,0.2,0.6,0.3,0.6,0.7V152c0,1.7-0.3,4.6-0.5,6
		c0,0.4-0.1,0.6-0.5,0.7c-0.5,0.1-1.7,0.2-2.4,0V142.9z"/>
</g>
<g class="st1">
	<path d="M532.3,334c-0.2-0.2-0.9-1-1.3-1.6c5.3-3.3,12.5-9.2,15-13.9H539c-1.1,0-1.9,0.2-3,0.6c-1-0.5-2.3-1.2-2.9-1.8
		c-0.1-0.1-0.2-0.2-0.2-0.4c0-0.2,0.4-1,0.6-1.3c1.6,0.3,3.4,0.3,5,0.3h7.2c0.8,0,3.3-0.2,3.9-0.2c1,0,1.4,0.9,0.9,1.9
		c-1.1,2.1-2.8,4.3-4.8,6.5c2.6,2.2,5.3,4.4,8.1,6.7c0.2,0.2,0.2,0.5,0,0.7c-0.5,0.5-1.5,1.2-2.3,1.6c-2.5-2.4-5-4.8-7.5-7.1
		c-3.6,3.5-7.7,6.6-10.6,8.1C532.9,334.3,532.6,334.3,532.3,334z M540.9,348v-3.4c0-1.2-1-1.6-2-1.8c0-0.4,0.3-1.6,0.9-1.6
		c0.7,0,2.2,0.1,3.2,0.1h14.8v-3.6h-12.6c-0.7,0-1.9,0-3.4,0.5c-1.2-0.5-2.3-1.2-3-1.8c-0.1-0.1-0.2-0.2-0.2-0.4
		c0-0.2,0.5-0.9,0.7-1.2c1.5,0.5,3.8,0.4,5.3,0.4h10.7c1,0,3.7-0.2,4.7-0.2c0.7,0,1,0.3,1,1.1v7.1c0,0.5-0.2,0.7-0.5,0.7h-16.4v3.7
		h12.9c1.6,0,4.7-0.3,5.1-0.3c0.6,0,0.8,0.1,0.8,0.6c0,0.5-0.2,1.6-0.5,2.4h-19.9C541.6,350.2,540.9,349.6,540.9,348z M558.2,325.3
		h-7.1c-0.2-0.8-0.5-1.9-0.5-2.4c0-0.5,0.2-0.6,0.8-0.6c0.4,0,3,0.3,4.6,0.3h2.1v-7.1c0-0.6-0.2-0.8-0.7-1.2s-1.7-0.9-2.8-1.1
		c0.1-0.5,0.4-1.2,0.5-1.4c0.1-0.2,0.3-0.2,0.5-0.2c1.3,0,4.1,0.5,5.3,1c0.5,0.2,0.6,0.3,0.6,0.7v13.3c0,1.7-0.3,4.6-0.5,6
		c0,0.4-0.1,0.6-0.5,0.7c-0.5,0.1-1.7,0.2-2.4,0V325.3z"/>
</g>
<g class="st1">
	<path d="M559.9,421.5h-5.3v13.7c0,1.7-0.2,4.6-0.4,6c0,0.4-0.1,0.6-0.5,0.7c-0.5,0.1-1.6,0.2-2.3,0v-15c-5.8,1.7-12.1,2.7-16.1,2.7
		c-1.7,0-2.3-0.9-2.3-2.5v-13.6c0-1.1-0.9-1.6-2-1.9c0-0.4,0.2-1.7,0.7-1.7c1,0,3.1,0.3,4.2,0.3h6.4c1.2,0,4.1-0.3,4.6-0.3
		c0.5,0,0.7,0.1,0.7,0.5c0,0.5-0.2,1.9-0.5,2.6h-10.9v13.7c3.9,0,9.9-0.7,15.1-2.2v-14.5c0-0.7-0.1-1-0.5-1.2
		c-0.5-0.3-1.4-0.6-2.3-0.9c0.1-0.5,0.4-1.1,0.5-1.4c0.1-0.2,0.3-0.2,0.5-0.2c1.2,0,3.2,0.3,4.4,0.7c0.5,0.2,0.6,0.4,0.6,0.7v11.1
		h5.3v-11c0-0.6-0.2-0.9-0.7-1.2c-0.5-0.4-1.6-0.9-2.7-1.1c0.1-0.5,0.4-1.2,0.5-1.4c0.1-0.2,0.3-0.2,0.5-0.2c1.3,0,3.8,0.5,5,0.9
		c0.5,0.2,0.6,0.3,0.6,0.7v31c0,1.7-0.2,4.6-0.4,6c0,0.4-0.1,0.6-0.5,0.7c-0.5,0.1-1.7,0.2-2.4,0V421.5z"/>
</g>
<g class="st1">
	<path d="M530.8,529.1c-0.1-0.1-0.2-0.3-0.2-0.5c0-0.2,0.5-0.9,0.7-1.3c2.5,0.4,4.1,0.5,7.3,0.5h9.3v-6.1h-7.3
		c-1.1,0-1.8-0.7-1.8-2.2v-4.9c0-1.2-1-1.6-2-1.8c0-0.4,0.3-1.8,0.9-1.8c1,0,3,0.3,4,0.3H557v-4.8h-13.5c-0.7,0-1.9,0.1-3.4,0.5
		c-1.2-0.5-2.3-1.2-3-1.9c-0.1-0.1-0.2-0.2-0.2-0.4c0-0.2,0.5-1,0.7-1.4c1.6,0.3,3,0.4,5.3,0.4h11.7c1,0,3.7-0.2,4.7-0.2
		c0.7,0,1,0.3,1,1.1v8.6c0,0.5-0.2,0.7-0.5,0.7h-17.6v4.9h13.5c1.6,0,4.7-0.3,5.1-0.3c0.6,0,0.8,0.1,0.8,0.6c0,0.5-0.2,1.8-0.5,2.5
		h-9.8v6.1h8.6c3.2,0,6.5-0.4,7.1-0.4c0.6,0,0.8,0.1,0.8,0.6c0,0.5-0.2,2-0.5,2.8c-1.9-0.1-4.3-0.2-6.4-0.2h-21.7
		c-1.5,0-2.9,0.4-4.6,0.9C533.2,530.9,531.8,530.1,530.8,529.1z"/>
</g>
<g class="st1">
	<path d="M433.3,154.3c-0.1-0.1-0.2-0.3-0.2-0.5c0-0.2,0.5-0.9,0.7-1.3c2.5,0.4,4.1,0.5,7.3,0.5h9.2v-2.8c-5-0.5-7.5-3-7.5-5.7
		c0-3,3.1-5.8,9.2-5.8s9.2,2.8,9.2,5.8c0,2.7-2.5,5.2-7.5,5.7v2.8h8.6c3.2,0,6.5-0.4,7.1-0.4c0.6,0,0.8,0.1,0.8,0.6
		s-0.2,1.8-0.5,2.6c-1.9-0.1-4.3-0.2-6.4-0.2h-21.7c-1.5,0-2.9,0.4-4.6,0.9C435.7,155.9,434.4,155.3,433.3,154.3z M437.8,136
		c-0.2-0.2-0.3-0.3-0.3-0.5c0-0.2,0.4-1,0.7-1.4c1.5,0.3,3.3,0.5,4.8,0.5h7.5v-1.3c0-0.9-0.7-1.4-2.1-1.8c0.1-0.5,0.2-1,0.4-1.3
		c0.1-0.2,0.3-0.2,0.5-0.2c0.6,0,2.8,0.4,3.8,0.7c0.5,0.2,0.6,0.2,0.6,0.6v3.4h7c1.2,0,4.1-0.3,4.6-0.3c0.5,0,0.7,0.1,0.7,0.5
		c0,0.5-0.2,1.8-0.5,2.5c-1.6-0.1-3-0.1-4.5-0.1h-16.1c-1.5,0-3,0.2-4.2,0.6C439.7,137.2,438.5,136.6,437.8,136z M442.1,165v-3.5
		c0-0.6-0.1-0.9-0.5-1.2c-0.5-0.3-1.3-0.7-2.3-0.7c0-0.5,0.2-1.1,0.3-1.4c0.1-0.2,0.3-0.2,0.5-0.2c1.3,0,3.6,0.2,4.8,0.6
		c0.5,0.2,0.6,0.4,0.6,0.7v5.8h14.1c1.2,0,4.1-0.3,4.6-0.3c0.5,0,0.7,0.1,0.7,0.5c0,0.5-0.2,1.8-0.5,2.5h-19.5
		C442.9,167.8,442.1,166.9,442.1,165z M457.9,144.5c0-1.6-1.9-3.2-5.9-3.2s-5.9,1.6-5.9,3.2c0,1.6,1.9,3.2,5.9,3.2
		S457.9,146,457.9,144.5z"/>
</g>
<g class="st1">
	<path d="M435.4,250.6c-0.2-0.2-0.8-1.1-1.2-1.7c5.5-3.5,12.9-10.6,15.5-17.1h-7.9c-1.1,0-1.9,0.2-3,0.6c-1-0.5-2-1.2-2.7-1.8
		c-0.1-0.1-0.2-0.2-0.2-0.4c0-0.2,0.4-1.1,0.6-1.4c1.6,0.3,3.4,0.2,5,0.2h7.8c1,0,2.8-0.2,3.6-0.2s1.1,0.7,0.9,1.6
		c-0.7,2.7-2.5,5.7-4.7,8.6c3.1,3.5,4.9,5.3,8,8.5c0.3,0.3,0.2,0.6,0,0.9c-0.5,0.6-1.4,1.4-2.1,1.9c-3-3.8-4.7-5.8-7.6-9.2
		c-3.6,4.1-7.9,7.7-11.1,9.5C436,250.8,435.6,250.8,435.4,250.6z M460.4,227.2c0-0.6-0.2-0.8-0.7-1.2s-1.7-0.9-2.8-1.1
		c0.1-0.5,0.4-1.2,0.5-1.5c0.1-0.2,0.3-0.2,0.5-0.2c1.3,0,4.1,0.5,5.3,1c0.5,0.2,0.6,0.3,0.6,0.7V239h1.9c1.6,0,4.2-0.4,4.6-0.4
		c0.6,0,0.8,0.1,0.8,0.6s-0.2,1.6-0.5,2.4h-6.8v14.2c0,1.7-0.3,4.6-0.5,6c0,0.4-0.1,0.6-0.5,0.7c-0.5,0.1-1.7,0.2-2.4,0V227.2z"/>
</g>
<g class="st1">
	<path d="M436.5,340.3c-0.2-0.2-1-1.4-1.2-1.8c5.5-3.5,13-10.9,15.6-17.3h-8.7c-1.1,0-1.9,0.2-3,0.6c-1-0.5-2-1.2-2.7-1.8
		c-0.1-0.1-0.2-0.2-0.2-0.4c0-0.2,0.4-1.2,0.6-1.4c1.6,0.3,3.4,0.2,5,0.2h8.6c1,0,2.8-0.2,3.6-0.2s1.1,0.7,0.9,1.6
		c-1.9,7.4-11.6,17.2-17.6,20.5C437.2,340.6,436.8,340.6,436.5,340.3z M460.4,316.5c0-0.6-0.2-0.8-0.7-1.2c-0.5-0.4-1.7-0.9-2.8-1.1
		c0.1-0.5,0.4-1.2,0.5-1.5c0.1-0.2,0.3-0.2,0.5-0.2c1.3,0,4.1,0.5,5.3,1c0.5,0.2,0.6,0.3,0.6,0.7v14.2h2.1c1.6,0,4.2-0.4,4.6-0.4
		c0.6,0,0.8,0.1,0.8,0.6s-0.2,1.6-0.5,2.4h-7v14.2c0,1.7-0.3,4.6-0.5,6c0,0.4-0.1,0.6-0.5,0.7c-0.5,0.1-1.7,0.2-2.4,0V316.5z"/>
</g>
<g class="st1">
	<path d="M435.9,516.7c0-5.9,3.9-9.9,9.7-9.9s9.7,4,9.7,9.9c0,5.9-3.9,9.9-9.7,9.9S435.9,522.6,435.9,516.7z M452,516.7
		c0-4.4-2.7-7.1-6.4-7.1s-6.4,2.8-6.4,7.1s2.7,7.1,6.4,7.1S452,521,452,516.7z M461.2,505.1c0-0.6-0.2-0.8-0.7-1.2s-1.7-0.9-2.8-1.1
		c0.1-0.5,0.4-1.2,0.5-1.5c0.1-0.2,0.3-0.2,0.5-0.2c1.3,0,4.1,0.5,5.3,1c0.5,0.2,0.6,0.3,0.6,0.7V517h1.9c1.6,0,4.2-0.4,4.6-0.4
		c0.6,0,0.8,0.1,0.8,0.6s-0.2,1.6-0.5,2.4h-6.8v14.2c0,1.7-0.3,4.6-0.5,6c0,0.4-0.1,0.6-0.5,0.7c-0.5,0.1-1.7,0.2-2.4,0V505.1z"/>
</g>
<g class="st1">
	<path d="M460.8,616.4c-6.8,1.6-15.7,3.1-20.9,3.1c-1.7,0-2.3-0.9-2.3-2.5v-13.2c0-0.6-0.1-1-0.5-1.2c-0.5-0.3-1.3-0.7-2.3-0.8
		c0.1-0.5,0.3-1.1,0.5-1.4c0.1-0.2,0.3-0.2,0.5-0.2c1.3,0,3.5,0.4,4.6,0.8c0.5,0.2,0.6,0.4,0.6,0.7v14.8c5,0,13.9-1.2,19.8-2.6v-16
		c0-0.6-0.2-0.8-0.7-1.2c-0.5-0.4-1.7-0.9-2.8-1.1c0.1-0.5,0.4-1.2,0.5-1.5c0.1-0.2,0.3-0.2,0.5-0.2c1.3,0,4.1,0.5,5.3,1
		c0.5,0.2,0.6,0.3,0.6,0.7v9.4h2c1.6,0,4.2-0.4,4.6-0.4c0.6,0,0.8,0.1,0.8,0.6s-0.2,1.6-0.5,2.4h-6.9v6.5h2.1c1.6,0,4.2-0.4,4.6-0.4
		c0.6,0,0.8,0.1,0.8,0.6s-0.2,1.6-0.5,2.4h-7v9.9c0,1.7-0.3,4.6-0.5,6c0,0.4-0.1,0.6-0.5,0.7c-0.5,0.1-1.7,0.2-2.4,0V616.4z"/>
</g>
<g class="st1">
	<path d="M363,152.2c-6.8,1.6-15.7,3.1-20.9,3.1c-1.7,0-2.3-0.9-2.3-2.5v-13.2c0-0.6-0.1-1-0.5-1.2c-0.5-0.3-1.3-0.7-2.3-0.8
		c0.1-0.5,0.3-1.1,0.5-1.4c0.1-0.2,0.3-0.2,0.5-0.2c1.3,0,3.5,0.4,4.6,0.8c0.5,0.2,0.6,0.4,0.6,0.7v14.8c5,0,13.9-1.2,19.8-2.6v-16
		c0-0.6-0.2-0.8-0.7-1.2c-0.5-0.4-1.7-0.9-2.8-1.1c0.1-0.5,0.4-1.2,0.5-1.5c0.1-0.2,0.3-0.2,0.5-0.2c1.3,0,4.1,0.5,5.3,1
		c0.5,0.2,0.6,0.3,0.6,0.7v14.2h2.1c1.6,0,4.2-0.4,4.6-0.4c0.6,0,0.8,0.1,0.8,0.6s-0.2,1.6-0.5,2.4h-7v14.2c0,1.7-0.3,4.6-0.5,6
		c0,0.4-0.1,0.6-0.5,0.7c-0.5,0.1-1.7,0.2-2.4,0V152.2z"/>
</g>
<g class="st1">
	<path d="M358.6,240.2h-3.9c-0.5,5.3-3.9,8.5-8.6,8.5c-5,0-8.7-3.7-8.7-9.8c0-6.1,3.7-9.8,8.7-9.8c4.6,0,8.1,3.2,8.6,8.5h3.9v-8.1
		c0-0.7-0.1-1-0.5-1.2c-0.5-0.3-1.4-0.6-2.3-0.9c0.1-0.5,0.4-1.1,0.5-1.4c0.1-0.2,0.3-0.2,0.5-0.2c1.2,0,3.2,0.3,4.4,0.7
		c0.5,0.2,0.6,0.4,0.6,0.7v27.5c0,1.7-0.2,4.6-0.4,6c0,0.4-0.1,0.6-0.5,0.7c-0.5,0.1-1.6,0.2-2.3,0V240.2z M351.6,238.9
		c0-4.4-2.4-7-5.5-7s-5.5,2.6-5.5,7c0,4.4,2.4,7,5.5,7S351.6,243.3,351.6,238.9z M365.6,227.2c0-0.6-0.2-0.9-0.7-1.2
		c-0.5-0.4-1.6-0.9-2.7-1.1c0.1-0.5,0.4-1.2,0.5-1.4c0.1-0.2,0.3-0.2,0.5-0.2c1.3,0,3.8,0.5,5,0.9c0.5,0.2,0.6,0.3,0.6,0.7v31
		c0,1.7-0.2,4.6-0.4,6c0,0.4-0.1,0.6-0.5,0.7c-0.5,0.1-1.7,0.2-2.4,0V227.2z"/>
</g>
<g class="st1">
	<path d="M358.2,333.2h-9.7c-2.9,3.9-6.5,7.4-9.4,9.3c-0.3,0.2-0.7,0.2-0.9,0c-0.2-0.2-1-1.2-1.3-1.7c4.9-3.7,11.2-10.7,13.2-16.8
		h-6c-1.1,0-2.1,0.1-3.2,0.5c-0.8-0.4-2.4-1.3-2.9-1.7c-0.1-0.1-0.2-0.2-0.2-0.4c0-0.2,0.4-1.1,0.6-1.4c1.6,0.2,3.4,0.2,5,0.2h6.1
		c1,0,2.8-0.2,3.6-0.2s1.1,0.7,0.9,1.6c-0.5,2.5-1.8,5.2-3.5,7.9h7.8v-9.7c0-0.7-0.1-1-0.5-1.2c-0.5-0.3-1.4-0.6-2.3-0.9
		c0.1-0.5,0.4-1.1,0.5-1.4c0.1-0.2,0.3-0.2,0.5-0.2c1.2,0,3.2,0.3,4.4,0.7c0.5,0.2,0.6,0.4,0.6,0.7V346c0,1.7-0.2,4.6-0.4,6
		c0,0.4-0.1,0.6-0.5,0.7c-0.5,0.1-1.6,0.2-2.3,0V333.2z M365.6,318.6c0-0.6-0.2-0.9-0.7-1.2c-0.5-0.4-1.6-0.9-2.7-1.1
		c0.1-0.5,0.4-1.2,0.5-1.4c0.1-0.2,0.3-0.2,0.5-0.2c1.3,0,3.8,0.5,5,0.9c0.5,0.2,0.6,0.3,0.6,0.7v31c0,1.7-0.2,4.6-0.4,6
		c0,0.4-0.1,0.6-0.5,0.7c-0.5,0.1-1.7,0.2-2.4,0V318.6z"/>
</g>
<g class="st1">
	<path d="M337.7,509.3c-0.2-0.2-0.3-0.3-0.3-0.5c0-0.2,0.4-1,0.7-1.4c1.5,0.5,3.8,0.5,5.3,0.5h4.7v-1.5c0-0.9-0.7-1.4-2.1-1.8
		c0.1-0.5,0.2-1,0.4-1.3c0.1-0.2,0.3-0.2,0.5-0.2c0.6,0,2.8,0.4,3.7,0.7c0.5,0.2,0.6,0.2,0.6,0.6v3.6h3.8c1.2,0,4.1-0.3,4.6-0.3
		c0.5,0,0.7,0.1,0.7,0.5c0,0.5-0.2,1.9-0.5,2.6c-1.6-0.1-3-0.1-4.5-0.1h-11.4c-0.7,0-2.3,0.2-3.4,0.7
		C339.4,510.7,338.3,509.9,337.7,509.3z M341.3,519.4c0-3.7,2.9-7,8-7c5.1,0,8,3.3,8,7c0,3.7-2.9,7-8,7
		C344.2,526.4,341.3,523.2,341.3,519.4z M354.1,519.4c0-2.3-1.7-4.4-4.8-4.4s-4.8,2.1-4.8,4.4c0,2.3,1.7,4.4,4.8,4.4
		S354.1,521.7,354.1,519.4z M347.1,538.8v-6.5c0-1.1-0.9-1.6-2-1.9c0-0.4,0.2-1.7,0.7-1.7c1,0,3.1,0.3,4.2,0.3h11.6
		c1,0,3.7-0.2,4.7-0.2c0.7,0,1,0.3,1,1.1v9.8c0,1-0.6,1.3-1.2,1.3H349C347.8,541,347.1,540.3,347.1,538.8z M364.1,538.4v-6.8h-13.6
		v6.8H364.1z M364.4,506.4c0-0.6-0.2-0.8-0.7-1.2c-0.5-0.4-1.7-0.9-2.8-1.1c0.1-0.5,0.4-1.2,0.5-1.4c0.1-0.2,0.3-0.2,0.5-0.2
		c1.3,0,4.1,0.5,5.3,1c0.5,0.2,0.6,0.3,0.6,0.7v16.2c0,1.7-0.3,4.6-0.5,6c0,0.4-0.1,0.6-0.5,0.7c-0.5,0.1-1.7,0.2-2.4,0V506.4z"/>
</g>
<g class="st1">
	<path d="M336.3,613.5c-0.1-0.1-0.2-0.3-0.2-0.5c0-0.2,0.5-0.9,0.7-1.3c2.5,0.4,4.1,0.5,7.3,0.5h21.2c3.2,0,6.5-0.4,7.1-0.4
		c0.6,0,0.8,0.1,0.8,0.6s-0.2,1.9-0.5,2.7c-1.9-0.1-4.3-0.2-6.4-0.2h-21.7c-1.5,0-2.9,0.4-4.6,0.9
		C338.7,615.2,337.3,614.5,336.3,613.5z M344.2,605.3v-7.6c0-1.3-1.2-1.6-2.4-1.8c0-0.4,0.2-1.8,0.9-1.8c1,0,3.4,0.3,4.5,0.3h13.4
		c1.2,0,4.1-0.3,4.6-0.3c0.5,0,0.7,0.1,0.7,0.5c0,0.5-0.2,1.8-0.5,2.5h-17.8v8.2h13.6c1.2,0,4.1-0.3,4.6-0.3c0.5,0,0.7,0.1,0.7,0.5
		c0,0.5-0.2,1.8-0.5,2.5H347C345,608,344.2,607.2,344.2,605.3z M344.9,626.7v-4.8c0-0.6-0.1-0.9-0.5-1.2c-0.5-0.3-1.3-0.7-2.3-0.7
		c0-0.5,0.2-1.1,0.3-1.4c0.1-0.2,0.3-0.2,0.5-0.2c1.3,0,3.6,0.2,4.8,0.6c0.5,0.2,0.6,0.4,0.6,0.7v7h14.4c1.2,0,4.1-0.3,4.6-0.3
		c0.5,0,0.7,0.1,0.7,0.5c0,0.5-0.2,1.9-0.5,2.6h-19.8C345.7,629.4,344.9,628.6,344.9,626.7z"/>
</g>
<g class="st1">
	<path d="M339.1,706.9c-0.2-0.2-1-1.4-1.2-1.8c5.7-2.8,12.8-9.1,15.5-14.1h-7.8c-1.1,0-1.9,0.2-3,0.6c-1-0.5-2-1.2-2.7-1.8
		c-0.1-0.1-0.2-0.2-0.2-0.4c0-0.2,0.4-1.1,0.6-1.4c1.6,0.3,3.4,0.2,5,0.2h8c1,0,2.8-0.2,3.6-0.2c0.8,0,1.2,0.7,0.9,1.6
		c-2.5,6.3-10.7,13.8-17.8,17.3C339.7,707.1,339.4,707.1,339.1,706.9z M347.3,720v-3.6c0-1.2-1-1.6-2-1.8c0-0.4,0.3-1.6,0.9-1.6
		c0.7,0,2.2,0.1,3.2,0.1h14.8v-3.8h-12.6c-0.7,0-1.9,0-3.4,0.5c-1.2-0.5-2.3-1.2-3-1.8c-0.1-0.1-0.2-0.2-0.2-0.4
		c0-0.2,0.5-0.9,0.7-1.2c1.5,0.5,3.8,0.4,5.3,0.4h10.7c1,0,3.7-0.2,4.7-0.2c0.7,0,1,0.3,1,1.1v7.3c0,0.5-0.2,0.7-0.5,0.7h-16.4v3.9
		h12.9c1.6,0,4.7-0.3,5.1-0.3c0.6,0,0.8,0.1,0.8,0.6c0,0.5-0.2,1.6-0.5,2.4h-19.9C348,722.3,347.3,721.6,347.3,720z M364.7,698.5h-8
		c-0.2-0.8-0.5-1.8-0.5-2.3s0.2-0.6,0.8-0.6c0.4,0,3,0.3,4.6,0.3h3v-8.3c0-0.6-0.2-0.8-0.7-1.2c-0.5-0.4-1.7-0.9-2.8-1.1
		c0.1-0.5,0.4-1.2,0.5-1.4c0.1-0.2,0.3-0.2,0.5-0.2c1.3,0,4.1,0.5,5.3,1c0.5,0.2,0.6,0.3,0.6,0.7v12.9c0,1.7-0.3,4.6-0.5,6
		c0,0.4-0.1,0.6-0.5,0.7c-0.5,0.1-1.7,0.2-2.4,0V698.5z"/>
</g>
<g class="st1">
	<path d="M239.9,158.8c-0.1-0.1-0.2-0.3-0.2-0.5c0-0.2,0.5-0.9,0.7-1.3c2.5,0.4,4.1,0.5,7.3,0.5h4.2v-7.3h-0.3
		c-0.7,0-2.3,0.2-3.4,0.7c-1.1-0.5-2.2-1.4-2.8-2.1c-0.2-0.2-0.3-0.3-0.3-0.5c0-0.2,0.4-0.9,0.7-1.2c1.5,0.5,3.8,0.5,5.3,0.5h1V137
		h-0.5c-1.1,0-2.4,0.2-3.5,0.5c-1-0.6-2-1.3-2.6-1.9c-0.2-0.2-0.3-0.3-0.3-0.5c0-0.2,0.4-0.9,0.7-1.2c1.5,0.5,3.8,0.5,5.3,0.5h15.4
		c1.2,0,4.1-0.2,4.6-0.2c0.5,0,0.7,0.1,0.7,0.5c0,0.5-0.2,1.8-0.5,2.5c-1.6-0.1-3-0.1-4.5-0.1h-1.2v10.5h0.8c1.2,0,4.1-0.2,4.6-0.2
		c0.5,0,0.7,0.1,0.7,0.5c0,0.5-0.2,1.8-0.5,2.5c-1.6-0.1-3-0.1-4.5-0.1h-0.9v7.3h3.2c3.2,0,6.5-0.4,7.1-0.4c0.6,0,0.8,0.1,0.8,0.6
		s-0.2,2-0.5,2.8c-1.9-0.1-4.3-0.2-6.4-0.2h-21.7c-1.5,0-2.9,0.4-4.6,0.9C242.2,160.6,240.8,159.8,239.9,158.8z M262.3,157.5v-7.3
		h-7.2v7.3H262.3z M262.2,147.5V137h-7v10.5H262.2z"/>
</g>
<g class="st1">
	<path d="M240,228.4c-0.2-0.2-0.3-0.3-0.3-0.5c0-0.2,0.4-1,0.7-1.4c1.5,0.5,3.8,0.5,5.3,0.5h4.7v-1.9c0-0.9-0.7-1.4-2.1-1.8
		c0.1-0.5,0.2-1,0.4-1.3c0.1-0.2,0.3-0.2,0.5-0.2c0.6,0,2.8,0.4,3.7,0.7c0.5,0.2,0.6,0.2,0.6,0.6v4h3.8c1.2,0,4.1-0.3,4.6-0.3
		c0.5,0,0.7,0.1,0.7,0.5c0,0.5-0.2,1.9-0.5,2.6c-1.6-0.1-3-0.1-4.5-0.1h-11.4c-0.7,0-2.3,0.2-3.4,0.7
		C241.7,229.8,240.6,229,240,228.4z M267.2,243.2h-9.1c-1.4,1.7-3.6,2.7-6.4,2.7c-5,0-8-3.2-8-7.2c0-4.1,3-7.2,8-7.2
		c2.6,0,4.7,0.9,6,2.3h9.5v-8.7c0-0.6-0.2-0.8-0.7-1.2c-0.5-0.4-1.7-0.9-2.8-1.1c0.1-0.5,0.4-1.2,0.5-1.4c0.1-0.2,0.3-0.2,0.5-0.2
		c1.3,0,4.1,0.5,5.3,1c0.5,0.2,0.6,0.3,0.6,0.7v21.3c0,1.7-0.3,4.6-0.5,6c0,0.4-0.1,0.6-0.5,0.7c-0.5,0.1-1.7,0.2-2.4,0V243.2z
		 M256.4,238.7c0-2.7-2-4.6-4.8-4.6c-2.8,0-4.8,1.9-4.8,4.6s2,4.6,4.8,4.6C254.4,243.3,256.4,241.4,256.4,238.7z M250.3,256.7v-4.8
		c0-0.6-0.1-0.9-0.5-1.2c-0.5-0.3-1.3-0.7-2.3-0.7c0-0.5,0.2-1.1,0.3-1.4c0.1-0.2,0.3-0.2,0.5-0.2c1.3,0,3.6,0.2,4.7,0.6
		c0.5,0.2,0.6,0.4,0.6,0.7v6.8h12.6c1.6,0,4.7-0.5,5.1-0.5c0.6,0,0.8,0.1,0.8,0.6c0,0.5-0.2,1.8-0.5,2.6h-19.1
		C250.9,259.2,250.3,258.3,250.3,256.7z M267.2,240.6v-4.3h-8c0.2,0.7,0.4,1.5,0.4,2.3c0,0.7-0.1,1.3-0.2,1.9H267.2z"/>
</g>
<g class="st1">
	<path d="M239.9,327.3c-0.2-0.2-0.3-0.3-0.3-0.5c0-0.2,0.4-1,0.7-1.4c1.5,0.5,3.8,0.5,5.3,0.5h3.4v-3c0-0.9-0.7-1.4-2.1-1.8
		c0.1-0.5,0.2-1,0.4-1.3c0.1-0.2,0.3-0.2,0.5-0.2c0.6,0,2.8,0.4,3.7,0.7c0.5,0.2,0.6,0.2,0.6,0.6v5.1h2.5c1.2,0,4.1-0.3,4.6-0.3
		c0.5,0,0.7,0.1,0.7,0.5c0,0.5-0.2,1.9-0.5,2.6c-1.6-0.1-3-0.1-4.5-0.1h-8.9c-0.7,0-2.3,0.2-3.4,0.7
		C241.6,328.7,240.5,327.9,239.9,327.3z M242.5,338.4c0-4,3.4-7.4,7.9-7.4s7.9,3.4,7.9,7.4c0,4-3.4,7.4-7.9,7.4
		S242.5,342.4,242.5,338.4z M255.1,338.4c0-2.5-2-4.7-4.7-4.7s-4.7,2.1-4.7,4.7c0,2.5,2,4.7,4.7,4.7S255.1,340.9,255.1,338.4z
		 M269.7,336.6h-4.9v11.7c0,1.7-0.2,4.6-0.4,6c0,0.4-0.1,0.6-0.5,0.7c-0.5,0.1-1.6,0.2-2.3,0v-32c0-0.7-0.1-1-0.5-1.2
		c-0.5-0.3-1.4-0.6-2.3-0.9c0.1-0.5,0.4-1.1,0.5-1.4c0.1-0.2,0.3-0.2,0.5-0.2c1.2,0,3.2,0.3,4.4,0.7c0.5,0.2,0.6,0.4,0.6,0.7V334
		h4.9v-13c0-0.6-0.2-0.9-0.7-1.2c-0.5-0.4-1.6-0.9-2.7-1.1c0.1-0.5,0.4-1.2,0.5-1.4c0.1-0.2,0.3-0.2,0.5-0.2c1.3,0,3.8,0.5,5,0.9
		c0.5,0.2,0.6,0.3,0.6,0.7v31c0,1.7-0.2,4.6-0.4,6c0,0.4-0.1,0.6-0.5,0.7c-0.5,0.1-1.7,0.2-2.4,0V336.6z"/>
</g>
<g class="st1">
	<path d="M251.1,432.3l-3.5,0.3c-2.3,0.2-3.7,0.5-4.9,0.8c-1.4-0.5-2.8-1.4-3.8-2.1c-0.1-0.1-0.2-0.2-0.2-0.4c0-0.2,0.5-1,0.8-1.3
		c2.5,0.4,4.2,0.5,7.3,0.3c3.8-0.2,12.5-0.9,18.9-1.9c0.2,0.4,0.5,1.6,0.5,2.1c0,0.3-0.1,0.5-0.4,0.6c-3.7,0.5-7.8,1-11.3,1.3v6.9
		c0,1.7-0.3,4.6-0.5,6c0,0.4-0.1,0.6-0.5,0.7c-0.5,0.1-1.7,0.2-2.4,0V432.3z M240.5,425.3c6.3-3.2,11.6-6.4,16-10.9h-7.7
		c-1.1,0-1.9,0.2-3,0.5c-1-0.5-2.3-1.2-2.9-1.8c-0.1-0.1-0.2-0.2-0.2-0.4c0-0.2,0.4-1,0.6-1.3c1.6,0.3,3.4,0.3,5,0.3h7.9
		c0.8,0,3.3-0.2,3.9-0.2c1,0,1.5,1.5,0.8,2.3c-1.8,2.1-3.8,3.9-5.9,5.6c2.8,1.4,5.6,2.8,8.4,4.1c0.2,0.2,0.2,0.5,0,0.7
		c-0.5,0.6-1.4,1.3-2.1,1.7c-2.7-1.6-5.5-3.2-8.4-4.9c-3.3,2.4-6.9,4.2-10.2,5.6c-0.3,0.1-0.7,0.3-0.9,0
		C241.5,426.6,240.8,425.8,240.5,425.3z M267.8,438.1H259c-0.2-0.8-0.5-2-0.5-2.5s0.2-0.6,0.8-0.6c0.4,0,3,0.3,4.6,0.3h3.9v-23.8
		c0-0.6-0.2-0.8-0.7-1.2s-1.7-0.9-2.8-1.1c0.1-0.5,0.4-1.2,0.5-1.5c0.1-0.2,0.3-0.2,0.5-0.2c1.3,0,4.1,0.5,5.3,1
		c0.5,0.2,0.6,0.3,0.6,0.7v31c0,1.7-0.3,4.6-0.5,6c0,0.4-0.1,0.6-0.5,0.7c-0.5,0.1-1.7,0.2-2.4,0V438.1z"/>
</g>
<g class="st1">
	<path d="M42.4,158.8c-0.1-0.1-0.2-0.3-0.2-0.5c0-0.2,0.5-0.9,0.7-1.3c2.5,0.4,4.1,0.5,7.3,0.5h9.4V150h-7.2c-1.7,0-2.3-0.9-2.3-2.5
		v-9.9c0-1.3-1.2-1.6-2.4-1.8c0-0.4,0.2-1.8,0.9-1.8c1,0,3.4,0.3,4.5,0.3h13.9c1.2,0,4.1-0.3,4.6-0.3c0.5,0,0.7,0.1,0.7,0.5
		c0,0.5-0.2,1.9-0.5,2.6H53.5v10.2h13.6c1.6,0,4.7-0.5,5.1-0.5c0.6,0,0.8,0.1,0.8,0.6c0,0.5-0.2,1.9-0.5,2.6H63v7.5h8.5
		c3.2,0,6.5-0.4,7.1-0.4c0.6,0,0.8,0.1,0.8,0.6s-0.2,2-0.5,2.8c-1.9-0.1-4.3-0.2-6.4-0.2H50.8c-1.5,0-2.9,0.4-4.6,0.9
		C44.8,160.6,43.4,159.8,42.4,158.8z"/>
</g>
<g class="st1">
	<path d="M70.3,247.9c-6.9,1.2-16.4,2.2-19.1,2.5c-2.3,0.2-3.7,0.5-4.9,0.8c-1.4-0.5-2.8-1.4-3.8-2.1c-0.1-0.1-0.2-0.2-0.2-0.4
		c0-0.2,0.5-1,0.8-1.3c2.5,0.4,4.2,0.4,7.3,0.3l4-0.2v-5.6c-4.5-0.7-7.6-3.9-7.6-8.3c0-4.9,3.9-8.4,9.3-8.4c5.4,0,9.3,3.5,9.3,8.4
		c0,4.4-3.1,7.7-7.6,8.3v5.3c4.1-0.4,8.6-1,12.5-1.8v-20.2c0-0.6-0.2-0.8-0.7-1.2s-1.7-0.9-2.8-1.1c0.1-0.5,0.4-1.2,0.5-1.5
		c0.1-0.2,0.3-0.2,0.5-0.2c1.3,0,4.1,0.5,5.3,1c0.5,0.2,0.6,0.3,0.6,0.7V237h1.3c1.6,0,4.2-0.4,4.6-0.4c0.6,0,0.8,0.1,0.8,0.6
		s-0.2,1.6-0.5,2.4h-6.2v14.2c0,1.7-0.3,4.6-0.5,6c0,0.4-0.1,0.6-0.5,0.7c-0.5,0.1-1.7,0.2-2.4,0V247.9z M62,233.5
		c0-3.2-2.5-5.7-5.9-5.7c-3.4,0-5.9,2.5-5.9,5.7s2.5,5.7,5.9,5.7C59.5,239.2,62,236.7,62,233.5z"/>
</g>
<g class="st1">
	<path d="M51.4,352.5v-3.5c0-1.2-1-1.6-2-1.8c0-0.4,0.3-1.6,0.9-1.6c0.7,0,2.2,0.1,3.2,0.1h16.2v-3.6H55.8c-0.7,0-1.9,0-3.4,0.5
		c-1.2-0.5-2.3-1.2-3-1.8c-0.1-0.1-0.2-0.2-0.2-0.4c0-0.2,0.5-0.8,0.7-1.2c1.5,0.5,3.8,0.4,5.3,0.4h4.5V336H51
		c-1.5,0-2.9,0.4-4.6,0.9c-1.4-0.5-2.8-1.2-3.7-2.2c-0.1-0.1-0.2-0.3-0.2-0.5c0-0.2,0.5-0.9,0.7-1.3c2.5,0.4,4.1,0.5,7.3,0.5h21.2
		c3.2,0,6.5-0.4,7.1-0.4c0.6,0,0.8,0.1,0.8,0.6s-0.2,1.9-0.5,2.7c-1.9-0.1-4.3-0.2-6.4-0.2H63v3.6h4.1c1,0,3.7-0.2,4.7-0.2
		c0.7,0,1,0.3,1,1.1v7.1c0,0.5-0.2,0.7-0.5,0.7H54.7v3.8h13.8c1.6,0,4.7-0.3,5.1-0.3c0.6,0,0.8,0.1,0.8,0.6c0,0.5-0.2,1.6-0.5,2.4
		H53.2C52.1,354.8,51.4,354.1,51.4,352.5z M47.9,331.5c-0.2-0.3-0.6-1.1-0.9-1.6c4.9-1.6,14.6-5.6,19.4-8.7H55.8
		c-1.1,0-2.1,0.2-3.2,0.6c-0.8-0.4-2.1-1.1-2.7-1.6c-0.1-0.1-0.2-0.2-0.2-0.4c0-0.2,0.4-1.1,0.6-1.4c1.6,0.3,3.4,0.2,5,0.2h12.1
		c1,0,2.8-0.1,3.6-0.1c0.9,0,1.2,1.3,0.8,1.8c-1.5,1.8-4.4,3.6-7.6,5.3c3.4,1.2,6.7,2.2,10.3,3.3c0.3,0.1,0.4,0.4,0.2,0.7
		c-0.4,0.6-1.1,1.5-1.7,2.1c-3.9-1.6-7.6-3.2-11.5-4.8c-4.9,2.2-10,4.1-12.7,4.9C48.4,331.9,48.1,331.8,47.9,331.5z"/>
</g>
<g class="st1">
	<path d="M64.8,426.5h-9.7c-2.9,3.9-6.5,7.4-9.4,9.3c-0.3,0.2-0.7,0.2-0.9,0c-0.2-0.2-1-1.2-1.3-1.7c4.9-3.7,11.2-10.7,13.2-16.8h-6
		c-1.1,0-2.1,0.1-3.2,0.5c-0.8-0.4-2.4-1.3-2.9-1.7c-0.1-0.1-0.2-0.2-0.2-0.4c0-0.2,0.4-1.1,0.6-1.4c1.6,0.2,3.4,0.2,5,0.2h6.1
		c1,0,2.8-0.2,3.6-0.2s1.1,0.7,0.9,1.6c-0.5,2.5-1.8,5.2-3.5,7.9h7.8v-9.7c0-0.7-0.1-1-0.5-1.2c-0.5-0.3-1.4-0.6-2.3-0.9
		c0.1-0.5,0.4-1.1,0.5-1.4c0.1-0.2,0.3-0.2,0.5-0.2c1.2,0,3.2,0.3,4.4,0.7c0.5,0.2,0.6,0.4,0.6,0.7v27.5c0,1.7-0.2,4.6-0.4,6
		c0,0.4-0.1,0.6-0.5,0.7c-0.5,0.1-1.6,0.2-2.3,0V426.5z M72.2,412c0-0.6-0.2-0.9-0.7-1.2c-0.5-0.4-1.6-0.9-2.7-1.1
		c0.1-0.5,0.4-1.2,0.5-1.4c0.1-0.2,0.3-0.2,0.5-0.2c1.3,0,3.8,0.5,5,0.9c0.5,0.2,0.6,0.3,0.6,0.7v31c0,1.7-0.2,4.6-0.4,6
		c0,0.4-0.1,0.6-0.5,0.7c-0.5,0.1-1.7,0.2-2.4,0V412z"/>
</g>
<g>
	<defs>
		<rect id="SVGID_1_" x="-78" y="-7" width="817" height="945"/>
	</defs>
	<clipPath id="SVGID_00000000197027769426229750000016897118904903216799_">
		<use xlink:href="#SVGID_1_"  style="overflow:visible;"/>
	</clipPath>
	<g style="clip-path:url(#SVGID_00000000197027769426229750000016897118904903216799_);">
		<line class="st3" x1="589.9" y1="8.6" x2="506.9" y2="8.6"/>
		<line class="st3" x1="589.9" y1="101.5" x2="506.9" y2="101.5"/>
		<line class="st3" x1="589.9" y1="194.4" x2="506.9" y2="194.4"/>
		<line class="st3" x1="589.9" y1="287.3" x2="506.9" y2="287.3"/>
		<line class="st3" x1="589.9" y1="844.5" x2="506.9" y2="844.5"/>
		<line class="st3" x1="589.9" y1="380.1" x2="506.9" y2="380.1"/>
		<line class="st3" x1="589.9" y1="473" x2="506.9" y2="473"/>
		<line class="st3" x1="589.9" y1="565.9" x2="506.9" y2="565.9"/>
		<line class="st3" x1="589.9" y1="658.8" x2="506.9" y2="658.8"/>
		<line class="st3" x1="589.9" y1="751.6" x2="506.9" y2="751.6"/>
		<line class="st3" x1="589.9" y1="937.4" x2="506.9" y2="937.4"/>
		<line class="st3" x1="590.2" y1="7.9" x2="590.2" y2="1308.6"/>
		<line class="st3" x1="507.1" y1="7.9" x2="507.1" y2="1308.6"/>
		<line class="st3" x1="492.6" y1="8.6" x2="409.6" y2="8.6"/>
		<line class="st3" x1="492.6" y1="101.5" x2="409.6" y2="101.5"/>
		<line class="st3" x1="492.6" y1="194.4" x2="409.6" y2="194.4"/>
		<line class="st3" x1="492.6" y1="287.3" x2="409.6" y2="287.3"/>
		<line class="st3" x1="492.6" y1="844.5" x2="409.6" y2="844.5"/>
		<line class="st3" x1="492.6" y1="380.1" x2="409.6" y2="380.1"/>
		<line class="st3" x1="492.6" y1="473" x2="409.6" y2="473"/>
		<line class="st3" x1="492.6" y1="565.9" x2="409.6" y2="565.9"/>
		<line class="st3" x1="492.6" y1="658.8" x2="409.6" y2="658.8"/>
		<line class="st3" x1="492.6" y1="751.6" x2="409.6" y2="751.6"/>
		<line class="st3" x1="492.6" y1="937.4" x2="409.6" y2="937.4"/>
		<line class="st3" x1="492.9" y1="7.9" x2="492.9" y2="1308.6"/>
		<line class="st3" x1="409.8" y1="7.9" x2="409.8" y2="1308.6"/>
		<line class="st3" x1="395.2" y1="8.6" x2="312.2" y2="8.6"/>
		<line class="st3" x1="395.2" y1="101.5" x2="312.2" y2="101.5"/>
		<line class="st3" x1="395.2" y1="194.4" x2="312.2" y2="194.4"/>
		<line class="st3" x1="395.2" y1="287.3" x2="312.2" y2="287.3"/>
		<line class="st3" x1="395.2" y1="844.5" x2="312.2" y2="844.5"/>
		<line class="st3" x1="395.2" y1="380.1" x2="312.2" y2="380.1"/>
		<line class="st3" x1="395.2" y1="473" x2="312.2" y2="473"/>
		<line class="st3" x1="395.2" y1="565.9" x2="312.2" y2="565.9"/>
		<line class="st3" x1="395.2" y1="658.8" x2="312.2" y2="658.8"/>
		<line class="st3" x1="395.2" y1="751.6" x2="312.2" y2="751.6"/>
		<line class="st3" x1="395.2" y1="937.4" x2="312.2" y2="937.4"/>
		<line class="st3" x1="395.6" y1="7.9" x2="395.6" y2="1308.6"/>
		<line class="st3" x1="312.5" y1="7.9" x2="312.5" y2="1308.6"/>
		<line class="st3" x1="297.9" y1="8.6" x2="214.9" y2="8.6"/>
		<line class="st3" x1="297.9" y1="101.5" x2="214.9" y2="101.5"/>
		<line class="st3" x1="297.9" y1="194.4" x2="214.9" y2="194.4"/>
		<line class="st3" x1="297.9" y1="287.3" x2="214.9" y2="287.3"/>
		<line class="st3" x1="297.9" y1="844.5" x2="214.9" y2="844.5"/>
		<line class="st3" x1="297.9" y1="380.1" x2="214.9" y2="380.1"/>
		<line class="st3" x1="297.9" y1="473" x2="214.9" y2="473"/>
		<line class="st3" x1="297.9" y1="565.9" x2="214.9" y2="565.9"/>
		<line class="st3" x1="297.9" y1="658.8" x2="214.9" y2="658.8"/>
		<line class="st3" x1="297.9" y1="751.6" x2="214.9" y2="751.6"/>
		<line class="st3" x1="297.9" y1="937.4" x2="214.9" y2="937.4"/>
		<line class="st3" x1="298.2" y1="7.9" x2="298.2" y2="1308.6"/>
		<line class="st3" x1="215.1" y1="7.9" x2="215.1" y2="1308.6"/>
		<line class="st3" x1="200.5" y1="8.6" x2="117.5" y2="8.6"/>
		<line class="st3" x1="200.5" y1="101.5" x2="117.5" y2="101.5"/>
		<line class="st3" x1="200.5" y1="194.4" x2="117.5" y2="194.4"/>
		<line class="st3" x1="200.5" y1="287.3" x2="117.5" y2="287.3"/>
		<line class="st3" x1="200.5" y1="844.5" x2="117.5" y2="844.5"/>
		<line class="st3" x1="200.5" y1="380.1" x2="117.5" y2="380.1"/>
		<line class="st3" x1="200.5" y1="473" x2="117.5" y2="473"/>
		<line class="st3" x1="200.5" y1="565.9" x2="117.5" y2="565.9"/>
		<line class="st3" x1="200.5" y1="658.8" x2="117.5" y2="658.8"/>
		<line class="st3" x1="200.5" y1="751.6" x2="117.5" y2="751.6"/>
		<line class="st3" x1="200.5" y1="937.4" x2="117.5" y2="937.4"/>
		<line class="st3" x1="200.9" y1="7.9" x2="200.9" y2="1308.6"/>
		<line class="st3" x1="117.8" y1="7.9" x2="117.8" y2="1308.6"/>
		<line class="st3" x1="103.2" y1="8.6" x2="20.2" y2="8.6"/>
		<line class="st3" x1="103.2" y1="101.5" x2="20.2" y2="101.5"/>
		<line class="st3" x1="103.2" y1="194.4" x2="20.2" y2="194.4"/>
		<line class="st3" x1="103.2" y1="287.3" x2="20.2" y2="287.3"/>
		<line class="st3" x1="103.2" y1="844.5" x2="20.2" y2="844.5"/>
		<line class="st3" x1="103.2" y1="380.1" x2="20.2" y2="380.1"/>
		<line class="st3" x1="103.2" y1="473" x2="20.2" y2="473"/>
		<line class="st3" x1="103.2" y1="565.9" x2="20.2" y2="565.9"/>
		<line class="st3" x1="103.2" y1="658.8" x2="20.2" y2="658.8"/>
		<line class="st3" x1="103.2" y1="751.6" x2="20.2" y2="751.6"/>
		<line class="st3" x1="103.2" y1="937.4" x2="20.2" y2="937.4"/>
		<line class="st3" x1="103.5" y1="7.9" x2="103.5" y2="1308.6"/>
		<line class="st3" x1="20.4" y1="7.9" x2="20.4" y2="1308.6"/>
		<rect x="4.1" y="8.3" class="st0" width="600.8" height="1300.1"/>
	</g>
</g>
<line class="st3" x1="4.1" y1="937" x2="605" y2="937"/>
</svg>
