<svg id="Layer_1" data-name="Layer 1" xmlns="http://www.w3.org/2000/svg" viewBox="0 0 172.17 194.09"><defs><style>.cls-1{fill:#fff;stroke:#241916;stroke-width:1.5px;}.cls-1,.cls-3{stroke-linecap:round;stroke-linejoin:round;}.cls-2{font-size:12px;fill:#010101;font-family:RIDIBatang-KSCpc-EUC-H, RIDIBatang;}.cls-3{fill:none;stroke:#010101;}</style></defs><path class="cls-1" d="M107.87,150.1l-4.31,3.13-29.62,21.5a8,8,0,0,1-9,.27L38.69,158.24A8,8,0,0,1,38.32,145l28.9-20.79h0L29,99.93a8,8,0,0,1-2.45-11l39.75-62.3a8,8,0,0,1,11-2.43l72.06,46a8,8,0,0,1,2.44,11L110.17,146.5l-2.3,3.6"/><text class="cls-2" transform="matrix(0.84, 0.54, -0.54, 0.84, 54.55, 70.98)">우울증 테스트</text><polyline class="cls-3" points="124.69 75.82 134.53 82.1 133.51 77.49"/></svg>