<svg id="Layer_1" data-name="Layer 1" xmlns="http://www.w3.org/2000/svg" viewBox="0 0 194 239.87"><defs><style>.cls-1{fill:#fff;stroke:#241916;stroke-width:2px;}.cls-1,.cls-2{stroke-linecap:round;stroke-linejoin:round;}.cls-2{fill:none;stroke:#010101;}.cls-3{font-size:20px;fill:#010101;font-family:RIDIBatang-KSCpc-EUC-H, RIDIBatang;}</style></defs><path class="cls-1" d="M185.75,159.9l-3.41,8.67-23.46,59.59a14,14,0,0,1-13,8.86H91.36a14,14,0,0,1-13-19.16L101.45,160h0l-79.21.09a14,14,0,0,1-14-14V16.83a14,14,0,0,1,14-14H171.77a14,14,0,0,1,14,14V159.9"/><polyline class="cls-2" points="140.65 34.52 161.08 34.52 155.24 28.68"/><text class="cls-3" transform="translate(40.27 88.22)">너에게 <tspan x="0" y="30.64">필요한 ‘ 우리 ’</tspan></text></svg>