<svg id="Layer_1" data-name="Layer 1" xmlns="http://www.w3.org/2000/svg" xmlns:xlink="http://www.w3.org/1999/xlink" viewBox="0 0 707.92 1305.29"><defs><style>.cls-1,.cls-2,.cls-5{fill:none;}.cls-2,.cls-5{stroke:#000;stroke-miterlimit:10;}.cls-2{stroke-width:2px;}.cls-3{isolation:isolate;}.cls-4{clip-path:url(#clip-path);}.cls-5{stroke-width:1.87px;}</style><clipPath id="clip-path" transform="translate(-3.13 -4.19)"><rect class="cls-1" x="-78" y="-7" width="817" height="945"/></clipPath></defs><line class="cls-2" x1="651.17" y1="427.52" x2="651.17"/><g class="cls-3"><g class="cls-3"><path d="M680.71,10.09c-.17-.17-.24-.28-.24-.41A3.3,3.3,0,0,1,681,8.53a17.36,17.36,0,0,0,4.42.38h3.94V7.67c0-.79-.56-1.21-1.73-1.48A4.56,4.56,0,0,1,688,5.08a.42.42,0,0,1,.38-.21,17.7,17.7,0,0,1,3.15.56c.41.13.52.2.52.48v3h3.21c1,0,3.45-.27,3.83-.27s.59.07.59.41a9.52,9.52,0,0,1-.38,2.18c-1.31-.1-2.49-.1-3.8-.1h-9.6a7.88,7.88,0,0,0-2.84.55A9.26,9.26,0,0,1,680.71,10.09Zm3,8.5c0-3.15,2.46-5.91,6.74-5.91s6.74,2.76,6.74,5.91-2.46,5.9-6.74,5.9S683.75,21.73,683.75,18.59Zm10.75,0a4,4,0,1,0-4,3.66A3.69,3.69,0,0,0,694.5,18.59Zm-5.84,16.27V29.4c0-.93-.76-1.38-1.69-1.59,0-.31.17-1.45.62-1.45.83,0,2.62.24,3.52.24h9.71c.86,0,3.11-.14,4-.14.56,0,.87.25.87.94v8.25a.93.93,0,0,1-1,1.07H690.18C689.25,36.72,688.66,36.17,688.66,34.86Zm14.23-.35v-5.7H691.42v5.7Zm.31-26.87c0-.52-.17-.66-.58-1a7.18,7.18,0,0,0-2.39-.93,5.13,5.13,0,0,1,.45-1.18.4.4,0,0,1,.38-.2,17.51,17.51,0,0,1,4.42.82c.38.14.52.28.52.56V19.31c0,1.45-.24,3.91-.38,5.08,0,.31-.1.52-.38.59a6.48,6.48,0,0,1-2,0Z" transform="translate(-3.13 -4.19)"/><path d="M679.54,56.63a.67.67,0,0,1-.21-.42,3.32,3.32,0,0,1,.62-1.07,32.38,32.38,0,0,0,6.15.38h17.83c2.66,0,5.49-.31,5.94-.31s.66.07.66.49a10.73,10.73,0,0,1-.42,2.24c-1.62-.07-3.59-.17-5.35-.17H686.55a14,14,0,0,0-3.87.72A8.25,8.25,0,0,1,679.54,56.63Zm6.67-6.29V45.75c0-1.08-1-1.39-2-1.52,0-.35.18-1.49.76-1.49.87,0,2.87.24,3.8.24H700c1,0,3.46-.28,3.84-.28s.58.07.58.42a9.23,9.23,0,0,1-.38,2.14H689v5.11h11.47c1,0,3.45-.27,3.83-.27s.59.07.59.41a9.14,9.14,0,0,1-.38,2.14h-16C686.86,52.65,686.21,51.93,686.21,50.34Zm.65,21.38v-3c0-1-.83-1.31-1.69-1.52,0-.31.28-1.35.73-1.35s1.86.1,2.69.1h13.58v-3.1H690.59a8.92,8.92,0,0,0-2.83.38,8,8,0,0,1-2.49-1.56.5.5,0,0,1-.17-.31c0-.21.38-.69.59-1a17.33,17.33,0,0,0,4.42.31h10c.86,0,3.11-.13,4-.13.55,0,.87.24.87.93v6c0,.38-.18.59-.45.59H689.66v3.28h11.61c1.31,0,3.94-.28,4.28-.28.49,0,.66.07.66.49a8.5,8.5,0,0,1-.38,2H688.38C687.45,73.59,686.86,73,686.86,71.72Z" transform="translate(-3.13 -4.19)"/><path d="M703.38,91.8h-5.5A7.83,7.83,0,0,1,689.66,99a8.33,8.33,0,0,1,0-16.66,7.85,7.85,0,0,1,8.22,7.19h5.5V81c0-.52-.18-.65-.59-1a7.18,7.18,0,0,0-2.38-.94,6,6,0,0,1,.44-1.24.42.42,0,0,1,.38-.21,17.6,17.6,0,0,1,4.43.83c.38.14.51.28.51.55v26c0,1.45-.24,3.9-.38,5.07,0,.32-.1.52-.38.59a6.39,6.39,0,0,1-2,0Zm-8.26-1.14c0-3.66-2.32-6-5.46-6s-5.46,2.32-5.46,6,2.32,6,5.46,6S695.12,94.36,695.12,90.66Z" transform="translate(-3.13 -4.19)"/></g><g class="cls-3"><path d="M679.57,134.67c-.17-.17-.24-.27-.24-.41a3.4,3.4,0,0,1,.55-1.14,17.48,17.48,0,0,0,4.43.38h4.35v-2.83c0-.8-.55-1.21-1.73-1.49a4.07,4.07,0,0,1,.35-1.1.39.39,0,0,1,.38-.21,19.11,19.11,0,0,1,3.21.55c.42.14.52.21.52.49v4.59H695c1,0,3.45-.28,3.83-.28s.59.07.59.42a9.52,9.52,0,0,1-.38,2.18c-1.31-.11-2.49-.11-3.8-.11h-10.5a8.1,8.1,0,0,0-2.84.55A9,9,0,0,1,679.57,134.67Zm3,9.75c0-3.67,2.91-6.53,7.29-6.53s7.29,2.86,7.29,6.53-2.9,6.53-7.29,6.53S682.61,148.08,682.61,144.42Zm11.85,0c0-2.46-1.79-4.22-4.56-4.22s-4.56,1.76-4.56,4.22,1.8,4.21,4.56,4.21S694.46,146.87,694.46,144.42Zm7.81-14.75c0-.52-.17-.66-.59-1a7,7,0,0,0-2.38-.93,5.37,5.37,0,0,1,.45-1.25.39.39,0,0,1,.38-.2,17.51,17.51,0,0,1,4.42.82c.38.14.52.28.52.56V140h1.42c1.34,0,3.55-.35,3.9-.35s.66.07.66.49a9.24,9.24,0,0,1-.42,2h-5.56v11.57c0,1.45-.24,3.9-.38,5.08,0,.31-.11.52-.38.59a6.8,6.8,0,0,1-2,0Z" transform="translate(-3.13 -4.19)"/><path d="M679.54,187.22a.67.67,0,0,1-.21-.41,3.22,3.22,0,0,1,.62-1.07,33.23,33.23,0,0,0,6.15.38h6.43v-7.33c0-.93-.86-1.31-2.25-1.65a4.43,4.43,0,0,1,.38-1.21.4.4,0,0,1,.38-.21,17.53,17.53,0,0,1,3.8.52c.38.1.49.21.49.48v9.4h8.6c2.66,0,5.49-.31,5.94-.31s.66.07.66.48a11.25,11.25,0,0,1-.42,2.32c-1.62-.07-3.59-.18-5.35-.18H686.55a13.67,13.67,0,0,0-3.87.73A8.42,8.42,0,0,1,679.54,187.22Zm21.59-3.76a94,94,0,0,0,1.66-14.13H689.56a8.48,8.48,0,0,0-2.8.48,9.22,9.22,0,0,1-2.59-1.69.59.59,0,0,1-.21-.41,3.47,3.47,0,0,1,.59-1.08,19.65,19.65,0,0,0,4.77.38h12.33c.86,0,2.49-.17,3.35-.17.55,0,.86.28.86,1a73.29,73.29,0,0,1-2.24,15.48.46.46,0,0,1-.52.41A9.47,9.47,0,0,1,701.13,183.46Z" transform="translate(-3.13 -4.19)"/></g><g class="cls-3"><path d="M681.89,222c0-4.11,3.35-7.15,7.91-7.15s7.91,3,7.91,7.15-3.35,7.16-7.91,7.16S681.89,226.1,681.89,222Zm10.92,22a27,27,0,0,0,3-2.62l-3.66-3.63a39,39,0,0,1-7.46,6.5.54.54,0,0,1-.62,0,6.56,6.56,0,0,1-1-1.11c3.29-2.42,7.64-6.49,8.57-9.12.24-.69-.79-1.31-2.07-1.69a5.31,5.31,0,0,1,.65-1.07.36.36,0,0,1,.28-.14,10.48,10.48,0,0,1,4,1.35,1.24,1.24,0,0,1,.24,1.55,9.58,9.58,0,0,1-1.35,2.25l4.29,3.14c1.65-1.94,3-3.94,3.17-5.22.11-.72-.65-1.31-1.93-1.69a4.9,4.9,0,0,1,.66-1.07.36.36,0,0,1,.27-.14,11.31,11.31,0,0,1,3.84,1.38,1.3,1.3,0,0,1,.27,1.56,12.94,12.94,0,0,1-1.58,2.83c2.1,1.73,4.14,3.39,6.25,5a.44.44,0,0,1,.07.59,7.92,7.92,0,0,1-1.77,1.62c-1.89-1.89-3.83-3.8-5.76-5.66a30.36,30.36,0,0,1-6.78,6.43.54.54,0,0,1-.62,0A10.47,10.47,0,0,1,692.81,244Zm2.07-22a5.08,5.08,0,1,0-5.08,4.87A4.94,4.94,0,0,0,694.88,222Zm8.32-7c0-.52-.17-.66-.58-1a7.18,7.18,0,0,0-2.39-.93,5.13,5.13,0,0,1,.45-1.18.41.41,0,0,1,.38-.21,17.52,17.52,0,0,1,4.42.83c.38.14.52.28.52.56v12.19c0,1.45-.24,3.91-.38,5.08,0,.31-.1.52-.38.59a6.8,6.8,0,0,1-2,0Z" transform="translate(-3.13 -4.19)"/><path d="M679.54,264.7a.7.7,0,0,1-.21-.42,3.22,3.22,0,0,1,.62-1.07,32.38,32.38,0,0,0,6.15.38h17.83c2.66,0,5.49-.31,5.94-.31s.66.07.66.48a10.7,10.7,0,0,1-.42,2.25c-1.62-.07-3.59-.17-5.35-.17H686.55a14,14,0,0,0-3.87.72A8.25,8.25,0,0,1,679.54,264.7ZM686.86,279V276.2c0-1-.83-1.31-1.69-1.52,0-.31.28-1.35.73-1.35s1.86.11,2.69.11h13.58V270.5H690.59a8.92,8.92,0,0,0-2.83.38,8,8,0,0,1-2.49-1.55.53.53,0,0,1-.17-.31,2.89,2.89,0,0,1,.59-1,17.33,17.33,0,0,0,4.42.31h10c.86,0,3.11-.14,4-.14.55,0,.87.24.87.93V275c0,.38-.18.59-.45.59H689.66v3.11h11.61c1.31,0,3.94-.28,4.28-.28.49,0,.66.07.66.49a8.5,8.5,0,0,1-.38,2H688.38C687.45,280.9,686.86,280.35,686.86,279Zm.31-23.76c0-3.08,2.87-6.22,8.09-6.22s8.08,3.14,8.08,6.22-2.87,6.21-8.08,6.21S687.17,258.34,687.17,255.27Zm13.37,0c0-2-1.76-3.94-5.28-3.94s-5.29,1.93-5.29,3.94,1.76,3.93,5.29,3.93S700.54,257.27,700.54,255.27Z" transform="translate(-3.13 -4.19)"/></g><g class="cls-3"><path d="M683,316.94V305.33c0-.52-.07-.83-.38-1a4.88,4.88,0,0,0-1.93-.69,5.2,5.2,0,0,1,.38-1.14.39.39,0,0,1,.38-.2,14.29,14.29,0,0,1,3.87.69c.38.14.52.31.52.58v13.1A79.77,79.77,0,0,0,699.89,315a6.15,6.15,0,0,1,.38,1.59.42.42,0,0,1-.35.48,83.42,83.42,0,0,1-15,1.94C683.48,319.05,683,318.32,683,316.94Zm20.39-6.57h-9.54a9,9,0,0,1-.41-2c0-.42.17-.49.65-.49s2.56.24,3.91.24h5.39v-7.73c0-.52-.18-.66-.59-1a7.2,7.2,0,0,0-2.38-.93,5.92,5.92,0,0,1,.44-1.25.41.41,0,0,1,.38-.2,17.58,17.58,0,0,1,4.43.82c.38.14.51.28.51.56v26c0,1.45-.24,3.9-.38,5.08,0,.31-.1.52-.38.59a6.74,6.74,0,0,1-2,0Z" transform="translate(-3.13 -4.19)"/><path d="M698.26,347.93H695c-.42,4.46-3.32,7.12-7.19,7.12-4.21,0-7.32-3.15-7.32-8.26s3.11-8.26,7.32-8.26c3.87,0,6.77,2.7,7.19,7.12h3.24v-6.84c0-.55-.07-.83-.45-1a8.93,8.93,0,0,0-2-.72,5.18,5.18,0,0,1,.45-1.14.47.47,0,0,1,.42-.21,14.81,14.81,0,0,1,3.7.59c.38.14.51.31.51.59V360c0,1.45-.17,3.9-.31,5.07,0,.32-.1.52-.38.59a6,6,0,0,1-2,0Zm-5.84-1.14c0-3.73-2-5.91-4.59-5.91s-4.59,2.18-4.59,5.91,2,5.91,4.59,5.91S692.42,350.52,692.42,346.79ZM704.14,337a1.15,1.15,0,0,0-.56-1,5.86,5.86,0,0,0-2.28-.9,5.33,5.33,0,0,1,.45-1.2.39.39,0,0,1,.38-.21,16,16,0,0,1,4.22.79c.38.14.52.28.52.55v26c0,1.45-.18,3.91-.32,5.08,0,.31-.1.52-.38.59a6.43,6.43,0,0,1-2,0Z" transform="translate(-3.13 -4.19)"/><path d="M697.92,385.83H689.8a34.16,34.16,0,0,1-7.88,7.84.66.66,0,0,1-.79,0,10.25,10.25,0,0,1-1.07-1.42c4.14-3.07,9.39-9,11.05-14.13H686a8,8,0,0,0-2.69.38,15.31,15.31,0,0,1-2.42-1.45.41.41,0,0,1-.17-.31,3.88,3.88,0,0,1,.52-1.14,34.05,34.05,0,0,0,4.18.17h5.14c.87,0,2.32-.13,3-.13s.9.55.73,1.34a21.52,21.52,0,0,1-2.94,6.6h6.53v-8.12c0-.55-.07-.83-.45-1a8.77,8.77,0,0,0-2-.73,4.5,4.5,0,0,1,.45-1.14.46.46,0,0,1,.41-.21,14.81,14.81,0,0,1,3.7.59c.38.14.52.31.52.59v23.11c0,1.45-.17,3.9-.31,5.08,0,.31-.11.52-.38.58a6,6,0,0,1-2,0Zm6.22-12.23a1.14,1.14,0,0,0-.56-1,5.57,5.57,0,0,0-2.28-.9,5.44,5.44,0,0,1,.45-1.21.41.41,0,0,1,.38-.21,16,16,0,0,1,4.22.8c.38.13.52.27.52.55v26c0,1.45-.18,3.9-.32,5.07,0,.32-.1.52-.38.59a6.39,6.39,0,0,1-2,0Z" transform="translate(-3.13 -4.19)"/></g></g><g class="cls-3"><path d="M534.32,149.61V138.27c0-.62-.08-1-.45-1.24a5.65,5.65,0,0,0-2.31-.82,5.93,5.93,0,0,1,.46-1.36.47.47,0,0,1,.45-.24,17.21,17.21,0,0,1,4.6.82c.45.16.62.37.62.7v13.11a95.21,95.21,0,0,0,16.73-1.89,7.66,7.66,0,0,1,.45,1.89.51.51,0,0,1-.41.58,99.6,99.6,0,0,1-17.84,2.3C534.89,152.12,534.32,151.26,534.32,149.61Zm7.36,15.58v-6.86c0-.62-.09-.91-.46-1.16a4.77,4.77,0,0,0-2.3-.73,4.5,4.5,0,0,1,.29-1.36.47.47,0,0,1,.45-.25,18,18,0,0,1,4.73.58c.45.16.62.37.62.7V165h12.61c1.57,0,4.69-.46,5.1-.46.58,0,.78.08.78.58a11.65,11.65,0,0,1-.45,2.59H544C542.25,167.7,541.68,166.83,541.68,165.19Zm16.89-22.28H546.81a11.36,11.36,0,0,1-.49-2.42c0-.5.21-.58.78-.58.41,0,3,.29,4.65.29h6.82v-6.62c0-.62-.2-.78-.7-1.15a8.63,8.63,0,0,0-2.83-1.11,5.88,5.88,0,0,1,.53-1.4.49.49,0,0,1,.45-.25,20.9,20.9,0,0,1,5.26,1c.46.16.62.33.62.66V152c0,1.72-.29,4.64-.45,6,0,.37-.12.62-.45.7a8,8,0,0,1-2.43,0Z" transform="translate(-3.13 -4.19)"/></g><g class="cls-3"><path d="M532.35,334a11.68,11.68,0,0,1-1.28-1.57c5.35-3.28,12.46-9.16,15-13.93H539a8.51,8.51,0,0,0-3,.62,12.43,12.43,0,0,1-2.92-1.81.59.59,0,0,1-.2-.37,4.37,4.37,0,0,1,.62-1.28,28.37,28.37,0,0,0,5,.33h7.15c.82,0,3.29-.2,3.91-.2,1,0,1.35.9.86,1.89a30.39,30.39,0,0,1-4.77,6.49c2.63,2.22,5.3,4.44,8.1,6.66a.46.46,0,0,1,0,.66,9.59,9.59,0,0,1-2.3,1.6c-2.47-2.42-5-4.77-7.52-7.11a47,47,0,0,1-10.65,8.1A.69.69,0,0,1,532.35,334Zm8.5,14v-3.41c0-1.19-1-1.56-2-1.81,0-.37.33-1.6.86-1.6s2.22.12,3.21.12h14.84v-3.61H545.17a10.67,10.67,0,0,0-3.37.45,9.5,9.5,0,0,1-3-1.85.57.57,0,0,1-.21-.37,3.7,3.7,0,0,1,.7-1.19,20.81,20.81,0,0,0,5.27.37h10.72c1,0,3.7-.17,4.73-.17.66,0,1,.29,1,1.11v7.11c0,.45-.21.7-.54.7H544.18v3.74h12.91c1.56,0,4.69-.33,5.1-.33.57,0,.78.09.78.58a10.67,10.67,0,0,1-.45,2.38H542.66C541.55,350.21,540.85,349.55,540.85,348Zm17.31-22.69h-7.07a10.48,10.48,0,0,1-.49-2.38c0-.5.2-.58.78-.58.41,0,3,.29,4.64.29h2.14v-7.07c0-.62-.2-.78-.7-1.15a8.61,8.61,0,0,0-2.84-1.11,6.31,6.31,0,0,1,.54-1.4.49.49,0,0,1,.45-.25,20.9,20.9,0,0,1,5.26,1c.46.16.62.33.62.66v13.28c0,1.72-.29,4.64-.45,6,0,.37-.12.62-.45.7a8,8,0,0,1-2.43,0Z" transform="translate(-3.13 -4.19)"/></g><g class="cls-3"><path d="M559.89,421.54h-5.27v13.73c0,1.73-.2,4.64-.36,6,0,.37-.13.62-.46.7a7.15,7.15,0,0,1-2.34,0v-15a63.22,63.22,0,0,1-16.07,2.67c-1.73,0-2.31-.86-2.31-2.51V413.56c0-1.11-.9-1.64-2-1.89,0-.37.21-1.72.74-1.72,1,0,3.13.28,4.19.28h6.42c1.15,0,4.11-.28,4.56-.28s.7.08.7.49a12.17,12.17,0,0,1-.45,2.63H536.37v13.69a58.73,58.73,0,0,0,15.09-2.22V410.07c0-.66-.08-1-.53-1.23a10.68,10.68,0,0,0-2.35-.87,5.38,5.38,0,0,1,.54-1.35.53.53,0,0,1,.49-.25,17.58,17.58,0,0,1,4.4.7c.45.16.61.37.61.7v11.1h5.27v-11a1.36,1.36,0,0,0-.66-1.23,6.81,6.81,0,0,0-2.71-1.07,6.47,6.47,0,0,1,.53-1.44.49.49,0,0,1,.45-.25,19,19,0,0,1,5,1c.45.16.61.33.61.66v31c0,1.73-.2,4.65-.37,6.05,0,.37-.12.61-.45.69a7.37,7.37,0,0,1-2.42,0Z" transform="translate(-3.13 -4.19)"/></g><g class="cls-3"><path d="M530.83,529.05a.82.82,0,0,1-.25-.49,3.79,3.79,0,0,1,.74-1.28,39,39,0,0,0,7.32.46H548v-6.09h-7.28c-1.11,0-1.81-.66-1.81-2.22v-4.89c0-1.19-1-1.56-2-1.81,0-.37.33-1.77.86-1.77,1,0,3,.29,4,.29H557v-4.77H543.49a11.38,11.38,0,0,0-3.37.54,9.62,9.62,0,0,1-3-1.94.55.55,0,0,1-.21-.36,4.41,4.41,0,0,1,.7-1.36,24.55,24.55,0,0,0,5.26.37h11.68c1,0,3.7-.17,4.73-.17.65,0,1,.29,1,1.11v8.6c0,.45-.2.69-.53.69h-17.6v4.94H555.7c1.56,0,4.68-.33,5.09-.33.58,0,.79.08.79.57a11,11,0,0,1-.46,2.51H551.3v6.09h8.55c3.16,0,6.54-.38,7.07-.38s.78.09.78.58a14.16,14.16,0,0,1-.49,2.76c-1.93-.09-4.28-.21-6.37-.21H539.17a16.46,16.46,0,0,0-4.6.86A9.87,9.87,0,0,1,530.83,529.05Z" transform="translate(-3.13 -4.19)"/></g><g class="cls-3"><path d="M433.35,154.3a.82.82,0,0,1-.25-.5,3.86,3.86,0,0,1,.74-1.27,39.08,39.08,0,0,0,7.32.45h9.25v-2.83c-5-.46-7.53-3-7.53-5.68,0-3,3.13-5.75,9.17-5.75s9.17,2.75,9.17,5.75c0,2.72-2.55,5.22-7.48,5.68V153h8.63c3.17,0,6.54-.37,7.07-.37s.78.08.78.58a12.65,12.65,0,0,1-.49,2.59c-1.93-.08-4.28-.21-6.37-.21H441.69a16.14,16.14,0,0,0-4.6.87A11.14,11.14,0,0,1,433.35,154.3Zm4.44-18.3a.61.61,0,0,1-.29-.49,4.41,4.41,0,0,1,.7-1.4,24,24,0,0,0,4.81.46h7.48v-1.28c0-.94-.66-1.44-2.06-1.77a5,5,0,0,1,.42-1.31.46.46,0,0,1,.45-.25,22.55,22.55,0,0,1,3.82.66c.49.16.62.25.62.58v3.37h7c1.15,0,4.11-.33,4.56-.33s.7.08.7.49a11.24,11.24,0,0,1-.45,2.51c-1.57-.13-3-.13-4.53-.13H444.94a14.25,14.25,0,0,0-4.15.58A15.19,15.19,0,0,1,437.79,136Zm4.35,29v-3.54c0-.62-.08-.9-.45-1.15a4.66,4.66,0,0,0-2.3-.74,4.35,4.35,0,0,1,.29-1.36.48.48,0,0,1,.45-.24,18.28,18.28,0,0,1,4.77.57c.45.17.62.37.62.7v5.8h14.05c1.16,0,4.11-.33,4.57-.33s.7.08.7.49a11.06,11.06,0,0,1-.46,2.55H444.9C442.93,167.78,442.14,166.92,442.14,165Zm15.79-20.56c0-1.56-1.89-3.2-5.88-3.2s-5.88,1.64-5.88,3.2,1.89,3.21,5.88,3.21S457.93,146,457.93,144.47Z" transform="translate(-3.13 -4.19)"/></g><g class="cls-3"><path d="M435.36,250.6a13.34,13.34,0,0,1-1.15-1.68c5.51-3.54,13-10.61,15.54-17.06h-7.89a8.41,8.41,0,0,0-3,.57,10.06,10.06,0,0,1-2.68-1.81.54.54,0,0,1-.2-.37,4.85,4.85,0,0,1,.62-1.39,29.36,29.36,0,0,0,5,.24h7.77c1,0,2.75-.16,3.58-.16s1.1.66.86,1.6a25.42,25.42,0,0,1-4.69,8.59c3.13,3.46,4.85,5.31,8,8.47a.56.56,0,0,1,0,.86,16.31,16.31,0,0,1-2.1,1.94c-3-3.79-4.68-5.84-7.56-9.25a45.43,45.43,0,0,1-11.14,9.49A.74.74,0,0,1,435.36,250.6Zm25-23.43c0-.62-.21-.78-.7-1.15a8.79,8.79,0,0,0-2.84-1.11,6.36,6.36,0,0,1,.54-1.48.48.48,0,0,1,.45-.25,21,21,0,0,1,5.26,1c.45.16.62.33.62.66V239h1.89c1.6,0,4.23-.41,4.64-.41.58,0,.78.08.78.57a10.73,10.73,0,0,1-.49,2.43h-6.82v14.18c0,1.73-.29,4.65-.46,6,0,.38-.12.62-.45.7a7.37,7.37,0,0,1-2.42,0Z" transform="translate(-3.13 -4.19)"/></g><g class="cls-3"><path d="M436.55,340.34a8.77,8.77,0,0,1-1.15-1.76c5.51-3.54,13-10.9,15.62-17.35H442.3a8.45,8.45,0,0,0-3,.57,10.39,10.39,0,0,1-2.67-1.8.6.6,0,0,1-.21-.37,5.26,5.26,0,0,1,.62-1.44,29.43,29.43,0,0,0,5,.24h8.59c1,0,2.75-.16,3.57-.16s1.11.66.87,1.6c-1.89,7.36-11.6,17.23-17.56,20.51A.72.72,0,0,1,436.55,340.34Zm23.88-23.84c0-.62-.2-.78-.7-1.15a8.63,8.63,0,0,0-2.83-1.11,6.9,6.9,0,0,1,.53-1.48.49.49,0,0,1,.45-.25,20.9,20.9,0,0,1,5.26,1c.46.16.62.33.62.66v14.18h2.06c1.6,0,4.23-.41,4.64-.41.58,0,.78.08.78.57a10.73,10.73,0,0,1-.49,2.43h-7v14.18c0,1.73-.29,4.65-.45,6,0,.38-.12.62-.45.7a7.43,7.43,0,0,1-2.43,0Z" transform="translate(-3.13 -4.19)"/></g><g class="cls-3"><path d="M435.94,516.69c0-5.92,3.94-9.9,9.74-9.9s9.74,4,9.74,9.9-3.95,9.91-9.74,9.91S435.94,522.61,435.94,516.69Zm16.11,0c0-4.36-2.71-7.11-6.37-7.11s-6.37,2.75-6.37,7.11,2.71,7.11,6.37,7.11S452.05,521.05,452.05,516.69Zm9.17-11.55c0-.62-.21-.78-.7-1.15a8.79,8.79,0,0,0-2.84-1.11,6.36,6.36,0,0,1,.54-1.48.48.48,0,0,1,.45-.25,21,21,0,0,1,5.26,1c.45.16.62.33.62.66V517h1.89c1.6,0,4.23-.41,4.64-.41.58,0,.78.08.78.57a10.73,10.73,0,0,1-.49,2.43h-6.82v14.18c0,1.73-.29,4.65-.46,6,0,.37-.12.62-.45.7a7.37,7.37,0,0,1-2.42,0Z" transform="translate(-3.13 -4.19)"/></g><g class="cls-3"><path d="M460.84,616.43c-6.82,1.64-15.7,3.08-20.88,3.08-1.73,0-2.3-.86-2.3-2.5v-13.2c0-.62-.08-1-.45-1.23a5.65,5.65,0,0,0-2.31-.82,5.77,5.77,0,0,1,.46-1.36.46.46,0,0,1,.45-.25,17.21,17.21,0,0,1,4.6.82c.45.17.62.37.62.7v14.84a101.26,101.26,0,0,0,19.81-2.59v-16c0-.62-.2-.78-.7-1.15a8.63,8.63,0,0,0-2.83-1.11,6.9,6.9,0,0,1,.53-1.48.49.49,0,0,1,.45-.25,20.9,20.9,0,0,1,5.26,1c.46.16.62.33.62.66v9.37h2c1.61,0,4.24-.41,4.65-.41.58,0,.78.08.78.57a11.31,11.31,0,0,1-.49,2.43h-6.91V614h2.06c1.6,0,4.23-.41,4.64-.41.58,0,.78.09.78.58a10.76,10.76,0,0,1-.49,2.42h-7v10c0,1.73-.29,4.65-.45,6,0,.37-.12.62-.45.7a7.43,7.43,0,0,1-2.43,0Z" transform="translate(-3.13 -4.19)"/></g><g class="cls-3"><path d="M363,152.2c-6.82,1.65-15.7,3.08-20.88,3.08-1.73,0-2.3-.86-2.3-2.5v-13.2c0-.62-.08-1-.45-1.23a5.65,5.65,0,0,0-2.31-.82,5.77,5.77,0,0,1,.46-1.36.46.46,0,0,1,.45-.25,17.21,17.21,0,0,1,4.6.82c.45.17.62.37.62.7v14.84A101.26,101.26,0,0,0,363,149.69v-16c0-.62-.2-.78-.7-1.15a8.63,8.63,0,0,0-2.83-1.11,6.9,6.9,0,0,1,.53-1.48.49.49,0,0,1,.45-.25,20.9,20.9,0,0,1,5.26,1c.46.16.62.33.62.66V145.5h2.06c1.6,0,4.23-.41,4.64-.41.58,0,.78.08.78.57a10.73,10.73,0,0,1-.49,2.43h-7v14.18c0,1.73-.29,4.65-.45,6,0,.37-.12.61-.45.69a7.43,7.43,0,0,1-2.43,0Z" transform="translate(-3.13 -4.19)"/></g><g class="cls-3"><path d="M358.57,240.21h-3.86c-.5,5.31-3.95,8.47-8.56,8.47-5,0-8.71-3.74-8.71-9.82s3.7-9.83,8.71-9.83c4.61,0,8.06,3.21,8.56,8.47h3.86v-8.14c0-.66-.08-1-.54-1.23a10.38,10.38,0,0,0-2.34-.87,5,5,0,0,1,.54-1.35.52.52,0,0,1,.49-.25,17.58,17.58,0,0,1,4.4.7c.45.16.61.37.61.7v27.5c0,1.73-.2,4.64-.37,6,0,.37-.12.62-.45.7a7.15,7.15,0,0,1-2.34,0Zm-6.95-1.35c0-4.44-2.42-7-5.47-7s-5.46,2.59-5.46,7,2.42,7,5.46,7S351.62,243.3,351.62,238.86Zm13.94-11.68a1.36,1.36,0,0,0-.66-1.23,6.81,6.81,0,0,0-2.71-1.07,6.47,6.47,0,0,1,.53-1.44.49.49,0,0,1,.45-.25,19,19,0,0,1,5,.95c.45.16.61.33.61.66v31c0,1.73-.2,4.65-.37,6,0,.37-.12.61-.45.69a7.37,7.37,0,0,1-2.42,0Z" transform="translate(-3.13 -4.19)"/></g><g class="cls-3"><path d="M358.16,333.18H348.5a40.89,40.89,0,0,1-9.37,9.33.8.8,0,0,1-.95,0,11.61,11.61,0,0,1-1.27-1.68c4.93-3.66,11.18-10.73,13.15-16.81h-6a9.48,9.48,0,0,0-3.21.45,18.88,18.88,0,0,1-2.88-1.73.48.48,0,0,1-.2-.37,5.08,5.08,0,0,1,.61-1.36,39.27,39.27,0,0,0,5,.21h6.12c1,0,2.76-.16,3.58-.16s1.07.65.86,1.6a25.58,25.58,0,0,1-3.49,7.85h7.77v-9.66c0-.66-.08-1-.54-1.23a10.38,10.38,0,0,0-2.34-.87,5.41,5.41,0,0,1,.53-1.35.54.54,0,0,1,.5-.25,17.58,17.58,0,0,1,4.4.7c.45.16.61.37.61.7V346c0,1.73-.2,4.64-.37,6,0,.37-.12.62-.45.7a7.44,7.44,0,0,1-2.34,0Zm7.4-14.55a1.36,1.36,0,0,0-.66-1.23,6.66,6.66,0,0,0-2.71-1.07,6.47,6.47,0,0,1,.53-1.44.49.49,0,0,1,.45-.25,19,19,0,0,1,5,.95c.45.16.61.33.61.66v31c0,1.73-.2,4.65-.37,6,0,.37-.12.62-.45.7a7.37,7.37,0,0,1-2.42,0Z" transform="translate(-3.13 -4.19)"/></g><g class="cls-3"><path d="M337.69,509.3c-.21-.21-.29-.33-.29-.5a4,4,0,0,1,.66-1.35,20.8,20.8,0,0,0,5.26.45H348v-1.48c0-.94-.66-1.44-2.06-1.77a4.94,4.94,0,0,1,.41-1.31.48.48,0,0,1,.45-.25,21.72,21.72,0,0,1,3.75.66c.49.16.61.24.61.57v3.58H355c1.15,0,4.11-.33,4.56-.33s.7.08.7.49a11.17,11.17,0,0,1-.46,2.59c-1.56-.12-3-.12-4.52-.12H343.85a9.62,9.62,0,0,0-3.37.66A11,11,0,0,1,337.69,509.3Zm3.62,10.11c0-3.74,2.91-7,8-7s8,3.29,8,7-2.92,7-8,7S341.31,523.15,341.31,519.41Zm12.78,0c0-2.3-1.73-4.36-4.77-4.36s-4.77,2.06-4.77,4.36,1.73,4.36,4.77,4.36S354.09,521.71,354.09,519.41Zm-6.95,19.36v-6.49c0-1.11-.9-1.65-2-1.89,0-.37.2-1.73.74-1.73,1,0,3.12.29,4.19.29h11.55c1,0,3.7-.17,4.73-.17.66,0,1,.29,1,1.11v9.83a1.12,1.12,0,0,1-1.24,1.27H349C347.84,541,347.14,540.33,347.14,538.77Zm16.94-.41v-6.78H350.43v6.78Zm.37-32c0-.62-.21-.78-.7-1.15a8.39,8.39,0,0,0-2.84-1.11,5.85,5.85,0,0,1,.54-1.4.49.49,0,0,1,.45-.25,20.9,20.9,0,0,1,5.26,1c.46.16.62.33.62.66v16.15c0,1.73-.29,4.65-.45,6.05,0,.37-.13.61-.45.7a8,8,0,0,1-2.43,0Z" transform="translate(-3.13 -4.19)"/></g><g class="cls-3"><path d="M336.29,613.49a.85.85,0,0,1-.25-.5,4,4,0,0,1,.74-1.31,39.08,39.08,0,0,0,7.32.45h21.21c3.16,0,6.54-.37,7.07-.37s.78.08.78.58a13.62,13.62,0,0,1-.49,2.71c-1.93-.08-4.28-.21-6.37-.21H344.63a16.14,16.14,0,0,0-4.6.87A10,10,0,0,1,336.29,613.49Zm7.93-8.22V597.7c0-1.27-1.15-1.64-2.38-1.81,0-.41.2-1.76.9-1.76,1,0,3.41.28,4.52.28h13.36c1.15,0,4.11-.33,4.57-.33s.69.09.69.5a11,11,0,0,1-.45,2.55H347.59v8.18h13.65c1.15,0,4.11-.33,4.56-.33s.7.08.7.49a11,11,0,0,1-.45,2.55H347C345,608,344.22,607.16,344.22,605.27Zm.7,21.41v-4.77c0-.61-.08-.9-.45-1.15a4.8,4.8,0,0,0-2.3-.74,4.55,4.55,0,0,1,.28-1.35.48.48,0,0,1,.46-.25,18.26,18.26,0,0,1,4.76.57c.46.17.62.37.62.7v7h14.39c1.15,0,4.11-.33,4.56-.33s.7.09.7.5a11.85,11.85,0,0,1-.45,2.59H347.67C345.7,629.44,344.92,628.57,344.92,626.68Z" transform="translate(-3.13 -4.19)"/></g><g class="cls-3"><path d="M339.08,706.89a9.65,9.65,0,0,1-1.15-1.77c5.72-2.79,12.79-9.12,15.5-14.1h-7.77a8.46,8.46,0,0,0-3,.58,10.07,10.07,0,0,1-2.67-1.81.53.53,0,0,1-.21-.37,4.9,4.9,0,0,1,.62-1.4,28.36,28.36,0,0,0,5,.25h8c1,0,2.75-.17,3.57-.17s1.24.66.87,1.61C355.32,696,347.1,703.52,340,707A.86.86,0,0,1,339.08,706.89ZM347.34,720v-3.61c0-1.2-1-1.57-2-1.81,0-.37.33-1.61.86-1.61s2.22.13,3.21.13h14.84v-3.83H351.66a10.45,10.45,0,0,0-3.37.46,9.5,9.5,0,0,1-3-1.85.6.6,0,0,1-.21-.37,3.84,3.84,0,0,1,.7-1.2,20.36,20.36,0,0,0,5.27.37h10.72c1,0,3.7-.16,4.73-.16.66,0,1,.29,1,1.11V715c0,.45-.21.7-.54.7H350.67v3.94h12.91c1.56,0,4.69-.33,5.1-.33.57,0,.78.09.78.58a10.67,10.67,0,0,1-.45,2.38H349.15C348,722.26,347.34,721.61,347.34,720Zm17.31-21.54h-8a10.3,10.3,0,0,1-.5-2.34c0-.49.21-.58.78-.58.41,0,3,.29,4.65.29h3v-8.26c0-.62-.2-.78-.7-1.15a8.63,8.63,0,0,0-2.83-1.11,6.06,6.06,0,0,1,.53-1.4.49.49,0,0,1,.45-.25,20.9,20.9,0,0,1,5.26,1c.46.17.62.33.62.66v12.87c0,1.72-.29,4.64-.45,6,0,.37-.13.61-.45.7a8,8,0,0,1-2.43,0Z" transform="translate(-3.13 -4.19)"/></g><g class="cls-3"><path d="M239.86,158.82a.82.82,0,0,1-.25-.49,3.79,3.79,0,0,1,.74-1.28,39.08,39.08,0,0,0,7.32.45h4.15v-7.31h-.29a9.54,9.54,0,0,0-3.37.65,11.6,11.6,0,0,1-2.79-2.05c-.21-.21-.29-.33-.29-.49a3.59,3.59,0,0,1,.66-1.24,20.8,20.8,0,0,0,5.26.45h1V137h-.53a13.59,13.59,0,0,0-3.53.49,15.69,15.69,0,0,1-2.64-1.89.63.63,0,0,1-.28-.49,3.78,3.78,0,0,1,.65-1.23,20.88,20.88,0,0,0,5.27.45h15.41c1.15,0,4.11-.21,4.56-.21s.7.09.7.5a10.53,10.53,0,0,1-.45,2.5c-1.56-.12-3-.12-4.52-.12h-1.19v10.52h.82c1.15,0,4.11-.2,4.56-.2s.7.08.7.49a11.24,11.24,0,0,1-.45,2.51c-1.56-.12-3-.12-4.52-.12h-.87v7.31h3.21c3.16,0,6.54-.37,7.07-.37s.78.09.78.58a14,14,0,0,1-.49,2.75c-1.93-.08-4.28-.2-6.37-.2H248.2a16.46,16.46,0,0,0-4.6.86A9.87,9.87,0,0,1,239.86,158.82Zm22.48-1.32v-7.31h-7.19v7.31Zm-.12-10V137h-7v10.52Z" transform="translate(-3.13 -4.19)"/></g><g class="cls-3"><path d="M240,228.4c-.21-.21-.29-.33-.29-.49a4,4,0,0,1,.66-1.36,20.8,20.8,0,0,0,5.26.45h4.69v-1.89c0-.94-.66-1.44-2.06-1.77a4.94,4.94,0,0,1,.41-1.31.48.48,0,0,1,.45-.25,21.72,21.72,0,0,1,3.75.66c.49.16.61.24.61.57v4h3.83c1.15,0,4.11-.33,4.56-.33s.7.08.7.5a11.36,11.36,0,0,1-.46,2.59c-1.56-.13-3-.13-4.52-.13H246.19a9.62,9.62,0,0,0-3.38.66A10.7,10.7,0,0,1,240,228.4Zm27.17,14.84h-9.13a8,8,0,0,1-6.41,2.71c-5,0-8-3.16-8-7.23s3-7.24,8-7.24a8.28,8.28,0,0,1,6,2.3h9.5v-8.71c0-.62-.2-.78-.7-1.15a8.41,8.41,0,0,0-2.83-1.11,5.88,5.88,0,0,1,.53-1.4.49.49,0,0,1,.45-.25,20.9,20.9,0,0,1,5.26,1c.46.16.62.33.62.66v21.33c0,1.73-.29,4.65-.45,6.05,0,.37-.13.61-.45.69a7.69,7.69,0,0,1-2.43.05Zm-10.77-4.52a4.77,4.77,0,1,0-4.77,4.56A4.49,4.49,0,0,0,256.42,238.72Zm-6.12,18v-4.81c0-.62-.09-.9-.46-1.15a4.66,4.66,0,0,0-2.3-.74,4.65,4.65,0,0,1,.29-1.36.48.48,0,0,1,.45-.24A18,18,0,0,1,253,249c.45.17.62.37.62.7v6.82h12.62c1.56,0,4.68-.45,5.09-.45.58,0,.78.08.78.58a11.65,11.65,0,0,1-.45,2.59H252.6C250.87,259.19,250.3,258.32,250.3,256.68Zm16.89-16v-4.28h-8a7.61,7.61,0,0,1,.12,4.28Z" transform="translate(-3.13 -4.19)"/></g><g class="cls-3"><path d="M239.89,327.29c-.2-.2-.28-.33-.28-.49a4.09,4.09,0,0,1,.65-1.36,20.44,20.44,0,0,0,5.27.46h3.41v-3c0-.95-.66-1.44-2.06-1.77a5.14,5.14,0,0,1,.41-1.32.49.49,0,0,1,.46-.24,22.67,22.67,0,0,1,3.74.65c.49.17.61.25.61.58v5.06h2.55c1.15,0,4.11-.33,4.56-.33s.7.08.7.49a11.28,11.28,0,0,1-.45,2.59c-1.56-.12-3-.12-4.52-.12h-8.88a9.54,9.54,0,0,0-3.37.65A10.6,10.6,0,0,1,239.89,327.29Zm2.64,11.1a7.86,7.86,0,1,1,7.85,7.44A7.64,7.64,0,0,1,242.53,338.39Zm12.53,0a4.69,4.69,0,1,0-4.68,4.69A4.62,4.62,0,0,0,255.06,338.39Zm14.68-1.77h-4.85V348.3c0,1.73-.21,4.64-.37,6,0,.37-.13.62-.45.7a7.51,7.51,0,0,1-2.35,0v-32c0-.66-.08-1-.53-1.23a10.77,10.77,0,0,0-2.34-.87,5,5,0,0,1,.53-1.35.53.53,0,0,1,.49-.25,17.5,17.5,0,0,1,4.4.7c.45.16.62.37.62.7V334h4.85v-13a1.36,1.36,0,0,0-.66-1.23,6.66,6.66,0,0,0-2.71-1.07,6.47,6.47,0,0,1,.53-1.44.5.5,0,0,1,.45-.25,19,19,0,0,1,5,.95c.45.16.62.33.62.66v31c0,1.73-.21,4.65-.37,6-.05.38-.13.62-.46.7a7.37,7.37,0,0,1-2.42,0Z" transform="translate(-3.13 -4.19)"/></g><g class="cls-3"><path d="M251.12,432.32l-3.49.33a32.89,32.89,0,0,0-4.85.82,14.1,14.1,0,0,1-3.78-2.14.54.54,0,0,1-.21-.41,4.3,4.3,0,0,1,.78-1.31,31.77,31.77,0,0,0,7.28.33c3.78-.17,12.45-.87,18.87-1.89a8.94,8.94,0,0,1,.45,2.05c0,.29-.08.53-.41.58-3.66.53-7.77,1-11.31,1.31v6.95c0,1.73-.28,4.64-.45,6,0,.37-.12.62-.45.7a8,8,0,0,1-2.43,0Zm-10.64-7.07c6.33-3.16,11.59-6.37,16-10.85h-7.73a8.4,8.4,0,0,0-3,.53,11.63,11.63,0,0,1-2.92-1.81.54.54,0,0,1-.2-.37,4.67,4.67,0,0,1,.61-1.27,28.42,28.42,0,0,0,5,.33h7.89c.82,0,3.29-.21,3.9-.21,1,0,1.52,1.48.83,2.3a42.86,42.86,0,0,1-5.88,5.64c2.83,1.39,5.59,2.75,8.42,4.07a.44.44,0,0,1,0,.65,7.89,7.89,0,0,1-2.13,1.73c-2.72-1.64-5.55-3.21-8.43-4.85a54,54,0,0,1-10.15,5.63c-.33.12-.66.29-.95,0A9,9,0,0,1,240.48,425.25Zm27.33,12.87H259a11.22,11.22,0,0,1-.5-2.47c0-.49.21-.58.78-.58.41,0,3.05.29,4.65.29h3.86v-23.8c0-.62-.2-.78-.7-1.15a8.63,8.63,0,0,0-2.83-1.11,6.9,6.9,0,0,1,.53-1.48.5.5,0,0,1,.45-.25,21.06,21.06,0,0,1,5.27,1c.45.16.61.33.61.66v30.95c0,1.73-.29,4.65-.45,6.05,0,.37-.12.61-.45.69a7.43,7.43,0,0,1-2.43,0Z" transform="translate(-3.13 -4.19)"/></g><g class="cls-3"><path d="M42.43,158.82a.82.82,0,0,1-.25-.49,3.79,3.79,0,0,1,.74-1.28,39.08,39.08,0,0,0,7.32.45h9.41V150H52.42c-1.73,0-2.31-.86-2.31-2.51v-9.86c0-1.28-1.15-1.65-2.38-1.81,0-.41.21-1.77.9-1.77,1,0,3.42.29,4.53.29H67.05c1.15,0,4.11-.33,4.56-.33s.7.08.7.49a11.19,11.19,0,0,1-.45,2.59H53.49v10.16H67.05c1.56,0,4.69-.45,5.1-.45.57,0,.78.08.78.57a12.58,12.58,0,0,1-.45,2.63H63v7.52h8.47c3.16,0,6.54-.37,7.07-.37s.78.09.78.58a14,14,0,0,1-.49,2.75c-1.93-.08-4.28-.2-6.37-.2H50.77a16.46,16.46,0,0,0-4.6.86A9.87,9.87,0,0,1,42.43,158.82Z" transform="translate(-3.13 -4.19)"/></g><g class="cls-3"><path d="M70.3,247.89c-6.9,1.2-16.4,2.18-19.07,2.47a32.89,32.89,0,0,0-4.85.82A14.1,14.1,0,0,1,42.6,249a.54.54,0,0,1-.21-.41,4.3,4.3,0,0,1,.78-1.31,34.21,34.21,0,0,0,7.28.33l4-.21v-5.63c-4.53-.66-7.61-3.91-7.61-8.3,0-4.9,3.86-8.43,9.29-8.43s9.29,3.53,9.29,8.43c0,4.39-3.12,7.68-7.64,8.34v5.3c4.11-.41,8.59-1,12.53-1.76V225.16c0-.62-.2-.78-.7-1.15a8.63,8.63,0,0,0-2.83-1.11,6.9,6.9,0,0,1,.53-1.48.5.5,0,0,1,.45-.25,21.06,21.06,0,0,1,5.27,1c.45.16.61.33.61.66V237h1.28c1.6,0,4.23-.41,4.64-.41.58,0,.78.08.78.57a10.73,10.73,0,0,1-.49,2.43H73.63v14.18c0,1.73-.29,4.65-.45,6,0,.37-.12.61-.45.69a7.43,7.43,0,0,1-2.43,0ZM62,233.51a5.92,5.92,0,1,0-5.92,5.71A5.7,5.7,0,0,0,62,233.51Z" transform="translate(-3.13 -4.19)"/></g><g class="cls-3"><path d="M51.35,352.55v-3.49c0-1.2-1-1.57-2-1.81,0-.37.33-1.61.86-1.61s2.22.13,3.21.13H69.56v-3.62H55.79a10.67,10.67,0,0,0-3.37.45,9.32,9.32,0,0,1-3-1.85.54.54,0,0,1-.2-.37,3.74,3.74,0,0,1,.69-1.15,20.81,20.81,0,0,0,5.27.37H59.7V336H51a16.14,16.14,0,0,0-4.6.87,9.83,9.83,0,0,1-3.74-2.22.82.82,0,0,1-.25-.5,3.86,3.86,0,0,1,.74-1.27,39.08,39.08,0,0,0,7.32.45H71.66c3.16,0,6.54-.37,7.07-.37s.78.09.78.58a13.3,13.3,0,0,1-.49,2.67c-1.93-.08-4.28-.21-6.37-.21H63v3.58h4.11c1,0,3.7-.16,4.72-.16.66,0,1,.28,1,1.11v7.07c0,.45-.2.7-.53.7H54.68v3.82H68.49c1.57,0,4.69-.33,5.1-.33.58,0,.78.08.78.58a10.13,10.13,0,0,1-.45,2.38H53.16C52.05,354.77,51.35,354.11,51.35,352.55ZM47.9,331.5a13,13,0,0,1-.9-1.64c4.93-1.65,14.59-5.63,19.44-8.72H55.83a9.34,9.34,0,0,0-3.16.58A17.41,17.41,0,0,1,50,320.07a.42.42,0,0,1-.2-.37,5,5,0,0,1,.62-1.39,28.36,28.36,0,0,0,5,.24H67.43c1,0,2.75-.12,3.57-.12s1.23,1.32.78,1.81c-1.52,1.77-4.35,3.58-7.56,5.26,3.41,1.15,6.7,2.22,10.32,3.29.33.12.37.41.2.7A12.76,12.76,0,0,1,73,331.58c-3.91-1.64-7.65-3.2-11.51-4.76a125.84,125.84,0,0,1-12.67,4.93A.78.78,0,0,1,47.9,331.5Z" transform="translate(-3.13 -4.19)"/></g><g class="cls-3"><path d="M64.84,426.5H55.18a40.89,40.89,0,0,1-9.37,9.33.8.8,0,0,1-1,0,11.61,11.61,0,0,1-1.27-1.68c4.93-3.66,11.18-10.73,13.15-16.81h-6a9.48,9.48,0,0,0-3.21.45A18.88,18.88,0,0,1,44.61,416a.48.48,0,0,1-.2-.37,5.08,5.08,0,0,1,.61-1.36,39.27,39.27,0,0,0,5,.21h6.12c1,0,2.76-.16,3.58-.16s1.07.65.86,1.6a25.58,25.58,0,0,1-3.49,7.85h7.77v-9.66c0-.66-.08-1-.54-1.23A10.38,10.38,0,0,0,62,412a5.41,5.41,0,0,1,.53-1.35.54.54,0,0,1,.5-.25,17.58,17.58,0,0,1,4.4.7c.45.16.61.37.61.7v27.5c0,1.73-.2,4.64-.37,6,0,.37-.12.62-.45.7a7.15,7.15,0,0,1-2.34,0ZM72.24,412a1.36,1.36,0,0,0-.66-1.23,6.87,6.87,0,0,0-2.71-1.07,6.47,6.47,0,0,1,.53-1.44.49.49,0,0,1,.45-.25,19,19,0,0,1,5,1c.45.16.61.33.61.66v31c0,1.73-.2,4.65-.37,6.05,0,.37-.12.61-.45.69a7.37,7.37,0,0,1-2.42,0Z" transform="translate(-3.13 -4.19)"/></g><g class="cls-4"><line class="cls-5" x1="586.8" y1="4.46" x2="503.8" y2="4.46"/><line class="cls-5" x1="586.8" y1="97.33" x2="503.8" y2="97.33"/><line class="cls-5" x1="586.8" y1="190.21" x2="503.8" y2="190.21"/><line class="cls-5" x1="586.8" y1="283.08" x2="503.8" y2="283.08"/><line class="cls-5" x1="586.8" y1="840.33" x2="503.8" y2="840.33"/><line class="cls-5" x1="586.8" y1="375.96" x2="503.8" y2="375.96"/><line class="cls-5" x1="586.8" y1="468.83" x2="503.8" y2="468.83"/><line class="cls-5" x1="586.8" y1="561.71" x2="503.8" y2="561.71"/><line class="cls-5" x1="586.8" y1="654.58" x2="503.8" y2="654.58"/><line class="cls-5" x1="586.8" y1="747.45" x2="503.8" y2="747.45"/><line class="cls-5" x1="586.8" y1="933.2" x2="503.8" y2="933.2"/><line class="cls-5" x1="587.12" y1="3.73" x2="587.12" y2="1304.41"/><line class="cls-5" x1="504.01" y1="3.73" x2="504.01" y2="1304.41"/><line class="cls-5" x1="489.45" y1="4.46" x2="406.45" y2="4.46"/><line class="cls-5" x1="489.45" y1="97.33" x2="406.45" y2="97.33"/><line class="cls-5" x1="489.45" y1="190.21" x2="406.45" y2="190.21"/><line class="cls-5" x1="489.45" y1="283.08" x2="406.45" y2="283.08"/><line class="cls-5" x1="489.45" y1="840.33" x2="406.45" y2="840.33"/><line class="cls-5" x1="489.45" y1="375.96" x2="406.45" y2="375.96"/><line class="cls-5" x1="489.45" y1="468.83" x2="406.45" y2="468.83"/><line class="cls-5" x1="489.45" y1="561.71" x2="406.45" y2="561.71"/><line class="cls-5" x1="489.45" y1="654.58" x2="406.45" y2="654.58"/><line class="cls-5" x1="489.45" y1="747.45" x2="406.45" y2="747.45"/><line class="cls-5" x1="489.45" y1="933.2" x2="406.45" y2="933.2"/><line class="cls-5" x1="489.77" y1="3.73" x2="489.77" y2="1304.41"/><line class="cls-5" x1="406.67" y1="3.73" x2="406.67" y2="1304.41"/><line class="cls-5" x1="392.1" y1="4.46" x2="309.1" y2="4.46"/><line class="cls-5" x1="392.1" y1="97.33" x2="309.1" y2="97.33"/><line class="cls-5" x1="392.1" y1="190.21" x2="309.1" y2="190.21"/><line class="cls-5" x1="392.1" y1="283.08" x2="309.1" y2="283.08"/><line class="cls-5" x1="392.1" y1="840.33" x2="309.1" y2="840.33"/><line class="cls-5" x1="392.1" y1="375.96" x2="309.1" y2="375.96"/><line class="cls-5" x1="392.1" y1="468.83" x2="309.1" y2="468.83"/><line class="cls-5" x1="392.1" y1="561.71" x2="309.1" y2="561.71"/><line class="cls-5" x1="392.1" y1="654.58" x2="309.1" y2="654.58"/><line class="cls-5" x1="392.1" y1="747.45" x2="309.1" y2="747.45"/><line class="cls-5" x1="392.1" y1="933.2" x2="309.1" y2="933.2"/><line class="cls-5" x1="392.43" y1="3.73" x2="392.43" y2="1304.41"/><line class="cls-5" x1="309.32" y1="3.73" x2="309.32" y2="1304.41"/><line class="cls-5" x1="294.76" y1="4.46" x2="211.76" y2="4.46"/><line class="cls-5" x1="294.76" y1="97.33" x2="211.76" y2="97.33"/><line class="cls-5" x1="294.76" y1="190.21" x2="211.76" y2="190.21"/><line class="cls-5" x1="294.76" y1="283.08" x2="211.76" y2="283.08"/><line class="cls-5" x1="294.76" y1="840.33" x2="211.76" y2="840.33"/><line class="cls-5" x1="294.76" y1="375.96" x2="211.76" y2="375.96"/><line class="cls-5" x1="294.76" y1="468.83" x2="211.76" y2="468.83"/><line class="cls-5" x1="294.76" y1="561.71" x2="211.76" y2="561.71"/><line class="cls-5" x1="294.76" y1="654.58" x2="211.76" y2="654.58"/><line class="cls-5" x1="294.76" y1="747.45" x2="211.76" y2="747.45"/><line class="cls-5" x1="294.76" y1="933.2" x2="211.76" y2="933.2"/><line class="cls-5" x1="295.08" y1="3.73" x2="295.08" y2="1304.41"/><line class="cls-5" x1="211.97" y1="3.73" x2="211.97" y2="1304.41"/><line class="cls-5" x1="197.41" y1="4.46" x2="114.41" y2="4.46"/><line class="cls-5" x1="197.41" y1="97.33" x2="114.41" y2="97.33"/><line class="cls-5" x1="197.41" y1="190.21" x2="114.41" y2="190.21"/><line class="cls-5" x1="197.41" y1="283.08" x2="114.41" y2="283.08"/><line class="cls-5" x1="197.41" y1="840.33" x2="114.41" y2="840.33"/><line class="cls-5" x1="197.41" y1="375.96" x2="114.41" y2="375.96"/><line class="cls-5" x1="197.41" y1="468.83" x2="114.41" y2="468.83"/><line class="cls-5" x1="197.41" y1="561.71" x2="114.41" y2="561.71"/><line class="cls-5" x1="197.41" y1="654.58" x2="114.41" y2="654.58"/><line class="cls-5" x1="197.41" y1="747.45" x2="114.41" y2="747.45"/><line class="cls-5" x1="197.41" y1="933.2" x2="114.41" y2="933.2"/><line class="cls-5" x1="197.73" y1="3.73" x2="197.73" y2="1304.41"/><line class="cls-5" x1="114.63" y1="3.73" x2="114.63" y2="1304.41"/><line class="cls-5" x1="100.06" y1="4.46" x2="17.06" y2="4.46"/><line class="cls-5" x1="100.06" y1="97.33" x2="17.06" y2="97.33"/><line class="cls-5" x1="100.06" y1="190.21" x2="17.06" y2="190.21"/><line class="cls-5" x1="100.06" y1="283.08" x2="17.06" y2="283.08"/><line class="cls-5" x1="100.06" y1="840.33" x2="17.06" y2="840.33"/><line class="cls-5" x1="100.06" y1="375.96" x2="17.06" y2="375.96"/><line class="cls-5" x1="100.06" y1="468.83" x2="17.06" y2="468.83"/><line class="cls-5" x1="100.06" y1="561.71" x2="17.06" y2="561.71"/><line class="cls-5" x1="100.06" y1="654.58" x2="17.06" y2="654.58"/><line class="cls-5" x1="100.06" y1="747.45" x2="17.06" y2="747.45"/><line class="cls-5" x1="100.06" y1="933.2" x2="17.06" y2="933.2"/><line class="cls-5" x1="100.39" y1="3.73" x2="100.39" y2="1304.41"/><line class="cls-5" x1="17.28" y1="3.73" x2="17.28" y2="1304.41"/><rect class="cls-2" x="1" y="4.15" width="600.85" height="1300.14"/></g><line class="cls-5" x1="1" y1="932.81" x2="601.85" y2="932.81"/></svg>