<svg id="Layer_1" data-name="Layer 1" xmlns="http://www.w3.org/2000/svg" xmlns:xlink="http://www.w3.org/1999/xlink" viewBox="0 0 707.92 1305.29"><defs><style>.cls-1,.cls-2,.cls-5{fill:none;}.cls-2,.cls-5{stroke:#000;stroke-miterlimit:10;}.cls-2{stroke-width:2px;}.cls-3{isolation:isolate;}.cls-4{clip-path:url(#clip-path);}.cls-5{stroke-width:1.87px;}</style><clipPath id="clip-path" transform="translate(-3.13 -4.19)"><rect class="cls-1" x="-78" y="-7" width="817" height="945"/></clipPath></defs><line class="cls-2" x1="651.17" y1="427.52" x2="651.17"/><g class="cls-3"><g class="cls-3"><path d="M680.71,10.09c-.17-.17-.24-.28-.24-.41A3.3,3.3,0,0,1,681,8.53a17.36,17.36,0,0,0,4.42.38h3.94V7.67c0-.79-.56-1.21-1.73-1.48A4.56,4.56,0,0,1,688,5.08a.42.42,0,0,1,.38-.21,17.7,17.7,0,0,1,3.15.56c.41.13.52.2.52.48v3h3.21c1,0,3.45-.27,3.83-.27s.59.07.59.41a9.52,9.52,0,0,1-.38,2.18c-1.31-.1-2.49-.1-3.8-.1h-9.6a7.88,7.88,0,0,0-2.84.55A9.26,9.26,0,0,1,680.71,10.09Zm3,8.5c0-3.15,2.46-5.91,6.74-5.91s6.74,2.76,6.74,5.91-2.46,5.9-6.74,5.9S683.75,21.73,683.75,18.59Zm10.75,0a4,4,0,1,0-4,3.66A3.69,3.69,0,0,0,694.5,18.59Zm-5.84,16.27V29.4c0-.93-.76-1.38-1.69-1.59,0-.31.17-1.45.62-1.45.83,0,2.62.24,3.52.24h9.71c.86,0,3.11-.14,4-.14.56,0,.87.25.87.94v8.25a.93.93,0,0,1-1,1.07H690.18C689.25,36.72,688.66,36.17,688.66,34.86Zm14.23-.35v-5.7H691.42v5.7Zm.31-26.87c0-.52-.17-.66-.58-1a7.18,7.18,0,0,0-2.39-.93,5.13,5.13,0,0,1,.45-1.18.4.4,0,0,1,.38-.2,17.51,17.51,0,0,1,4.42.82c.38.14.52.28.52.56V19.31c0,1.45-.24,3.91-.38,5.08,0,.31-.1.52-.38.59a6.48,6.48,0,0,1-2,0Z" transform="translate(-3.13 -4.19)"/><path d="M679.54,56.63a.67.67,0,0,1-.21-.42,3.32,3.32,0,0,1,.62-1.07,32.38,32.38,0,0,0,6.15.38h17.83c2.66,0,5.49-.31,5.94-.31s.66.07.66.49a10.73,10.73,0,0,1-.42,2.24c-1.62-.07-3.59-.17-5.35-.17H686.55a14,14,0,0,0-3.87.72A8.25,8.25,0,0,1,679.54,56.63Zm6.67-6.29V45.75c0-1.08-1-1.39-2-1.52,0-.35.18-1.49.76-1.49.87,0,2.87.24,3.8.24H700c1,0,3.46-.28,3.84-.28s.58.07.58.42a9.23,9.23,0,0,1-.38,2.14H689v5.11h11.47c1,0,3.45-.27,3.83-.27s.59.07.59.41a9.14,9.14,0,0,1-.38,2.14h-16C686.86,52.65,686.21,51.93,686.21,50.34Zm.65,21.38v-3c0-1-.83-1.31-1.69-1.52,0-.31.28-1.35.73-1.35s1.86.1,2.69.1h13.58v-3.1H690.59a8.92,8.92,0,0,0-2.83.38,8,8,0,0,1-2.49-1.56.5.5,0,0,1-.17-.31c0-.21.38-.69.59-1a17.33,17.33,0,0,0,4.42.31h10c.86,0,3.11-.13,4-.13.55,0,.87.24.87.93v6c0,.38-.18.59-.45.59H689.66v3.28h11.61c1.31,0,3.94-.28,4.28-.28.49,0,.66.07.66.49a8.5,8.5,0,0,1-.38,2H688.38C687.45,73.59,686.86,73,686.86,71.72Z" transform="translate(-3.13 -4.19)"/><path d="M703.38,91.8h-5.5A7.83,7.83,0,0,1,689.66,99a8.33,8.33,0,0,1,0-16.66,7.85,7.85,0,0,1,8.22,7.19h5.5V81c0-.52-.18-.65-.59-1a7.18,7.18,0,0,0-2.38-.94,6,6,0,0,1,.44-1.24.42.42,0,0,1,.38-.21,17.6,17.6,0,0,1,4.43.83c.38.14.51.28.51.55v26c0,1.45-.24,3.9-.38,5.07,0,.32-.1.52-.38.59a6.39,6.39,0,0,1-2,0Zm-8.26-1.14c0-3.66-2.32-6-5.46-6s-5.46,2.32-5.46,6,2.32,6,5.46,6S695.12,94.36,695.12,90.66Z" transform="translate(-3.13 -4.19)"/></g><g class="cls-3"><path d="M679.57,134.67c-.17-.17-.24-.27-.24-.41a3.4,3.4,0,0,1,.55-1.14,17.48,17.48,0,0,0,4.43.38h4.35v-2.83c0-.8-.55-1.21-1.73-1.49a4.07,4.07,0,0,1,.35-1.1.39.39,0,0,1,.38-.21,19.11,19.11,0,0,1,3.21.55c.42.14.52.21.52.49v4.59H695c1,0,3.45-.28,3.83-.28s.59.07.59.42a9.52,9.52,0,0,1-.38,2.18c-1.31-.11-2.49-.11-3.8-.11h-10.5a8.1,8.1,0,0,0-2.84.55A9,9,0,0,1,679.57,134.67Zm3,9.75c0-3.67,2.91-6.53,7.29-6.53s7.29,2.86,7.29,6.53-2.9,6.53-7.29,6.53S682.61,148.08,682.61,144.42Zm11.85,0c0-2.46-1.79-4.22-4.56-4.22s-4.56,1.76-4.56,4.22,1.8,4.21,4.56,4.21S694.46,146.87,694.46,144.42Zm7.81-14.75c0-.52-.17-.66-.59-1a7,7,0,0,0-2.38-.93,5.37,5.37,0,0,1,.45-1.25.39.39,0,0,1,.38-.2,17.51,17.51,0,0,1,4.42.82c.38.14.52.28.52.56V140h1.42c1.34,0,3.55-.35,3.9-.35s.66.07.66.49a9.24,9.24,0,0,1-.42,2h-5.56v11.57c0,1.45-.24,3.9-.38,5.08,0,.31-.11.52-.38.59a6.8,6.8,0,0,1-2,0Z" transform="translate(-3.13 -4.19)"/><path d="M679.54,187.22a.67.67,0,0,1-.21-.41,3.22,3.22,0,0,1,.62-1.07,33.23,33.23,0,0,0,6.15.38h6.43v-7.33c0-.93-.86-1.31-2.25-1.65a4.43,4.43,0,0,1,.38-1.21.4.4,0,0,1,.38-.21,17.53,17.53,0,0,1,3.8.52c.38.1.49.21.49.48v9.4h8.6c2.66,0,5.49-.31,5.94-.31s.66.07.66.48a11.25,11.25,0,0,1-.42,2.32c-1.62-.07-3.59-.18-5.35-.18H686.55a13.67,13.67,0,0,0-3.87.73A8.42,8.42,0,0,1,679.54,187.22Zm21.59-3.76a94,94,0,0,0,1.66-14.13H689.56a8.48,8.48,0,0,0-2.8.48,9.22,9.22,0,0,1-2.59-1.69.59.59,0,0,1-.21-.41,3.47,3.47,0,0,1,.59-1.08,19.65,19.65,0,0,0,4.77.38h12.33c.86,0,2.49-.17,3.35-.17.55,0,.86.28.86,1a73.29,73.29,0,0,1-2.24,15.48.46.46,0,0,1-.52.41A9.47,9.47,0,0,1,701.13,183.46Z" transform="translate(-3.13 -4.19)"/></g><g class="cls-3"><path d="M681.89,222c0-4.11,3.35-7.15,7.91-7.15s7.91,3,7.91,7.15-3.35,7.16-7.91,7.16S681.89,226.1,681.89,222Zm10.92,22a27,27,0,0,0,3-2.62l-3.66-3.63a39,39,0,0,1-7.46,6.5.54.54,0,0,1-.62,0,6.56,6.56,0,0,1-1-1.11c3.29-2.42,7.64-6.49,8.57-9.12.24-.69-.79-1.31-2.07-1.69a5.31,5.31,0,0,1,.65-1.07.36.36,0,0,1,.28-.14,10.48,10.48,0,0,1,4,1.35,1.24,1.24,0,0,1,.24,1.55,9.58,9.58,0,0,1-1.35,2.25l4.29,3.14c1.65-1.94,3-3.94,3.17-5.22.11-.72-.65-1.31-1.93-1.69a4.9,4.9,0,0,1,.66-1.07.36.36,0,0,1,.27-.14,11.31,11.31,0,0,1,3.84,1.38,1.3,1.3,0,0,1,.27,1.56,12.94,12.94,0,0,1-1.58,2.83c2.1,1.73,4.14,3.39,6.25,5a.44.44,0,0,1,.07.59,7.92,7.92,0,0,1-1.77,1.62c-1.89-1.89-3.83-3.8-5.76-5.66a30.36,30.36,0,0,1-6.78,6.43.54.54,0,0,1-.62,0A10.47,10.47,0,0,1,692.81,244Zm2.07-22a5.08,5.08,0,1,0-5.08,4.87A4.94,4.94,0,0,0,694.88,222Zm8.32-7c0-.52-.17-.66-.58-1a7.18,7.18,0,0,0-2.39-.93,5.13,5.13,0,0,1,.45-1.18.41.41,0,0,1,.38-.21,17.52,17.52,0,0,1,4.42.83c.38.14.52.28.52.56v12.19c0,1.45-.24,3.91-.38,5.08,0,.31-.1.52-.38.59a6.8,6.8,0,0,1-2,0Z" transform="translate(-3.13 -4.19)"/><path d="M679.54,264.7a.7.7,0,0,1-.21-.42,3.22,3.22,0,0,1,.62-1.07,32.38,32.38,0,0,0,6.15.38h17.83c2.66,0,5.49-.31,5.94-.31s.66.07.66.48a10.7,10.7,0,0,1-.42,2.25c-1.62-.07-3.59-.17-5.35-.17H686.55a14,14,0,0,0-3.87.72A8.25,8.25,0,0,1,679.54,264.7ZM686.86,279V276.2c0-1-.83-1.31-1.69-1.52,0-.31.28-1.35.73-1.35s1.86.11,2.69.11h13.58V270.5H690.59a8.92,8.92,0,0,0-2.83.38,8,8,0,0,1-2.49-1.55.53.53,0,0,1-.17-.31,2.89,2.89,0,0,1,.59-1,17.33,17.33,0,0,0,4.42.31h10c.86,0,3.11-.14,4-.14.55,0,.87.24.87.93V275c0,.38-.18.59-.45.59H689.66v3.11h11.61c1.31,0,3.94-.28,4.28-.28.49,0,.66.07.66.49a8.5,8.5,0,0,1-.38,2H688.38C687.45,280.9,686.86,280.35,686.86,279Zm.31-23.76c0-3.08,2.87-6.22,8.09-6.22s8.08,3.14,8.08,6.22-2.87,6.21-8.08,6.21S687.17,258.34,687.17,255.27Zm13.37,0c0-2-1.76-3.94-5.28-3.94s-5.29,1.93-5.29,3.94,1.76,3.93,5.29,3.93S700.54,257.27,700.54,255.27Z" transform="translate(-3.13 -4.19)"/></g><g class="cls-3"><path d="M683,316.94V305.33c0-.52-.07-.83-.38-1a4.88,4.88,0,0,0-1.93-.69,5.2,5.2,0,0,1,.38-1.14.39.39,0,0,1,.38-.2,14.29,14.29,0,0,1,3.87.69c.38.14.52.31.52.58v13.1A79.77,79.77,0,0,0,699.89,315a6.15,6.15,0,0,1,.38,1.59.42.42,0,0,1-.35.48,83.42,83.42,0,0,1-15,1.94C683.48,319.05,683,318.32,683,316.94Zm20.39-6.57h-9.54a9,9,0,0,1-.41-2c0-.42.17-.49.65-.49s2.56.24,3.91.24h5.39v-7.73c0-.52-.18-.66-.59-1a7.2,7.2,0,0,0-2.38-.93,5.92,5.92,0,0,1,.44-1.25.41.41,0,0,1,.38-.2,17.58,17.58,0,0,1,4.43.82c.38.14.51.28.51.56v26c0,1.45-.24,3.9-.38,5.08,0,.31-.1.52-.38.59a6.74,6.74,0,0,1-2,0Z" transform="translate(-3.13 -4.19)"/><path d="M698.26,347.93H695c-.42,4.46-3.32,7.12-7.19,7.12-4.21,0-7.32-3.15-7.32-8.26s3.11-8.26,7.32-8.26c3.87,0,6.77,2.7,7.19,7.12h3.24v-6.84c0-.55-.07-.83-.45-1a8.93,8.93,0,0,0-2-.72,5.18,5.18,0,0,1,.45-1.14.47.47,0,0,1,.42-.21,14.81,14.81,0,0,1,3.7.59c.38.14.51.31.51.59V360c0,1.45-.17,3.9-.31,5.07,0,.32-.1.52-.38.59a6,6,0,0,1-2,0Zm-5.84-1.14c0-3.73-2-5.91-4.59-5.91s-4.59,2.18-4.59,5.91,2,5.91,4.59,5.91S692.42,350.52,692.42,346.79ZM704.14,337a1.15,1.15,0,0,0-.56-1,5.86,5.86,0,0,0-2.28-.9,5.33,5.33,0,0,1,.45-1.2.39.39,0,0,1,.38-.21,16,16,0,0,1,4.22.79c.38.14.52.28.52.55v26c0,1.45-.18,3.91-.32,5.08,0,.31-.1.52-.38.59a6.43,6.43,0,0,1-2,0Z" transform="translate(-3.13 -4.19)"/><path d="M697.92,385.83H689.8a34.16,34.16,0,0,1-7.88,7.84.66.66,0,0,1-.79,0,10.25,10.25,0,0,1-1.07-1.42c4.14-3.07,9.39-9,11.05-14.13H686a8,8,0,0,0-2.69.38,15.31,15.31,0,0,1-2.42-1.45.41.41,0,0,1-.17-.31,3.88,3.88,0,0,1,.52-1.14,34.05,34.05,0,0,0,4.18.17h5.14c.87,0,2.32-.13,3-.13s.9.55.73,1.34a21.52,21.52,0,0,1-2.94,6.6h6.53v-8.12c0-.55-.07-.83-.45-1a8.77,8.77,0,0,0-2-.73,4.5,4.5,0,0,1,.45-1.14.46.46,0,0,1,.41-.21,14.81,14.81,0,0,1,3.7.59c.38.14.52.31.52.59v23.11c0,1.45-.17,3.9-.31,5.08,0,.31-.11.52-.38.58a6,6,0,0,1-2,0Zm6.22-12.23a1.14,1.14,0,0,0-.56-1,5.57,5.57,0,0,0-2.28-.9,5.44,5.44,0,0,1,.45-1.21.41.41,0,0,1,.38-.21,16,16,0,0,1,4.22.8c.38.13.52.27.52.55v26c0,1.45-.18,3.9-.32,5.07,0,.32-.1.52-.38.59a6.39,6.39,0,0,1-2,0Z" transform="translate(-3.13 -4.19)"/></g></g><g class="cls-4"><line class="cls-5" x1="586.8" y1="4.46" x2="503.8" y2="4.46"/><line class="cls-5" x1="586.8" y1="97.33" x2="503.8" y2="97.33"/><line class="cls-5" x1="586.8" y1="190.21" x2="503.8" y2="190.21"/><line class="cls-5" x1="586.8" y1="283.08" x2="503.8" y2="283.08"/><line class="cls-5" x1="586.8" y1="840.33" x2="503.8" y2="840.33"/><line class="cls-5" x1="586.8" y1="375.96" x2="503.8" y2="375.96"/><line class="cls-5" x1="586.8" y1="468.83" x2="503.8" y2="468.83"/><line class="cls-5" x1="586.8" y1="561.71" x2="503.8" y2="561.71"/><line class="cls-5" x1="586.8" y1="654.58" x2="503.8" y2="654.58"/><line class="cls-5" x1="586.8" y1="747.45" x2="503.8" y2="747.45"/><line class="cls-5" x1="586.8" y1="933.2" x2="503.8" y2="933.2"/><line class="cls-5" x1="587.12" y1="3.73" x2="587.12" y2="1304.41"/><line class="cls-5" x1="504.01" y1="3.73" x2="504.01" y2="1304.41"/><line class="cls-5" x1="489.45" y1="4.46" x2="406.45" y2="4.46"/><line class="cls-5" x1="489.45" y1="97.33" x2="406.45" y2="97.33"/><line class="cls-5" x1="489.45" y1="190.21" x2="406.45" y2="190.21"/><line class="cls-5" x1="489.45" y1="283.08" x2="406.45" y2="283.08"/><line class="cls-5" x1="489.45" y1="840.33" x2="406.45" y2="840.33"/><line class="cls-5" x1="489.45" y1="375.96" x2="406.45" y2="375.96"/><line class="cls-5" x1="489.45" y1="468.83" x2="406.45" y2="468.83"/><line class="cls-5" x1="489.45" y1="561.71" x2="406.45" y2="561.71"/><line class="cls-5" x1="489.45" y1="654.58" x2="406.45" y2="654.58"/><line class="cls-5" x1="489.45" y1="747.45" x2="406.45" y2="747.45"/><line class="cls-5" x1="489.45" y1="933.2" x2="406.45" y2="933.2"/><line class="cls-5" x1="489.77" y1="3.73" x2="489.77" y2="1304.41"/><line class="cls-5" x1="406.67" y1="3.73" x2="406.67" y2="1304.41"/><line class="cls-5" x1="392.1" y1="4.46" x2="309.1" y2="4.46"/><line class="cls-5" x1="392.1" y1="97.33" x2="309.1" y2="97.33"/><line class="cls-5" x1="392.1" y1="190.21" x2="309.1" y2="190.21"/><line class="cls-5" x1="392.1" y1="283.08" x2="309.1" y2="283.08"/><line class="cls-5" x1="392.1" y1="840.33" x2="309.1" y2="840.33"/><line class="cls-5" x1="392.1" y1="375.96" x2="309.1" y2="375.96"/><line class="cls-5" x1="392.1" y1="468.83" x2="309.1" y2="468.83"/><line class="cls-5" x1="392.1" y1="561.71" x2="309.1" y2="561.71"/><line class="cls-5" x1="392.1" y1="654.58" x2="309.1" y2="654.58"/><line class="cls-5" x1="392.1" y1="747.45" x2="309.1" y2="747.45"/><line class="cls-5" x1="392.1" y1="933.2" x2="309.1" y2="933.2"/><line class="cls-5" x1="392.43" y1="3.73" x2="392.43" y2="1304.41"/><line class="cls-5" x1="309.32" y1="3.73" x2="309.32" y2="1304.41"/><line class="cls-5" x1="294.76" y1="4.46" x2="211.76" y2="4.46"/><line class="cls-5" x1="294.76" y1="97.33" x2="211.76" y2="97.33"/><line class="cls-5" x1="294.76" y1="190.21" x2="211.76" y2="190.21"/><line class="cls-5" x1="294.76" y1="283.08" x2="211.76" y2="283.08"/><line class="cls-5" x1="294.76" y1="840.33" x2="211.76" y2="840.33"/><line class="cls-5" x1="294.76" y1="375.96" x2="211.76" y2="375.96"/><line class="cls-5" x1="294.76" y1="468.83" x2="211.76" y2="468.83"/><line class="cls-5" x1="294.76" y1="561.71" x2="211.76" y2="561.71"/><line class="cls-5" x1="294.76" y1="654.58" x2="211.76" y2="654.58"/><line class="cls-5" x1="294.76" y1="747.45" x2="211.76" y2="747.45"/><line class="cls-5" x1="294.76" y1="933.2" x2="211.76" y2="933.2"/><line class="cls-5" x1="295.08" y1="3.73" x2="295.08" y2="1304.41"/><line class="cls-5" x1="211.97" y1="3.73" x2="211.97" y2="1304.41"/><line class="cls-5" x1="197.41" y1="4.46" x2="114.41" y2="4.46"/><line class="cls-5" x1="197.41" y1="97.33" x2="114.41" y2="97.33"/><line class="cls-5" x1="197.41" y1="190.21" x2="114.41" y2="190.21"/><line class="cls-5" x1="197.41" y1="283.08" x2="114.41" y2="283.08"/><line class="cls-5" x1="197.41" y1="840.33" x2="114.41" y2="840.33"/><line class="cls-5" x1="197.41" y1="375.96" x2="114.41" y2="375.96"/><line class="cls-5" x1="197.41" y1="468.83" x2="114.41" y2="468.83"/><line class="cls-5" x1="197.41" y1="561.71" x2="114.41" y2="561.71"/><line class="cls-5" x1="197.41" y1="654.58" x2="114.41" y2="654.58"/><line class="cls-5" x1="197.41" y1="747.45" x2="114.41" y2="747.45"/><line class="cls-5" x1="197.41" y1="933.2" x2="114.41" y2="933.2"/><line class="cls-5" x1="197.73" y1="3.73" x2="197.73" y2="1304.41"/><line class="cls-5" x1="114.63" y1="3.73" x2="114.63" y2="1304.41"/><line class="cls-5" x1="100.06" y1="4.46" x2="17.06" y2="4.46"/><line class="cls-5" x1="100.06" y1="97.33" x2="17.06" y2="97.33"/><line class="cls-5" x1="100.06" y1="190.21" x2="17.06" y2="190.21"/><line class="cls-5" x1="100.06" y1="283.08" x2="17.06" y2="283.08"/><line class="cls-5" x1="100.06" y1="840.33" x2="17.06" y2="840.33"/><line class="cls-5" x1="100.06" y1="375.96" x2="17.06" y2="375.96"/><line class="cls-5" x1="100.06" y1="468.83" x2="17.06" y2="468.83"/><line class="cls-5" x1="100.06" y1="561.71" x2="17.06" y2="561.71"/><line class="cls-5" x1="100.06" y1="654.58" x2="17.06" y2="654.58"/><line class="cls-5" x1="100.06" y1="747.45" x2="17.06" y2="747.45"/><line class="cls-5" x1="100.06" y1="933.2" x2="17.06" y2="933.2"/><line class="cls-5" x1="100.39" y1="3.73" x2="100.39" y2="1304.41"/><line class="cls-5" x1="17.28" y1="3.73" x2="17.28" y2="1304.41"/><rect class="cls-2" x="1" y="4.15" width="600.85" height="1300.14"/></g><line class="cls-5" x1="1" y1="932.81" x2="601.85" y2="932.81"/><g class="cls-3"><path d="M534.3,149.75V138.41c0-.62-.08-1-.45-1.24a5.65,5.65,0,0,0-2.31-.82A5.93,5.93,0,0,1,532,135a.47.47,0,0,1,.45-.24,17.21,17.21,0,0,1,4.6.82c.45.16.62.37.62.7v13.11a95.21,95.21,0,0,0,16.73-1.89,7.66,7.66,0,0,1,.45,1.89.51.51,0,0,1-.41.58,99.6,99.6,0,0,1-17.84,2.3C534.87,152.26,534.3,151.4,534.3,149.75Zm7.36,15.58v-6.86c0-.62-.09-.91-.46-1.16a4.77,4.77,0,0,0-2.3-.73,4.58,4.58,0,0,1,.29-1.36.47.47,0,0,1,.45-.25,18,18,0,0,1,4.73.58c.45.16.62.37.62.7v8.88h12.62c1.56,0,4.68-.46,5.09-.46.58,0,.78.09.78.58a11.65,11.65,0,0,1-.45,2.59H544C542.23,167.84,541.66,167,541.66,165.33Zm16.89-22.28H546.79a11.36,11.36,0,0,1-.49-2.42c0-.5.21-.58.78-.58.41,0,3,.29,4.65.29h6.82v-6.62c0-.62-.2-.78-.7-1.15a8.63,8.63,0,0,0-2.83-1.11,6.06,6.06,0,0,1,.53-1.4.49.49,0,0,1,.45-.25,20.9,20.9,0,0,1,5.26,1c.46.17.62.33.62.66v20.72c0,1.72-.29,4.64-.45,6,0,.37-.13.62-.45.7a8,8,0,0,1-2.43,0Z" transform="translate(-3.13 -4.19)"/></g><g class="cls-3"><path d="M539.48,344.36c0-3.29,2.71-6.62,7.77-7.19v-2.92h-8.72c-1.48,0-2.92.78-4.6,1.27a12.21,12.21,0,0,1-3.74-2.63.82.82,0,0,1-.25-.49,3.79,3.79,0,0,1,.74-1.28,38.17,38.17,0,0,0,7.32.46h21.21c3.17,0,6.54-.37,7.07-.37s.78.08.78.57a13.17,13.17,0,0,1-.49,2.67c-1.93-.08-4.28-.2-6.37-.2h-9.62v2.92c5,.57,7.72,3.9,7.72,7.19,0,3.66-3.28,7.32-9.41,7.32S539.48,348,539.48,344.36Zm-3.78-14.55a14.7,14.7,0,0,1-1-1.73,121.51,121.51,0,0,0,19.36-8.92H543.38a9.29,9.29,0,0,0-3.16.54,17.25,17.25,0,0,1-2.72-1.61.42.42,0,0,1-.2-.37,4.85,4.85,0,0,1,.62-1.39,29.36,29.36,0,0,0,5,.24h4.36v-1.44c0-.94-.66-1.43-2.06-1.76a5,5,0,0,1,.41-1.32.5.5,0,0,1,.45-.25,22.48,22.48,0,0,1,3.83.66c.49.17.62.25.62.58v3.53h4.56c1,0,2.75-.12,3.57-.12s1.24,1.48.74,2c-1.56,1.65-4.52,3.46-7.85,5.18,3.54,1.19,7,2.39,10.57,3.5.33.08.37.41.2.69a13.09,13.09,0,0,1-1.81,2.1c-3.94-1.68-7.72-3.33-11.67-4.93-4.81,2.3-9.83,4.27-12.17,5.1A.73.73,0,0,1,535.7,329.81ZM555,344.36c0-2.34-2-4.6-6.09-4.6s-6.08,2.26-6.08,4.6,2,4.6,6.08,4.6S555,346.7,555,344.36Z" transform="translate(-3.13 -4.19)"/></g><g class="cls-3"><path d="M547.4,427.93h-8.88a16.46,16.46,0,0,0-4.6.86,9.7,9.7,0,0,1-3.74-2.22.82.82,0,0,1-.25-.49,3.91,3.91,0,0,1,.74-1.32,39.08,39.08,0,0,0,7.32.45H559.2c3.17,0,6.54-.37,7.07-.37s.78.09.78.58a13.62,13.62,0,0,1-.49,2.71c-1.94-.08-4.28-.2-6.37-.2h-9.46v2a51.38,51.38,0,0,1-.45,5.43c0,.37-.12.61-.45.7a8,8,0,0,1-2.43,0Zm-8.59,11.3v-4.4c0-.61-.08-.9-.45-1.15a4.8,4.8,0,0,0-2.3-.74,4.55,4.55,0,0,1,.28-1.35.48.48,0,0,1,.46-.25,18.26,18.26,0,0,1,4.76.57c.46.17.62.37.62.7v6.62h14.39c1.15,0,4.11-.33,4.56-.33s.7.09.7.5a11.85,11.85,0,0,1-.45,2.59H541.56C539.59,442,538.81,441.12,538.81,439.23Zm-.21-19.69v-9.91c0-1.06-.94-1.48-2.3-1.72a5.48,5.48,0,0,1,.41-1.36.52.52,0,0,1,.5-.29,13.54,13.54,0,0,1,4.19.79.67.67,0,0,1,.49.73v3.62h14.23v-2.59c0-1.07-1-1.48-2.31-1.72a5.46,5.46,0,0,1,.42-1.36.48.48,0,0,1,.49-.29,13.77,13.77,0,0,1,4.19.78.69.69,0,0,1,.49.74v13.53c0,1-.61,1.27-1.23,1.27H540.41C539.3,421.76,538.6,421.1,538.6,419.54Zm17.52-.49v-4.93H541.89v4.93Z" transform="translate(-3.13 -4.19)"/></g><g class="cls-3"><path d="M531,509.58c-.2-.2-.28-.33-.28-.49a4.09,4.09,0,0,1,.65-1.36,20.88,20.88,0,0,0,5.27.45h5.18v-3.37c0-.94-.66-1.44-2.06-1.76a5,5,0,0,1,.41-1.32.49.49,0,0,1,.45-.25,22.48,22.48,0,0,1,3.83.66c.49.17.61.25.61.58v5.46h4.32c1.15,0,4.11-.32,4.56-.32s.7.08.7.49a11.28,11.28,0,0,1-.45,2.59c-1.56-.12-3-.12-4.52-.12h-12.5a9.54,9.54,0,0,0-3.37.65A10.6,10.6,0,0,1,531,509.58Zm3.62,11.59c0-4.35,3.45-7.77,8.67-7.77s8.68,3.42,8.68,7.77-3.45,7.77-8.68,7.77S534.66,525.53,534.66,521.17Zm14.1,0c0-2.91-2.14-5-5.43-5s-5.42,2.1-5.42,5,2.14,5,5.42,5S548.76,524.09,548.76,521.17Zm9.58-17.55c0-.62-.21-.78-.7-1.15a8.61,8.61,0,0,0-2.84-1.11,6.86,6.86,0,0,1,.54-1.48.49.49,0,0,1,.45-.25,20.9,20.9,0,0,1,5.26,1c.45.16.62.33.62.66v31c0,1.73-.29,4.65-.45,6,0,.37-.13.61-.46.69a7.37,7.37,0,0,1-2.42,0Z" transform="translate(-3.13 -4.19)"/></g><g class="cls-3"><path d="M435.41,152.18a12.16,12.16,0,0,1-1.23-1.57c6.17-3.69,12.25-8.71,15.54-13.89h-7.65a8.46,8.46,0,0,0-3,.58,12.23,12.23,0,0,1-2.92-1.81.59.59,0,0,1-.2-.37,4.37,4.37,0,0,1,.62-1.28,28.37,28.37,0,0,0,5,.33h7.73c.82,0,3.29-.2,3.9-.2,1,0,1.36.9.87,1.89a29.06,29.06,0,0,1-4.53,6.29c2.55,2.18,5.14,4.31,7.86,6.45a.47.47,0,0,1,0,.66,9.86,9.86,0,0,1-2.31,1.6c-2.38-2.34-4.85-4.64-7.31-6.9a50.85,50.85,0,0,1-11.47,8.34A.72.72,0,0,1,435.41,152.18Zm8.14,14v-3.49c0-1.19-1-1.56-2-1.81,0-.37.33-1.6.86-1.6s2.22.12,3.21.12H460v-3.7H447.87a10.67,10.67,0,0,0-3.37.45,9.32,9.32,0,0,1-3-1.85.55.55,0,0,1-.21-.37,3.93,3.93,0,0,1,.7-1.19,20.73,20.73,0,0,0,5.26.37h10.24c1,0,3.7-.16,4.73-.16.66,0,1,.28,1,1.11v7.19c0,.45-.21.7-.54.7H446.88v3.82H459.3c1.56,0,4.68-.33,5.09-.33.58,0,.79.09.79.58a10.21,10.21,0,0,1-.46,2.38H445.36C444.25,168.37,443.55,167.72,443.55,166.15Zm16.82-32.43c0-.62-.21-.78-.7-1.15a8.79,8.79,0,0,0-2.84-1.11,5.61,5.61,0,0,1,.54-1.4.48.48,0,0,1,.45-.25,21,21,0,0,1,5.26,1c.45.17.62.33.62.66v8.3h1.89c1.6,0,4.23-.41,4.64-.41.58,0,.78.08.78.58a10.76,10.76,0,0,1-.49,2.42H463.7v2.22c0,1.73-.29,4.65-.46,6,0,.37-.12.62-.45.7a7.37,7.37,0,0,1-2.42,0Z" transform="translate(-3.13 -4.19)"/></g><g class="cls-3"><path d="M433.56,233.27c-.2-.2-.28-.33-.28-.49a4.09,4.09,0,0,1,.65-1.36,20.88,20.88,0,0,0,5.27.45h5.18V228.5c0-.94-.66-1.44-2.06-1.76a5,5,0,0,1,.41-1.32.49.49,0,0,1,.45-.25,22.48,22.48,0,0,1,3.83.66c.49.17.61.25.61.58v5.46h4.32c1.15,0,4.11-.32,4.56-.32s.7.08.7.49a11.28,11.28,0,0,1-.45,2.59c-1.56-.12-3-.12-4.52-.12h-12.5a9.54,9.54,0,0,0-3.37.65A10.6,10.6,0,0,1,433.56,233.27Zm3.62,11.59c0-4.35,3.45-7.77,8.68-7.77s8.67,3.42,8.67,7.77-3.45,7.77-8.67,7.77S437.18,249.22,437.18,244.86Zm14.1,0c0-2.91-2.14-5-5.42-5s-5.43,2.1-5.43,5,2.14,5,5.43,5S451.28,247.78,451.28,244.86Zm9.29-17.55c0-.62-.2-.78-.7-1.15a8.63,8.63,0,0,0-2.83-1.11,6.9,6.9,0,0,1,.53-1.48.49.49,0,0,1,.45-.25,21.06,21.06,0,0,1,5.27,1c.45.16.61.33.61.66v14.59h1.69c1.6,0,4.23-.41,4.64-.41.58,0,.78.08.78.58a10.76,10.76,0,0,1-.49,2.42H463.9v13.77c0,1.73-.29,4.65-.45,6.05,0,.37-.12.61-.45.69a7.44,7.44,0,0,1-2.43,0Z" transform="translate(-3.13 -4.19)"/></g><g class="cls-3"><path d="M433.53,341.55a.82.82,0,0,1-.25-.49,3.67,3.67,0,0,1,.74-1.27,39.08,39.08,0,0,0,7.32.45H449v-8.72c0-1.11-1-1.56-2.67-2a5,5,0,0,1,.45-1.44.48.48,0,0,1,.46-.25,21,21,0,0,1,4.52.62c.45.12.57.25.57.58v11.18h10.24c3.16,0,6.53-.37,7.07-.37s.78.08.78.57a13.91,13.91,0,0,1-.49,2.76c-1.93-.09-4.28-.21-6.37-.21H441.87a16.46,16.46,0,0,0-4.6.86A9.87,9.87,0,0,1,433.53,341.55Zm25.69-4.48a111,111,0,0,0,2-16.81H445.45a10,10,0,0,0-3.33.57,11,11,0,0,1-3.08-2,.68.68,0,0,1-.25-.49,4,4,0,0,1,.7-1.28,23.64,23.64,0,0,0,5.67.46h14.68c1,0,3-.21,4-.21.66,0,1,.33,1,1.15a87.13,87.13,0,0,1-2.67,18.42.55.55,0,0,1-.62.49A11,11,0,0,1,459.22,337.07Z" transform="translate(-3.13 -4.19)"/></g><g class="cls-3"><path d="M436.32,417.59c0-4.9,4-8.51,9.41-8.51s9.41,3.61,9.41,8.51-4,8.5-9.41,8.5S436.32,422.48,436.32,417.59Zm13,26.22a32,32,0,0,0,3.57-3.12l-4.35-4.32a46.84,46.84,0,0,1-8.88,7.73.63.63,0,0,1-.74,0,7.5,7.5,0,0,1-1.2-1.32c3.91-2.87,9.09-7.72,10.2-10.85.29-.82-1-1.56-2.47-2a6.87,6.87,0,0,1,.78-1.28.45.45,0,0,1,.33-.16,12.54,12.54,0,0,1,4.77,1.6,1.49,1.49,0,0,1,.29,1.85A11.1,11.1,0,0,1,450,434.6l5.1,3.74c2-2.3,3.54-4.68,3.78-6.2.13-.87-.78-1.57-2.3-2a6.77,6.77,0,0,1,.78-1.27.46.46,0,0,1,.33-.17,13.29,13.29,0,0,1,4.56,1.65,1.55,1.55,0,0,1,.33,1.85,15.17,15.17,0,0,1-1.89,3.37c2.51,2.05,4.94,4,7.44,6a.51.51,0,0,1,.09.7,9.82,9.82,0,0,1-2.1,1.93c-2.26-2.26-4.56-4.52-6.87-6.74a36.31,36.31,0,0,1-8.05,7.65.63.63,0,0,1-.74,0A11.26,11.26,0,0,1,449.31,443.81Zm2.46-26.22a6,6,0,1,0-6,5.79A5.87,5.87,0,0,0,451.77,417.59Zm9.91-8.39c0-.62-.21-.78-.7-1.15a8.61,8.61,0,0,0-2.84-1.11,6,6,0,0,1,.54-1.4.49.49,0,0,1,.45-.25,20.9,20.9,0,0,1,5.26,1c.45.17.62.33.62.66v14.51c0,1.73-.29,4.64-.45,6,0,.37-.13.62-.45.7a7.73,7.73,0,0,1-2.43,0Z" transform="translate(-3.13 -4.19)"/></g><g class="cls-3"><path d="M461.89,514.94h-6.54c-.57,5.18-4.43,8.55-9.78,8.55-5.79,0-9.86-4-9.86-9.91s4.07-9.9,9.86-9.9c5.35,0,9.21,3.41,9.78,8.55h6.54V502c0-.62-.2-.78-.7-1.15a8.63,8.63,0,0,0-2.83-1.11,6.9,6.9,0,0,1,.53-1.48.49.49,0,0,1,.45-.25,20.9,20.9,0,0,1,5.26,1c.46.17.62.33.62.66v30.95c0,1.73-.29,4.65-.45,6.05,0,.37-.13.61-.45.69a7.44,7.44,0,0,1-2.43,0Zm-9.82-1.36c0-4.35-2.76-7.11-6.5-7.11s-6.49,2.76-6.49,7.11,2.75,7.11,6.49,7.11S452.07,518,452.07,513.58Z" transform="translate(-3.13 -4.19)"/></g><g class="cls-3"><path d="M338.57,152.18a12.16,12.16,0,0,1-1.23-1.57c6.17-3.69,12.25-8.71,15.54-13.89h-7.65a8.46,8.46,0,0,0-3,.58,12.43,12.43,0,0,1-2.92-1.81.59.59,0,0,1-.2-.37,4.37,4.37,0,0,1,.62-1.28,28.37,28.37,0,0,0,5,.33h7.73c.82,0,3.29-.2,3.9-.2,1,0,1.36.9.87,1.89a29.4,29.4,0,0,1-4.53,6.29c2.55,2.18,5.14,4.31,7.86,6.45a.47.47,0,0,1,0,.66,9.86,9.86,0,0,1-2.31,1.6c-2.38-2.34-4.85-4.64-7.31-6.9a50.85,50.85,0,0,1-11.47,8.34A.72.72,0,0,1,338.57,152.18Zm8.14,14v-3.49c0-1.19-1-1.56-2-1.81,0-.37.33-1.6.86-1.6s2.22.12,3.21.12h14.35v-3.7H351a10.67,10.67,0,0,0-3.37.45,9.32,9.32,0,0,1-3-1.85.55.55,0,0,1-.21-.37,3.93,3.93,0,0,1,.7-1.19,20.73,20.73,0,0,0,5.26.37h10.24c1,0,3.7-.16,4.73-.16.66,0,1,.28,1,1.11v7.19c0,.45-.21.7-.54.7H350v3.82h12.42c1.56,0,4.68-.33,5.09-.33.58,0,.79.09.79.58a10.21,10.21,0,0,1-.46,2.38H348.52C347.41,168.37,346.71,167.72,346.71,166.15Zm16.82-32.43c0-.62-.21-.78-.7-1.15a8.79,8.79,0,0,0-2.84-1.11,5.61,5.61,0,0,1,.54-1.4.48.48,0,0,1,.45-.25,21,21,0,0,1,5.26,1c.45.17.62.33.62.66v8.3h1.89c1.6,0,4.23-.41,4.64-.41.58,0,.78.08.78.58a10.76,10.76,0,0,1-.49,2.42h-6.82v2.22c0,1.73-.29,4.65-.46,6,0,.37-.12.62-.45.7a7.37,7.37,0,0,1-2.42,0Z" transform="translate(-3.13 -4.19)"/></g><g class="cls-3"><path d="M339.07,331.87c0-5.92,4.07-9.9,9.86-9.9s9.87,4,9.87,9.9-4.07,9.91-9.87,9.91S339.07,337.79,339.07,331.87Zm16.36,0c0-4.35-2.76-7.11-6.5-7.11s-6.49,2.76-6.49,7.11,2.75,7.11,6.49,7.11S355.43,336.27,355.43,331.87Zm9.41-11.55c0-.62-.21-.78-.7-1.15a8.61,8.61,0,0,0-2.84-1.11,6.86,6.86,0,0,1,.54-1.48.49.49,0,0,1,.45-.25,20.9,20.9,0,0,1,5.26,1c.45.17.62.33.62.66v30.95c0,1.73-.29,4.65-.45,6.05,0,.37-.13.61-.46.69a7.37,7.37,0,0,1-2.42,0Z" transform="translate(-3.13 -4.19)"/></g><g class="cls-3"><path d="M365.05,430.24H353.79a10.82,10.82,0,0,1-.5-2.43c0-.49.21-.57.78-.57s3.05.29,4.65.29h6.33v-4.9H354.28c-3.78,5.51-9.37,10.82-13.44,13a.74.74,0,0,1-.95,0,9.73,9.73,0,0,1-1.15-1.76c5.51-3.54,12.7-10.9,15.29-17.35h-8.18a8.45,8.45,0,0,0-3,.57,10.39,10.39,0,0,1-2.67-1.8.59.59,0,0,1-.2-.37,5.2,5.2,0,0,1,.61-1.44,29.43,29.43,0,0,0,5,.24h8c1,0,2.75-.16,3.58-.16s1.11.66.86,1.6a22.09,22.09,0,0,1-2,4.77h9.08v-8.14c0-.62-.2-.78-.7-1.15a8.63,8.63,0,0,0-2.83-1.11,6.9,6.9,0,0,1,.53-1.48.49.49,0,0,1,.45-.25,20.9,20.9,0,0,1,5.26,1c.46.17.62.33.62.66v30.95c0,1.73-.29,4.65-.45,6.05,0,.37-.13.61-.45.69a7.44,7.44,0,0,1-2.43,0Z" transform="translate(-3.13 -4.19)"/></g><g class="cls-3"><path d="M357.32,520.33a56.49,56.49,0,0,1-15.16,2.51c-1.73,0-2.31-.86-2.31-2.51v-9.08c0-1.11-.9-1.65-2.54-2a5.29,5.29,0,0,1,.45-1.35.47.47,0,0,1,.45-.25,16.36,16.36,0,0,1,4.36.82c.45.17.61.37.61.7v10.77a51.49,51.49,0,0,0,14.14-2.1v-9c0-.66-.08-1-.53-1.23a10.57,10.57,0,0,0-2.34-.87,5.41,5.41,0,0,1,.53-1.35.53.53,0,0,1,.5-.25,17.5,17.5,0,0,1,4.39.7c.46.16.62.37.62.7V513H366V506.6a1.37,1.37,0,0,0-.66-1.23,6.87,6.87,0,0,0-2.71-1.07,6.47,6.47,0,0,1,.53-1.44.49.49,0,0,1,.45-.25,19,19,0,0,1,5,.95c.45.16.61.33.61.66v13c0,1.72-.2,4.64-.37,6,0,.37-.12.62-.45.7a8,8,0,0,1-2.42,0v-8.34h-5.47v1.43c0,1.73-.21,4.77-.37,6.17,0,.37-.12.62-.45.7a7.5,7.5,0,0,1-2.35,0ZM348.24,539v-3.57c0-1.19-1-1.56-2-1.81,0-.37.32-1.6.86-1.6s2.22.12,3.21.12h15.16v-3.78h-12.9a10.64,10.64,0,0,0-3.37.45,9.1,9.1,0,0,1-3-1.85.53.53,0,0,1-.21-.37,3.62,3.62,0,0,1,.7-1.19,20.73,20.73,0,0,0,5.26.37H363c1,0,3.7-.17,4.73-.17.65,0,1,.29,1,1.11v7.28c0,.45-.2.7-.53.7H351.57v3.9h12.7c1.56,0,4.69-.33,5.1-.33.57,0,.78.09.78.58a10.67,10.67,0,0,1-.45,2.38H350.05C348.94,541.17,348.24,540.52,348.24,539Z" transform="translate(-3.13 -4.19)"/></g><g class="cls-3"><path d="M353.75,711.34H345a16.46,16.46,0,0,0-4.6.86,9.87,9.87,0,0,1-3.74-2.3.82.82,0,0,1-.25-.49,3.79,3.79,0,0,1,.74-1.28,39,39,0,0,0,7.32.46h21.21c3.17,0,6.54-.37,7.07-.37s.78.08.78.57a14.16,14.16,0,0,1-.49,2.76c-1.93-.09-4.28-.21-6.37-.21h-9.62v7.89c0,1.73-.29,4.65-.46,6,0,.37-.12.61-.45.69a7.37,7.37,0,0,1-2.42,0Zm-12.5-7.69c4.48-2.55,12.95-9.12,14.1-11.88.37-.9-.82-1.68-2.26-2.26a13.53,13.53,0,0,1,.7-1.19.42.42,0,0,1,.33-.21,14.1,14.1,0,0,1,5.22,1.77,1.23,1.23,0,0,1,.49,1,1.58,1.58,0,0,1-.25.9,17.64,17.64,0,0,1-2.34,3.13c3.78,2.59,7.61,5.13,11.59,7.56a.48.48,0,0,1,.09.7,17.83,17.83,0,0,1-2.14,2.05c-3.82-3-7.57-5.75-11.35-8.5a66,66,0,0,1-12,8.75.68.68,0,0,1-.74.08A5.62,5.62,0,0,1,341.25,703.65Z" transform="translate(-3.13 -4.19)"/></g><g class="cls-3"><path d="M242,142.11c0-4.9,4-8.51,9.41-8.51s9.41,3.61,9.41,8.51-4,8.5-9.41,8.5S242,147,242,142.11Zm13,26.22a32,32,0,0,0,3.57-3.12l-4.35-4.32a46.84,46.84,0,0,1-8.88,7.73.63.63,0,0,1-.74,0,7.5,7.5,0,0,1-1.2-1.32c3.91-2.87,9.09-7.72,10.2-10.85.29-.82-1-1.56-2.47-2a6.87,6.87,0,0,1,.78-1.28.45.45,0,0,1,.33-.16,12.54,12.54,0,0,1,4.77,1.6,1.49,1.49,0,0,1,.29,1.85,11.35,11.35,0,0,1-1.6,2.67l5.09,3.74c2-2.3,3.54-4.68,3.78-6.2.13-.87-.78-1.57-2.3-2a6.77,6.77,0,0,1,.78-1.27.46.46,0,0,1,.33-.17,13.41,13.41,0,0,1,4.57,1.65,1.56,1.56,0,0,1,.32,1.85,14.77,14.77,0,0,1-1.89,3.37c2.51,2.05,4.94,4,7.44,6a.51.51,0,0,1,.09.7,9.82,9.82,0,0,1-2.1,1.93c-2.26-2.26-4.56-4.52-6.87-6.74a36.31,36.31,0,0,1-8.05,7.65.63.63,0,0,1-.74,0A11.26,11.26,0,0,1,255,168.33Zm2.46-26.22a6,6,0,1,0-6,5.79A5.87,5.87,0,0,0,257.47,142.11Zm9.91-8.39c0-.62-.21-.78-.7-1.15a8.61,8.61,0,0,0-2.84-1.11,6,6,0,0,1,.54-1.4.49.49,0,0,1,.45-.25,20.9,20.9,0,0,1,5.26,1c.45.17.62.33.62.66V146c0,1.73-.29,4.64-.45,6,0,.37-.13.62-.45.7a7.73,7.73,0,0,1-2.43,0Z" transform="translate(-3.13 -4.19)"/></g><g class="cls-3"><path d="M239.22,240.83a.82.82,0,0,1-.25-.49,3.79,3.79,0,0,1,.74-1.28,39.08,39.08,0,0,0,7.32.45h21.21c3.16,0,6.54-.37,7.07-.37s.78.09.78.58a13.3,13.3,0,0,1-.49,2.67c-1.93-.08-4.28-.2-6.37-.2H247.56a16.46,16.46,0,0,0-4.6.86A9.7,9.7,0,0,1,239.22,240.83Zm8.71,17.06v-3.37c0-1.19-1-1.56-2-1.81,0-.37.33-1.6.86-1.6s2.22.12,3.21.12h16.15v-3.49H252.37a10.67,10.67,0,0,0-3.37.45,9.32,9.32,0,0,1-3-1.85.56.56,0,0,1-.2-.37c0-.25.45-.82.69-1.15a20.81,20.81,0,0,0,5.27.37h11.92c1,0,3.7-.17,4.72-.17.66,0,1,.29,1,1.11v7c0,.45-.2.7-.53.7H251.26v3.7h13.81c1.57,0,4.69-.33,5.1-.33.58,0,.78.08.78.58a10.13,10.13,0,0,1-.45,2.38H249.74C248.63,260.11,247.93,259.45,247.93,257.89Zm.37-28.28c0-3.66,3.41-7.4,9.62-7.4s9.62,3.74,9.62,7.4-3.41,7.4-9.62,7.4S248.3,233.27,248.3,229.61Zm15.91,0c0-2.39-2.1-4.69-6.29-4.69s-6.29,2.3-6.29,4.69,2.1,4.68,6.29,4.68S264.21,232,264.21,229.61Z" transform="translate(-3.13 -4.19)"/></g><g class="cls-3"><path d="M242.42,344.91a9.73,9.73,0,0,1-1.15-1.76c5.51-3.54,12.83-10.9,15.42-17.35h-8.31a8.45,8.45,0,0,0-3,.57,10.39,10.39,0,0,1-2.67-1.8.59.59,0,0,1-.2-.37,5.2,5.2,0,0,1,.61-1.44,29.43,29.43,0,0,0,5,.24h8.18c1,0,2.75-.16,3.57-.16s1.11.66.87,1.6c-1.89,7.36-11.39,17.23-17.35,20.51A.74.74,0,0,1,242.42,344.91Zm25.16-9.29H259a10.76,10.76,0,0,1-.49-2.42c0-.5.2-.58.78-.58.41,0,3,.29,4.64.29h3.66V321.07c0-.62-.2-.78-.7-1.15a8.63,8.63,0,0,0-2.83-1.11,6.9,6.9,0,0,1,.53-1.48.49.49,0,0,1,.45-.25,20.9,20.9,0,0,1,5.26,1c.46.17.62.33.62.66v30.95c0,1.73-.29,4.65-.45,6.05,0,.37-.13.61-.45.69a7.44,7.44,0,0,1-2.43,0Z" transform="translate(-3.13 -4.19)"/></g><g class="cls-3"><path d="M240.78,423.25c0-5.92,3.94-9.9,9.74-9.9s9.74,4,9.74,9.9-3.95,9.91-9.74,9.91S240.78,429.17,240.78,423.25Zm16.11,0c0-4.35-2.71-7.11-6.37-7.11s-6.37,2.76-6.37,7.11,2.71,7.11,6.37,7.11S256.89,427.61,256.89,423.25Zm9.17-11.55c0-.62-.21-.78-.7-1.15a8.79,8.79,0,0,0-2.84-1.11,6.36,6.36,0,0,1,.54-1.48.48.48,0,0,1,.45-.25,21,21,0,0,1,5.26,1c.45.16.62.33.62.66v9.37h1.8c1.61,0,4.24-.41,4.65-.41.58,0,.78.08.78.58a11.36,11.36,0,0,1-.49,2.42h-6.74v6.45h1.89c1.6,0,4.23-.41,4.64-.41.58,0,.78.09.78.58a10.76,10.76,0,0,1-.49,2.42h-6.82v9.95c0,1.73-.29,4.65-.46,6.05,0,.37-.12.61-.45.69a7.37,7.37,0,0,1-2.42,0Z" transform="translate(-3.13 -4.19)"/></g><g class="cls-3"><path d="M72.5,145.72H68.26v6.79c0,1.72-.2,4.64-.37,6,0,.37-.12.62-.45.7a7.44,7.44,0,0,1-2.34,0v-7.11c-4.89,1-11.88,2.09-14.1,2.38-1.81.25-3.74.58-4.85.86a14.35,14.35,0,0,1-3.78-2.13.57.57,0,0,1-.21-.41,4.22,4.22,0,0,1,.78-1.32,21,21,0,0,0,5.55.49c.54,0,1.07,0,1.69-.08v-6c0-1.11-.78-1.56-2.43-2a4.49,4.49,0,0,1,.41-1.36.5.5,0,0,1,.45-.25,17.15,17.15,0,0,1,4.07.62c.46.12.58.25.58.58v8c3.82-.45,8.18-1.19,11.84-2V136c0-.66-.08-1-.54-1.23a10.38,10.38,0,0,0-2.34-.87,5,5,0,0,1,.54-1.35.52.52,0,0,1,.49-.25,17.58,17.58,0,0,1,4.4.7c.45.16.61.37.61.7v9.37H72.5V133.8a1.36,1.36,0,0,0-.66-1.23,6.81,6.81,0,0,0-2.71-1.07,6.47,6.47,0,0,1,.53-1.44.5.5,0,0,1,.45-.25,19,19,0,0,1,5,.95c.45.16.62.33.62.66v22.32c0,1.73-.21,4.64-.37,6,0,.37-.13.62-.46.7a8,8,0,0,1-2.42,0Zm-15.42,3a62.73,62.73,0,0,0,1.19-11.26h-7.6a10,10,0,0,0-3.33.57,11,11,0,0,1-3.08-2,.71.71,0,0,1-.25-.49,4,4,0,0,1,.7-1.28,23.64,23.64,0,0,0,5.67.46h6.37c1,0,3-.21,4-.21.66,0,1,.33,1,1.15A58,58,0,0,1,60,148.56c-.12.37-.29.49-.62.49A10.55,10.55,0,0,1,57.08,148.68Zm-2.63,16.73v-4.89c0-.62-.08-.9-.45-1.15a4.66,4.66,0,0,0-2.3-.74,4.35,4.35,0,0,1,.29-1.36.47.47,0,0,1,.45-.24,18.08,18.08,0,0,1,4.73.57c.45.17.61.37.61.7v6.91H71.47c1.56,0,4.69-.45,5.1-.45.57,0,.78.08.78.57a12.26,12.26,0,0,1-.45,2.59H56.75C55,167.92,54.45,167.06,54.45,165.41Z" transform="translate(-3.13 -4.19)"/></g><g class="cls-3"><path d="M44.29,243.76a8.1,8.1,0,0,1-1-1.56c5.34-3.21,12.33-8.84,15.7-13h-7a9.67,9.67,0,0,0-3.41.65A14.18,14.18,0,0,1,45.44,228a.48.48,0,0,1-.2-.37,4.45,4.45,0,0,1,.62-1.27,28.37,28.37,0,0,0,5,.33h2.51V225c0-.94-.66-1.44-2.06-1.76a4.39,4.39,0,0,1,.41-1.24.49.49,0,0,1,.45-.24,21.59,21.59,0,0,1,3.75.65c.49.17.61.25.61.58v3.74h2c1.43,0,3-.16,3.9-.16a1.38,1.38,0,0,1,.86,2.26,38,38,0,0,1-5.3,5.67c2.71,1.85,5.22,3.41,8,5.22.33.2.24.49.08.7A10.33,10.33,0,0,1,64,242.28c-2.67-2.1-5.13-3.95-8-6.08a72.79,72.79,0,0,1-10.77,7.64A.73.73,0,0,1,44.29,243.76Zm5.06,13.07v-7.48c0-.62-.08-.9-.45-1.15a4.7,4.7,0,0,0-2.3-.74,4.63,4.63,0,0,1,.28-1.36.49.49,0,0,1,.46-.24,18,18,0,0,1,4.72.57c.45.16.62.37.62.7v9.41a18.94,18.94,0,0,0,7.19-1.44,3.56,3.56,0,0,1,.74,1.73c0,.29,0,.41-.28.54a21.75,21.75,0,0,1-8.68,2C49.92,259.34,49.35,258.47,49.35,256.83Zm9-8.88a.63.63,0,0,1-.28-.49,3,3,0,0,1,.57-1.19,23,23,0,0,0,4.6.45h3.58v-.91c0-1-.49-1.43-1.64-1.76a3.51,3.51,0,0,1,.37-1.24.47.47,0,0,1,.45-.24,15.66,15.66,0,0,1,3.33.61c.49.17.57.37.57.78v2.76h2.27c1.15,0,4.11-.25,4.56-.25s.7.08.7.5a8.63,8.63,0,0,1-.46,2.21c-1.56-.12-3-.12-4.52-.12H65.13a13.53,13.53,0,0,0-4,.49A14.8,14.8,0,0,1,58.39,248Zm3,7.48c0-2.71,2.55-5.22,6.83-5.22S75,252.72,75,255.43s-2.55,5.22-6.82,5.22S61.39,258.15,61.39,255.43Zm10.53,0c0-1.48-1.24-2.83-3.7-2.83s-3.7,1.35-3.7,2.83,1.23,2.84,3.7,2.84S71.92,256.91,71.92,255.43Zm-2.06-30.21c0-.62-.2-.78-.7-1.15A8.63,8.63,0,0,0,66.33,223a6.06,6.06,0,0,1,.53-1.4.49.49,0,0,1,.45-.25,21.06,21.06,0,0,1,5.27,1c.45.17.61.33.61.66v8.1h1.69c1.6,0,4.23-.41,4.64-.41.58,0,.78.08.78.57a10.83,10.83,0,0,1-.49,2.43H73.19v2.09c0,1.73-.29,4.4-.45,5.8,0,.37-.12.62-.45.7a8,8,0,0,1-2.43,0Z" transform="translate(-3.13 -4.19)"/></g><g class="cls-3"><path d="M44.38,331.64c0-5.92,3.94-9.9,9.74-9.9s9.74,4,9.74,9.9-4,9.91-9.74,9.91S44.38,337.56,44.38,331.64Zm16.11,0c0-4.35-2.71-7.11-6.37-7.11s-6.37,2.76-6.37,7.11,2.71,7.11,6.37,7.11S60.49,336,60.49,331.64Zm9.17-11.55c0-.62-.21-.78-.7-1.15a8.79,8.79,0,0,0-2.84-1.11,6.36,6.36,0,0,1,.54-1.48.48.48,0,0,1,.45-.25,21,21,0,0,1,5.26,1c.45.17.62.33.62.66v14.18h1.89c1.6,0,4.23-.41,4.64-.41.58,0,.78.08.78.57a10.73,10.73,0,0,1-.49,2.43H73V348.7c0,1.73-.29,4.65-.46,6.05,0,.37-.12.61-.45.69a7.37,7.37,0,0,1-2.42,0Z" transform="translate(-3.13 -4.19)"/></g></svg>