<svg id="Layer_1" data-name="Layer 1" xmlns="http://www.w3.org/2000/svg" viewBox="0 0 179.53 236.19"><defs><style>.cls-1{fill:#fff;stroke:#241916;stroke-width:2px;}.cls-1,.cls-4{stroke-linecap:round;stroke-linejoin:round;}.cls-2{isolation:isolate;}.cls-3{fill:#010101;}.cls-4{fill:none;stroke:#010101;}</style></defs><path class="cls-1" d="M185.75,159.9l-3.41,8.67-23.46,59.59a14,14,0,0,1-13,8.86H91.36a14,14,0,0,1-14-14,14.16,14.16,0,0,1,1-5.15L101.45,160h0l-79.21.09a14,14,0,0,1-14-14V16.83a14,14,0,0,1,14-14H171.77a14,14,0,0,1,14,14V159.9" transform="translate(-7.24 -1.83)"/><g class="cls-2"><g class="cls-2"><path class="cls-3" d="M42.09,84.54V77.82c0-.3,0-.48-.22-.6a2.75,2.75,0,0,0-1.12-.4,2.81,2.81,0,0,1,.22-.66.23.23,0,0,1,.22-.12,8.36,8.36,0,0,1,2.24.4c.22.08.3.18.3.34v7.58a46.27,46.27,0,0,0,8.14-.92,3.63,3.63,0,0,1,.22.92.24.24,0,0,1-.2.28,48.27,48.27,0,0,1-8.68,1.12C42.37,85.76,42.09,85.34,42.09,84.54Zm11.8-3.8H48.37a5.35,5.35,0,0,1-.24-1.18c0-.24.1-.28.38-.28s1.48.14,2.26.14h3.12V74.94c0-.3-.1-.38-.34-.56a4.19,4.19,0,0,0-1.38-.54,3.26,3.26,0,0,1,.26-.72.23.23,0,0,1,.22-.12,10.16,10.16,0,0,1,2.56.48c.22.08.3.16.3.32V88.86c0,.84-.14,2.26-.22,2.94,0,.18-.06.3-.22.34a3.79,3.79,0,0,1-1.18,0Z" transform="translate(-7.24 -1.83)"/><path class="cls-3" d="M69.77,81.28H67.89c-.24,2.58-1.92,4.12-4.16,4.12-2.44,0-4.24-1.82-4.24-4.78s1.8-4.78,4.24-4.78c2.24,0,3.92,1.56,4.16,4.12h1.88V76c0-.32,0-.48-.26-.6A5.13,5.13,0,0,0,68.37,75a2.66,2.66,0,0,1,.26-.66.26.26,0,0,1,.24-.12,8.54,8.54,0,0,1,2.14.34c.22.08.3.18.3.34V88.26c0,.84-.1,2.26-.18,2.94,0,.18-.06.3-.22.34a3.53,3.53,0,0,1-1.14,0Zm-3.38-.66c0-2.16-1.18-3.42-2.66-3.42s-2.66,1.26-2.66,3.42S62.25,84,63.73,84,66.39,82.78,66.39,80.62Zm6.78-5.68a.66.66,0,0,0-.32-.6,3.29,3.29,0,0,0-1.32-.52,3,3,0,0,1,.26-.7A.23.23,0,0,1,72,73a9.23,9.23,0,0,1,2.44.46c.22.08.3.16.3.32V88.86c0,.84-.1,2.26-.18,2.94,0,.18-.06.3-.22.34a3.79,3.79,0,0,1-1.18,0Z" transform="translate(-7.24 -1.83)"/><path class="cls-3" d="M88.81,82h-4.7a19.86,19.86,0,0,1-4.56,4.54.39.39,0,0,1-.46,0,6.22,6.22,0,0,1-.62-.82c2.4-1.78,5.44-5.22,6.4-8.18H81.93a4.6,4.6,0,0,0-1.56.22,8.92,8.92,0,0,1-1.4-.84c-.06-.06-.1-.1-.1-.18a2.35,2.35,0,0,1,.3-.66,19.43,19.43,0,0,0,2.42.1h3c.5,0,1.34-.08,1.74-.08s.52.32.42.78A12.42,12.42,0,0,1,85,80.7h3.78V76c0-.32,0-.48-.26-.6A5.13,5.13,0,0,0,87.41,75a2.66,2.66,0,0,1,.26-.66.26.26,0,0,1,.24-.12,8.54,8.54,0,0,1,2.14.34c.22.08.3.18.3.34V88.26c0,.84-.1,2.26-.18,2.94,0,.18-.06.3-.22.34a3.53,3.53,0,0,1-1.14,0Zm3.6-7.08a.66.66,0,0,0-.32-.6,3.29,3.29,0,0,0-1.32-.52,3,3,0,0,1,.26-.7.23.23,0,0,1,.22-.12,9.23,9.23,0,0,1,2.44.46c.22.08.3.16.3.32V88.86c0,.84-.1,2.26-.18,2.94,0,.18-.06.3-.22.34a3.79,3.79,0,0,1-1.18,0Z" transform="translate(-7.24 -1.83)"/></g><g class="cls-2"><path class="cls-3" d="M40.41,108.48c-.1-.1-.14-.16-.14-.24a2,2,0,0,1,.32-.66,10.08,10.08,0,0,0,2.56.22h2.52v-1.64c0-.46-.32-.7-1-.86a2.41,2.41,0,0,1,.2-.64.23.23,0,0,1,.22-.12,11,11,0,0,1,1.86.32c.24.08.3.12.3.28v2.66h2.1c.56,0,2-.16,2.22-.16s.34,0,.34.24a5.57,5.57,0,0,1-.22,1.26c-.76-.06-1.44-.06-2.2-.06H43.41a4.62,4.62,0,0,0-1.64.32A5.2,5.2,0,0,1,40.41,108.48Zm1.76,5.64c0-2.12,1.68-3.78,4.22-3.78s4.22,1.66,4.22,3.78-1.68,3.78-4.22,3.78S42.17,116.24,42.17,114.12Zm6.86,0a2.65,2.65,0,1,0-2.64,2.44A2.42,2.42,0,0,0,49,114.12Zm4.52-8.54c0-.3-.1-.38-.34-.56a4.19,4.19,0,0,0-1.38-.54,3.26,3.26,0,0,1,.26-.72.23.23,0,0,1,.22-.12,10.16,10.16,0,0,1,2.56.48c.22.08.3.16.3.32v7.1H56c.78,0,2.06-.2,2.26-.2s.38,0,.38.28a5.35,5.35,0,0,1-.24,1.18H55.17v6.7c0,.84-.14,2.26-.22,2.94,0,.18-.06.3-.22.34a3.79,3.79,0,0,1-1.18,0Z" transform="translate(-7.24 -1.83)"/><path class="cls-3" d="M59.33,117.7a.39.39,0,0,1-.12-.24,1.87,1.87,0,0,1,.36-.62,18.94,18.94,0,0,0,3.56.22h3.72v-4.24c0-.54-.5-.76-1.3-1a2.41,2.41,0,0,1,.22-.7A.23.23,0,0,1,66,111a10.14,10.14,0,0,1,2.2.3c.22.06.28.12.28.28v5.44h5c1.54,0,3.18-.18,3.44-.18s.38,0,.38.28A6.58,6.58,0,0,1,77,118.5c-.94,0-2.08-.1-3.1-.1H63.39a8,8,0,0,0-2.24.42A4.88,4.88,0,0,1,59.33,117.7Zm12.5-2.18a54.41,54.41,0,0,0,1-8.18H65.13a4.86,4.86,0,0,0-1.62.28,5.41,5.41,0,0,1-1.5-1,.34.34,0,0,1-.12-.24,2,2,0,0,1,.34-.62A11.51,11.51,0,0,0,65,106h7.14c.5,0,1.44-.1,1.94-.1.32,0,.5.16.5.56a42.2,42.2,0,0,1-1.3,9,.27.27,0,0,1-.3.24A5.55,5.55,0,0,1,71.83,115.52Z" transform="translate(-7.24 -1.83)"/><path class="cls-3" d="M84.21,113.86c2-1.64,5.56-5.58,5.56-7,0-.44-.64-.8-1.34-1.08a3.9,3.9,0,0,1,.4-.6.21.21,0,0,1,.16-.08,7,7,0,0,1,2.52.92.56.56,0,0,1,.22.52,4.76,4.76,0,0,1-1,2.26c1.62,1.44,2.84,2.56,4.36,3.9a.25.25,0,0,1,0,.42c-.24.26-.7.68-1,.94-1.42-1.5-2.62-2.76-4.08-4.24a30,30,0,0,1-4.62,4.74c-.14.1-.28.16-.44,0S84.45,114.12,84.21,113.86Zm3,7.82c-.1-.1-.14-.16-.14-.24a1.77,1.77,0,0,1,.32-.6,10.08,10.08,0,0,0,2.56.22h.56V116.8a6.09,6.09,0,0,0-1.68.24,7.87,7.87,0,0,1-1.28-.88.31.31,0,0,1-.14-.24,1.83,1.83,0,0,1,.32-.62,10.08,10.08,0,0,0,2.56.22h6.58c.56,0,2-.1,2.22-.1s.34,0,.34.24a5.13,5.13,0,0,1-.22,1.2c-.76-.06-1.44-.06-2.2-.06h-.1v4.26h.5c.56,0,2-.1,2.22-.1s.34,0,.34.24a5.13,5.13,0,0,1-.22,1.2c-.76-.06-1.44-.06-2.2-.06H90.17a4.62,4.62,0,0,0-1.64.32A5.82,5.82,0,0,1,87.17,121.68Zm8.12-.62V116.8H92.05v4.26Zm2.08-15.52c0-.3-.1-.38-.34-.56a4.19,4.19,0,0,0-1.38-.54,2.85,2.85,0,0,1,.26-.68.23.23,0,0,1,.22-.12,10.16,10.16,0,0,1,2.56.48c.22.08.3.16.3.32v6.86c0,.84-.14,2.26-.22,2.94,0,.18-.06.3-.22.34a3.79,3.79,0,0,1-1.18,0Z" transform="translate(-7.24 -1.83)"/><path class="cls-3" d="M102.21,114.54a.39.39,0,0,1-.12-.24,1.93,1.93,0,0,1,.36-.64,18.94,18.94,0,0,0,3.56.22h10.32c1.54,0,3.18-.18,3.44-.18s.38,0,.38.28a6.42,6.42,0,0,1-.24,1.32c-.94,0-2.08-.1-3.1-.1H106.27a8,8,0,0,0-2.24.42A4.79,4.79,0,0,1,102.21,114.54Zm4.2,6.22v-2.22c0-.3,0-.44-.22-.56a2.3,2.3,0,0,0-1.12-.36,2.19,2.19,0,0,1,.14-.66.23.23,0,0,1,.22-.12,8.88,8.88,0,0,1,2.32.28c.22.08.3.18.3.34v3.3h7c.56,0,2-.16,2.22-.16s.34,0,.34.24a5.57,5.57,0,0,1-.22,1.26h-9.64C106.79,122.1,106.41,121.68,106.41,120.76Zm.14-12.32c0-2,1.72-4,4.76-4s4.76,2,4.76,4-1.72,4-4.76,4S106.55,110.42,106.55,108.44Zm7.9,0c0-1.34-1.1-2.62-3.14-2.62s-3.14,1.28-3.14,2.62,1.1,2.62,3.14,2.62S114.45,109.78,114.45,108.44Z" transform="translate(-7.24 -1.83)"/><path class="cls-3" d="M128.35,112.1v-4.72c0-.54-.44-.8-1-.92,0-.18.1-.84.36-.84.48,0,1.52.14,2,.14h4c.5,0,1.8-.08,2.3-.08.32,0,.5.14.5.54v6.34a.54.54,0,0,1-.6.62h-6.76C128.69,113.18,128.35,112.86,128.35,112.1Zm6.64-.18V107h-5v4.9Zm-3.16,9.4v-1.7c0-.58-.48-.76-1-.88,0-.18.16-.78.42-.78s1.08.06,1.56.06h7v-1.8h-5.88a5.17,5.17,0,0,0-1.64.22,4.55,4.55,0,0,1-1.44-.9.27.27,0,0,1-.1-.18,1.8,1.8,0,0,1,.34-.58,10,10,0,0,0,2.56.18h5c.5,0,1.8-.08,2.3-.08.32,0,.5.14.5.54v3.5c0,.22-.1.34-.26.34h-7.72v1.86h6c.76,0,2.28-.16,2.48-.16s.38,0,.38.28a5,5,0,0,1-.22,1.16h-9.42C132.17,122.4,131.83,122.08,131.83,121.32ZM140,105.54c0-.3-.1-.38-.34-.56a4.19,4.19,0,0,0-1.38-.54,2.85,2.85,0,0,1,.26-.68.23.23,0,0,1,.22-.12,10.16,10.16,0,0,1,2.56.48c.22.08.3.16.3.32v4h.92c.78,0,2.06-.2,2.26-.2s.38,0,.38.28a5.35,5.35,0,0,1-.24,1.18h-3.32v1.08c0,.84-.14,2.26-.22,2.94,0,.18-.06.3-.22.34a3.79,3.79,0,0,1-1.18,0Z" transform="translate(-7.24 -1.83)"/></g></g><polyline class="cls-4" points="133.41 32.69 153.84 32.69 148 26.85"/></svg>