<svg id="Layer_1" data-name="Layer 1" xmlns="http://www.w3.org/2000/svg" viewBox="0 0 129.22 154.79"><defs><style>.cls-1{fill:#fff;stroke:#241916;stroke-width:1.5px;}.cls-1,.cls-4{stroke-linecap:round;stroke-linejoin:round;}.cls-2{isolation:isolate;}.cls-3{fill:#010101;}.cls-4{fill:none;stroke:#010101;}</style></defs><path class="cls-1" d="M107.87,150.1l-4.31,3.13-29.62,21.5a8,8,0,0,1-9,.27L38.69,158.24A8,8,0,0,1,38.32,145l28.9-20.79h0L29,99.93a8,8,0,0,1-2.45-11L66.3,26.63a8,8,0,0,1,11-2.43l72.06,46a8,8,0,0,1,2.44,11l-41.63,65.3-2.3,3.6" transform="translate(-24.57 -22.21)"/><g class="cls-2"><path class="cls-3" d="M60,72l-2.13-1.37a4.75,4.75,0,0,0-1.27-.52A2.92,2.92,0,0,1,56.06,69a.19.19,0,0,1,0-.16,1.2,1.2,0,0,1,.38-.2,11.64,11.64,0,0,0,1.72,1.27l5.2,3.34c.78.5,1.66.94,1.79,1s.18.15.1.27a4.1,4.1,0,0,1-.55.59c-.46-.32-1-.72-1.53-1.05l-2.36-1.52-1.19,1.86c-.27.42-.8,1.09-1.06,1.41-.07.08-.13.13-.23.1a2.38,2.38,0,0,1-.6-.37Zm.2-4.9c.7-1.08,2.25-1.47,3.82-.46s1.86,2.58,1.16,3.66-2.24,1.48-3.81.47S59.52,68.21,60.21,67.13Zm4.17,2.68a2,2,0,1,0-2.57.31A1.75,1.75,0,0,0,64.38,69.81Z" transform="translate(-24.57 -22.21)"/><path class="cls-3" d="M65.64,79.65l.54-.83c.18-.29,0-.54-.21-.76.06-.08.33-.34.46-.25s.52.38.77.53l4,2.55.55-.86-3.38-2.17a3,3,0,0,0-.9-.42,2.8,2.8,0,0,1-.43-.92.13.13,0,0,1,0-.12,1,1,0,0,1,.35-.17,6,6,0,0,0,1.23.91l1.1.71.54-.85L68.1,75.63a4.75,4.75,0,0,0-1.27-.51A3,3,0,0,1,66.27,74a.23.23,0,0,1,0-.16,1.09,1.09,0,0,1,.39-.19,11,11,0,0,0,1.72,1.26l5.2,3.34c.77.5,1.66.94,1.79,1s.18.14.1.26a4,4,0,0,1-.54.58c-.46-.33-1-.72-1.53-1.06l-2.36-1.51-.54.85,1,.64c.26.16.94.55,1.19.71s.21.23.08.43l-1.1,1.7c-.07.12-.16.14-.24.09l-4.33-2.78-.59.9,3.39,2.18c.38.25,1.2.66,1.3.72s.18.15.1.27a3.11,3.11,0,0,1-.48.51l-5.09-3.27C65.46,80.3,65.4,80,65.64,79.65Zm4.55-6.87c.58-.9,2-1.28,3.52-.3s1.77,2.43,1.2,3.33-2,1.27-3.53.29S69.61,73.67,70.19,72.78Zm3.9,2.5c.38-.58.22-1.48-.8-2.14s-1.91-.42-2.28.16-.23,1.48.8,2.14S73.71,75.87,74.09,75.28Z" transform="translate(-24.57 -22.21)"/><path class="cls-3" d="M75.48,80.53a.23.23,0,0,1,0-.16,1.09,1.09,0,0,1,.39-.19,11,11,0,0,0,1.72,1.26l5.2,3.34c.77.5,1.66.94,1.79,1s.18.15.1.27a4,4,0,0,1-.55.59c-.46-.33-1-.73-1.53-1.06L77.3,82.19A5,5,0,0,0,76,81.67,2.77,2.77,0,0,1,75.48,80.53Zm.45,4.25c.63-1,2-1.31,3.52-.35s1.77,2.37,1.14,3.35-2,1.31-3.52.35S75.31,85.76,75.93,84.78Zm3.84,2.47a1.85,1.85,0,1,0-2.27.22A1.56,1.56,0,0,0,79.77,87.25Zm-2.41-6.83a4.18,4.18,0,0,1,0-.59,32,32,0,0,0,6.39.65L81.16,78.8a2.87,2.87,0,0,0-.86-.37,4.92,4.92,0,0,1-.41-.83.17.17,0,0,1,0-.12,1.32,1.32,0,0,1,.37-.24,9,9,0,0,0,1.18.84l3,1.9c.25.17.69.41.89.54s.1.47-.09.56a6.54,6.54,0,0,1-2.79.2c.68,1,1.25,1.76,1.95,2.68.06.08,0,.16-.06.21a4.62,4.62,0,0,1-.77.26c-.68-1.09-1.26-2.07-2-3.21a36.64,36.64,0,0,1-4-.59A.21.21,0,0,1,77.36,80.42Z" transform="translate(-24.57 -22.21)"/><path class="cls-3" d="M88,89.88l2.42-3.76c.18-.28,0-.55-.19-.78.07-.09.32-.4.45-.31s.72.56,1,.73l1.62,1c.29.18,1.06.58,1.17.65s.16.13.09.23a3.54,3.54,0,0,1-.51.56l-2.72-1.75L90.38,88l1.05.68c.28.18,1,.58,1.17.65s.15.13.09.23a3.13,3.13,0,0,1-.51.55l-2.24-1.44-1.07,1.68a21.77,21.77,0,0,0,3.66,1.76,2.35,2.35,0,0,1-.17.51c0,.07-.1.11-.19.08a21.09,21.09,0,0,1-4-1.8C87.76,90.59,87.75,90.29,88,89.88Zm6,1.36-1.29-.83a2.83,2.83,0,0,1,.26-.66c.07-.12.14-.11.28,0s.58.48,1,.73l.2.13,1.36-2.11c.1-.16.13-.25.06-.38a3.05,3.05,0,0,0-.44-.58,1.28,1.28,0,0,1,.35-.25.18.18,0,0,1,.16,0,5.32,5.32,0,0,1,1,.87c.09.11.1.19,0,.27l-4.33,6.74c-.27.42-.78,1.1-1,1.42-.07.09-.13.13-.22.1a2,2,0,0,1-.58-.36Zm3.83-2.19a.4.4,0,0,0,0-.41,2.17,2.17,0,0,0-.5-.69,1.66,1.66,0,0,1,.36-.26.12.12,0,0,1,.15,0,5.79,5.79,0,0,1,1.08,1c.08.11.09.18,0,.26l-4.88,7.59c-.27.43-.78,1.11-1,1.43-.07.08-.13.13-.22.1a2.61,2.61,0,0,1-.61-.37Z" transform="translate(-24.57 -22.21)"/><path class="cls-3" d="M96.35,96.67a.32.32,0,0,1,0-.16,1,1,0,0,1,.38-.19,11.11,11.11,0,0,0,1.73,1.26l5.2,3.34c.77.5,1.66.94,1.79,1s.18.14.1.26a3.73,3.73,0,0,1-.56.6c-.46-.33-1-.73-1.53-1.06l-5.31-3.41a4.67,4.67,0,0,0-1.26-.51A2.91,2.91,0,0,1,96.35,96.67Zm2.49-1.4a15.7,15.7,0,0,0,5.61-1.14c.25-.15.07-.54-.2-.91l.36-.18a.13.13,0,0,1,.12,0,4.15,4.15,0,0,1,1,1.26.36.36,0,0,1,0,.32.49.49,0,0,1-.2.18,9.23,9.23,0,0,1-1.3.49c.51,1.34,1,2.63,1.6,4a.14.14,0,0,1-.09.18,2.44,2.44,0,0,1-.89.09c-.42-1.4-.86-2.72-1.33-4.09a17,17,0,0,1-4.4.56.23.23,0,0,1-.2-.1A1.68,1.68,0,0,1,98.84,95.27Z" transform="translate(-24.57 -22.21)"/><path class="cls-3" d="M105.75,102.93a.31.31,0,0,1,0-.16,1.2,1.2,0,0,1,.38-.2,11.79,11.79,0,0,0,1.73,1.27l5.19,3.34c.78.5,1.66.94,1.79,1s.18.14.11.27a4.23,4.23,0,0,1-.56.59c-.46-.32-1-.72-1.53-1l-5.31-3.42a5,5,0,0,0-1.26-.51A2.81,2.81,0,0,1,105.75,102.93Zm3.36-1.09,2-3c.2-.31,0-.59-.3-.82.07-.09.33-.4.5-.29s.79.61,1.06.78l3.41,2.19c.28.18,1,.57,1.17.64s.15.13.09.23a3.25,3.25,0,0,1-.52.56L112,99.18l-.79,1.22,3.24,2.08c.28.18,1.06.57,1.17.64s.16.13.09.23a3.25,3.25,0,0,1-.52.56l-4.41-2.83-.79,1.23,3.33,2.14c.39.25,1.22.63,1.32.69s.18.15.1.27a3.23,3.23,0,0,1-.52.57l-4.92-3.16C108.86,102.55,108.86,102.25,109.11,101.84Z" transform="translate(-24.57 -22.21)"/></g><polyline class="cls-4" points="100.12 53.61 109.96 59.89 108.94 55.28"/></svg>