<svg id="Layer_1" data-name="Layer 1" xmlns="http://www.w3.org/2000/svg" viewBox="0 0 242 230"><defs><style>.cls-1{fill:#fff;stroke-miterlimit:10;stroke-width:3px;}.cls-1,.cls-3{stroke:#010101;}.cls-2{font-size:15.25px;font-family:RIDIBatang-KSCpc-EUC-H, RIDIBatang;}.cls-2,.cls-4{fill:#010101;}.cls-3{fill:none;stroke-linecap:round;stroke-linejoin:round;stroke-width:0.75px;}</style></defs><circle class="cls-1" cx="109.26" cy="114.21" r="89"/><text class="cls-2" transform="translate(76.18 96.32)">나 자신을 <tspan x="11.53" y="21.79">스스로</tspan><tspan x="4.27" y="43.57">드러내다</tspan></text><polyline class="cls-3" points="146.75 113.71 159 113.71 155.5 110.21"/><path class="cls-4" d="M162.19,79.28a53.41,53.41,0,0,0,6.1-7.34A20.09,20.09,0,0,0,171.5,61.7h-9.31V40.81h23.58V58a27.26,27.26,0,0,1-4.86,15.2,39.6,39.6,0,0,1-12.72,12.09Z"/><path class="cls-4" d="M198.17,79.28a54.13,54.13,0,0,0,6.1-7.34,20.09,20.09,0,0,0,3.21-10.24h-9.31V40.81h23.57V58a27.25,27.25,0,0,1-4.85,15.2,39.8,39.8,0,0,1-12.72,12.09Z"/></svg>