<svg id="Layer_1" data-name="Layer 1" xmlns="http://www.w3.org/2000/svg" viewBox="0 0 236.15 188.41"><defs><style>.cls-1,.cls-2{fill:#fff;}.cls-2,.cls-4{stroke:#010101;}.cls-2{stroke-miterlimit:10;stroke-width:1.48px;}.cls-3{fill:#010101;}.cls-4{fill:none;stroke-linecap:round;stroke-linejoin:round;stroke-width:0.37px;}</style></defs><rect class="cls-1" y="17.35" width="24.6" height="170.25"/><circle class="cls-2" cx="118.02" cy="94.2" r="93.47"/><path class="cls-3" d="M99.85,92.93V87.54c0-.24,0-.38-.18-.48a2.19,2.19,0,0,0-.9-.32,2.69,2.69,0,0,1,.18-.53.18.18,0,0,1,.18-.09,6.73,6.73,0,0,1,1.79.32c.18.06.24.14.24.27v6.07a36.86,36.86,0,0,0,6.52-.74,2.76,2.76,0,0,1,.18.74.21.21,0,0,1-.16.23,39.23,39.23,0,0,1-7,.89C100.07,93.9,99.85,93.57,99.85,92.93Zm9.45-3.05h-4.42a4,4,0,0,1-.19-.94c0-.2.08-.23.3-.23s1.19.11,1.81.11h2.5V85.24c0-.24-.08-.31-.27-.45a3.3,3.3,0,0,0-1.11-.44,2.77,2.77,0,0,1,.21-.57.19.19,0,0,1,.18-.1,8.07,8.07,0,0,1,2,.39c.17.06.24.12.24.25V96.39a23.2,23.2,0,0,1-.18,2.35c0,.15,0,.24-.17.27a2.94,2.94,0,0,1-1,0Z" transform="translate(-2.93 -20.8)"/><path class="cls-3" d="M122,90.31h-1.51a3.3,3.3,0,0,1-3.33,3.3c-2,0-3.4-1.45-3.4-3.82s1.44-3.83,3.4-3.83a3.32,3.32,0,0,1,3.33,3.3H122V86.08c0-.25,0-.38-.21-.48a4,4,0,0,0-.92-.33,2.32,2.32,0,0,1,.21-.53.22.22,0,0,1,.19-.1,6.58,6.58,0,0,1,1.72.28c.18.06.24.14.24.27V95.91c0,.67-.08,1.81-.14,2.35,0,.15,0,.24-.18.27a2.7,2.7,0,0,1-.91,0Zm-2.71-.52c0-1.73-1-2.74-2.13-2.74s-2.13,1-2.13,2.74.94,2.74,2.13,2.74S119.31,91.52,119.31,89.79Zm5.43-4.55a.55.55,0,0,0-.26-.49,2.54,2.54,0,0,0-1-.41,2.23,2.23,0,0,1,.2-.56.2.2,0,0,1,.18-.1,7.3,7.3,0,0,1,2,.37c.17.06.24.13.24.26V96.39c0,.67-.08,1.81-.15,2.35,0,.15,0,.24-.17.27a2.94,2.94,0,0,1-1,0Z" transform="translate(-2.93 -20.8)"/><path class="cls-3" d="M137.26,90.91H133.5a15.76,15.76,0,0,1-3.65,3.63.32.32,0,0,1-.37,0,4.34,4.34,0,0,1-.5-.66,15.75,15.75,0,0,0,5.13-6.55h-2.36a3.81,3.81,0,0,0-1.25.17,6.76,6.76,0,0,1-1.12-.67s-.08-.08-.08-.14a1.87,1.87,0,0,1,.24-.53,15.66,15.66,0,0,0,1.94.08h2.39c.4,0,1.07-.06,1.39-.06s.42.25.34.62a10.15,10.15,0,0,1-1.36,3.06h3V86.08c0-.25,0-.38-.2-.48a4.13,4.13,0,0,0-.92-.33,2.32,2.32,0,0,1,.21-.53.22.22,0,0,1,.19-.1,6.65,6.65,0,0,1,1.72.28c.17.06.24.14.24.27V95.91c0,.67-.08,1.81-.15,2.35,0,.15,0,.24-.17.27a2.76,2.76,0,0,1-.92,0Zm2.89-5.67a.55.55,0,0,0-.26-.49,2.66,2.66,0,0,0-1.06-.41,2.66,2.66,0,0,1,.21-.56.2.2,0,0,1,.18-.1,7.16,7.16,0,0,1,1.95.37c.18.06.24.13.24.26V96.39c0,.67-.08,1.81-.14,2.35,0,.15-.05.24-.18.27a2.87,2.87,0,0,1-.94,0Z" transform="translate(-2.93 -20.8)"/><path class="cls-3" d="M102.08,113.52c-2.66.41-6,.8-7,.92s-1.44.2-1.89.31a7.62,7.62,0,0,1-1.48-.75.2.2,0,0,1-.08-.15,1.35,1.35,0,0,1,.24-.48,14.14,14.14,0,0,0,2.07.11v-4.23a4.44,4.44,0,0,0-1,.18,6.57,6.57,0,0,1-1-.67.26.26,0,0,1-.11-.2,1.54,1.54,0,0,1,.26-.48,7.87,7.87,0,0,0,2,.18h4.29c.45,0,1.61-.08,1.78-.08s.27,0,.27.19a4.13,4.13,0,0,1-.17.92c-.56-.05-1.08-.05-1.62-.05v3.86c1.14-.13,2.31-.29,3.43-.5v-4.52c0-.24-.08-.3-.27-.44a3.39,3.39,0,0,0-1.11-.44,2,2,0,0,1,.21-.54.19.19,0,0,1,.17-.1,8.07,8.07,0,0,1,2.06.39c.17.06.24.12.24.25v5.11c0,.68-.12,1.81-.18,2.36,0,.14,0,.24-.18.27a3.17,3.17,0,0,1-.94,0Zm-6.59,7.2v-1.36c0-.46-.38-.61-.78-.7,0-.15.13-.63.33-.63s.87,0,1.25,0h5.63v-1.44H97.18a4.09,4.09,0,0,0-1.32.18,3.67,3.67,0,0,1-1.15-.73.22.22,0,0,1-.08-.14,1.25,1.25,0,0,1,.27-.46,8.33,8.33,0,0,0,2,.14h4c.4,0,1.44-.06,1.84-.06s.41.11.41.43v2.8c0,.18-.08.28-.21.28H96.79v1.48h4.87c.61,0,1.83-.12,2-.12s.3,0,.3.22a4.3,4.3,0,0,1-.17.93H96.2C95.77,121.59,95.49,121.33,95.49,120.72Zm1.91-7.48v-4H95.22v4.2C95.88,113.39,96.61,113.32,97.4,113.24Z" transform="translate(-2.93 -20.8)"/><path class="cls-3" d="M106,117.92a.31.31,0,0,1-.1-.19,1.58,1.58,0,0,1,.29-.5,15.17,15.17,0,0,0,2.85.18h1.45v-3.33a3.33,3.33,0,0,1-1.32-2.65c0-1.81,1.49-3.51,4.12-3.51s4.12,1.7,4.12,3.51a3.3,3.3,0,0,1-1.3,2.63v3.35h1.2c1.23,0,2.55-.15,2.76-.15s.3,0,.3.23a5.65,5.65,0,0,1-.19,1.07c-.75,0-1.67-.08-2.48-.08H109.2a6.46,6.46,0,0,0-1.79.34A3.86,3.86,0,0,1,106,117.92Zm10.11-6.49c0-1.28-.91-2.43-2.82-2.43s-2.82,1.15-2.82,2.43.91,2.44,2.82,2.44S116.06,112.71,116.06,111.43Zm-1.3,6v-2.68a5.53,5.53,0,0,1-1.52.21,5.4,5.4,0,0,1-1.51-.21v2.68Z" transform="translate(-2.93 -20.8)"/><path class="cls-3" d="M121.34,109.38c-.08-.08-.11-.13-.11-.19a1.42,1.42,0,0,1,.26-.53,7.87,7.87,0,0,0,2.05.18h1.82v-.74c0-.37-.25-.56-.8-.69a1.92,1.92,0,0,1,.16-.51.19.19,0,0,1,.18-.1,8.89,8.89,0,0,1,1.46.26c.19.06.24.09.24.22v1.56h1.49c.45,0,1.6-.13,1.77-.13s.28,0,.28.19a4.23,4.23,0,0,1-.18,1c-.61,0-1.15,0-1.76,0h-4.46a3.77,3.77,0,0,0-1.31.26A4.07,4.07,0,0,1,121.34,109.38Zm1.41,4a3.14,3.14,0,1,1,3.13,2.82A2.85,2.85,0,0,1,122.75,113.4Zm5,0a1.86,1.86,0,1,0-1.85,1.78A1.75,1.75,0,0,0,127.73,113.4Zm-2.3,7v-1.91c0-.24,0-.35-.18-.45a1.94,1.94,0,0,0-.9-.29,2.29,2.29,0,0,1,.11-.53.19.19,0,0,1,.18-.09,6.93,6.93,0,0,1,1.84.22c.18.07.24.15.24.28v2.69h4.76c.61,0,1.83-.18,2-.18s.3,0,.3.22a4.83,4.83,0,0,1-.17,1h-7.28C125.65,121.41,125.43,121.08,125.43,120.44Zm6.23-12.36c0-.24-.08-.3-.27-.44a3.39,3.39,0,0,0-1.11-.44,2.43,2.43,0,0,1,.21-.54.19.19,0,0,1,.18-.1,8.07,8.07,0,0,1,2.05.39c.17.06.24.12.24.25v4.54h.65c.63,0,1.65-.16,1.81-.16s.31,0,.31.22a4.79,4.79,0,0,1-.19,1H133v2.69c0,.67-.12,1.81-.18,2.35,0,.15-.05.24-.18.28a3.22,3.22,0,0,1-.94,0Z" transform="translate(-2.93 -20.8)"/><path class="cls-3" d="M137.1,116.25a3.82,3.82,0,0,1-.45-.68,16.35,16.35,0,0,0,6.15-5.88h-3a3.33,3.33,0,0,0-1.17.22,3.94,3.94,0,0,1-1-.7.22.22,0,0,1-.08-.15,2,2,0,0,1,.24-.56,11.25,11.25,0,0,0,1.93.1h3.11c.4,0,1.08-.07,1.4-.07s.48.26.33.63c-1.07,2.74-4.28,5.7-7.06,7.13A.35.35,0,0,1,137.1,116.25Zm3.49,4.15v-2.51c0-.24,0-.35-.17-.45a1.83,1.83,0,0,0-.9-.29,1.86,1.86,0,0,1,.11-.53.18.18,0,0,1,.18-.09,7,7,0,0,1,1.84.22c.18.07.24.15.24.27v3.3h4.92c.61,0,1.83-.17,2-.17s.3,0,.3.22a4.41,4.41,0,0,1-.18,1h-7.43C140.82,121.38,140.59,121.05,140.59,120.4Zm6.59-7.11h-3.49a4.08,4.08,0,0,1-.2-.94c0-.2.08-.23.31-.23s1.18.11,1.81.11h1.57v-4.15c0-.24-.08-.3-.27-.44a3.39,3.39,0,0,0-1.11-.44,2,2,0,0,1,.21-.54.19.19,0,0,1,.18-.1,8.07,8.07,0,0,1,2.05.39c.17.06.24.12.24.25v8.08c0,.67-.12,1.81-.18,2.35,0,.15-.05.24-.18.28a3.22,3.22,0,0,1-.94,0Z" transform="translate(-2.93 -20.8)"/><path class="cls-3" d="M98.84,132.63a3.54,3.54,0,0,1,1.59-2.77l.43.37A2.77,2.77,0,0,0,99.74,132h.16a.92.92,0,1,1,0,1.84C99.22,133.8,98.84,133.38,98.84,132.63Z" transform="translate(-2.93 -20.8)"/><path class="cls-3" d="M113,139.2h-3.4a6.18,6.18,0,0,0-1.79.34,4,4,0,0,1-1.46-.9.31.31,0,0,1-.1-.19,1.48,1.48,0,0,1,.29-.5,15.17,15.17,0,0,0,2.85.18h8.27c1.24,0,2.55-.15,2.76-.15s.3,0,.3.23a5.65,5.65,0,0,1-.19,1.07c-.75,0-1.67-.08-2.48-.08H114.3v3c0,.67-.12,1.81-.18,2.35,0,.15-.05.24-.18.28a3.22,3.22,0,0,1-.94,0Zm-3.32-5.66c0-1.71,1.46-3.28,4-3.28s4,1.57,4,3.28-1.46,3.29-4,3.29S109.68,135.26,109.68,133.54Zm6.62,0c0-1.15-.88-2.21-2.66-2.21s-2.66,1.06-2.66,2.21.88,2.21,2.66,2.21S116.3,134.7,116.3,133.54Z" transform="translate(-2.93 -20.8)"/><path class="cls-3" d="M132.17,138.85a46.92,46.92,0,0,1-8.63,1.22c-.68,0-.9-.34-.9-1V136.4c0-.47-.39-.61-.79-.71,0-.14.13-.69.34-.69.38,0,1.15.11,1.57.11h3.89v-2.37h-3.38a3.21,3.21,0,0,0-1.17.23,4.13,4.13,0,0,1-1-.71.22.22,0,0,1-.08-.14,2.09,2.09,0,0,1,.24-.55,10.47,10.47,0,0,0,1.94.1h2.55c.4,0,1.44-.06,1.84-.06s.4.11.4.43v3.88c0,.17-.08.27-.21.27h-4.8v2.75a43.46,43.46,0,0,0,8.23-1.07V131c0-.24-.08-.31-.27-.45a3.12,3.12,0,0,0-1.11-.43,2.68,2.68,0,0,1,.21-.58.19.19,0,0,1,.18-.1,8.07,8.07,0,0,1,2,.39c.18.06.24.13.24.25v12.07a23.2,23.2,0,0,1-.18,2.35c0,.15,0,.24-.17.28a3.29,3.29,0,0,1-1,0Z" transform="translate(-2.93 -20.8)"/><path class="cls-3" d="M141,133.43a2.81,2.81,0,0,0,1.12-1.74H142a.92.92,0,1,1,0-1.84c.67,0,1,.42,1,1.17a3.56,3.56,0,0,1-1.58,2.77Z" transform="translate(-2.93 -20.8)"/><path class="cls-3" d="M176.53,78.32a55.57,55.57,0,0,0,6.41-7.71,21,21,0,0,0,3.37-10.75h-9.78V37.92h24.76V56a28.55,28.55,0,0,1-5.1,16,41.67,41.67,0,0,1-13.36,12.7Z" transform="translate(-2.93 -20.8)"/><path class="cls-3" d="M214.32,78.32a56.23,56.23,0,0,0,6.4-7.71,21,21,0,0,0,3.37-10.75h-9.77V37.92h24.75V56a28.55,28.55,0,0,1-5.1,16,41.53,41.53,0,0,1-13.35,12.7Z" transform="translate(-2.93 -20.8)"/><polyline class="cls-4" points="157.4 93.68 170.26 93.68 166.59 90"/></svg>