<svg id="Layer_1" data-name="Layer 1" xmlns="http://www.w3.org/2000/svg" viewBox="0 0 202.98 181"><defs><style>.cls-1{fill:#fff;stroke-miterlimit:10;stroke-width:3px;}.cls-1,.cls-4{stroke:#010101;}.cls-2{isolation:isolate;}.cls-3{fill:#010101;}.cls-4{fill:none;stroke-linecap:round;stroke-linejoin:round;stroke-width:0.75px;}</style></defs><circle class="cls-1" cx="90.5" cy="90.5" r="89"/><g class="cls-2"><g class="cls-2"><path class="cls-3" d="M89.17,94V88.86c0-.23,0-.36-.17-.45a2,2,0,0,0-.86-.31,2.39,2.39,0,0,1,.17-.5.18.18,0,0,1,.17-.09,6.53,6.53,0,0,1,1.71.3c.16.06.23.14.23.26v5.78a35.94,35.94,0,0,0,6.2-.7,2.76,2.76,0,0,1,.17.7.19.19,0,0,1-.16.21,36.84,36.84,0,0,1-6.61.85C89.38,94.91,89.17,94.59,89.17,94Zm9-2.9H94a4.18,4.18,0,0,1-.18-.9c0-.18.08-.21.29-.21s1.13.1,1.72.1h2.38V86.67c0-.23-.08-.29-.26-.43a3,3,0,0,0-1.05-.41,2.29,2.29,0,0,1,.2-.55.16.16,0,0,1,.16-.09,7.72,7.72,0,0,1,2,.37c.16.06.22.12.22.24V97.28c0,.64-.1,1.72-.16,2.24,0,.14,0,.23-.17.26a3,3,0,0,1-.9,0Z" transform="translate(-18.76 -24.5)"/><path class="cls-3" d="M110.27,91.5h-1.43a3.15,3.15,0,0,1-3.17,3.14c-1.86,0-3.24-1.39-3.24-3.64s1.38-3.65,3.24-3.65a3.16,3.16,0,0,1,3.17,3.14h1.43v-3c0-.25,0-.37-.2-.46a3.66,3.66,0,0,0-.87-.32,2.24,2.24,0,0,1,.2-.5.2.2,0,0,1,.18-.1,6.77,6.77,0,0,1,1.63.26c.17.06.23.14.23.26v10.2c0,.64-.07,1.72-.13,2.24,0,.14,0,.23-.17.26a2.73,2.73,0,0,1-.87,0Zm-2.58-.5c0-1.65-.9-2.61-2-2.61s-2,1-2,2.61.9,2.6,2,2.6S107.69,92.64,107.69,91Zm5.17-4.33a.52.52,0,0,0-.24-.46,2.61,2.61,0,0,0-1-.4,2.58,2.58,0,0,1,.2-.53.17.17,0,0,1,.17-.09,7,7,0,0,1,1.86.35c.16.06.22.12.22.24v11.5c0,.64-.07,1.72-.13,2.24,0,.14-.05.23-.17.26a3,3,0,0,1-.9,0Z" transform="translate(-18.76 -24.5)"/><path class="cls-3" d="M124.79,92.06h-3.58a15.35,15.35,0,0,1-3.48,3.47.3.3,0,0,1-.35,0,4.48,4.48,0,0,1-.47-.63,14.87,14.87,0,0,0,4.87-6.23h-2.24a3.47,3.47,0,0,0-1.19.17,7.23,7.23,0,0,1-1.06-.64c-.05-.05-.08-.08-.08-.14a1.57,1.57,0,0,1,.23-.5,16.08,16.08,0,0,0,1.84.07h2.28c.38,0,1-.06,1.32-.06s.4.25.32.6a9.64,9.64,0,0,1-1.29,2.91h2.88V87.48c0-.25,0-.37-.2-.46a3.66,3.66,0,0,0-.87-.32,2.24,2.24,0,0,1,.2-.5.19.19,0,0,1,.18-.1,6.85,6.85,0,0,1,1.63.26c.17.06.23.14.23.26v10.2c0,.64-.08,1.72-.14,2.24,0,.14,0,.23-.16.26a2.73,2.73,0,0,1-.87,0Zm2.74-5.39a.52.52,0,0,0-.24-.46,2.61,2.61,0,0,0-1-.4,2.58,2.58,0,0,1,.2-.53.17.17,0,0,1,.17-.09,7,7,0,0,1,1.86.35c.16.06.23.12.23.24v11.5c0,.64-.08,1.72-.14,2.24,0,.14,0,.23-.17.26a3,3,0,0,1-.9,0Z" transform="translate(-18.76 -24.5)"/></g><g class="cls-2"><path class="cls-3" d="M91.28,113.59c-2.53.4-5.67.77-6.63.89a17.85,17.85,0,0,0-1.8.29,6.94,6.94,0,0,1-1.41-.72.16.16,0,0,1-.07-.13,1.11,1.11,0,0,1,.23-.46,14.06,14.06,0,0,0,2,.1v-4a4.11,4.11,0,0,0-1,.17,6.52,6.52,0,0,1-1-.64.23.23,0,0,1-.11-.19,1.43,1.43,0,0,1,.24-.45,8.11,8.11,0,0,0,2,.16h4.08c.43,0,1.53-.07,1.69-.07s.26,0,.26.18a3.23,3.23,0,0,1-.17.87c-.53,0-1,0-1.54,0v3.68c1.09-.12,2.2-.28,3.27-.47v-4.3c0-.23-.08-.29-.26-.43a3.22,3.22,0,0,0-1-.41,2,2,0,0,1,.19-.52.18.18,0,0,1,.17-.09,8.08,8.08,0,0,1,2,.36c.17.07.23.13.23.25v4.86c0,.64-.11,1.72-.17,2.24,0,.14,0,.23-.16.26a2.93,2.93,0,0,1-.9,0ZM85,120.45v-1.29c0-.44-.36-.58-.75-.67,0-.14.13-.6.32-.6s.83,0,1.19,0h5.35v-1.37H86.61a4.15,4.15,0,0,0-1.25.16,3.44,3.44,0,0,1-1.1-.68.21.21,0,0,1-.07-.14,1.4,1.4,0,0,1,.26-.44,7.55,7.55,0,0,0,2,.14h3.83c.38,0,1.37-.06,1.75-.06s.38.1.38.41v2.67c0,.16-.08.25-.2.25H86.25v1.42h4.63c.58,0,1.74-.12,1.89-.12s.29,0,.29.21a4,4,0,0,1-.17.89H85.68C85.27,121.28,85,121,85,120.45Zm1.82-7.11v-3.82H84.75v4Z" transform="translate(-18.76 -24.5)"/><path class="cls-3" d="M95,117.79a.31.31,0,0,1-.09-.19,1.57,1.57,0,0,1,.27-.47,14.7,14.7,0,0,0,2.72.17h1.37v-3.17A3.17,3.17,0,0,1,98,111.61c0-1.72,1.42-3.34,3.92-3.34s3.91,1.62,3.91,3.34a3.11,3.11,0,0,1-1.23,2.5v3.19h1.14c1.18,0,2.43-.14,2.63-.14s.29,0,.29.22a5.22,5.22,0,0,1-.19,1c-.71,0-1.58-.08-2.36-.08h-8a6.17,6.17,0,0,0-1.71.32A3.76,3.76,0,0,1,95,117.79Zm9.62-6.18c0-1.22-.87-2.31-2.68-2.31s-2.69,1.09-2.69,2.31.87,2.32,2.69,2.32S104.59,112.83,104.59,111.61Zm-1.23,5.69v-2.55a5.13,5.13,0,0,1-1.45.2,4.91,4.91,0,0,1-1.44-.2v2.55Z" transform="translate(-18.76 -24.5)"/><path class="cls-3" d="M109.63,109.66c-.08-.07-.11-.12-.11-.18a1.49,1.49,0,0,1,.24-.5,8.07,8.07,0,0,0,1.95.16h1.74v-.7c0-.35-.24-.53-.76-.65a1.89,1.89,0,0,1,.15-.49.18.18,0,0,1,.17-.09,7.8,7.8,0,0,1,1.39.24c.18.06.23.09.23.22v1.47H116c.43,0,1.53-.12,1.7-.12s.26,0,.26.18a4.41,4.41,0,0,1-.17,1c-.58,0-1.1,0-1.68,0h-4.24a3.58,3.58,0,0,0-1.25.24A3.78,3.78,0,0,1,109.63,109.66Zm1.34,3.83a3,3,0,1,1,3,2.68A2.71,2.71,0,0,1,111,113.49Zm4.74,0a1.77,1.77,0,1,0-1.77,1.69A1.66,1.66,0,0,0,115.71,113.49Zm-2.2,6.69v-1.81c0-.23,0-.34-.16-.43a1.81,1.81,0,0,0-.86-.27,1.7,1.7,0,0,1,.11-.51.19.19,0,0,1,.17-.09,6.77,6.77,0,0,1,1.75.21c.17.06.23.14.23.26v2.56h4.53c.57,0,1.73-.16,1.89-.16s.29,0,.29.21a4.43,4.43,0,0,1-.17,1h-6.92C113.73,121.11,113.51,120.79,113.51,120.18Zm5.93-11.75c0-.23-.07-.29-.26-.43a3,3,0,0,0-1.05-.41,2.46,2.46,0,0,1,.2-.52.18.18,0,0,1,.17-.09,8.08,8.08,0,0,1,2,.36c.17.07.23.13.23.25v4.31h.62c.6,0,1.57-.15,1.73-.15s.29,0,.29.21a4.16,4.16,0,0,1-.19.9h-2.45v2.56c0,.64-.11,1.73-.17,2.25,0,.13-.05.22-.17.25a2.92,2.92,0,0,1-.9,0Z" transform="translate(-18.76 -24.5)"/><path class="cls-3" d="M124.63,116.2a3.46,3.46,0,0,1-.42-.65,15.76,15.76,0,0,0,5.85-5.6h-2.88a3,3,0,0,0-1.11.22,3.81,3.81,0,0,1-1-.68.19.19,0,0,1-.07-.13,1.86,1.86,0,0,1,.23-.54,10.27,10.27,0,0,0,1.84.1h3c.38,0,1-.07,1.32-.07s.46.25.32.6c-1,2.6-4.07,5.43-6.72,6.78A.29.29,0,0,1,124.63,116.2Zm3.33,4v-2.39c0-.23,0-.34-.17-.43a1.88,1.88,0,0,0-.86-.28,2.1,2.1,0,0,1,.11-.5.2.2,0,0,1,.17-.09,6.71,6.71,0,0,1,1.75.21c.17.06.23.14.23.26v3.14h4.68c.58,0,1.74-.16,1.89-.16s.29,0,.29.21a4.53,4.53,0,0,1-.17,1h-7.07C128.17,121.08,128,120.76,128,120.15Zm6.26-6.77H130.9a4.16,4.16,0,0,1-.19-.9c0-.18.08-.21.29-.21s1.13.11,1.73.11h1.49v-3.95c0-.23-.08-.29-.26-.43a3,3,0,0,0-1.05-.41,2.46,2.46,0,0,1,.2-.52.16.16,0,0,1,.17-.09,8.17,8.17,0,0,1,1.95.36c.16.07.23.13.23.25v7.68c0,.64-.11,1.72-.17,2.24,0,.14,0,.23-.17.26a2.92,2.92,0,0,1-.9,0Z" transform="translate(-18.76 -24.5)"/></g><g class="cls-2"><path class="cls-3" d="M88.2,131.79a3.35,3.35,0,0,1,1.51-2.63l.41.35a2.65,2.65,0,0,0-1.07,1.66l.16,0a.88.88,0,1,1,0,1.76C88.57,132.91,88.2,132.51,88.2,131.79Z" transform="translate(-18.76 -24.5)"/><path class="cls-3" d="M101.68,138H98.45a6.24,6.24,0,0,0-1.71.32,3.76,3.76,0,0,1-1.39-.85.31.31,0,0,1-.09-.18,1.37,1.37,0,0,1,.28-.48,13.77,13.77,0,0,0,2.71.17h7.87c1.17,0,2.42-.14,2.62-.14s.29,0,.29.22a4.57,4.57,0,0,1-.19,1c-.71,0-1.58-.08-2.36-.08h-3.57v2.81c0,.64-.1,1.72-.16,2.24,0,.14,0,.23-.17.26a3,3,0,0,1-.9,0Zm-3.16-5.38c0-1.63,1.39-3.12,3.77-3.12s3.76,1.49,3.76,3.12-1.38,3.13-3.76,3.13S98.52,134.29,98.52,132.66Zm6.3,0c0-1.1-.84-2.1-2.53-2.1s-2.53,1-2.53,2.1.84,2.11,2.53,2.11S104.82,133.76,104.82,132.66Z" transform="translate(-18.76 -24.5)"/><path class="cls-3" d="M119.93,137.71a44.45,44.45,0,0,1-8.21,1.16c-.64,0-.86-.32-.86-.93v-2.56c0-.45-.36-.58-.75-.68,0-.13.13-.65.33-.65.36,0,1.09.11,1.49.11h3.7V131.9h-3.21a3.32,3.32,0,0,0-1.12.21,3.66,3.66,0,0,1-1-.67.19.19,0,0,1-.07-.14,1.72,1.72,0,0,1,.23-.51,11.23,11.23,0,0,0,1.84.09h2.42c.38,0,1.38-.06,1.76-.06s.38.1.38.41v3.69c0,.17-.08.26-.2.26H112.1v2.62a41.37,41.37,0,0,0,7.83-1v-6.54c0-.23-.07-.29-.26-.43a3,3,0,0,0-1-.41,2.82,2.82,0,0,1,.2-.55.17.17,0,0,1,.17-.09,7.64,7.64,0,0,1,2,.37c.17.06.23.12.23.24v11.48c0,.64-.11,1.72-.17,2.24,0,.14,0,.23-.17.26a3,3,0,0,1-.9,0Z" transform="translate(-18.76 -24.5)"/><path class="cls-3" d="M128.37,132.55a2.65,2.65,0,0,0,1.07-1.66.6.6,0,0,1-.16,0,.9.9,0,0,1-.88-.9.88.88,0,0,1,.88-.85c.64,0,1,.39,1,1.11a3.39,3.39,0,0,1-1.51,2.64Z" transform="translate(-18.76 -24.5)"/></g></g><path class="cls-3" d="M162.19,80.07a52.92,52.92,0,0,0,6.1-7.34,20.07,20.07,0,0,0,3.21-10.24h-9.31V41.61h23.58V58.77A27.22,27.22,0,0,1,180.91,74a39.64,39.64,0,0,1-12.72,12.1Z" transform="translate(-18.76 -24.5)"/><path class="cls-3" d="M198.17,80.07a53.51,53.51,0,0,0,6.1-7.34,20.07,20.07,0,0,0,3.21-10.24h-9.31V41.61h23.57V58.77A27.29,27.29,0,0,1,216.89,74a40,40,0,0,1-12.72,12.1Z" transform="translate(-18.76 -24.5)"/><polyline class="cls-4" points="127.99 90 140.24 90 136.74 86.5"/></svg>