<svg id="Layer_1" data-name="Layer 1" xmlns="http://www.w3.org/2000/svg" viewBox="0 0 234.32 186.92"><defs><style>.cls-1,.cls-2{fill:#fff;}.cls-2,.cls-4{stroke:#010101;}.cls-2{stroke-miterlimit:10;stroke-width:1.48px;}.cls-3{fill:#010101;}.cls-4{fill:none;stroke-linecap:round;stroke-linejoin:round;stroke-width:0.37px;}</style></defs><rect class="cls-1" y="16.94" width="24.6" height="150.57"/><circle class="cls-2" cx="117.13" cy="93.46" r="92.72"/><path class="cls-3" d="M97.15,91.82A41,41,0,0,1,89.08,93c-.67,0-.89-.33-.89-1v-5.1c0-.23,0-.38-.17-.47a2.16,2.16,0,0,0-.89-.32,2.2,2.2,0,0,1,.17-.53.2.2,0,0,1,.18-.09,6.66,6.66,0,0,1,1.78.32c.17.06.23.14.23.27v5.73a38.85,38.85,0,0,0,7.66-1V84.66c0-.24-.08-.31-.27-.45a3.48,3.48,0,0,0-1.1-.43,3,3,0,0,1,.21-.57.18.18,0,0,1,.18-.09,7.83,7.83,0,0,1,2,.38c.17.06.24.12.24.25v5.48h.79c.62,0,1.64-.16,1.8-.16s.3,0,.3.22a4.58,4.58,0,0,1-.19.94h-2.7v5.48a23,23,0,0,1-.18,2.34c0,.14,0,.23-.17.27a3.22,3.22,0,0,1-.94,0Z" transform="translate(-3.84 -20.72)"/><path class="cls-3" d="M107.27,93.71a5.44,5.44,0,0,1-.44-.65c2.13-1.37,5-4.1,6-6.59h-3a3.36,3.36,0,0,0-1.16.22,4.23,4.23,0,0,1-1-.7.22.22,0,0,1-.08-.14,1.91,1.91,0,0,1,.24-.54,11.13,11.13,0,0,0,1.92.09h3c.4,0,1.07-.06,1.39-.06s.43.25.33.62a9.79,9.79,0,0,1-1.81,3.32c1.21,1.33,1.87,2,3.1,3.27a.22.22,0,0,1,0,.33,5.81,5.81,0,0,1-.81.75c-1.16-1.46-1.81-2.25-2.93-3.57a17.72,17.72,0,0,1-4.3,3.67A.29.29,0,0,1,107.27,93.71Zm9.68-9c0-.24-.08-.31-.27-.45a3.48,3.48,0,0,0-1.1-.43,2.45,2.45,0,0,1,.21-.57.17.17,0,0,1,.17-.09,7.82,7.82,0,0,1,2,.38c.17.06.23.12.23.25v5.48H119c.62,0,1.64-.16,1.8-.16s.3,0,.3.22a4,4,0,0,1-.19.94h-2.64v5.48c0,.67-.11,1.8-.17,2.34,0,.14,0,.23-.18.27a3.16,3.16,0,0,1-.93,0Z" transform="translate(-3.84 -20.72)"/><path class="cls-3" d="M121.81,91.49c1.59-1.31,4.42-4.59,4.42-5.71,0-.35-.51-.63-1.07-.85a3.62,3.62,0,0,1,.32-.48.16.16,0,0,1,.13-.06,5.39,5.39,0,0,1,2,.73.42.42,0,0,1,.17.41,4.26,4.26,0,0,1-.87,1.92c1.21,1.15,2.37,2.24,3.53,3.29a.2.2,0,0,1,0,.33c-.19.21-.56.54-.8.75l-3.3-3.57a23,23,0,0,1-3.61,3.81c-.11.08-.22.13-.35,0S122,91.69,121.81,91.49Zm4.08,5.35V94.27c0-.24,0-.35-.17-.45a1.79,1.79,0,0,0-.89-.28,1.86,1.86,0,0,1,.11-.53.18.18,0,0,1,.18-.09,6.83,6.83,0,0,1,1.82.22c.18.06.24.14.24.27v3.35h4.72c.6,0,1.81-.18,2-.18s.3,0,.3.23a5,5,0,0,1-.17,1h-7.22C126.12,97.81,125.89,97.47,125.89,96.84Zm6.37-12.22c0-.23-.08-.3-.27-.44a3.51,3.51,0,0,0-1.09-.43,2.7,2.7,0,0,1,.2-.54.19.19,0,0,1,.18-.09,7.83,7.83,0,0,1,2,.38c.18.06.24.12.24.25v8c0,.66-.11,1.79-.17,2.33,0,.14,0,.24-.18.27a3.17,3.17,0,0,1-.94,0Z" transform="translate(-3.84 -20.72)"/><path class="cls-3" d="M136.11,90.66a.31.31,0,0,1-.09-.19,1.4,1.4,0,0,1,.28-.49,15,15,0,0,0,2.83.17h8.2c1.22,0,2.52-.14,2.73-.14s.3,0,.3.22a5.3,5.3,0,0,1-.19,1c-.75,0-1.65-.08-2.46-.08h-8.37a6.33,6.33,0,0,0-1.78.34A3.73,3.73,0,0,1,136.11,90.66Zm3.37,6.59V96c0-.46-.38-.6-.78-.7,0-.14.13-.62.33-.62s.86.05,1.24.05h6.25V93.33h-5.33a4.23,4.23,0,0,0-1.3.17,3.59,3.59,0,0,1-1.14-.71.22.22,0,0,1-.08-.14,1.3,1.3,0,0,1,.27-.45,7.72,7.72,0,0,0,2,.14h4.61c.4,0,1.43-.06,1.83-.06.25,0,.39.11.39.43v2.68c0,.18-.08.27-.2.27h-6.83v1.43h5.33c.61,0,1.81-.12,2-.12s.3,0,.3.22a4.34,4.34,0,0,1-.17.92h-8C139.75,98.11,139.48,97.86,139.48,97.25Zm.14-10.93c0-1.41,1.32-2.86,3.72-2.86s3.72,1.45,3.72,2.86-1.32,2.86-3.72,2.86S139.62,87.74,139.62,86.32Zm6.15,0c0-.92-.81-1.81-2.43-1.81s-2.43.89-2.43,1.81.81,1.81,2.43,1.81S145.77,87.25,145.77,86.32Z" transform="translate(-3.84 -20.72)"/><path class="cls-3" d="M98.77,116.92a.38.38,0,0,1-.09-.19,1.52,1.52,0,0,1,.28-.5,15,15,0,0,0,2.83.18H110c1.22,0,2.52-.15,2.73-.15s.3,0,.3.23a4.87,4.87,0,0,1-.19,1.06c-.75,0-1.65-.08-2.46-.08H102a6.4,6.4,0,0,0-1.78.34A4.09,4.09,0,0,1,98.77,116.92Zm1.77-3.36a20.6,20.6,0,0,0,5.45-5.29c.15-.34-.32-.65-.88-.87.1-.17.19-.35.27-.46a.16.16,0,0,1,.13-.08,5.48,5.48,0,0,1,2,.68.51.51,0,0,1,.19.39.57.57,0,0,1-.1.34,11.26,11.26,0,0,1-1.09,1.48c1.52,1.13,3,2.21,4.67,3.34a.2.2,0,0,1,0,.27,3.48,3.48,0,0,1-.94.73c-1.48-1.26-2.91-2.42-4.42-3.61a22,22,0,0,1-4.51,3.78.25.25,0,0,1-.28,0A2.08,2.08,0,0,1,100.54,113.56Z" transform="translate(-3.84 -20.72)"/><path class="cls-3" d="M113.74,116.92a.38.38,0,0,1-.09-.19,1.52,1.52,0,0,1,.28-.5,14.89,14.89,0,0,0,2.83.18H125c1.22,0,2.52-.15,2.73-.15s.3,0,.3.23a5.56,5.56,0,0,1-.19,1.06c-.75,0-1.65-.08-2.46-.08H117a6.33,6.33,0,0,0-1.77.34A3.92,3.92,0,0,1,113.74,116.92Zm1.76-3.36a20.3,20.3,0,0,0,5.45-5.29c.16-.34-.32-.65-.87-.87a4.34,4.34,0,0,1,.27-.46.16.16,0,0,1,.13-.08,5.43,5.43,0,0,1,2,.68.48.48,0,0,1,.19.39.64.64,0,0,1-.09.34,11.43,11.43,0,0,1-1.1,1.48c1.53,1.13,3,2.21,4.67,3.34a.19.19,0,0,1,0,.27,3.28,3.28,0,0,1-.93.73c-1.48-1.26-2.91-2.42-4.42-3.61a22,22,0,0,1-4.51,3.78.26.26,0,0,1-.29,0A2.21,2.21,0,0,1,115.5,113.56Z" transform="translate(-3.84 -20.72)"/><path class="cls-3" d="M128.71,117.23a.31.31,0,0,1-.1-.19,1.55,1.55,0,0,1,.29-.49,14.89,14.89,0,0,0,2.83.18h3.6v-2.36h-2.81c-.43,0-.7-.25-.7-.85v-1.89c0-.46-.38-.61-.78-.7,0-.15.13-.69.34-.69.38,0,1.14.12,1.55.12h5.9v-1.85H133.6a4.16,4.16,0,0,0-1.3.21,3.7,3.7,0,0,1-1.15-.75.22.22,0,0,1-.08-.14,1.62,1.62,0,0,1,.27-.52,10.08,10.08,0,0,0,2,.14h4.51c.4,0,1.43-.06,1.82-.06s.4.11.4.42v3.32c0,.18-.08.27-.2.27h-6.8v1.91h5.21c.6,0,1.81-.13,2-.13s.3,0,.3.23a4.05,4.05,0,0,1-.18,1h-3.79v2.36h3.3c1.22,0,2.53-.15,2.73-.15s.31,0,.31.22a4.93,4.93,0,0,1-.2,1.07c-.74,0-1.65-.08-2.46-.08h-8.37a6.36,6.36,0,0,0-1.78.33A3.83,3.83,0,0,1,128.71,117.23Z" transform="translate(-3.84 -20.72)"/><path class="cls-3" d="M91.21,139.61a.31.31,0,0,1-.09-.19,1.49,1.49,0,0,1,.28-.49,15,15,0,0,0,2.83.17h8.2c1.22,0,2.52-.14,2.73-.14s.3,0,.3.22a5.51,5.51,0,0,1-.19,1.07c-.75,0-1.65-.08-2.46-.08H94.44a6.3,6.3,0,0,0-1.78.33A3.8,3.8,0,0,1,91.21,139.61Zm3-4.13v-3.9c0-.5-.44-.64-.92-.7,0-.16.08-.69.35-.69s1.32.11,1.75.11h5.38c.45,0,1.59-.12,1.77-.12s.27,0,.27.19a4.25,4.25,0,0,1-.18,1H95.52v4h5.24c.6,0,1.81-.18,2-.18s.3,0,.3.23a4.41,4.41,0,0,1-.18,1H95.1C94.44,136.45,94.21,136.12,94.21,135.48Z" transform="translate(-3.84 -20.72)"/><path class="cls-3" d="M107.37,138.14v-2.7c0-.47-.38-.61-.78-.7,0-.15.13-.69.33-.69.39,0,1.15.12,1.56.12h3.46v-2.39h-3a3.32,3.32,0,0,0-1.16.22,3.86,3.86,0,0,1-1-.69.24.24,0,0,1-.08-.15,1.91,1.91,0,0,1,.24-.54,11.13,11.13,0,0,0,1.92.1H111c.39,0,1.43-.07,1.82-.07s.4.12.4.43V135c0,.17-.08.27-.21.27h-4.36V138a35.23,35.23,0,0,0,6.35-.75,3.1,3.1,0,0,1,.17.73.21.21,0,0,1-.15.23,37.35,37.35,0,0,1-6.77.88C107.59,139.1,107.37,138.77,107.37,138.14Zm9.61-3h-2.84a3.93,3.93,0,0,1-.19-.93c0-.19.07-.23.3-.23s1.17.12,1.79.12H117v-4c0-.24-.08-.3-.27-.44a3.06,3.06,0,0,0-1.1-.43,2.77,2.77,0,0,1,.21-.57.19.19,0,0,1,.17-.1,8.26,8.26,0,0,1,2,.38c.17.07.24.13.24.26v12c0,.66-.12,1.79-.18,2.33,0,.14,0,.24-.17.27a2.89,2.89,0,0,1-.94,0Z" transform="translate(-3.84 -20.72)"/><path class="cls-3" d="M132.29,135.32H130.1v5.31c0,.67-.08,1.79-.14,2.33,0,.15-.05.24-.17.28a3,3,0,0,1-.91,0v-5.72a21.46,21.46,0,0,1-5.81,1c-.67,0-.89-.34-.89-1v-5.2c0-.43-.35-.63-1-.78a2.07,2.07,0,0,1,.18-.52.18.18,0,0,1,.17-.1,6.16,6.16,0,0,1,1.68.32c.18.07.24.14.24.27v5.82a19.89,19.89,0,0,0,5.42-.78v-5.66c0-.25,0-.38-.21-.47a3.88,3.88,0,0,0-.9-.34,2.26,2.26,0,0,1,.2-.52.22.22,0,0,1,.2-.1,6.86,6.86,0,0,1,1.69.27c.18.07.24.15.24.27v4.29h2.19v-4.24a.52.52,0,0,0-.25-.48,2.76,2.76,0,0,0-1-.41,2.54,2.54,0,0,1,.21-.55.19.19,0,0,1,.17-.1,7.09,7.09,0,0,1,1.94.37c.18.06.24.12.24.25v12c0,.66-.08,1.79-.14,2.33,0,.14,0,.24-.18.27a2.87,2.87,0,0,1-.94,0Z" transform="translate(-3.84 -20.72)"/><path class="cls-3" d="M146.56,137.2a43.24,43.24,0,0,1-8.37,1.21c-.66,0-.89-.34-.89-1v-5.28c0-.43-.35-.63-.78-.73,0-.14.08-.66.29-.66.38,0,1.21.11,1.62.11h3.43c.45,0,1.59-.13,1.76-.13s.27,0,.27.19a4.32,4.32,0,0,1-.17,1h-5.13v5.29a41.29,41.29,0,0,0,8-1v-6.2c0-.24-.08-.3-.27-.44a3.07,3.07,0,0,0-1.09-.43,2.83,2.83,0,0,1,.2-.57.2.2,0,0,1,.18-.1,8.27,8.27,0,0,1,2,.38c.18.07.24.13.24.26v5.48h.73c.62,0,1.64-.16,1.8-.16s.3,0,.3.22a4.72,4.72,0,0,1-.19.94h-2.64v5.48c0,.66-.11,1.79-.17,2.33,0,.14-.05.24-.18.27a2.87,2.87,0,0,1-.94,0Z" transform="translate(-3.84 -20.72)"/><polyline class="cls-4" points="156.2 92.94 168.96 92.94 165.31 89.29"/><path class="cls-3" d="M176.12,77.78a55.26,55.26,0,0,0,6.35-7.64,20.9,20.9,0,0,0,3.34-10.67h-9.69V37.71h24.56V55.59a28.36,28.36,0,0,1-5.06,15.84A41.42,41.42,0,0,1,182.37,84Z" transform="translate(-3.84 -20.72)"/><path class="cls-3" d="M213.6,77.78A55.32,55.32,0,0,0,220,70.14a20.9,20.9,0,0,0,3.34-10.67h-9.7V37.71h24.56V55.59a28.36,28.36,0,0,1-5.06,15.84A41.42,41.42,0,0,1,219.85,84Z" transform="translate(-3.84 -20.72)"/></svg>