<svg id="Layer_1" data-name="Layer 1" xmlns="http://www.w3.org/2000/svg" viewBox="0 0 242 230"><defs><style>.cls-1{fill:#fff;stroke-miterlimit:10;stroke-width:3px;}.cls-1,.cls-4{stroke:#010101;}.cls-2{font-size:15.25px;font-family:RIDIBatang-KSCpc-EUC-H, RIDIBatang;}.cls-2,.cls-3{fill:#010101;}.cls-4{fill:none;stroke-linecap:round;stroke-linejoin:round;stroke-width:0.75px;}</style></defs><circle class="cls-1" cx="109.26" cy="115" r="89"/><text class="cls-2" transform="translate(87.55 97.11)">너에게<tspan x="-6.73" y="21.79">필요한건</tspan><tspan x="-0.98" y="43.57">‘ 우리 ’</tspan></text><path class="cls-3" d="M162.19,80.07a52.82,52.82,0,0,0,6.1-7.34,20.06,20.06,0,0,0,3.21-10.24h-9.31V41.61h23.58V58.77A27.26,27.26,0,0,1,180.91,74a39.74,39.74,0,0,1-12.72,12.1Z"/><path class="cls-3" d="M198.17,80.07a53.53,53.53,0,0,0,6.1-7.34,20.06,20.06,0,0,0,3.21-10.24h-9.31V41.61h23.57V58.77A27.25,27.25,0,0,1,216.89,74a39.94,39.94,0,0,1-12.72,12.1Z"/><polyline class="cls-4" points="146.75 114.5 159 114.5 155.5 111"/></svg>