<svg id="Layer_1" data-name="Layer 1" xmlns="http://www.w3.org/2000/svg" viewBox="0 0 202.98 181"><defs><style>.cls-1{fill:#fff;stroke-miterlimit:10;stroke-width:3px;}.cls-1,.cls-4{stroke:#010101;}.cls-2{isolation:isolate;}.cls-3{fill:#010101;}.cls-4{fill:none;stroke-linecap:round;stroke-linejoin:round;stroke-width:0.75px;}</style></defs><circle class="cls-1" cx="90.5" cy="90.5" r="89"/><g class="cls-2"><g class="cls-2"><path class="cls-3" d="M86.39,92.75a39.65,39.65,0,0,1-7.74,1.15c-.64,0-.85-.32-.85-.93v-4.9c0-.23,0-.36-.17-.45a2,2,0,0,0-.86-.31,3.17,3.17,0,0,1,.17-.5.18.18,0,0,1,.17-.09,6.53,6.53,0,0,1,1.71.3c.16.06.23.14.23.26v5.5a37,37,0,0,0,7.34-1V85.88c0-.23-.07-.29-.26-.43a3,3,0,0,0-1-.41,2.82,2.82,0,0,1,.2-.55.18.18,0,0,1,.17-.09,7.64,7.64,0,0,1,2,.37c.17.06.23.12.23.24v5.26h.76c.59,0,1.57-.15,1.72-.15s.29,0,.29.21a4.18,4.18,0,0,1-.18.9H87.63v5.26c0,.64-.11,1.72-.17,2.24,0,.14,0,.23-.17.26a3,3,0,0,1-.9,0Z" transform="translate(-18.76 -23.71)"/><path class="cls-3" d="M96.11,94.57c-.07-.08-.3-.42-.43-.63,2-1.31,4.81-3.93,5.77-6.32H98.52a3,3,0,0,0-1.11.21,3.73,3.73,0,0,1-1-.67.22.22,0,0,1-.08-.14,1.77,1.77,0,0,1,.23-.52,10.27,10.27,0,0,0,1.84.09h2.88c.39,0,1-.06,1.33-.06s.41.25.32.6a9.34,9.34,0,0,1-1.74,3.18c1.16,1.28,1.8,2,3,3.14a.22.22,0,0,1,0,.32,5.94,5.94,0,0,1-.78.72c-1.11-1.4-1.74-2.16-2.81-3.43a16.38,16.38,0,0,1-4.13,3.52A.27.27,0,0,1,96.11,94.57Zm9.28-8.69c0-.23-.07-.29-.25-.43a3.2,3.2,0,0,0-1.06-.41,2.82,2.82,0,0,1,.2-.55.18.18,0,0,1,.17-.09,7.64,7.64,0,0,1,2,.37c.17.06.23.12.23.24v5.26h.7c.6,0,1.57-.15,1.72-.15s.29,0,.29.21a4.18,4.18,0,0,1-.18.9h-2.53v5.26c0,.64-.11,1.72-.17,2.24,0,.14,0,.23-.17.26a3,3,0,0,1-.9,0Z" transform="translate(-18.76 -23.71)"/><path class="cls-3" d="M110.06,92.43c1.53-1.25,4.24-4.4,4.24-5.47,0-.34-.49-.61-1-.82a2.45,2.45,0,0,1,.31-.46.13.13,0,0,1,.12-.06,5.31,5.31,0,0,1,1.92.7.44.44,0,0,1,.17.4,4.11,4.11,0,0,1-.84,1.84c1.16,1.1,2.27,2.15,3.38,3.16.12.1.11.21,0,.32s-.53.51-.76.71l-3.17-3.43A22,22,0,0,1,111,93a.25.25,0,0,1-.34,0C110.49,92.89,110.25,92.63,110.06,92.43ZM114,97.57V95.1c0-.23,0-.33-.17-.43a1.73,1.73,0,0,0-.85-.27,1.62,1.62,0,0,1,.11-.5.17.17,0,0,1,.17-.1A6.77,6.77,0,0,1,115,94c.17.06.23.13.23.26v3.21h4.52c.58,0,1.74-.16,1.89-.16s.29,0,.29.21a4.35,4.35,0,0,1-.16,1h-6.92C114.2,98.5,114,98.18,114,97.57Zm6.12-11.72c0-.23-.08-.29-.26-.43a3.2,3.2,0,0,0-1.06-.41,2.46,2.46,0,0,1,.2-.52.18.18,0,0,1,.17-.09,7.64,7.64,0,0,1,1.95.37c.17.06.23.12.23.24v7.68c0,.64-.11,1.72-.17,2.24,0,.14,0,.23-.17.26a2.85,2.85,0,0,1-.89,0Z" transform="translate(-18.76 -23.71)"/><path class="cls-3" d="M123.79,91.64a.31.31,0,0,1-.09-.18A1.46,1.46,0,0,1,124,91a14.78,14.78,0,0,0,2.72.16h7.86c1.18,0,2.43-.13,2.62-.13s.29,0,.29.21a4.87,4.87,0,0,1-.18,1c-.72,0-1.58-.08-2.36-.08h-8a6.17,6.17,0,0,0-1.7.32A3.61,3.61,0,0,1,123.79,91.64ZM127,98V96.72c0-.45-.36-.58-.75-.67,0-.14.13-.6.32-.6s.83,0,1.19,0h6V94.2h-5.1a3.86,3.86,0,0,0-1.25.17,3.46,3.46,0,0,1-1.1-.69s-.08-.07-.08-.13.17-.31.26-.43a7.58,7.58,0,0,0,1.95.14h4.43c.38,0,1.37-.07,1.75-.07s.38.11.38.42v2.57c0,.17-.08.26-.2.26h-6.55v1.37h5.12c.58,0,1.74-.12,1.89-.12s.29,0,.29.21a3.91,3.91,0,0,1-.17.89h-7.7C127.28,98.79,127,98.55,127,98Zm.14-10.49c0-1.36,1.26-2.74,3.57-2.74s3.56,1.38,3.56,2.74-1.26,2.74-3.56,2.74S127.16,88.84,127.16,87.48Zm5.9,0c0-.89-.78-1.74-2.33-1.74s-2.34.85-2.34,1.74.78,1.74,2.34,1.74S133.06,88.36,133.06,87.48Z" transform="translate(-18.76 -23.71)"/></g><g class="cls-2"><path class="cls-3" d="M88,116.84a.28.28,0,0,1-.09-.18,1.43,1.43,0,0,1,.28-.47,14.59,14.59,0,0,0,2.71.17h7.87c1.17,0,2.42-.14,2.62-.14s.29,0,.29.21a4.37,4.37,0,0,1-.19,1c-.71,0-1.58-.07-2.36-.07h-8a5.88,5.88,0,0,0-1.71.32A3.78,3.78,0,0,1,88,116.84Zm1.7-3.21a19.81,19.81,0,0,0,5.22-5.08c.16-.33-.3-.62-.83-.84.09-.16.18-.33.25-.44a.19.19,0,0,1,.13-.07,5.18,5.18,0,0,1,1.93.65.44.44,0,0,1,.19.37.54.54,0,0,1-.1.33,10.43,10.43,0,0,1-1,1.42c1.47,1.08,2.9,2.12,4.48,3.2a.18.18,0,0,1,0,.26,3,3,0,0,1-.89.7c-1.42-1.2-2.79-2.32-4.24-3.46a21.57,21.57,0,0,1-4.33,3.63.26.26,0,0,1-.28,0A2.11,2.11,0,0,1,89.65,113.63Z" transform="translate(-18.76 -23.71)"/><path class="cls-3" d="M102.32,116.84a.28.28,0,0,1-.09-.18,1.57,1.57,0,0,1,.27-.47,14.7,14.7,0,0,0,2.72.17h7.86c1.17,0,2.42-.14,2.62-.14s.29,0,.29.21a4.89,4.89,0,0,1-.18,1c-.72,0-1.59-.07-2.36-.07h-8a5.76,5.76,0,0,0-1.7.32A3.7,3.7,0,0,1,102.32,116.84Zm1.69-3.21a19.87,19.87,0,0,0,5.23-5.08c.15-.33-.31-.62-.84-.84.09-.16.18-.33.26-.44a.17.17,0,0,1,.12-.07,5.16,5.16,0,0,1,1.94.65.46.46,0,0,1,.18.37.6.6,0,0,1-.09.33,11.35,11.35,0,0,1-1,1.42c1.46,1.08,2.89,2.12,4.48,3.2a.19.19,0,0,1,0,.26,3,3,0,0,1-.9.7c-1.42-1.2-2.79-2.32-4.24-3.46a21.3,21.3,0,0,1-4.33,3.63.25.25,0,0,1-.27,0A2.13,2.13,0,0,1,104,113.63Z" transform="translate(-18.76 -23.71)"/><path class="cls-3" d="M116.68,117.15a.31.31,0,0,1-.09-.18,1.46,1.46,0,0,1,.28-.48,13.77,13.77,0,0,0,2.71.17H123v-2.25h-2.7c-.41,0-.67-.25-.67-.83v-1.81c0-.44-.36-.58-.74-.67,0-.14.12-.66.32-.66.36,0,1.09.11,1.49.11h5.65v-1.77h-5a4.08,4.08,0,0,0-1.25.2,3.5,3.5,0,0,1-1.1-.72.19.19,0,0,1-.07-.13,1.5,1.5,0,0,1,.25-.51,9.36,9.36,0,0,0,2,.14h4.33c.38,0,1.37-.06,1.75-.06s.38.11.38.41v3.19c0,.16-.08.26-.2.26h-6.52v1.82h5c.58,0,1.73-.12,1.89-.12s.29,0,.29.22a4.41,4.41,0,0,1-.17.93h-3.64v2.25h3.17c1.17,0,2.42-.14,2.62-.14s.29,0,.29.22a4.57,4.57,0,0,1-.19,1c-.71,0-1.58-.08-2.36-.08h-8a6.24,6.24,0,0,0-1.71.32A3.76,3.76,0,0,1,116.68,117.15Z" transform="translate(-18.76 -23.71)"/></g><g class="cls-2"><path class="cls-3" d="M80.69,138.62a.28.28,0,0,1-.09-.18,1.43,1.43,0,0,1,.28-.47,14.59,14.59,0,0,0,2.71.17h7.87c1.17,0,2.42-.14,2.62-.14s.29,0,.29.21a4.47,4.47,0,0,1-.19,1c-.71,0-1.58-.07-2.36-.07h-8a6.24,6.24,0,0,0-1.71.32A3.65,3.65,0,0,1,80.69,138.62Zm2.89-4v-3.75c0-.47-.43-.61-.89-.67,0-.15.08-.65.34-.65s1.26.1,1.67.1h5.17c.43,0,1.52-.12,1.69-.12s.26,0,.26.18a3.82,3.82,0,0,1-.17,1H84.83v3.86h5c.57,0,1.73-.17,1.89-.17s.29,0,.29.22a4.61,4.61,0,0,1-.17,1H84.43C83.79,135.59,83.58,135.27,83.58,134.66Z" transform="translate(-18.76 -23.71)"/><path class="cls-3" d="M96.2,137.21v-2.59c0-.45-.36-.58-.74-.68,0-.13.12-.65.32-.65.36,0,1.09.11,1.49.11h3.32v-2.29H97.76a3.36,3.36,0,0,0-1.12.21,3.66,3.66,0,0,1-1-.67.19.19,0,0,1-.07-.14,1.72,1.72,0,0,1,.23-.51,11.29,11.29,0,0,0,1.84.09h2c.38,0,1.38-.06,1.76-.06s.38.1.38.41v3.72c0,.17-.08.26-.2.26H97.44v2.67a34,34,0,0,0,6.09-.72,2.47,2.47,0,0,1,.17.7c0,.11,0,.18-.15.21a35,35,0,0,1-6.49.86C96.42,138.14,96.2,137.82,96.2,137.21Zm9.22-2.88H102.7a3.73,3.73,0,0,1-.19-.9c0-.19.08-.22.29-.22s1.13.11,1.73.11h.89v-3.87c0-.23-.07-.29-.25-.43a3.2,3.2,0,0,0-1.06-.41,2.82,2.82,0,0,1,.2-.55.18.18,0,0,1,.17-.09,7.64,7.64,0,0,1,2,.37c.17.06.23.12.23.24v11.48c0,.64-.11,1.72-.17,2.24,0,.14,0,.23-.17.26a3,3,0,0,1-.9,0Z" transform="translate(-18.76 -23.71)"/><path class="cls-3" d="M120.12,134.51H118v5.09a21.69,21.69,0,0,1-.14,2.24c0,.14,0,.23-.16.26a2.73,2.73,0,0,1-.87,0v-5.49a20.9,20.9,0,0,1-5.58.91c-.64,0-.85-.32-.85-.93v-5c0-.41-.34-.61-1-.75a1.93,1.93,0,0,1,.17-.5.16.16,0,0,1,.17-.09,6.16,6.16,0,0,1,1.61.3c.17.06.23.14.23.26v5.58a18.63,18.63,0,0,0,5.2-.75v-5.42c0-.25,0-.37-.2-.46a3.66,3.66,0,0,0-.87-.32,2.24,2.24,0,0,1,.2-.5.2.2,0,0,1,.18-.1,6.77,6.77,0,0,1,1.63.26c.17.06.23.14.23.26v4.12h2.1v-4.07a.5.5,0,0,0-.24-.46,2.62,2.62,0,0,0-1-.4,2.13,2.13,0,0,1,.19-.53.18.18,0,0,1,.17-.09,7,7,0,0,1,1.86.35c.17.06.23.12.23.24v11.5c0,.64-.08,1.72-.14,2.24,0,.14,0,.23-.17.26a3,3,0,0,1-.9,0Z" transform="translate(-18.76 -23.71)"/><path class="cls-3" d="M133.82,136.31a41.83,41.83,0,0,1-8,1.16c-.64,0-.86-.32-.86-.93v-5.06c0-.42-.33-.61-.74-.71,0-.13.07-.64.27-.64.37,0,1.16.11,1.56.11h3.29c.43,0,1.52-.12,1.69-.12s.26,0,.26.18a4.56,4.56,0,0,1-.17,1h-4.92v5.08a39.5,39.5,0,0,0,7.65-1v-5.94c0-.23-.08-.29-.26-.43a3,3,0,0,0-1.05-.41,2.29,2.29,0,0,1,.2-.55.16.16,0,0,1,.17-.09,7.72,7.72,0,0,1,2,.37c.16.06.22.12.22.24v5.26h.71c.59,0,1.57-.15,1.72-.15s.29,0,.29.21a3.73,3.73,0,0,1-.19.9h-2.53v5.26c0,.64-.1,1.72-.16,2.24,0,.14,0,.23-.17.26a3,3,0,0,1-.9,0Z" transform="translate(-18.76 -23.71)"/></g></g><polyline class="cls-4" points="127.99 90 140.24 90 136.74 86.5"/><path class="cls-3" d="M162.19,79.28a53.51,53.51,0,0,0,6.1-7.34A20.07,20.07,0,0,0,171.5,61.7h-9.31V40.81h23.58V58a27.28,27.28,0,0,1-4.86,15.2,39.61,39.61,0,0,1-12.72,12.09Z" transform="translate(-18.76 -23.71)"/><path class="cls-3" d="M198.17,79.28a53.51,53.51,0,0,0,6.1-7.34,20.07,20.07,0,0,0,3.21-10.24h-9.31V40.81h23.57V58a27.19,27.19,0,0,1-4.85,15.2,39.71,39.71,0,0,1-12.72,12.09Z" transform="translate(-18.76 -23.71)"/></svg>